<svg width="948" height="1918" viewBox="0 0 948 1918" fill="none" xmlns="http://www.w3.org/2000/svg">
<rect width="948" height="1918" fill="#F4F7FA"/>
<path d="M328.666 187.054L303.003 162.954" stroke="#DEC2FF" stroke-opacity="0.5" stroke-miterlimit="10"/>
<path d="M303.794 187.863L327.875 162.145" stroke="#DEC2FF" stroke-opacity="0.5" stroke-miterlimit="10"/>
<path d="M358.165 556.882L332.486 532.765" stroke="#DEC2FF" stroke-opacity="0.5" stroke-miterlimit="10"/>
<path d="M333.293 557.674L357.357 531.973" stroke="#DEC2FF" stroke-opacity="0.5" stroke-miterlimit="10"/>
<path d="M45.8559 763.502L20.1934 739.385" stroke="#DEC2FF" stroke-opacity="0.5" stroke-miterlimit="10"/>
<path d="M20.9846 764.294L45.0485 738.593" stroke="#DEC2FF" stroke-opacity="0.5" stroke-miterlimit="10"/>
<path d="M34.6486 151.865L8.98608 127.764" stroke="#DEC2FF" stroke-opacity="0.5" stroke-miterlimit="10"/>
<path d="M9.7771 152.674L33.841 126.972" stroke="#DEC2FF" stroke-opacity="0.5" stroke-miterlimit="10"/>
<path d="M947.428 186.431L921.765 162.314" stroke="#DEC2FF" stroke-opacity="0.5" stroke-miterlimit="10"/>
<path d="M922.556 187.223L946.62 161.521" stroke="#DEC2FF" stroke-opacity="0.5" stroke-miterlimit="10"/>
<path d="M644.626 317.549L618.964 293.449" stroke="#DEC2FF" stroke-opacity="0.5" stroke-miterlimit="10"/>
<path d="M619.755 318.358L643.836 292.657" stroke="#DEC2FF" stroke-opacity="0.5" stroke-miterlimit="10"/>
<path d="M769.759 603.734L744.096 579.633" stroke="#DEC2FF" stroke-opacity="0.5" stroke-miterlimit="10"/>
<path d="M744.887 604.543L768.968 578.841" stroke="#DEC2FF" stroke-opacity="0.5" stroke-miterlimit="10"/>
<path d="M749.834 836.864L724.172 812.764" stroke="#DEC2FF" stroke-opacity="0.5" stroke-miterlimit="10"/>
<path d="M724.963 837.673L749.027 811.972" stroke="#DEC2FF" stroke-opacity="0.5" stroke-miterlimit="10"/>
<path d="M519.393 225.648L501.724 195.026L484.105 225.665L466.469 256.287L501.774 256.254L537.062 256.237L519.393 225.648Z" stroke="#DEC2FF" stroke-opacity="0.5" stroke-miterlimit="10"/>
<path d="M460.984 599.79L443.297 569.184L425.679 599.807L408.06 630.429L443.348 630.412L478.653 630.395L460.984 599.79Z" stroke="#DEC2FF" stroke-opacity="0.5" stroke-miterlimit="10"/>
<path d="M663.491 714.679L645.821 684.073L628.203 714.695L610.567 745.335L645.855 745.301L681.16 745.284L663.491 714.679Z" stroke="#DEC2FF" stroke-opacity="0.5" stroke-miterlimit="10"/>
<path d="M779.973 479.694L789.094 445.532L755.001 454.717L720.907 463.886L745.88 488.862L770.853 513.855L779.973 479.694Z" stroke="#DEC2FF" stroke-opacity="0.5" stroke-miterlimit="10"/>
<path d="M199.529 83.1538L208.649 48.9923L174.573 58.1773L140.463 67.3455L165.452 92.322L190.425 117.315L199.529 83.1538Z" stroke="#DEC2FF" stroke-opacity="0.5" stroke-miterlimit="10"/>
<path d="M175.364 821.174L184.484 787.012L150.391 796.197L116.298 805.366L141.27 830.342L166.243 855.336L175.364 821.174Z" stroke="#DEC2FF" stroke-opacity="0.5" stroke-miterlimit="10"/>
<path d="M815.733 121.309L846.292 103.614L815.716 85.9682L785.123 68.306L785.156 103.664L785.173 139.005L815.733 121.309Z" stroke="#DEC2FF" stroke-opacity="0.5" stroke-miterlimit="10"/>
<path d="M174.573 474.469L205.149 456.773L174.556 439.128L143.979 421.466L144.013 456.824L144.03 492.165L174.573 474.469Z" stroke="#DEC2FF" stroke-opacity="0.5" stroke-miterlimit="10"/>
<path d="M579.099 416.595C579.102 421.903 577.534 427.092 574.592 431.506C571.65 435.92 567.467 439.362 562.572 441.395C557.677 443.429 552.29 443.962 547.092 442.929C541.895 441.896 537.119 439.342 533.371 435.59C529.623 431.838 527.07 427.058 526.035 421.853C525 416.648 525.529 411.252 527.556 406.348C529.583 401.445 533.017 397.254 537.423 394.305C541.829 391.356 547.009 389.782 552.309 389.782C555.826 389.78 559.309 390.471 562.559 391.818C565.81 393.164 568.763 395.139 571.251 397.629C573.739 400.119 575.712 403.076 577.059 406.33C578.405 409.585 579.099 413.073 579.099 416.595Z" stroke="#DEC2FF" stroke-opacity="0.5" stroke-miterlimit="10"/>
<path d="M443.735 117.315C443.732 122.618 442.158 127.8 439.215 132.208C436.271 136.615 432.088 140.049 427.196 142.076C422.303 144.103 416.921 144.631 411.728 143.595C406.536 142.558 401.767 140.003 398.024 136.253C394.282 132.502 391.733 127.724 390.702 122.523C389.67 117.322 390.201 111.932 392.228 107.034C394.255 102.135 397.687 97.9483 402.089 95.0027C406.491 92.0571 411.667 90.485 416.962 90.485C420.479 90.485 423.962 91.1791 427.211 92.5276C430.461 93.8762 433.413 95.8528 435.899 98.3444C438.385 100.836 440.357 103.794 441.702 107.049C443.046 110.304 443.737 113.793 443.735 117.315V117.315Z" stroke="#DEC2FF" stroke-opacity="0.5" stroke-miterlimit="10"/>
<path d="M460.832 908.828C460.832 914.135 459.261 919.323 456.316 923.736C453.372 928.148 449.187 931.587 444.29 933.617C439.394 935.648 434.007 936.178 428.81 935.141C423.612 934.105 418.839 931.548 415.093 927.794C411.347 924.04 408.797 919.258 407.765 914.052C406.733 908.846 407.266 903.451 409.296 898.549C411.327 893.646 414.763 889.457 419.171 886.511C423.579 883.565 428.76 881.994 434.059 881.998C437.576 881.998 441.059 882.692 444.309 884.04C447.558 885.389 450.51 887.365 452.997 889.857C455.483 892.349 457.455 895.307 458.799 898.562C460.144 901.817 460.835 905.305 460.832 908.828V908.828Z" stroke="#DEC2FF" stroke-opacity="0.5" stroke-miterlimit="10"/>
<path d="M532.452 868.734C532.627 861.737 535.525 855.085 540.529 850.198C545.532 845.311 552.244 842.576 559.233 842.576C566.222 842.576 572.934 845.311 577.938 850.198C582.941 855.085 585.84 861.737 586.015 868.734" stroke="#DEC2FF" stroke-opacity="0.5" stroke-miterlimit="10"/>
<path d="M318.721 456.824C318.631 453.245 319.257 449.685 320.563 446.352C321.869 443.019 323.827 439.982 326.323 437.419C328.819 434.856 331.801 432.819 335.095 431.429C338.389 430.038 341.928 429.321 345.502 429.321C349.077 429.321 352.615 430.038 355.909 431.429C359.203 432.819 362.186 434.856 364.682 437.419C367.177 439.982 369.136 443.019 370.441 446.352C371.747 449.685 372.373 453.245 372.284 456.824" stroke="#DEC2FF" stroke-opacity="0.5" stroke-miterlimit="10"/>
<path d="M36.9878 239.063C36.9878 231.983 39.7961 225.193 44.795 220.187C49.7938 215.18 56.5738 212.368 63.6432 212.368C70.7127 212.368 77.4926 215.18 82.4914 220.187C87.4903 225.193 90.2986 231.983 90.2986 239.063" stroke="#DEC2FF" stroke-opacity="0.5" stroke-miterlimit="10"/>
<path d="M712.039 283.067C704.97 283.067 698.19 280.254 693.191 275.248C688.192 270.242 685.384 263.451 685.384 256.371C685.384 249.291 688.192 242.501 693.191 237.495C698.19 232.488 704.97 229.676 712.039 229.676" stroke="#DEC2FF" stroke-opacity="0.5" stroke-miterlimit="10"/>
<path d="M67.1769 908.693C63.6765 908.693 60.2103 908.003 56.9763 906.661C53.7423 905.32 50.8039 903.353 48.3287 900.874C45.8535 898.395 43.8901 895.452 42.5505 892.214C41.2109 888.975 40.5215 885.503 40.5215 881.998C40.5215 878.492 41.2109 875.02 42.5505 871.782C43.8901 868.543 45.8535 865.6 48.3287 863.121C50.8039 860.642 53.7423 858.676 56.9763 857.334C60.2103 855.992 63.6765 855.302 67.1769 855.302" stroke="#DEC2FF" stroke-opacity="0.5" stroke-miterlimit="10"/>
<path d="M354.53 55.7675C347.461 55.7675 340.681 52.9549 335.682 47.9485C330.683 42.9421 327.875 36.152 327.875 29.0719C327.875 21.9918 330.683 15.2017 335.682 10.1953C340.681 5.18896 347.461 2.3764 354.53 2.3764" stroke="#DEC2FF" stroke-opacity="0.5" stroke-miterlimit="10"/>
<path d="M80.572 626.62C80.5753 631.927 79.007 637.116 76.0653 641.531C73.1235 645.945 68.9407 649.387 64.0457 651.42C59.1508 653.454 53.7637 653.987 48.5658 652.954C43.368 651.921 38.5929 649.367 34.8445 645.615C31.0962 641.863 28.543 637.083 27.5079 631.878C26.4729 626.673 27.0024 621.277 29.0296 616.373C31.0568 611.47 34.4905 607.278 38.8965 604.33C43.3024 601.381 48.4827 599.807 53.782 599.807C60.8842 599.807 67.6958 602.631 72.7194 607.659C77.743 612.687 80.5675 619.507 80.572 626.62V626.62Z" stroke="#DEC2FF" stroke-opacity="0.5" stroke-miterlimit="10"/>
<path d="M906.351 657.209C906.351 662.516 904.779 667.704 901.835 672.117C898.89 676.529 894.705 679.968 889.809 681.999C884.913 684.029 879.526 684.559 874.328 683.523C869.131 682.486 864.358 679.929 860.612 676.175C856.866 672.421 854.316 667.639 853.284 662.433C852.252 657.227 852.785 651.832 854.815 646.93C856.845 642.028 860.282 637.838 864.689 634.892C869.097 631.946 874.279 630.375 879.578 630.379C886.68 630.383 893.49 633.212 898.51 638.243C903.531 643.274 906.351 650.096 906.351 657.209V657.209Z" stroke="#DEC2FF" stroke-opacity="0.5" stroke-miterlimit="10"/>
<path d="M885.552 229.609H832.292V282.949H885.552V229.609Z" stroke="#DEC2FF" stroke-opacity="0.5" stroke-miterlimit="10"/>
<path d="M283.281 256.287H230.021V309.628H283.281V256.287Z" stroke="#DEC2FF" stroke-opacity="0.5" stroke-miterlimit="10"/>
<path d="M280.622 596.874H227.362V650.215H280.622V596.874Z" stroke="#DEC2FF" stroke-opacity="0.5" stroke-miterlimit="10"/>
<path d="M885.552 855.336H832.292V908.676H885.552V855.336Z" stroke="#DEC2FF" stroke-opacity="0.5" stroke-miterlimit="10"/>
<path d="M664.585 2.39325H611.324V55.7338H664.585V2.39325Z" stroke="#DEC2FF" stroke-opacity="0.5" stroke-miterlimit="10"/>
<path d="M534.774 544.832C523.146 544.832 525.148 524.17 510.306 524.17" stroke="#DEC2FF" stroke-opacity="0.5" stroke-miterlimit="10"/>
<path d="M583.693 544.832C572.065 544.832 574.067 524.17 559.242 524.17" stroke="#DEC2FF" stroke-opacity="0.5" stroke-miterlimit="10"/>
<path d="M534.774 544.832C546.402 544.832 544.4 524.17 559.242 524.17" stroke="#DEC2FF" stroke-opacity="0.5" stroke-miterlimit="10"/>
<path d="M583.693 544.832C595.321 544.832 593.318 524.17 608.161 524.17" stroke="#DEC2FF" stroke-opacity="0.5" stroke-miterlimit="10"/>
<path d="M674.143 929.473C662.515 929.473 664.517 908.828 649.675 908.828" stroke="#DEC2FF" stroke-opacity="0.5" stroke-miterlimit="10"/>
<path d="M723.061 929.473C711.433 929.473 713.436 908.828 698.594 908.828" stroke="#DEC2FF" stroke-opacity="0.5" stroke-miterlimit="10"/>
<path d="M674.143 929.473C685.771 929.473 683.768 908.828 698.594 908.828" stroke="#DEC2FF" stroke-opacity="0.5" stroke-miterlimit="10"/>
<path d="M723.062 929.473C734.69 929.473 732.687 908.828 747.513 908.828" stroke="#DEC2FF" stroke-opacity="0.5" stroke-miterlimit="10"/>
<path d="M740.849 374.934C729.221 374.934 731.223 354.289 716.381 354.289" stroke="#DEC2FF" stroke-opacity="0.5" stroke-miterlimit="10"/>
<path d="M789.767 374.934C778.139 374.934 780.142 354.289 765.316 354.289" stroke="#DEC2FF" stroke-opacity="0.5" stroke-miterlimit="10"/>
<path d="M740.849 374.934C752.477 374.934 750.474 354.289 765.316 354.289" stroke="#DEC2FF" stroke-opacity="0.5" stroke-miterlimit="10"/>
<path d="M789.767 374.934C801.395 374.934 799.393 354.289 814.235 354.289" stroke="#DEC2FF" stroke-opacity="0.5" stroke-miterlimit="10"/>
<path d="M60.53 349.974C48.9019 349.974 50.9045 329.329 36.0623 329.329" stroke="#DEC2FF" stroke-opacity="0.5" stroke-miterlimit="10"/>
<path d="M109.449 349.974C97.8207 349.974 99.8232 329.329 84.981 329.329" stroke="#DEC2FF" stroke-opacity="0.5" stroke-miterlimit="10"/>
<path d="M60.53 349.974C72.1581 349.974 70.1556 329.329 84.981 329.329" stroke="#DEC2FF" stroke-opacity="0.5" stroke-miterlimit="10"/>
<path d="M109.449 349.974C121.077 349.974 119.074 329.329 133.917 329.329" stroke="#DEC2FF" stroke-opacity="0.5" stroke-miterlimit="10"/>
<path d="M538.813 73.4971C538.813 85.1427 518.198 83.1371 518.198 97.9848" stroke="#DEC2FF" stroke-opacity="0.5" stroke-miterlimit="10"/>
<path d="M538.813 24.5047C538.813 36.1503 518.198 34.1279 518.198 48.9925" stroke="#DEC2FF" stroke-opacity="0.5" stroke-miterlimit="10"/>
<path d="M538.813 73.4969C538.813 61.8513 518.198 63.8569 518.198 48.9923" stroke="#DEC2FF" stroke-opacity="0.5" stroke-miterlimit="10"/>
<path d="M538.813 24.5046C538.813 12.859 518.198 14.8646 518.198 0" stroke="#DEC2FF" stroke-opacity="0.5" stroke-miterlimit="10"/>
<path d="M388.809 329.784C388.809 341.43 368.195 339.424 368.195 354.289" stroke="#DEC2FF" stroke-opacity="0.5" stroke-miterlimit="10"/>
<path d="M388.809 280.792C388.809 292.438 368.195 290.432 368.195 305.28" stroke="#DEC2FF" stroke-opacity="0.5" stroke-miterlimit="10"/>
<path d="M388.809 329.784C388.809 318.139 368.195 320.144 368.195 305.28" stroke="#DEC2FF" stroke-opacity="0.5" stroke-miterlimit="10"/>
<path d="M388.809 280.792C388.809 269.146 368.195 271.152 368.195 256.287" stroke="#DEC2FF" stroke-opacity="0.5" stroke-miterlimit="10"/>
<path d="M795.438 739.2C795.438 750.846 774.807 748.84 774.807 763.705" stroke="#DEC2FF" stroke-opacity="0.5" stroke-miterlimit="10"/>
<path d="M795.438 690.208C795.438 701.853 774.807 699.831 774.807 714.695" stroke="#DEC2FF" stroke-opacity="0.5" stroke-miterlimit="10"/>
<path d="M795.438 739.2C795.438 727.555 774.807 729.56 774.807 714.696" stroke="#DEC2FF" stroke-opacity="0.5" stroke-miterlimit="10"/>
<path d="M795.438 690.208C795.438 678.562 774.807 680.568 774.807 665.703" stroke="#DEC2FF" stroke-opacity="0.5" stroke-miterlimit="10"/>
<path d="M290.921 777.811C290.921 789.456 270.307 787.451 270.307 802.298" stroke="#DEC2FF" stroke-opacity="0.5" stroke-miterlimit="10"/>
<path d="M290.921 728.818C290.921 740.464 270.307 738.442 270.307 753.306" stroke="#DEC2FF" stroke-opacity="0.5" stroke-miterlimit="10"/>
<path d="M290.921 777.811C290.921 766.165 270.307 768.171 270.307 753.306" stroke="#DEC2FF" stroke-opacity="0.5" stroke-miterlimit="10"/>
<path d="M290.921 728.818C290.921 717.173 270.307 719.178 270.307 704.314" stroke="#DEC2FF" stroke-opacity="0.5" stroke-miterlimit="10"/>
<path d="M593.403 599.807H653.764" stroke="#DEC2FF" stroke-opacity="0.5" stroke-miterlimit="10"/>
<path d="M0 425.123H60.3617" stroke="#DEC2FF" stroke-opacity="0.5" stroke-miterlimit="10"/>
<path d="M597.912 144.129H658.274" stroke="#DEC2FF" stroke-opacity="0.5" stroke-miterlimit="10"/>
<path d="M835.842 7.7019H896.204" stroke="#DEC2FF" stroke-opacity="0.5" stroke-miterlimit="10"/>
<path d="M240.639 908.693H301.001" stroke="#DEC2FF" stroke-opacity="0.5" stroke-miterlimit="10"/>
<path d="M395.624 791.917L438.3 749.16" stroke="#DEC2FF" stroke-opacity="0.5" stroke-miterlimit="10"/>
<path d="M42.3054 50.4417L84.9978 7.7019" stroke="#DEC2FF" stroke-opacity="0.5" stroke-miterlimit="10"/>
<path d="M866.014 488.643L908.69 445.903" stroke="#DEC2FF" stroke-opacity="0.5" stroke-miterlimit="10"/>
<g opacity="0.3">
<path opacity="0.3" d="M557.794 248.164L540.125 217.542L522.506 248.164L504.871 278.803L540.159 278.77L575.464 278.753L557.794 248.164Z" stroke="#DEC2FF" stroke-opacity="0.5" stroke-miterlimit="10"/>
<path opacity="0.3" d="M499.368 622.306L481.698 591.684L464.08 622.323L446.444 652.945L481.732 652.929L517.037 652.895L499.368 622.306Z" stroke="#DEC2FF" stroke-opacity="0.5" stroke-miterlimit="10"/>
<path opacity="0.3" d="M701.892 737.195L684.222 706.589L666.604 737.211L648.968 767.851L684.256 767.817L719.561 767.8L701.892 737.195Z" stroke="#DEC2FF" stroke-opacity="0.5" stroke-miterlimit="10"/>
<path opacity="0.3" d="M818.358 502.21L827.478 468.048L793.402 477.233L759.309 486.401L784.281 511.378L809.254 536.371L818.358 502.21Z" stroke="#DEC2FF" stroke-opacity="0.5" stroke-miterlimit="10"/>
<path opacity="0.3" d="M237.929 105.67L247.05 71.5083L212.957 80.6933L178.864 89.8615L203.836 114.838L228.809 139.831L237.929 105.67Z" stroke="#DEC2FF" stroke-opacity="0.5" stroke-miterlimit="10"/>
<path opacity="0.3" d="M213.748 843.69L222.869 809.529L188.792 818.714L154.699 827.882L179.671 852.858L204.644 877.852L213.748 843.69Z" stroke="#DEC2FF" stroke-opacity="0.5" stroke-miterlimit="10"/>
<path opacity="0.3" d="M854.134 143.825L884.693 126.13L854.117 108.484L823.524 90.822L823.558 126.163L823.574 161.521L854.134 143.825Z" stroke="#DEC2FF" stroke-opacity="0.5" stroke-miterlimit="10"/>
<path opacity="0.3" d="M212.974 496.985L243.533 479.289L212.957 461.644L182.364 443.982L182.398 479.34L182.414 514.681L212.974 496.985Z" stroke="#DEC2FF" stroke-opacity="0.5" stroke-miterlimit="10"/>
<path opacity="0.3" d="M617.433 439.111C617.429 444.414 615.856 449.596 612.912 454.003C609.968 458.411 605.786 461.845 600.893 463.872C596.001 465.899 590.618 466.427 585.426 465.391C580.234 464.354 575.465 461.799 571.722 458.048C567.979 454.298 565.431 449.52 564.399 444.319C563.368 439.118 563.899 433.728 565.926 428.829C567.953 423.931 571.384 419.744 575.787 416.799C580.189 413.853 585.365 412.281 590.659 412.281C594.177 412.281 597.66 412.975 600.909 414.324C604.158 415.672 607.11 417.649 609.597 420.14C612.083 422.632 614.055 425.59 615.399 428.845C616.744 432.1 617.435 435.589 617.433 439.111V439.111Z" stroke="#DEC2FF" stroke-opacity="0.5" stroke-miterlimit="10"/>
<path opacity="0.3" d="M482.136 139.815C482.14 145.123 480.571 150.312 477.628 154.727C474.686 159.142 470.502 162.583 465.606 164.616C460.71 166.649 455.322 167.182 450.124 166.147C444.926 165.112 440.15 162.557 436.403 158.803C432.655 155.05 430.103 150.268 429.07 145.062C428.037 139.855 428.569 134.459 430.599 129.556C432.628 124.653 436.065 120.463 440.473 117.516C444.881 114.569 450.063 112.998 455.363 113.001C462.462 113.006 469.27 115.832 474.29 120.859C479.31 125.887 482.132 132.705 482.136 139.815V139.815Z" stroke="#DEC2FF" stroke-opacity="0.5" stroke-miterlimit="10"/>
<path opacity="0.3" d="M499.233 931.344C499.233 936.65 497.662 941.838 494.718 946.25C491.775 950.662 487.591 954.101 482.695 956.132C477.8 958.163 472.414 958.694 467.217 957.659C462.02 956.623 457.247 954.068 453.5 950.316C449.753 946.563 447.202 941.783 446.168 936.578C445.134 931.373 445.665 925.979 447.693 921.076C449.72 916.174 453.154 911.983 457.56 909.035C461.965 906.087 467.145 904.513 472.443 904.513C475.962 904.511 479.447 905.204 482.698 906.551C485.949 907.899 488.904 909.875 491.392 912.367C493.88 914.859 495.853 917.817 497.199 921.074C498.544 924.33 499.236 927.82 499.233 931.344V931.344Z" stroke="#DEC2FF" stroke-opacity="0.5" stroke-miterlimit="10"/>
<path opacity="0.3" d="M570.853 891.25C570.853 884.138 573.674 877.318 578.695 872.29C583.716 867.261 590.526 864.436 597.626 864.436C604.727 864.436 611.537 867.261 616.558 872.29C621.579 877.318 624.399 884.138 624.399 891.25" stroke="#DEC2FF" stroke-opacity="0.5" stroke-miterlimit="10"/>
<path opacity="0.3" d="M357.105 479.34C357.015 475.761 357.642 472.2 358.947 468.868C360.253 465.535 362.211 462.498 364.707 459.935C367.203 457.372 370.186 455.335 373.479 453.944C376.773 452.554 380.312 451.837 383.886 451.837C387.461 451.837 391 452.554 394.293 453.944C397.587 455.335 400.57 457.372 403.066 459.935C405.562 462.498 407.52 465.535 408.825 468.868C410.131 472.2 410.758 475.761 410.668 479.34" stroke="#DEC2FF" stroke-opacity="0.5" stroke-miterlimit="10"/>
<path opacity="0.3" d="M75.3889 261.579C75.3889 258.074 76.0784 254.602 77.4179 251.363C78.7575 248.124 80.7209 245.182 83.1961 242.703C85.6713 240.224 88.6098 238.257 91.8437 236.916C95.0777 235.574 98.5439 234.884 102.044 234.884C105.545 234.884 109.011 235.574 112.245 236.916C115.479 238.257 118.417 240.224 120.893 242.703C123.368 245.182 125.331 248.124 126.671 251.363C128.01 254.602 128.7 258.074 128.7 261.579" stroke="#DEC2FF" stroke-opacity="0.5" stroke-miterlimit="10"/>
<path opacity="0.3" d="M750.39 305.499C743.32 305.499 736.54 302.686 731.542 297.68C726.543 292.673 723.734 285.883 723.734 278.803C723.734 271.723 726.543 264.933 731.542 259.926C736.54 254.92 743.32 252.108 750.39 252.108" stroke="#DEC2FF" stroke-opacity="0.5" stroke-miterlimit="10"/>
<path opacity="0.3" d="M105.578 931.209C98.5086 931.209 91.7287 928.397 86.7298 923.39C81.7309 918.384 78.9226 911.594 78.9226 904.513C78.9226 897.433 81.7309 890.643 86.7298 885.637C91.7287 880.63 98.5086 877.818 105.578 877.818" stroke="#DEC2FF" stroke-opacity="0.5" stroke-miterlimit="10"/>
<path opacity="0.3" d="M392.931 78.2835C389.431 78.2835 385.965 77.593 382.731 76.2514C379.497 74.9098 376.558 72.9434 374.083 70.4645C371.608 67.9856 369.644 65.0427 368.305 61.8039C366.965 58.565 366.276 55.0936 366.276 51.5879C366.276 48.0822 366.965 44.6108 368.305 41.372C369.644 38.1331 371.608 35.1902 374.083 32.7113C376.558 30.2324 379.497 28.266 382.731 26.9245C385.965 25.5829 389.431 24.8924 392.931 24.8924" stroke="#DEC2FF" stroke-opacity="0.5" stroke-miterlimit="10"/>
<path opacity="0.3" d="M118.956 649.136C118.956 654.439 117.386 659.624 114.444 664.033C111.502 668.443 107.321 671.879 102.429 673.909C97.5366 675.938 92.1534 676.469 86.9599 675.435C81.7664 674.4 76.9959 671.846 73.2516 668.096C69.5073 664.346 66.9574 659.569 65.9244 654.367C64.8913 649.166 65.4215 643.775 67.4479 638.875C69.4743 633.976 72.9059 629.788 77.3087 626.842C81.7115 623.895 86.8879 622.323 92.1831 622.323C99.2838 622.323 106.094 625.148 111.115 630.176C116.136 635.205 118.956 642.025 118.956 649.136V649.136Z" stroke="#DEC2FF" stroke-opacity="0.5" stroke-miterlimit="10"/>
<path opacity="0.3" d="M944.752 679.759C944.755 685.066 943.187 690.255 940.245 694.669C937.304 699.084 933.121 702.525 928.226 704.559C923.331 706.592 917.944 707.126 912.746 706.092C907.548 705.059 902.773 702.505 899.025 698.753C895.276 695.002 892.723 690.221 891.688 685.016C890.653 679.811 891.183 674.415 893.21 669.512C895.237 664.608 898.671 660.417 903.077 657.468C907.483 654.519 912.663 652.945 917.962 652.945C925.064 652.945 931.876 655.77 936.9 660.798C941.923 665.826 944.748 672.646 944.752 679.759V679.759Z" stroke="#DEC2FF" stroke-opacity="0.5" stroke-miterlimit="10"/>
<path opacity="0.3" d="M923.936 252.125H870.676V305.465H923.936V252.125Z" stroke="#DEC2FF" stroke-opacity="0.5" stroke-miterlimit="10"/>
<path opacity="0.3" d="M321.682 278.803H268.422V332.144H321.682V278.803Z" stroke="#DEC2FF" stroke-opacity="0.5" stroke-miterlimit="10"/>
<path opacity="0.3" d="M319.006 619.39H265.746V672.731H319.006V619.39Z" stroke="#DEC2FF" stroke-opacity="0.5" stroke-miterlimit="10"/>
<path opacity="0.3" d="M923.936 877.852H870.676V931.192H923.936V877.852Z" stroke="#DEC2FF" stroke-opacity="0.5" stroke-miterlimit="10"/>
<path opacity="0.3" d="M702.969 24.9092H649.708V78.2497H702.969V24.9092Z" stroke="#DEC2FF" stroke-opacity="0.5" stroke-miterlimit="10"/>
<path opacity="0.3" d="M573.158 567.347C561.53 567.347 563.55 546.685 548.708 546.685" stroke="#DEC2FF" stroke-opacity="0.5" stroke-miterlimit="10"/>
<path opacity="0.3" d="M622.094 567.347C610.466 567.347 612.468 546.685 597.626 546.685" stroke="#DEC2FF" stroke-opacity="0.5" stroke-miterlimit="10"/>
<path opacity="0.3" d="M573.158 567.347C584.786 567.347 582.784 546.685 597.626 546.685" stroke="#DEC2FF" stroke-opacity="0.5" stroke-miterlimit="10"/>
<path opacity="0.3" d="M622.094 567.347C633.705 567.347 631.719 546.685 646.545 546.685" stroke="#DEC2FF" stroke-opacity="0.5" stroke-miterlimit="10"/>
<path opacity="0.3" d="M712.527 951.989C700.899 951.989 702.902 931.344 688.076 931.344" stroke="#DEC2FF" stroke-opacity="0.5" stroke-miterlimit="10"/>
<path opacity="0.3" d="M761.463 951.989C749.818 951.989 751.837 931.344 736.995 931.344" stroke="#DEC2FF" stroke-opacity="0.5" stroke-miterlimit="10"/>
<path opacity="0.3" d="M712.527 951.989C724.155 951.989 722.153 931.344 736.995 931.344" stroke="#DEC2FF" stroke-opacity="0.5" stroke-miterlimit="10"/>
<path opacity="0.3" d="M761.463 951.989C773.074 951.989 771.071 931.344 785.914 931.344" stroke="#DEC2FF" stroke-opacity="0.5" stroke-miterlimit="10"/>
<path opacity="0.3" d="M779.25 397.45C767.621 397.45 769.624 376.805 754.782 376.805" stroke="#DEC2FF" stroke-opacity="0.5" stroke-miterlimit="10"/>
<path opacity="0.3" d="M828.151 397.45C816.523 397.45 818.526 376.805 803.684 376.805" stroke="#DEC2FF" stroke-opacity="0.5" stroke-miterlimit="10"/>
<path opacity="0.3" d="M779.25 397.45C790.878 397.45 788.875 376.805 803.701 376.805" stroke="#DEC2FF" stroke-opacity="0.5" stroke-miterlimit="10"/>
<path opacity="0.3" d="M828.151 397.45C839.779 397.45 837.777 376.805 852.602 376.805" stroke="#DEC2FF" stroke-opacity="0.5" stroke-miterlimit="10"/>
<path opacity="0.3" d="M98.9143 372.49C87.2862 372.49 89.3056 351.845 74.4634 351.845" stroke="#DEC2FF" stroke-opacity="0.5" stroke-miterlimit="10"/>
<path opacity="0.3" d="M147.85 372.49C136.222 372.49 138.224 351.845 123.382 351.845" stroke="#DEC2FF" stroke-opacity="0.5" stroke-miterlimit="10"/>
<path opacity="0.3" d="M98.9141 372.49C110.542 372.49 108.54 351.845 123.382 351.845" stroke="#DEC2FF" stroke-opacity="0.5" stroke-miterlimit="10"/>
<path opacity="0.3" d="M147.85 372.49C159.478 372.49 157.459 351.845 172.301 351.845" stroke="#DEC2FF" stroke-opacity="0.5" stroke-miterlimit="10"/>
<path opacity="0.3" d="M577.214 95.9962C577.214 107.642 556.6 105.636 556.6 120.484" stroke="#DEC2FF" stroke-opacity="0.5" stroke-miterlimit="10"/>
<path opacity="0.3" d="M577.214 47.0207C577.214 58.6663 556.6 56.6439 556.6 71.5084" stroke="#DEC2FF" stroke-opacity="0.5" stroke-miterlimit="10"/>
<path opacity="0.3" d="M577.214 95.9961C577.214 84.3505 556.6 86.3561 556.6 71.4915" stroke="#DEC2FF" stroke-opacity="0.5" stroke-miterlimit="10"/>
<path opacity="0.3" d="M577.214 47.0206C577.214 35.375 556.6 37.3805 556.6 22.516" stroke="#DEC2FF" stroke-opacity="0.5" stroke-miterlimit="10"/>
<path opacity="0.3" d="M427.21 352.3C427.21 363.946 406.596 361.94 406.596 376.805" stroke="#DEC2FF" stroke-opacity="0.5" stroke-miterlimit="10"/>
<path opacity="0.3" d="M427.21 303.291C427.21 314.937 406.596 312.931 406.596 327.779" stroke="#DEC2FF" stroke-opacity="0.5" stroke-miterlimit="10"/>
<path opacity="0.3" d="M427.21 352.3C427.21 340.655 406.596 342.66 406.596 327.796" stroke="#DEC2FF" stroke-opacity="0.5" stroke-miterlimit="10"/>
<path opacity="0.3" d="M427.21 303.291C427.21 291.645 406.596 293.651 406.596 278.786" stroke="#DEC2FF" stroke-opacity="0.5" stroke-miterlimit="10"/>
<path opacity="0.3" d="M833.823 761.699C833.823 773.345 813.208 771.339 813.208 786.187" stroke="#DEC2FF" stroke-opacity="0.5" stroke-miterlimit="10"/>
<path opacity="0.3" d="M833.823 712.723C833.823 724.369 813.208 722.347 813.208 737.211" stroke="#DEC2FF" stroke-opacity="0.5" stroke-miterlimit="10"/>
<path opacity="0.3" d="M833.823 761.699C833.823 750.053 813.208 752.059 813.208 737.194" stroke="#DEC2FF" stroke-opacity="0.5" stroke-miterlimit="10"/>
<path opacity="0.3" d="M833.823 712.724C833.823 701.078 813.208 703.083 813.208 688.219" stroke="#DEC2FF" stroke-opacity="0.5" stroke-miterlimit="10"/>
<path opacity="0.3" d="M329.322 800.327C329.322 811.972 308.691 809.967 308.691 824.814" stroke="#DEC2FF" stroke-opacity="0.5" stroke-miterlimit="10"/>
<path opacity="0.3" d="M329.322 751.334C329.322 762.98 308.691 760.958 308.691 775.822" stroke="#DEC2FF" stroke-opacity="0.5" stroke-miterlimit="10"/>
<path opacity="0.3" d="M329.322 800.327C329.322 788.681 308.691 790.687 308.691 775.822" stroke="#DEC2FF" stroke-opacity="0.5" stroke-miterlimit="10"/>
<path opacity="0.3" d="M329.322 751.334C329.322 739.689 308.691 741.694 308.691 726.83" stroke="#DEC2FF" stroke-opacity="0.5" stroke-miterlimit="10"/>
<path opacity="0.3" d="M631.787 622.323H692.148" stroke="#DEC2FF" stroke-opacity="0.5" stroke-miterlimit="10"/>
<path opacity="0.3" d="M38.4011 447.639H98.7628" stroke="#DEC2FF" stroke-opacity="0.5" stroke-miterlimit="10"/>
<path opacity="0.3" d="M636.297 166.645H696.658" stroke="#DEC2FF" stroke-opacity="0.5" stroke-miterlimit="10"/>
<path opacity="0.3" d="M874.226 30.2179H934.588" stroke="#DEC2FF" stroke-opacity="0.5" stroke-miterlimit="10"/>
<path opacity="0.3" d="M279.023 931.209H339.385" stroke="#DEC2FF" stroke-opacity="0.5" stroke-miterlimit="10"/>
<path opacity="0.3" d="M434.025 814.433L476.701 771.676" stroke="#DEC2FF" stroke-opacity="0.5" stroke-miterlimit="10"/>
<path opacity="0.3" d="M80.7065 72.9577L123.382 30.2179" stroke="#DEC2FF" stroke-opacity="0.5" stroke-miterlimit="10"/>
<path opacity="0.3" d="M904.416 511.159L947.091 468.419" stroke="#DEC2FF" stroke-opacity="0.5" stroke-miterlimit="10"/>
</g>
<path d="M549.566 742.925C547.795 744.031 545.737 744.586 543.652 744.521C541.566 744.456 539.546 743.773 537.848 742.558C536.15 741.343 534.85 739.651 534.112 737.697C533.374 735.742 533.231 733.612 533.702 731.576C534.172 729.54 535.235 727.69 536.756 726.258C538.276 724.827 540.187 723.88 542.245 723.536C544.303 723.192 546.417 723.467 548.319 724.327C550.221 725.186 551.826 726.591 552.931 728.363C553.665 729.541 554.16 730.851 554.388 732.22C554.616 733.589 554.573 734.99 554.26 736.342C553.948 737.694 553.372 738.972 552.567 740.101C551.761 741.23 550.742 742.19 549.566 742.925V742.925Z" stroke="#DEC2FF" stroke-opacity="0.5" stroke-miterlimit="10"/>
<path d="M466.453 452.358C464.682 453.464 462.624 454.019 460.538 453.954C458.453 453.889 456.433 453.206 454.735 451.991C453.037 450.776 451.737 449.085 450.999 447.13C450.261 445.175 450.118 443.045 450.589 441.009C451.059 438.973 452.122 437.123 453.643 435.692C455.163 434.261 457.074 433.313 459.132 432.969C461.19 432.626 463.304 432.901 465.206 433.76C467.108 434.619 468.713 436.024 469.818 437.797C470.552 438.974 471.047 440.285 471.275 441.654C471.503 443.023 471.46 444.423 471.147 445.775C470.835 447.128 470.259 448.405 469.454 449.534C468.648 450.664 467.628 451.623 466.453 452.358V452.358Z" stroke="#DEC2FF" stroke-opacity="0.5" stroke-miterlimit="10"/>
<path d="M86.3272 541.714C84.5568 542.82 82.4986 543.375 80.413 543.31C78.3273 543.245 76.3078 542.562 74.6098 541.347C72.9118 540.132 71.6116 538.441 70.8735 536.486C70.1354 534.531 69.9926 532.401 70.4632 530.365C70.9338 528.329 71.9966 526.479 73.5173 525.048C75.0379 523.617 76.9481 522.669 79.0063 522.325C81.0646 521.981 83.1784 522.257 85.0805 523.116C86.9827 523.975 88.5877 525.38 89.6927 527.152C90.4266 528.33 90.9217 529.64 91.1498 531.009C91.3778 532.379 91.3343 533.779 91.0218 535.131C90.7093 536.483 90.1338 537.761 89.3283 538.89C88.5228 540.02 87.503 540.979 86.3272 541.714V541.714Z" stroke="#DEC2FF" stroke-opacity="0.5" stroke-miterlimit="10"/>
<path d="M194.396 209.216C192.628 210.317 190.574 210.868 188.493 210.801C186.412 210.733 184.398 210.049 182.705 208.836C181.012 207.623 179.715 205.934 178.98 203.984C178.244 202.033 178.102 199.908 178.572 197.877C179.041 195.845 180.101 193.999 181.618 192.571C183.134 191.142 185.04 190.196 187.093 189.851C189.146 189.506 191.255 189.779 193.154 190.634C195.053 191.489 196.656 192.888 197.762 194.655C198.5 195.831 198.999 197.142 199.229 198.512C199.46 199.881 199.417 201.283 199.104 202.637C198.792 203.99 198.214 205.268 197.406 206.398C196.598 207.527 195.575 208.485 194.396 209.216V209.216Z" stroke="#DEC2FF" stroke-opacity="0.5" stroke-miterlimit="10"/>
<path d="M774.588 203.975C772.818 205.081 770.76 205.636 768.674 205.571C766.589 205.506 764.569 204.823 762.871 203.608C761.173 202.393 759.873 200.702 759.135 198.747C758.397 196.792 758.254 194.662 758.724 192.626C759.195 190.59 760.258 188.74 761.779 187.309C763.299 185.878 765.209 184.93 767.268 184.586C769.326 184.243 771.44 184.518 773.342 185.377C775.244 186.236 776.849 187.641 777.954 189.414C778.688 190.591 779.183 191.902 779.411 193.271C779.639 194.64 779.596 196.04 779.283 197.392C778.97 198.745 778.395 200.022 777.59 201.151C776.784 202.281 775.764 203.24 774.588 203.975V203.975Z" stroke="#DEC2FF" stroke-opacity="0.5" stroke-miterlimit="10"/>
<path d="M923.583 580.324C921.813 581.429 919.755 581.982 917.67 581.916C915.586 581.85 913.567 581.166 911.871 579.951C910.174 578.737 908.874 577.046 908.137 575.092C907.399 573.138 907.256 571.009 907.726 568.974C908.196 566.939 909.257 565.089 910.776 563.658C912.296 562.226 914.204 561.278 916.261 560.933C918.318 560.587 920.431 560.86 922.334 561.717C924.236 562.574 925.842 563.976 926.949 565.746C927.685 566.924 928.182 568.236 928.412 569.607C928.641 570.978 928.599 572.381 928.286 573.735C927.973 575.089 927.397 576.368 926.59 577.499C925.783 578.63 924.761 579.59 923.583 580.324V580.324Z" stroke="#DEC2FF" stroke-opacity="0.5" stroke-miterlimit="10"/>
<path d="M328.666 1146.05L303.003 1121.95" stroke="#DEC2FF" stroke-opacity="0.5" stroke-miterlimit="10"/>
<path d="M303.794 1146.86L327.875 1121.15" stroke="#DEC2FF" stroke-opacity="0.5" stroke-miterlimit="10"/>
<path d="M358.165 1515.88L332.486 1491.76" stroke="#DEC2FF" stroke-opacity="0.5" stroke-miterlimit="10"/>
<path d="M333.293 1516.67L357.357 1490.97" stroke="#DEC2FF" stroke-opacity="0.5" stroke-miterlimit="10"/>
<path d="M45.8559 1722.5L20.1934 1698.39" stroke="#DEC2FF" stroke-opacity="0.5" stroke-miterlimit="10"/>
<path d="M20.9846 1723.29L45.0485 1697.59" stroke="#DEC2FF" stroke-opacity="0.5" stroke-miterlimit="10"/>
<path d="M34.6486 1110.86L8.98608 1086.76" stroke="#DEC2FF" stroke-opacity="0.5" stroke-miterlimit="10"/>
<path d="M9.7771 1111.67L33.841 1085.97" stroke="#DEC2FF" stroke-opacity="0.5" stroke-miterlimit="10"/>
<path d="M947.428 1145.43L921.765 1121.31" stroke="#DEC2FF" stroke-opacity="0.5" stroke-miterlimit="10"/>
<path d="M922.556 1146.22L946.62 1120.52" stroke="#DEC2FF" stroke-opacity="0.5" stroke-miterlimit="10"/>
<path d="M644.626 1276.55L618.964 1252.45" stroke="#DEC2FF" stroke-opacity="0.5" stroke-miterlimit="10"/>
<path d="M619.755 1277.36L643.836 1251.66" stroke="#DEC2FF" stroke-opacity="0.5" stroke-miterlimit="10"/>
<path d="M769.759 1562.73L744.096 1538.63" stroke="#DEC2FF" stroke-opacity="0.5" stroke-miterlimit="10"/>
<path d="M744.887 1563.54L768.968 1537.84" stroke="#DEC2FF" stroke-opacity="0.5" stroke-miterlimit="10"/>
<path d="M749.834 1795.86L724.172 1771.76" stroke="#DEC2FF" stroke-opacity="0.5" stroke-miterlimit="10"/>
<path d="M724.963 1796.67L749.027 1770.97" stroke="#DEC2FF" stroke-opacity="0.5" stroke-miterlimit="10"/>
<path d="M519.393 1184.65L501.724 1154.03L484.105 1184.66L466.469 1215.29L501.774 1215.25L537.062 1215.24L519.393 1184.65Z" stroke="#DEC2FF" stroke-opacity="0.5" stroke-miterlimit="10"/>
<path d="M460.984 1558.79L443.297 1528.18L425.679 1558.81L408.06 1589.43L443.348 1589.41L478.653 1589.4L460.984 1558.79Z" stroke="#DEC2FF" stroke-opacity="0.5" stroke-miterlimit="10"/>
<path d="M663.491 1673.68L645.821 1643.07L628.203 1673.7L610.567 1704.33L645.855 1704.3L681.16 1704.28L663.491 1673.68Z" stroke="#DEC2FF" stroke-opacity="0.5" stroke-miterlimit="10"/>
<path d="M779.973 1438.69L789.094 1404.53L755.001 1413.72L720.907 1422.89L745.88 1447.86L770.853 1472.86L779.973 1438.69Z" stroke="#DEC2FF" stroke-opacity="0.5" stroke-miterlimit="10"/>
<path d="M199.529 1042.15L208.649 1007.99L174.573 1017.18L140.463 1026.35L165.452 1051.32L190.425 1076.32L199.529 1042.15Z" stroke="#DEC2FF" stroke-opacity="0.5" stroke-miterlimit="10"/>
<path d="M175.364 1780.17L184.484 1746.01L150.391 1755.2L116.298 1764.37L141.27 1789.34L166.243 1814.34L175.364 1780.17Z" stroke="#DEC2FF" stroke-opacity="0.5" stroke-miterlimit="10"/>
<path d="M815.733 1080.31L846.292 1062.61L815.716 1044.97L785.123 1027.31L785.156 1062.66L785.173 1098.01L815.733 1080.31Z" stroke="#DEC2FF" stroke-opacity="0.5" stroke-miterlimit="10"/>
<path d="M174.573 1433.47L205.149 1415.77L174.556 1398.13L143.979 1380.47L144.013 1415.82L144.03 1451.17L174.573 1433.47Z" stroke="#DEC2FF" stroke-opacity="0.5" stroke-miterlimit="10"/>
<path d="M579.099 1375.6C579.102 1380.9 577.534 1386.09 574.592 1390.51C571.65 1394.92 567.467 1398.36 562.572 1400.4C557.677 1402.43 552.29 1402.96 547.092 1401.93C541.895 1400.9 537.119 1398.34 533.371 1394.59C529.623 1390.84 527.07 1386.06 526.035 1380.85C525 1375.65 525.529 1370.25 527.556 1365.35C529.583 1360.44 533.017 1356.25 537.423 1353.3C541.829 1350.36 547.009 1348.78 552.309 1348.78C555.826 1348.78 559.309 1349.47 562.559 1350.82C565.81 1352.16 568.763 1354.14 571.251 1356.63C573.739 1359.12 575.712 1362.08 577.059 1365.33C578.405 1368.58 579.099 1372.07 579.099 1375.6Z" stroke="#DEC2FF" stroke-opacity="0.5" stroke-miterlimit="10"/>
<path d="M443.735 1076.32C443.732 1081.62 442.158 1086.8 439.215 1091.21C436.271 1095.61 432.088 1099.05 427.196 1101.08C422.303 1103.1 416.921 1103.63 411.728 1102.59C406.536 1101.56 401.767 1099 398.024 1095.25C394.282 1091.5 391.733 1086.72 390.702 1081.52C389.67 1076.32 390.201 1070.93 392.228 1066.03C394.255 1061.13 397.687 1056.95 402.089 1054C406.491 1051.06 411.667 1049.48 416.962 1049.48C420.479 1049.48 423.962 1050.18 427.211 1051.53C430.461 1052.88 433.413 1054.85 435.899 1057.34C438.385 1059.84 440.357 1062.79 441.702 1066.05C443.046 1069.3 443.737 1072.79 443.735 1076.32V1076.32Z" stroke="#DEC2FF" stroke-opacity="0.5" stroke-miterlimit="10"/>
<path d="M460.832 1867.83C460.832 1873.14 459.261 1878.32 456.316 1882.74C453.372 1887.15 449.187 1890.59 444.29 1892.62C439.394 1894.65 434.007 1895.18 428.81 1894.14C423.612 1893.1 418.839 1890.55 415.093 1886.79C411.347 1883.04 408.797 1878.26 407.765 1873.05C406.733 1867.85 407.266 1862.45 409.296 1857.55C411.327 1852.65 414.763 1848.46 419.171 1845.51C423.579 1842.57 428.76 1840.99 434.059 1841C437.576 1841 441.059 1841.69 444.309 1843.04C447.558 1844.39 450.51 1846.37 452.997 1848.86C455.483 1851.35 457.455 1854.31 458.799 1857.56C460.144 1860.82 460.835 1864.31 460.832 1867.83V1867.83Z" stroke="#DEC2FF" stroke-opacity="0.5" stroke-miterlimit="10"/>
<path d="M532.452 1827.73C532.627 1820.74 535.525 1814.09 540.529 1809.2C545.532 1804.31 552.244 1801.58 559.233 1801.58C566.222 1801.58 572.934 1804.31 577.938 1809.2C582.941 1814.09 585.84 1820.74 586.015 1827.73" stroke="#DEC2FF" stroke-opacity="0.5" stroke-miterlimit="10"/>
<path d="M318.721 1415.82C318.631 1412.25 319.257 1408.68 320.563 1405.35C321.869 1402.02 323.827 1398.98 326.323 1396.42C328.819 1393.86 331.801 1391.82 335.095 1390.43C338.389 1389.04 341.928 1388.32 345.502 1388.32C349.077 1388.32 352.615 1389.04 355.909 1390.43C359.203 1391.82 362.186 1393.86 364.682 1396.42C367.177 1398.98 369.136 1402.02 370.441 1405.35C371.747 1408.68 372.373 1412.25 372.284 1415.82" stroke="#DEC2FF" stroke-opacity="0.5" stroke-miterlimit="10"/>
<path d="M36.9878 1198.06C36.9878 1190.98 39.7961 1184.19 44.795 1179.19C49.7938 1174.18 56.5738 1171.37 63.6432 1171.37C70.7127 1171.37 77.4926 1174.18 82.4914 1179.19C87.4903 1184.19 90.2986 1190.98 90.2986 1198.06" stroke="#DEC2FF" stroke-opacity="0.5" stroke-miterlimit="10"/>
<path d="M712.039 1242.07C704.97 1242.07 698.19 1239.25 693.191 1234.25C688.192 1229.24 685.384 1222.45 685.384 1215.37C685.384 1208.29 688.192 1201.5 693.191 1196.49C698.19 1191.49 704.97 1188.68 712.039 1188.68" stroke="#DEC2FF" stroke-opacity="0.5" stroke-miterlimit="10"/>
<path d="M67.1769 1867.69C63.6765 1867.69 60.2103 1867 56.9763 1865.66C53.7423 1864.32 50.8039 1862.35 48.3287 1859.87C45.8535 1857.4 43.8901 1854.45 42.5505 1851.21C41.2109 1847.97 40.5215 1844.5 40.5215 1841C40.5215 1837.49 41.2109 1834.02 42.5505 1830.78C43.8901 1827.54 45.8535 1824.6 48.3287 1822.12C50.8039 1819.64 53.7423 1817.68 56.9763 1816.33C60.2103 1814.99 63.6765 1814.3 67.1769 1814.3" stroke="#DEC2FF" stroke-opacity="0.5" stroke-miterlimit="10"/>
<path d="M354.53 1014.77C347.461 1014.77 340.681 1011.95 335.682 1006.95C330.683 1001.94 327.875 995.152 327.875 988.072C327.875 980.992 330.683 974.202 335.682 969.195C340.681 964.189 347.461 961.376 354.53 961.376" stroke="#DEC2FF" stroke-opacity="0.5" stroke-miterlimit="10"/>
<path d="M80.572 1585.62C80.5753 1590.93 79.007 1596.12 76.0653 1600.53C73.1235 1604.95 68.9407 1608.39 64.0457 1610.42C59.1508 1612.45 53.7637 1612.99 48.5658 1611.95C43.368 1610.92 38.5929 1608.37 34.8445 1604.61C31.0962 1600.86 28.543 1596.08 27.5079 1590.88C26.4729 1585.67 27.0024 1580.28 29.0296 1575.37C31.0568 1570.47 34.4905 1566.28 38.8965 1563.33C43.3024 1560.38 48.4827 1558.81 53.782 1558.81C60.8842 1558.81 67.6958 1561.63 72.7194 1566.66C77.743 1571.69 80.5675 1578.51 80.572 1585.62V1585.62Z" stroke="#DEC2FF" stroke-opacity="0.5" stroke-miterlimit="10"/>
<path d="M906.351 1616.21C906.351 1621.52 904.779 1626.7 901.835 1631.12C898.89 1635.53 894.705 1638.97 889.809 1641C884.913 1643.03 879.526 1643.56 874.328 1642.52C869.131 1641.49 864.358 1638.93 860.612 1635.17C856.866 1631.42 854.316 1626.64 853.284 1621.43C852.252 1616.23 852.785 1610.83 854.815 1605.93C856.845 1601.03 860.282 1596.84 864.689 1593.89C869.097 1590.95 874.279 1589.38 879.578 1589.38C886.68 1589.38 893.49 1592.21 898.51 1597.24C903.531 1602.27 906.351 1609.1 906.351 1616.21V1616.21Z" stroke="#DEC2FF" stroke-opacity="0.5" stroke-miterlimit="10"/>
<path d="M885.552 1188.61H832.292V1241.95H885.552V1188.61Z" stroke="#DEC2FF" stroke-opacity="0.5" stroke-miterlimit="10"/>
<path d="M283.281 1215.29H230.021V1268.63H283.281V1215.29Z" stroke="#DEC2FF" stroke-opacity="0.5" stroke-miterlimit="10"/>
<path d="M280.622 1555.87H227.362V1609.22H280.622V1555.87Z" stroke="#DEC2FF" stroke-opacity="0.5" stroke-miterlimit="10"/>
<path d="M885.552 1814.34H832.292V1867.68H885.552V1814.34Z" stroke="#DEC2FF" stroke-opacity="0.5" stroke-miterlimit="10"/>
<path d="M664.585 961.393H611.324V1014.73H664.585V961.393Z" stroke="#DEC2FF" stroke-opacity="0.5" stroke-miterlimit="10"/>
<path d="M534.774 1503.83C523.146 1503.83 525.148 1483.17 510.306 1483.17" stroke="#DEC2FF" stroke-opacity="0.5" stroke-miterlimit="10"/>
<path d="M583.693 1503.83C572.065 1503.83 574.067 1483.17 559.242 1483.17" stroke="#DEC2FF" stroke-opacity="0.5" stroke-miterlimit="10"/>
<path d="M534.774 1503.83C546.402 1503.83 544.4 1483.17 559.242 1483.17" stroke="#DEC2FF" stroke-opacity="0.5" stroke-miterlimit="10"/>
<path d="M583.693 1503.83C595.321 1503.83 593.318 1483.17 608.161 1483.17" stroke="#DEC2FF" stroke-opacity="0.5" stroke-miterlimit="10"/>
<path d="M674.143 1888.47C662.515 1888.47 664.517 1867.83 649.675 1867.83" stroke="#DEC2FF" stroke-opacity="0.5" stroke-miterlimit="10"/>
<path d="M723.061 1888.47C711.433 1888.47 713.436 1867.83 698.594 1867.83" stroke="#DEC2FF" stroke-opacity="0.5" stroke-miterlimit="10"/>
<path d="M674.143 1888.47C685.771 1888.47 683.768 1867.83 698.594 1867.83" stroke="#DEC2FF" stroke-opacity="0.5" stroke-miterlimit="10"/>
<path d="M723.062 1888.47C734.69 1888.47 732.687 1867.83 747.513 1867.83" stroke="#DEC2FF" stroke-opacity="0.5" stroke-miterlimit="10"/>
<path d="M740.849 1333.93C729.221 1333.93 731.223 1313.29 716.381 1313.29" stroke="#DEC2FF" stroke-opacity="0.5" stroke-miterlimit="10"/>
<path d="M789.767 1333.93C778.139 1333.93 780.142 1313.29 765.316 1313.29" stroke="#DEC2FF" stroke-opacity="0.5" stroke-miterlimit="10"/>
<path d="M740.849 1333.93C752.477 1333.93 750.474 1313.29 765.316 1313.29" stroke="#DEC2FF" stroke-opacity="0.5" stroke-miterlimit="10"/>
<path d="M789.767 1333.93C801.395 1333.93 799.393 1313.29 814.235 1313.29" stroke="#DEC2FF" stroke-opacity="0.5" stroke-miterlimit="10"/>
<path d="M60.53 1308.97C48.9019 1308.97 50.9045 1288.33 36.0623 1288.33" stroke="#DEC2FF" stroke-opacity="0.5" stroke-miterlimit="10"/>
<path d="M109.449 1308.97C97.8207 1308.97 99.8232 1288.33 84.981 1288.33" stroke="#DEC2FF" stroke-opacity="0.5" stroke-miterlimit="10"/>
<path d="M60.53 1308.97C72.1581 1308.97 70.1556 1288.33 84.981 1288.33" stroke="#DEC2FF" stroke-opacity="0.5" stroke-miterlimit="10"/>
<path d="M109.449 1308.97C121.077 1308.97 119.074 1288.33 133.917 1288.33" stroke="#DEC2FF" stroke-opacity="0.5" stroke-miterlimit="10"/>
<path d="M538.813 1032.5C538.813 1044.14 518.198 1042.14 518.198 1056.98" stroke="#DEC2FF" stroke-opacity="0.5" stroke-miterlimit="10"/>
<path d="M538.813 983.505C538.813 995.15 518.198 993.128 518.198 1007.99" stroke="#DEC2FF" stroke-opacity="0.5" stroke-miterlimit="10"/>
<path d="M538.813 1032.5C538.813 1020.85 518.198 1022.86 518.198 1007.99" stroke="#DEC2FF" stroke-opacity="0.5" stroke-miterlimit="10"/>
<path d="M538.813 983.505C538.813 971.859 518.198 973.865 518.198 959" stroke="#DEC2FF" stroke-opacity="0.5" stroke-miterlimit="10"/>
<path d="M388.809 1288.78C388.809 1300.43 368.195 1298.42 368.195 1313.29" stroke="#DEC2FF" stroke-opacity="0.5" stroke-miterlimit="10"/>
<path d="M388.809 1239.79C388.809 1251.44 368.195 1249.43 368.195 1264.28" stroke="#DEC2FF" stroke-opacity="0.5" stroke-miterlimit="10"/>
<path d="M388.809 1288.78C388.809 1277.14 368.195 1279.14 368.195 1264.28" stroke="#DEC2FF" stroke-opacity="0.5" stroke-miterlimit="10"/>
<path d="M388.809 1239.79C388.809 1228.15 368.195 1230.15 368.195 1215.29" stroke="#DEC2FF" stroke-opacity="0.5" stroke-miterlimit="10"/>
<path d="M795.438 1698.2C795.438 1709.85 774.807 1707.84 774.807 1722.7" stroke="#DEC2FF" stroke-opacity="0.5" stroke-miterlimit="10"/>
<path d="M795.438 1649.21C795.438 1660.85 774.807 1658.83 774.807 1673.7" stroke="#DEC2FF" stroke-opacity="0.5" stroke-miterlimit="10"/>
<path d="M795.438 1698.2C795.438 1686.55 774.807 1688.56 774.807 1673.7" stroke="#DEC2FF" stroke-opacity="0.5" stroke-miterlimit="10"/>
<path d="M795.438 1649.21C795.438 1637.56 774.807 1639.57 774.807 1624.7" stroke="#DEC2FF" stroke-opacity="0.5" stroke-miterlimit="10"/>
<path d="M290.921 1736.81C290.921 1748.46 270.307 1746.45 270.307 1761.3" stroke="#DEC2FF" stroke-opacity="0.5" stroke-miterlimit="10"/>
<path d="M290.921 1687.82C290.921 1699.46 270.307 1697.44 270.307 1712.31" stroke="#DEC2FF" stroke-opacity="0.5" stroke-miterlimit="10"/>
<path d="M290.921 1736.81C290.921 1725.17 270.307 1727.17 270.307 1712.31" stroke="#DEC2FF" stroke-opacity="0.5" stroke-miterlimit="10"/>
<path d="M290.921 1687.82C290.921 1676.17 270.307 1678.18 270.307 1663.31" stroke="#DEC2FF" stroke-opacity="0.5" stroke-miterlimit="10"/>
<path d="M593.403 1558.81H653.764" stroke="#DEC2FF" stroke-opacity="0.5" stroke-miterlimit="10"/>
<path d="M0 1384.12H60.3617" stroke="#DEC2FF" stroke-opacity="0.5" stroke-miterlimit="10"/>
<path d="M597.912 1103.13H658.274" stroke="#DEC2FF" stroke-opacity="0.5" stroke-miterlimit="10"/>
<path d="M835.842 966.702H896.204" stroke="#DEC2FF" stroke-opacity="0.5" stroke-miterlimit="10"/>
<path d="M240.639 1867.69H301.001" stroke="#DEC2FF" stroke-opacity="0.5" stroke-miterlimit="10"/>
<path d="M395.624 1750.92L438.3 1708.16" stroke="#DEC2FF" stroke-opacity="0.5" stroke-miterlimit="10"/>
<path d="M42.3054 1009.44L84.9978 966.702" stroke="#DEC2FF" stroke-opacity="0.5" stroke-miterlimit="10"/>
<path d="M866.014 1447.64L908.69 1404.9" stroke="#DEC2FF" stroke-opacity="0.5" stroke-miterlimit="10"/>
<g opacity="0.3">
<path opacity="0.3" d="M557.794 1207.16L540.125 1176.54L522.506 1207.16L504.871 1237.8L540.159 1237.77L575.464 1237.75L557.794 1207.16Z" stroke="#DEC2FF" stroke-opacity="0.5" stroke-miterlimit="10"/>
<path opacity="0.3" d="M499.368 1581.31L481.698 1550.68L464.08 1581.32L446.444 1611.95L481.732 1611.93L517.037 1611.89L499.368 1581.31Z" stroke="#DEC2FF" stroke-opacity="0.5" stroke-miterlimit="10"/>
<path opacity="0.3" d="M701.892 1696.19L684.222 1665.59L666.604 1696.21L648.968 1726.85L684.256 1726.82L719.561 1726.8L701.892 1696.19Z" stroke="#DEC2FF" stroke-opacity="0.5" stroke-miterlimit="10"/>
<path opacity="0.3" d="M818.358 1461.21L827.478 1427.05L793.402 1436.23L759.309 1445.4L784.281 1470.38L809.254 1495.37L818.358 1461.21Z" stroke="#DEC2FF" stroke-opacity="0.5" stroke-miterlimit="10"/>
<path opacity="0.3" d="M237.929 1064.67L247.05 1030.51L212.957 1039.69L178.864 1048.86L203.836 1073.84L228.809 1098.83L237.929 1064.67Z" stroke="#DEC2FF" stroke-opacity="0.5" stroke-miterlimit="10"/>
<path opacity="0.3" d="M213.748 1802.69L222.869 1768.53L188.792 1777.71L154.699 1786.88L179.671 1811.86L204.644 1836.85L213.748 1802.69Z" stroke="#DEC2FF" stroke-opacity="0.5" stroke-miterlimit="10"/>
<path opacity="0.3" d="M854.134 1102.83L884.693 1085.13L854.117 1067.48L823.524 1049.82L823.558 1085.16L823.574 1120.52L854.134 1102.83Z" stroke="#DEC2FF" stroke-opacity="0.5" stroke-miterlimit="10"/>
<path opacity="0.3" d="M212.974 1455.99L243.533 1438.29L212.957 1420.64L182.364 1402.98L182.398 1438.34L182.414 1473.68L212.974 1455.99Z" stroke="#DEC2FF" stroke-opacity="0.5" stroke-miterlimit="10"/>
<path opacity="0.3" d="M617.433 1398.11C617.429 1403.41 615.856 1408.6 612.912 1413C609.968 1417.41 605.786 1420.84 600.893 1422.87C596.001 1424.9 590.618 1425.43 585.426 1424.39C580.234 1423.35 575.465 1420.8 571.722 1417.05C567.979 1413.3 565.431 1408.52 564.399 1403.32C563.368 1398.12 563.899 1392.73 565.926 1387.83C567.953 1382.93 571.384 1378.74 575.787 1375.8C580.189 1372.85 585.365 1371.28 590.659 1371.28C594.177 1371.28 597.66 1371.97 600.909 1373.32C604.158 1374.67 607.11 1376.65 609.597 1379.14C612.083 1381.63 614.055 1384.59 615.399 1387.84C616.744 1391.1 617.435 1394.59 617.433 1398.11V1398.11Z" stroke="#DEC2FF" stroke-opacity="0.5" stroke-miterlimit="10"/>
<path opacity="0.3" d="M482.136 1098.81C482.14 1104.12 480.571 1109.31 477.628 1113.73C474.686 1118.14 470.502 1121.58 465.606 1123.62C460.71 1125.65 455.322 1126.18 450.124 1125.15C444.926 1124.11 440.15 1121.56 436.403 1117.8C432.655 1114.05 430.103 1109.27 429.07 1104.06C428.037 1098.86 428.569 1093.46 430.599 1088.56C432.628 1083.65 436.065 1079.46 440.473 1076.52C444.881 1073.57 450.063 1072 455.363 1072C462.462 1072.01 469.27 1074.83 474.29 1079.86C479.31 1084.89 482.132 1091.7 482.136 1098.81V1098.81Z" stroke="#DEC2FF" stroke-opacity="0.5" stroke-miterlimit="10"/>
<path opacity="0.3" d="M499.233 1890.34C499.233 1895.65 497.662 1900.84 494.718 1905.25C491.775 1909.66 487.591 1913.1 482.695 1915.13C477.8 1917.16 472.414 1917.69 467.217 1916.66C462.02 1915.62 457.247 1913.07 453.5 1909.32C449.753 1905.56 447.202 1900.78 446.168 1895.58C445.134 1890.37 445.665 1884.98 447.693 1880.08C449.72 1875.17 453.154 1870.98 457.56 1868.04C461.965 1865.09 467.145 1863.51 472.443 1863.51C475.962 1863.51 479.447 1864.2 482.698 1865.55C485.949 1866.9 488.904 1868.88 491.392 1871.37C493.88 1873.86 495.853 1876.82 497.199 1880.07C498.544 1883.33 499.236 1886.82 499.233 1890.34V1890.34Z" stroke="#DEC2FF" stroke-opacity="0.5" stroke-miterlimit="10"/>
<path opacity="0.3" d="M570.853 1850.25C570.853 1843.14 573.674 1836.32 578.695 1831.29C583.716 1826.26 590.526 1823.44 597.626 1823.44C604.727 1823.44 611.537 1826.26 616.558 1831.29C621.579 1836.32 624.399 1843.14 624.399 1850.25" stroke="#DEC2FF" stroke-opacity="0.5" stroke-miterlimit="10"/>
<path opacity="0.3" d="M357.105 1438.34C357.015 1434.76 357.642 1431.2 358.947 1427.87C360.253 1424.54 362.211 1421.5 364.707 1418.93C367.203 1416.37 370.186 1414.33 373.479 1412.94C376.773 1411.55 380.312 1410.84 383.886 1410.84C387.461 1410.84 391 1411.55 394.293 1412.94C397.587 1414.33 400.57 1416.37 403.066 1418.93C405.562 1421.5 407.52 1424.54 408.825 1427.87C410.131 1431.2 410.758 1434.76 410.668 1438.34" stroke="#DEC2FF" stroke-opacity="0.5" stroke-miterlimit="10"/>
<path opacity="0.3" d="M75.3889 1220.58C75.3889 1217.07 76.0784 1213.6 77.4179 1210.36C78.7575 1207.12 80.7209 1204.18 83.1961 1201.7C85.6713 1199.22 88.6098 1197.26 91.8437 1195.92C95.0777 1194.57 98.5439 1193.88 102.044 1193.88C105.545 1193.88 109.011 1194.57 112.245 1195.92C115.479 1197.26 118.417 1199.22 120.893 1201.7C123.368 1204.18 125.331 1207.12 126.671 1210.36C128.01 1213.6 128.7 1217.07 128.7 1220.58" stroke="#DEC2FF" stroke-opacity="0.5" stroke-miterlimit="10"/>
<path opacity="0.3" d="M750.39 1264.5C743.32 1264.5 736.54 1261.69 731.542 1256.68C726.543 1251.67 723.734 1244.88 723.734 1237.8C723.734 1230.72 726.543 1223.93 731.542 1218.93C736.54 1213.92 743.32 1211.11 750.39 1211.11" stroke="#DEC2FF" stroke-opacity="0.5" stroke-miterlimit="10"/>
<path opacity="0.3" d="M105.578 1890.21C98.5086 1890.21 91.7287 1887.4 86.7298 1882.39C81.7309 1877.38 78.9226 1870.59 78.9226 1863.51C78.9226 1856.43 81.7309 1849.64 86.7298 1844.64C91.7287 1839.63 98.5086 1836.82 105.578 1836.82" stroke="#DEC2FF" stroke-opacity="0.5" stroke-miterlimit="10"/>
<path opacity="0.3" d="M392.931 1037.28C389.431 1037.28 385.965 1036.59 382.731 1035.25C379.497 1033.91 376.558 1031.94 374.083 1029.46C371.608 1026.99 369.644 1024.04 368.305 1020.8C366.965 1017.56 366.276 1014.09 366.276 1010.59C366.276 1007.08 366.965 1003.61 368.305 1000.37C369.644 997.133 371.608 994.19 374.083 991.711C376.558 989.232 379.497 987.266 382.731 985.924C385.965 984.583 389.431 983.892 392.931 983.892" stroke="#DEC2FF" stroke-opacity="0.5" stroke-miterlimit="10"/>
<path opacity="0.3" d="M118.956 1608.14C118.956 1613.44 117.386 1618.62 114.444 1623.03C111.502 1627.44 107.321 1630.88 102.429 1632.91C97.5366 1634.94 92.1534 1635.47 86.9599 1634.43C81.7664 1633.4 76.9959 1630.85 73.2516 1627.1C69.5073 1623.35 66.9574 1618.57 65.9244 1613.37C64.8913 1608.17 65.4215 1602.77 67.4479 1597.88C69.4743 1592.98 72.9059 1588.79 77.3087 1585.84C81.7115 1582.9 86.8879 1581.32 92.1831 1581.32C99.2838 1581.32 106.094 1584.15 111.115 1589.18C116.136 1594.2 118.956 1601.02 118.956 1608.14V1608.14Z" stroke="#DEC2FF" stroke-opacity="0.5" stroke-miterlimit="10"/>
<path opacity="0.3" d="M944.752 1638.76C944.755 1644.07 943.187 1649.26 940.245 1653.67C937.304 1658.08 933.121 1661.53 928.226 1663.56C923.331 1665.59 917.944 1666.13 912.746 1665.09C907.548 1664.06 902.773 1661.51 899.025 1657.75C895.276 1654 892.723 1649.22 891.688 1644.02C890.653 1638.81 891.183 1633.42 893.21 1628.51C895.237 1623.61 898.671 1619.42 903.077 1616.47C907.483 1613.52 912.663 1611.95 917.962 1611.95C925.064 1611.95 931.876 1614.77 936.9 1619.8C941.923 1624.83 944.748 1631.65 944.752 1638.76V1638.76Z" stroke="#DEC2FF" stroke-opacity="0.5" stroke-miterlimit="10"/>
<path opacity="0.3" d="M923.936 1211.12H870.676V1264.47H923.936V1211.12Z" stroke="#DEC2FF" stroke-opacity="0.5" stroke-miterlimit="10"/>
<path opacity="0.3" d="M321.682 1237.8H268.422V1291.14H321.682V1237.8Z" stroke="#DEC2FF" stroke-opacity="0.5" stroke-miterlimit="10"/>
<path opacity="0.3" d="M319.006 1578.39H265.746V1631.73H319.006V1578.39Z" stroke="#DEC2FF" stroke-opacity="0.5" stroke-miterlimit="10"/>
<path opacity="0.3" d="M923.936 1836.85H870.676V1890.19H923.936V1836.85Z" stroke="#DEC2FF" stroke-opacity="0.5" stroke-miterlimit="10"/>
<path opacity="0.3" d="M702.969 983.909H649.708V1037.25H702.969V983.909Z" stroke="#DEC2FF" stroke-opacity="0.5" stroke-miterlimit="10"/>
<path opacity="0.3" d="M573.158 1526.35C561.53 1526.35 563.55 1505.69 548.708 1505.69" stroke="#DEC2FF" stroke-opacity="0.5" stroke-miterlimit="10"/>
<path opacity="0.3" d="M622.094 1526.35C610.466 1526.35 612.468 1505.69 597.626 1505.69" stroke="#DEC2FF" stroke-opacity="0.5" stroke-miterlimit="10"/>
<path opacity="0.3" d="M573.158 1526.35C584.786 1526.35 582.784 1505.69 597.626 1505.69" stroke="#DEC2FF" stroke-opacity="0.5" stroke-miterlimit="10"/>
<path opacity="0.3" d="M622.094 1526.35C633.705 1526.35 631.719 1505.69 646.545 1505.69" stroke="#DEC2FF" stroke-opacity="0.5" stroke-miterlimit="10"/>
<path opacity="0.3" d="M712.527 1910.99C700.899 1910.99 702.902 1890.34 688.076 1890.34" stroke="#DEC2FF" stroke-opacity="0.5" stroke-miterlimit="10"/>
<path opacity="0.3" d="M761.463 1910.99C749.818 1910.99 751.837 1890.34 736.995 1890.34" stroke="#DEC2FF" stroke-opacity="0.5" stroke-miterlimit="10"/>
<path opacity="0.3" d="M712.527 1910.99C724.155 1910.99 722.153 1890.34 736.995 1890.34" stroke="#DEC2FF" stroke-opacity="0.5" stroke-miterlimit="10"/>
<path opacity="0.3" d="M761.463 1910.99C773.074 1910.99 771.071 1890.34 785.914 1890.34" stroke="#DEC2FF" stroke-opacity="0.5" stroke-miterlimit="10"/>
<path opacity="0.3" d="M779.25 1356.45C767.621 1356.45 769.624 1335.8 754.782 1335.8" stroke="#DEC2FF" stroke-opacity="0.5" stroke-miterlimit="10"/>
<path opacity="0.3" d="M828.151 1356.45C816.523 1356.45 818.526 1335.8 803.684 1335.8" stroke="#DEC2FF" stroke-opacity="0.5" stroke-miterlimit="10"/>
<path opacity="0.3" d="M779.25 1356.45C790.878 1356.45 788.875 1335.8 803.701 1335.8" stroke="#DEC2FF" stroke-opacity="0.5" stroke-miterlimit="10"/>
<path opacity="0.3" d="M828.151 1356.45C839.779 1356.45 837.777 1335.8 852.602 1335.8" stroke="#DEC2FF" stroke-opacity="0.5" stroke-miterlimit="10"/>
<path opacity="0.3" d="M98.9143 1331.49C87.2862 1331.49 89.3056 1310.85 74.4634 1310.85" stroke="#DEC2FF" stroke-opacity="0.5" stroke-miterlimit="10"/>
<path opacity="0.3" d="M147.85 1331.49C136.222 1331.49 138.224 1310.85 123.382 1310.85" stroke="#DEC2FF" stroke-opacity="0.5" stroke-miterlimit="10"/>
<path opacity="0.3" d="M98.9141 1331.49C110.542 1331.49 108.54 1310.85 123.382 1310.85" stroke="#DEC2FF" stroke-opacity="0.5" stroke-miterlimit="10"/>
<path opacity="0.3" d="M147.85 1331.49C159.478 1331.49 157.459 1310.85 172.301 1310.85" stroke="#DEC2FF" stroke-opacity="0.5" stroke-miterlimit="10"/>
<path opacity="0.3" d="M577.214 1055C577.214 1066.64 556.6 1064.64 556.6 1079.48" stroke="#DEC2FF" stroke-opacity="0.5" stroke-miterlimit="10"/>
<path opacity="0.3" d="M577.214 1006.02C577.214 1017.67 556.6 1015.64 556.6 1030.51" stroke="#DEC2FF" stroke-opacity="0.5" stroke-miterlimit="10"/>
<path opacity="0.3" d="M577.214 1055C577.214 1043.35 556.6 1045.36 556.6 1030.49" stroke="#DEC2FF" stroke-opacity="0.5" stroke-miterlimit="10"/>
<path opacity="0.3" d="M577.214 1006.02C577.214 994.375 556.6 996.381 556.6 981.516" stroke="#DEC2FF" stroke-opacity="0.5" stroke-miterlimit="10"/>
<path opacity="0.3" d="M427.21 1311.3C427.21 1322.95 406.596 1320.94 406.596 1335.8" stroke="#DEC2FF" stroke-opacity="0.5" stroke-miterlimit="10"/>
<path opacity="0.3" d="M427.21 1262.29C427.21 1273.94 406.596 1271.93 406.596 1286.78" stroke="#DEC2FF" stroke-opacity="0.5" stroke-miterlimit="10"/>
<path opacity="0.3" d="M427.21 1311.3C427.21 1299.65 406.596 1301.66 406.596 1286.8" stroke="#DEC2FF" stroke-opacity="0.5" stroke-miterlimit="10"/>
<path opacity="0.3" d="M427.21 1262.29C427.21 1250.65 406.596 1252.65 406.596 1237.79" stroke="#DEC2FF" stroke-opacity="0.5" stroke-miterlimit="10"/>
<path opacity="0.3" d="M833.823 1720.7C833.823 1732.34 813.208 1730.34 813.208 1745.19" stroke="#DEC2FF" stroke-opacity="0.5" stroke-miterlimit="10"/>
<path opacity="0.3" d="M833.823 1671.72C833.823 1683.37 813.208 1681.35 813.208 1696.21" stroke="#DEC2FF" stroke-opacity="0.5" stroke-miterlimit="10"/>
<path opacity="0.3" d="M833.823 1720.7C833.823 1709.05 813.208 1711.06 813.208 1696.19" stroke="#DEC2FF" stroke-opacity="0.5" stroke-miterlimit="10"/>
<path opacity="0.3" d="M833.823 1671.72C833.823 1660.08 813.208 1662.08 813.208 1647.22" stroke="#DEC2FF" stroke-opacity="0.5" stroke-miterlimit="10"/>
<path opacity="0.3" d="M329.322 1759.33C329.322 1770.97 308.691 1768.97 308.691 1783.81" stroke="#DEC2FF" stroke-opacity="0.5" stroke-miterlimit="10"/>
<path opacity="0.3" d="M329.322 1710.33C329.322 1721.98 308.691 1719.96 308.691 1734.82" stroke="#DEC2FF" stroke-opacity="0.5" stroke-miterlimit="10"/>
<path opacity="0.3" d="M329.322 1759.33C329.322 1747.68 308.691 1749.69 308.691 1734.82" stroke="#DEC2FF" stroke-opacity="0.5" stroke-miterlimit="10"/>
<path opacity="0.3" d="M329.322 1710.33C329.322 1698.69 308.691 1700.69 308.691 1685.83" stroke="#DEC2FF" stroke-opacity="0.5" stroke-miterlimit="10"/>
<path opacity="0.3" d="M631.787 1581.32H692.148" stroke="#DEC2FF" stroke-opacity="0.5" stroke-miterlimit="10"/>
<path opacity="0.3" d="M38.4011 1406.64H98.7628" stroke="#DEC2FF" stroke-opacity="0.5" stroke-miterlimit="10"/>
<path opacity="0.3" d="M636.297 1125.64H696.658" stroke="#DEC2FF" stroke-opacity="0.5" stroke-miterlimit="10"/>
<path opacity="0.3" d="M874.226 989.218H934.588" stroke="#DEC2FF" stroke-opacity="0.5" stroke-miterlimit="10"/>
<path opacity="0.3" d="M279.023 1890.21H339.385" stroke="#DEC2FF" stroke-opacity="0.5" stroke-miterlimit="10"/>
<path opacity="0.3" d="M434.025 1773.43L476.701 1730.68" stroke="#DEC2FF" stroke-opacity="0.5" stroke-miterlimit="10"/>
<path opacity="0.3" d="M80.7065 1031.96L123.382 989.218" stroke="#DEC2FF" stroke-opacity="0.5" stroke-miterlimit="10"/>
<path opacity="0.3" d="M904.416 1470.16L947.091 1427.42" stroke="#DEC2FF" stroke-opacity="0.5" stroke-miterlimit="10"/>
</g>
<path d="M549.566 1701.92C547.795 1703.03 545.737 1703.59 543.652 1703.52C541.566 1703.46 539.546 1702.77 537.848 1701.56C536.15 1700.34 534.85 1698.65 534.112 1696.7C533.374 1694.74 533.231 1692.61 533.702 1690.58C534.172 1688.54 535.235 1686.69 536.756 1685.26C538.276 1683.83 540.187 1682.88 542.245 1682.54C544.303 1682.19 546.417 1682.47 548.319 1683.33C550.221 1684.19 551.826 1685.59 552.931 1687.36C553.665 1688.54 554.16 1689.85 554.388 1691.22C554.616 1692.59 554.573 1693.99 554.26 1695.34C553.948 1696.69 553.372 1697.97 552.567 1699.1C551.761 1700.23 550.742 1701.19 549.566 1701.92V1701.92Z" stroke="#DEC2FF" stroke-opacity="0.5" stroke-miterlimit="10"/>
<path d="M466.453 1411.36C464.682 1412.46 462.624 1413.02 460.538 1412.95C458.453 1412.89 456.433 1412.21 454.735 1410.99C453.037 1409.78 451.737 1408.08 450.999 1406.13C450.261 1404.18 450.118 1402.05 450.589 1400.01C451.059 1397.97 452.122 1396.12 453.643 1394.69C455.163 1393.26 457.074 1392.31 459.132 1391.97C461.19 1391.63 463.304 1391.9 465.206 1392.76C467.108 1393.62 468.713 1395.02 469.818 1396.8C470.552 1397.97 471.047 1399.28 471.275 1400.65C471.503 1402.02 471.46 1403.42 471.147 1404.78C470.835 1406.13 470.259 1407.4 469.454 1408.53C468.648 1409.66 467.628 1410.62 466.453 1411.36V1411.36Z" stroke="#DEC2FF" stroke-opacity="0.5" stroke-miterlimit="10"/>
<path d="M86.3272 1500.71C84.5568 1501.82 82.4986 1502.38 80.413 1502.31C78.3273 1502.24 76.3078 1501.56 74.6098 1500.35C72.9118 1499.13 71.6116 1497.44 70.8735 1495.49C70.1354 1493.53 69.9926 1491.4 70.4632 1489.37C70.9338 1487.33 71.9966 1485.48 73.5173 1484.05C75.0379 1482.62 76.9481 1481.67 79.0063 1481.33C81.0646 1480.98 83.1784 1481.26 85.0805 1482.12C86.9827 1482.97 88.5877 1484.38 89.6927 1486.15C90.4266 1487.33 90.9217 1488.64 91.1498 1490.01C91.3778 1491.38 91.3343 1492.78 91.0218 1494.13C90.7093 1495.48 90.1338 1496.76 89.3283 1497.89C88.5228 1499.02 87.503 1499.98 86.3272 1500.71V1500.71Z" stroke="#DEC2FF" stroke-opacity="0.5" stroke-miterlimit="10"/>
<path d="M194.396 1168.22C192.628 1169.32 190.574 1169.87 188.493 1169.8C186.412 1169.73 184.398 1169.05 182.705 1167.84C181.012 1166.62 179.715 1164.93 178.98 1162.98C178.244 1161.03 178.102 1158.91 178.572 1156.88C179.041 1154.85 180.101 1153 181.618 1151.57C183.134 1150.14 185.04 1149.2 187.093 1148.85C189.146 1148.51 191.255 1148.78 193.154 1149.63C195.053 1150.49 196.656 1151.89 197.762 1153.65C198.5 1154.83 198.999 1156.14 199.229 1157.51C199.46 1158.88 199.417 1160.28 199.104 1161.64C198.792 1162.99 198.214 1164.27 197.406 1165.4C196.598 1166.53 195.575 1167.48 194.396 1168.22V1168.22Z" stroke="#DEC2FF" stroke-opacity="0.5" stroke-miterlimit="10"/>
<path d="M774.588 1162.97C772.818 1164.08 770.76 1164.64 768.674 1164.57C766.589 1164.51 764.569 1163.82 762.871 1162.61C761.173 1161.39 759.873 1159.7 759.135 1157.75C758.397 1155.79 758.254 1153.66 758.724 1151.63C759.195 1149.59 760.258 1147.74 761.779 1146.31C763.299 1144.88 765.209 1143.93 767.268 1143.59C769.326 1143.24 771.44 1143.52 773.342 1144.38C775.244 1145.24 776.849 1146.64 777.954 1148.41C778.688 1149.59 779.183 1150.9 779.411 1152.27C779.639 1153.64 779.596 1155.04 779.283 1156.39C778.97 1157.74 778.395 1159.02 777.59 1160.15C776.784 1161.28 775.764 1162.24 774.588 1162.97V1162.97Z" stroke="#DEC2FF" stroke-opacity="0.5" stroke-miterlimit="10"/>
<path d="M923.583 1539.32C921.813 1540.43 919.755 1540.98 917.67 1540.92C915.586 1540.85 913.567 1540.17 911.871 1538.95C910.174 1537.74 908.874 1536.05 908.137 1534.09C907.399 1532.14 907.256 1530.01 907.726 1527.97C908.196 1525.94 909.257 1524.09 910.776 1522.66C912.296 1521.23 914.204 1520.28 916.261 1519.93C918.318 1519.59 920.431 1519.86 922.334 1520.72C924.236 1521.57 925.842 1522.98 926.949 1524.75C927.685 1525.92 928.182 1527.24 928.412 1528.61C928.641 1529.98 928.599 1531.38 928.286 1532.73C927.973 1534.09 927.397 1535.37 926.59 1536.5C925.783 1537.63 924.761 1538.59 923.583 1539.32V1539.32Z" stroke="#DEC2FF" stroke-opacity="0.5" stroke-miterlimit="10"/>
</svg>
