<svg width="454" height="426" viewBox="0 0 454 426" fill="none" xmlns="http://www.w3.org/2000/svg">
    <g clip-path="url(#clip0_1028:8320)">
        <path d="M248.3 337.5H144.1V417.8H248.3V337.5Z" fill="#EBEBEB" />
        <path
            d="M222.1 417.2C222 417.2 221.8 399.3 221.8 377.2C221.8 355.1 221.9 337.2 222.1 337.2C222.3 337.2 222.4 355.1 222.4 377.2C222.4 399.3 222.3 417.2 222.1 417.2Z"
            fill="#E0E0E0" />
        <path d="M239.4 399.5H231.4V408.5H239.4V399.5Z" fill="#FAFAFA" />
        <path d="M187.7 337.7H175.9V354.8H187.7V337.7Z" fill="#E0E0E0" />
        <path d="M187.7 400.4H175.9V417.5H187.7V400.4Z" fill="#E0E0E0" />
        <path d="M437.2 317.3H305.9V418.6H437.2V317.3Z" fill="#EBEBEB" />
        <path
            d="M404.3 417.9C404.2 417.9 404 395.3 404 367.5C404 339.6 404.1 317.1 404.3 317.1C404.4 317.1 404.6 339.7 404.6 367.5C404.6 395.3 404.5 417.9 404.3 417.9Z"
            fill="#E0E0E0" />
        <path d="M426.1 395.6H416V407H426.1V395.6Z" fill="#FAFAFA" />
        <path d="M360.9 317.6H346V339.2H360.9V317.6Z" fill="#E0E0E0" />
        <path d="M360.9 396.7H346V418.3H360.9V396.7Z" fill="#E0E0E0" />
        <path
            d="M58.5 320.3C63.8 317.6 70.1 317.2 76 318.2C79.2 318.7 82.5 319.7 84.6 322.1C86.8 324.5 87.2 328.7 84.7 330.7C83.2 331.9 81.2 332.1 79.3 332.1C74.7 332 69.6 331.2 65.9 334C63.8 335.6 62.4 338.2 59.9 339C57.4 339.8 54.7 338.3 53.4 336.1C52.1 333.9 52.1 331.1 52.7 328.6C52.5 328.5 53.2 323.1 58.5 320.3Z"
            fill="#EBEBEB" />
        <path
            d="M46.4 296.8C49.7 301.4 56 299.9 58.9 297.1C61.8 294.3 63.1 290.2 64.2 286.2C66.8 277.3 69.4 267.9 67.5 258.8C66.9 256.1 65.9 253.4 64 251.3C62.1 249.3 59.1 248.1 56.5 248.8C53.3 249.6 51.3 252.8 49.9 255.7C45.7 264.4 43.5 274.1 43.4 283.8C43.3 288.3 43.8 293.1 46.4 296.8Z"
            fill="#EBEBEB" />
        <path
            d="M37.4 303.5C40.9 299.3 41.6 293.2 40 288C38.4 282.8 34.9 278.3 30.8 274.6C26 270.3 20.4 267 14.3 264.9C11.9 264.1 9.4 263.4 6.9 263.6C4.4 263.8 1.9 265.1 0.699995 267.4C-1 270.7 0.599995 274.7 2.4 278C5.6 283.8 9.2 289.3 13.2 294.5C16.4 298.7 20.2 302.8 25.1 304.7C30 306.6 35.2 306.4 37.8 302.9"
            fill="#EBEBEB" />
        <path
            d="M46.1 366.8C46.2 366.8 46.3 366.1 46.4 364.7C46.5 363.2 46.7 361.2 47 358.9C47.3 356.5 47.6 353.6 48.3 350.5C49 347.4 50 344 51.4 340.5C52.8 337.1 54.5 334 56.5 331.5C58.5 329 60.8 327.2 62.9 326.2C65.1 325.1 67 324.7 68.3 324.5C69.6 324.4 70.4 324.3 70.4 324.2C70.4 324.1 69.6 324.1 68.3 324.2C66.9 324.3 64.9 324.6 62.7 325.7C60.4 326.7 58 328.5 55.9 331.1C53.8 333.6 52 336.8 50.6 340.3C49.2 343.8 48.2 347.2 47.6 350.4C47 353.6 46.7 356.5 46.5 359C46.3 361.4 46.2 363.4 46.2 364.8C46.1 366.1 46.1 366.8 46.1 366.8Z"
            fill="#E0E0E0" />
        <path
            d="M46.5 362.4C46.5 362.4 46.5 362.1 46.6 361.4C46.6 360.7 46.6 359.7 46.6 358.6C46.6 356.2 46.6 352.7 46.7 348.3C46.9 339.6 47.7 330.3 49.1 317.1C50.5 304.7 52.3 290.3 54.2 280.9C54.6 278.8 55 276.9 55.4 275.2C55.8 273.5 56.1 272.1 56.4 270.9C56.7 269.8 56.9 268.9 57.1 268.2C57.2 267.6 57.3 267.2 57.3 267.2C57.3 267.2 57.2 267.5 57 268.1C56.8 268.8 56.5 269.7 56.2 270.8C55.8 272 55.5 273.4 55 275.1C54.6 276.8 54.1 278.7 53.6 280.8C51.7 289.3 49.7 301.2 48.2 314.4C46.8 327.6 46.1 339.6 46 348.3C45.9 352.7 46 356.2 46.2 358.6C46.3 359.7 46.3 360.7 46.4 361.4C46.5 362.1 46.5 362.4 46.5 362.4Z"
            fill="#E0E0E0" />
        <path
            d="M46.6 339.2C46.7 339.2 46.7 338.2 46.6 336.3C46.5 334.4 46.2 331.7 45.7 328.4C45.1 325.1 44.4 321.1 43.1 316.9C42.6 314.9 41.3 310.3 38.3 303.2C34.3 293.7 28.9 285.9 24.1 281.1C23 279.8 21.8 278.9 20.8 278C20.3 277.6 19.8 277.1 19.4 276.8C18.9 276.5 18.5 276.2 18.1 275.9C16.5 274.8 15.7 274.3 15.6 274.3C15.5 274.5 19.1 276.6 23.7 281.5C28.3 286.4 33.5 294.1 37.5 303.5C39.7 308.6 41.3 313.2 42.4 317C43.7 321.2 44.5 325.1 45.1 328.4C45.7 331.7 46.1 334.4 46.3 336.2C46.4 338.2 46.5 339.2 46.6 339.2Z"
            fill="#E0E0E0" />
        <path d="M22.6 376.6L25 408.4H65.8L68.2 376.6H22.6Z" fill="#EBEBEB" />
        <path d="M73.1 364H18.7V376.5H73.1V364Z" fill="#EBEBEB" />
        <path d="M18.7 407.2V410.7H21.2H72.1V407.2H18.7Z" fill="#E0E0E0" />
        <path d="M23.7 416.4L21.2 410.3H70.2L67.3 416.4H23.7Z" fill="#E0E0E0" />
        <path
            d="M67.4 387C67.4 387 67.3 387.1 67.2 387.3C67 387.5 66.8 387.8 66.6 388.1C66 388.8 65.2 389.9 64.2 391.1L64.1 391.2L64 391.1C62.5 389 60.5 386.3 58.1 383H58.4C56.7 385.5 54.7 388.2 52.6 391.2L52.4 391.5L52.2 391.3C50.1 388.8 47.8 386 45.4 383.2H45.8C45.7 383.3 45.6 383.5 45.4 383.7C43.3 386.4 41.2 388.9 39.3 391.4L39.1 391.7L38.9 391.4C36.8 388.5 34.9 385.7 33.1 383.2H33.4C30.6 386.4 28.2 389.2 26.3 391.3L26.2 391.4L26.1 391.2C25.2 389.6 24.4 388.4 23.9 387.5C23.7 387.1 23.5 386.8 23.3 386.5C23.2 386.3 23.1 386.2 23.1 386.1C23.1 386.1 23.2 386.2 23.3 386.4C23.5 386.7 23.7 387 23.9 387.4C24.5 388.3 25.3 389.5 26.2 391.1H26C27.8 389 30.2 386.2 33 382.9L33.2 382.7L33.4 382.9C35.2 385.4 37.1 388.1 39.2 391H38.8C40.7 388.6 42.8 386 44.9 383.3C45 383.1 45.2 383 45.3 382.8L45.5 382.6L45.7 382.8C48.1 385.7 50.4 388.4 52.5 390.9H52.1C54.2 388 56.2 385.2 57.9 382.8L58.1 382.6L58.3 382.8C60.6 386.1 62.6 388.9 64 391H63.8C64.8 389.7 65.7 388.8 66.3 388C66.6 387.7 66.8 387.4 67 387.2C67.3 387.1 67.4 387 67.4 387Z"
            fill="#F5F5F5" />
        <path
            d="M68.7 376.4C68.7 376.5 58.5 376.7 45.8 376.7C33.2 376.7 22.9 376.6 22.9 376.4C22.9 376.3 33.1 376.1 45.8 376.1C58.5 376.1 68.7 376.2 68.7 376.4Z"
            fill="#F5F5F5" />
        <path d="M355.493 15.5782L347.094 15.6232L347.317 57.3232L355.717 57.2782L355.493 15.5782Z"
            fill="#E0E0E0" />
        <path d="M296.242 15.6422L274.542 15.7584L274.666 38.7584L296.365 38.6422L296.242 15.6422Z"
            fill="#EBEBEB" />
        <path d="M317.843 15.5421L296.143 15.6583L296.266 38.6583L317.966 38.5421L317.843 15.5421Z"
            fill="#F5F5F5" />
        <path
            d="M274.5 22.0999C288.9 22.1999 303.4 22.0999 317.8 21.8999C318.1 21.8999 318.1 21.3999 317.8 21.3999C303.4 21.2999 288.9 21.3999 274.5 21.6999C274.3 21.6999 274.3 22.0999 274.5 22.0999Z"
            fill="#E0E0E0" />
        <path d="M300.354 38.2953L260.954 38.5065L261.055 57.3065L300.455 57.0953L300.354 38.2953Z"
            fill="#EBEBEB" />
        <path d="M339.654 38.0951L300.254 38.3062L300.355 57.1062L339.755 56.8951L339.654 38.0951Z"
            fill="#F5F5F5" />
        <path
            d="M261 43.6999C287.2 43.9999 313.5 43.6999 339.7 43.2999C340 43.2999 340 42.7999 339.7 42.7999C313.5 42.6999 287.2 42.6999 261 43.2999C260.8 43.2999 260.8 43.6999 261 43.6999Z"
            fill="#E0E0E0" />
        <path d="M399.1 57.3H246.3V64H399.1V57.3Z" fill="#E0E0E0" />
        <path d="M277.5 60.5H271.3V83.4H277.5V60.5Z" fill="#E0E0E0" />
        <path d="M370 60.5H363.8V83.4H370V60.5Z" fill="#E0E0E0" />
        <path
            d="M363.651 -0.0218121L355.251 0.0231934L355.559 57.4232L363.959 57.3782L363.651 -0.0218121Z"
            fill="#EBEBEB" />
        <path d="M376.781 10.6657L363.781 10.7354L364.03 57.2354L377.03 57.1657L376.781 10.6657Z"
            fill="#F5F5F5" />
        <path
            d="M376.7 19.6C376.7 19.7 373.8 19.8 370.2 19.8C366.6 19.8 363.7 19.7 363.7 19.6C363.7 19.5 366.6 19.4 370.2 19.4C373.8 19.4 376.7 19.5 376.7 19.6Z"
            fill="#E0E0E0" />
        <path
            d="M376.7 17.7001C376.7 17.8001 373.8 17.9001 370.2 17.9001C366.6 17.9001 363.7 17.8001 363.7 17.7001C363.7 17.6001 366.6 17.5001 370.2 17.5001C373.8 17.5001 376.7 17.6001 376.7 17.7001Z"
            fill="#E0E0E0" />
        <path
            d="M376.7 50.2C376.7 50.3 373.8 50.4 370.2 50.4C366.6 50.4 363.7 50.3 363.7 50.2C363.7 50.1 366.6 50 370.2 50C373.8 49.9 376.7 50 376.7 50.2Z"
            fill="#E0E0E0" />
        <path
            d="M376.7 48.2001C376.7 48.3001 373.8 48.4001 370.2 48.4001C366.6 48.4001 363.7 48.3001 363.7 48.2001C363.7 48.1001 366.6 48.0001 370.2 48.0001C373.8 48.0001 376.7 48.1001 376.7 48.2001Z"
            fill="#E0E0E0" />
        <path
            d="M370.4 43.9C370.3 43.9 370.2 39.2 370.2 33.4C370.2 27.6 370.3 22.9 370.4 22.9C370.5 22.9 370.6 27.6 370.6 33.4C370.6 39.3 370.5 43.9 370.4 43.9Z"
            fill="#E0E0E0" />
        <path d="M391 22.1H376.8V57.2H391V22.1Z" fill="#EBEBEB" />
        <path
            d="M359.4 12.2C360.725 12.2 361.8 11.1255 361.8 9.80002C361.8 8.47454 360.725 7.40002 359.4 7.40002C358.075 7.40002 357 8.47454 357 9.80002C357 11.1255 358.075 12.2 359.4 12.2Z"
            fill="#E0E0E0" />
        <path d="M360.1 16.4H358.6V50.5H360.1V16.4Z" fill="#E0E0E0" />
        <path
            d="M441.7 418.1C441.7 418.2 345.6 418.4 227.1 418.4C108.5 418.4 12.4 418.3 12.4 418.1C12.4 418 108.5 417.8 227.1 417.8C345.6 417.8 441.7 417.9 441.7 418.1Z"
            fill="#263238" />
        <path
            d="M126.3 51.0999C131 56.7999 133.6 64.1999 133.5 71.5999C133.5 75.7999 132.7 80.4999 135.1 83.8999C137 86.4999 140.4 87.7999 141.9 90.5999C143.7 93.9999 142.2 98.2999 143.3 102C144.9 107.2 151 109.4 154.6 113.5C157.7 117 158.9 122.2 157.6 126.8C156.3 131.4 152.7 135.2 148.2 136.7C145.8 137.5 143.1 137.7 140.8 136.6C138.3 135.4 136.8 132.9 135.6 130.4C133.2 125.6 112 99.4999 110.8 94.2999"
            fill="#893976" />
        <path
            d="M110.9 44.8999C102.2 43.4999 93.9 49.2999 90.3 57.1999C86.7 65.1999 86.6 74.1999 86.3 82.9999C86 91.7999 85.4 100.9 80.9 108.5C78.1 113.3 73.7 117.5 73 123C72.4 127.9 74.9 132.9 74.1 137.8C73.4 142.1 70.1 145.8 70.2 150.1C70.4 155.3 75.7 159.2 80.9 159.4C86.1 159.5 91 156.8 95.1 153.6C101.7 148.3 107.1 141.5 110.7 133.8"
            fill="#893976" />
        <path
            d="M96.6 65.5999C95.5 56.4999 102.1 48.0999 111.3 47.1999C120 46.3999 127.8 52.8999 129.1 61.5999C130.2 69.1999 131.2 76.8999 131.2 79.6999C131.1 88.0999 126.2 91.3999 124.2 92.3999C123.7 92.5999 122.5 92.8999 122 92.9999C122 92.9999 121.9 92.9999 122 93.0999L123.9 102.8C124.7 109.1 121.2 114.8 114.9 115.7C108.6 116.6 103.6 111.8 102.6 105.4L96.6 65.5999Z"
            fill="#FFBE9D" />
        <path
            d="M127.5 65.3C127.4 65.5 126.3 64.9 124.8 65.1C123.4 65.3 122.4 66.2 122.3 66C122.2 65.9 122.3 65.6 122.7 65.2C123.1 64.8 123.8 64.4 124.7 64.2C125.6 64.1 126.4 64.3 126.9 64.6C127.3 64.9 127.5 65.2 127.5 65.3Z"
            fill="#263238" />
        <path
            d="M114.8 68.3C114.7 68.5 113.5 67.9 112.1 68.1C110.7 68.3 109.7 69.2 109.6 69C109.5 68.9 109.6 68.6 110 68.2C110.4 67.8 111.1 67.4 112 67.2C112.9 67.1 113.7 67.3 114.2 67.6C114.7 68 114.9 68.2 114.8 68.3Z"
            fill="#263238" />
        <path
            d="M120 75.9999C120 75.8999 120.8 75.5999 122.3 75.1999C122.7 75.0999 123 74.9999 123 74.6999C123 74.3999 122.8 74.0999 122.6 73.6999C122.1 72.8999 121.6 71.9999 121.1 71.0999C119 67.3999 117.5 64.2999 117.6 64.1999C117.8 64.0999 119.5 67.0999 121.6 70.7999C122.1 71.6999 122.6 72.5999 123 73.3999C123.2 73.7999 123.5 74.1999 123.4 74.7999C123.3 75.0999 123.1 75.2999 122.9 75.3999C122.7 75.4999 122.5 75.4999 122.3 75.5999C120.9 75.8999 120 76.0999 120 75.9999Z"
            fill="#263238" />
        <path
            d="M122 92.8999C122 92.8999 116.6 94.1999 109.1 90.9999C109.1 90.9999 112.3 97.9999 122.5 95.4999L122 92.8999Z"
            fill="#EB996E" />
        <path
            d="M114.1 64.5999C114 64.9999 112.6 64.9999 110.9 65.4999C109.2 65.8999 108 66.5999 107.7 66.2999C107.6 66.0999 107.8 65.6999 108.2 65.2999C108.7 64.7999 109.5 64.3999 110.5 64.0999C111.5 63.7999 112.4 63.8999 113.1 63.9999C113.8 64.1999 114.1 64.3999 114.1 64.5999Z"
            fill="#263238" />
        <path
            d="M126.3 62.0999C126.1 62.4999 125.1 62.2999 123.9 62.3999C122.7 62.4999 121.8 62.8999 121.5 62.5999C121.4 62.4999 121.5 62.0999 121.9 61.6999C122.3 61.2999 123 60.9999 123.8 60.8999C124.6 60.7999 125.4 60.9999 125.8 61.2999C126.2 61.5999 126.4 61.8999 126.3 62.0999Z"
            fill="#263238" />
        <path
            d="M111.7 70.1999C111.8 70.7999 112.4 71.1999 113 71.1999C113.6 71.0999 114.1 70.4999 114 69.8999C113.9 69.2999 113.3 68.8999 112.7 68.8999C112.1 68.9999 111.6 69.5999 111.7 70.1999Z"
            fill="#263238" />
        <path
            d="M124.3 67.4C124.4 68 125 68.4 125.6 68.4C126.2 68.3 126.7 67.7 126.6 67.1C126.5 66.5 125.9 66.1 125.3 66.1C124.7 66.3 124.2 66.8 124.3 67.4Z"
            fill="#263238" />
        <path
            d="M122.2 78.6999C121.3 78.3999 120.5 78.8999 120.1 79.5999C119.7 80.2999 119.8 81.1999 120.4 81.6999C120.9 82.1999 121.9 82.2999 122.5 81.7999C122.9 81.4999 123.1 80.9999 123.2 80.3999C123.2 79.8999 123.2 79.3999 122.9 78.9999C122.6 78.5999 122.1 78.3999 121.6 78.5999"
            fill="#EB996E" />
        <path
            d="M128.1 54.8C127.4 51.6 125.3 48.9 122.6 47.1C120.3 45.5 117.7 44.5 114.9 44.4C112.2 44.3 109.3 45.2 107.4 47.1C105.9 48.5 105.2 50.5 105.1 52.5L105.3 51.1C104.9 52.2 104.9 53.5 105.3 54.6C105.5 55.2 105.8 55.8 106.1 56.4C106.8 58.1 108.2 59.6 109.8 60.5C110.6 60.9 111.4 61.2 112.3 61.1C113.2 61.1 114 60.7 114.6 60C115.4 59 115.3 57.6 115.1 56.4C115.8 57.6 116.6 58.8 117.8 59.5C119 60.2 120.7 60.2 121.6 59.1C122.4 58 122.1 56.5 121.6 55.3C122.4 56.5 123.5 57.4 124.7 58C125.4 58.3 126.2 58.5 126.9 58.2C127.5 57.9 127.9 57.3 128.1 56.7C128.3 56.1 128.2 55.4 128.1 54.8Z"
            fill="#893976" />
        <path
            d="M120.8 57.3999C120.7 57.3999 120.7 56.1999 120.3 54.3999C119.9 52.5999 119 49.9999 116.8 48.0999C115.7 47.1999 114.5 46.4999 113.3 46.1999C112.1 45.8999 111 45.8999 110.1 46.0999C108.3 46.4999 107.4 47.2999 107.3 47.2999C107.3 47.2999 107.5 46.9999 107.9 46.6999C108.3 46.3999 109 45.9999 110 45.7999C110.9 45.5999 112.1 45.4999 113.4 45.7999C114.7 46.0999 116 46.7999 117.1 47.6999C119.4 49.6999 120.3 52.3999 120.6 54.2999C120.8 55.2999 120.8 55.9999 120.8 56.5999C120.9 57.0999 120.9 57.3999 120.8 57.3999Z"
            fill="#682C5D" />
        <path
            d="M212.9 174L174.4 158.8C174.4 158.8 154.7 133 155.1 132.5L141.3 147.6L161.4 174.8L208 185.7L230.1 185.9C228.4 177.3 212.9 174 212.9 174Z"
            fill="#FFBE9D" />
        <path
            d="M129.1 100.3L123.9 98.2999L101.3 101.2V105.2L100.7 105.3C100.7 105.3 93.7 106.6 86.8 110.7C78.5 115.7 74.2 125.2 75.8 134.8C76.7 140.5 78.5 147.5 81.9 151.5C88.5 159.2 94.5 149.7 94.5 149.7C94.5 149.7 98.6 159.1 98.4 163.6C98.2 167.3 96.6 175.1 96 177.5C95.9 177.9 96.2 178.3 96.6 178.4L144.3 187.2L144.5 175.5L143 127.5L140.9 108.9C140.9 108.7 140.9 99.7999 129.1 100.3Z"
            fill="#FFC444" />
        <path d="M140.1 105.6L158.3 131.9L143.7 149.8L140.1 105.6Z" fill="#FFC444" />
        <path
            d="M144 160.9C144 160.9 143.9 160.3 143.9 159.2C143.9 158 143.9 156.5 143.8 154.6C143.7 150.7 143.5 145.3 142.7 139.4C141.9 133.5 140.8 128.2 139.9 124.4C139.5 122.6 139.1 121 138.8 119.9C138.6 118.8 138.4 118.2 138.5 118.2C138.5 118.2 138.7 118.8 139 119.8C139.3 120.8 139.7 122.4 140.2 124.3C141.2 128.1 142.4 133.4 143.1 139.3C143.9 145.2 144 150.6 144 154.5C144 156.5 144 158 143.9 159.1C144.1 160.3 144.1 160.9 144 160.9Z"
            fill="#263238" />
        <path
            d="M99.3 121C99.3 121.1 97.9 121.1 95.7 121.2C93.5 121.3 90.4 121.6 87.1 122.3C83.8 123 80.9 123.9 78.8 124.7C76.7 125.5 75.5 126 75.4 126C75.4 126 75.7 125.8 76.2 125.5C76.8 125.2 77.6 124.8 78.6 124.4C80.7 123.5 83.6 122.5 86.9 121.8C90.2 121.1 93.3 120.9 95.6 120.8C96.7 120.8 97.6 120.8 98.2 120.9C98.9 120.9 99.3 120.9 99.3 121Z"
            fill="#FAFAFA" />
        <path
            d="M141.4 133C141.4 133.1 140.5 133.3 139.1 133.5C137.7 133.7 135.7 133.9 133.5 134C131.3 134.1 129.3 134 127.9 133.9C126.5 133.8 125.6 133.6 125.6 133.6C125.6 133.5 126.5 133.5 127.9 133.6C129.3 133.6 131.3 133.6 133.5 133.6C135.7 133.5 137.6 133.4 139 133.3C140.5 133 141.4 132.9 141.4 133Z"
            fill="#FAFAFA" />
        <path
            d="M149.8 121.1C149.9 121.2 148.3 122.8 145.9 124.3C143.5 125.8 141.4 126.5 141.3 126.3C141.2 126.2 143.3 125.3 145.6 123.8C147.9 122.4 149.7 121 149.8 121.1Z"
            fill="#FAFAFA" />
        <path
            d="M142.4 108.9C142.5 109 140.3 110.9 137.1 112.3C133.9 113.7 131 113.9 131 113.8C131 113.6 133.8 113.2 136.9 111.9C140.1 110.5 142.3 108.8 142.4 108.9Z"
            fill="#FAFAFA" />
        <path
            d="M143.4 153.4C143.4 153.4 143.1 153.6 142.5 153.9C141.9 154.2 141 154.6 139.8 155C137.5 155.8 134.2 156.8 130.5 157.4C126.8 158 123.4 158 120.9 157.9C119.7 157.8 118.7 157.8 118 157.7C117.3 157.6 116.9 157.5 116.9 157.5C116.9 157.4 118.4 157.5 120.9 157.6C123.3 157.6 126.7 157.5 130.4 156.9C134.1 156.3 137.3 155.5 139.6 154.7C142 153.9 143.4 153.3 143.4 153.4Z"
            fill="#FAFAFA" />
        <path
            d="M143.8 166.9C143.8 166.9 143.7 167 143.4 167.1C143.1 167.3 142.6 167.5 142.1 167.7C141 168.2 139.4 168.9 137.3 169.7C135.3 170.5 132.8 171.3 130 172C127.2 172.7 124.1 173.4 120.8 173.9C117.5 174.4 114.3 174.7 111.5 174.8C108.6 174.9 106 174.9 103.8 174.8C101.6 174.7 99.9 174.5 98.7 174.4C98.1 174.3 97.7 174.3 97.3 174.2C97 174.2 96.8 174.1 96.8 174.1C96.8 174.1 97 174.1 97.3 174.1C97.7 174.1 98.1 174.2 98.7 174.2C99.9 174.3 101.7 174.4 103.8 174.5C106 174.6 108.6 174.5 111.4 174.4C114.3 174.2 117.4 173.9 120.7 173.4C124 172.9 127 172.2 129.8 171.5C132.6 170.8 135 170 137.1 169.3C139.1 168.6 140.8 168 141.9 167.5C142.4 167.3 142.8 167.1 143.2 167C143.6 167 143.8 166.9 143.8 166.9Z"
            fill="#FAFAFA" />
        <path
            d="M56 379.5L50.6 403.9L40.8 422C40.1 423.3 40.6 424.9 42 425.6C42.8 425.9 43.6 425.9 44.3 425.5C48.9 422.9 65.7 413 66 411.2C66.3 409.1 73.4 385.8 73.4 385.8L56 379.5Z"
            fill="#455A64" />
        <g opacity="0.6">
            <path opacity="0.6"
                d="M42 425.6L66.4 409.6L66.1 410.6C65.9 411.5 65.4 412.3 64.6 412.8C62.6 414.2 57 418.1 44.3 425.5C43.6 425.9 42.7 426 42 425.6Z"
                fill="white" />
        </g>
        <g opacity="0.6">
            <g opacity="0.6">
                <path opacity="0.6"
                    d="M63.3 400.5C62.6 400.8 62.2 401.6 62.4 402.4C62.6 403.1 63.5 403.6 64.2 403.3C64.9 403 65.5 402 65.1 401.3C64.8 400.6 63.7 400.1 63.1 400.6"
                    fill="white" />
            </g>
        </g>
        <path
            d="M50.1 416.3C49.9 416.3 49.7 414.9 48.4 413.9C47.2 412.8 45.7 412.8 45.7 412.7C45.7 412.6 46 412.5 46.6 412.6C47.2 412.7 48 412.9 48.7 413.5C49.4 414.1 49.8 414.8 50 415.4C50.2 416 50.2 416.3 50.1 416.3Z"
            fill="#263238" />
        <path
            d="M47.6 419.2C47.5 419.3 46.9 418.3 45.7 417.6C44.5 416.9 43.4 416.9 43.4 416.7C43.4 416.6 44.7 416.3 46 417.1C47.3 417.9 47.7 419.1 47.6 419.2Z"
            fill="#263238" />
        <path
            d="M54.4 413C54.3 413.1 53.4 411.6 51.6 410.4C49.9 409.2 48.2 408.8 48.2 408.7C48.2 408.6 50.1 408.7 51.9 410C53.8 411.2 54.5 412.9 54.4 413Z"
            fill="#263238" />
        <path
            d="M56.6 405.7C56.5 405.8 55.3 404.9 53.6 404.4C51.9 403.9 50.4 404 50.4 403.8C50.4 403.7 51.9 403.3 53.8 403.8C55.6 404.4 56.7 405.6 56.6 405.7Z"
            fill="#263238" />
        <path
            d="M58.4 398.5C58.3 398.6 57.1 397.5 55.3 397.1C53.4 396.7 51.9 397.3 51.9 397.1C51.9 397 52.2 396.8 52.9 396.6C53.5 396.4 54.5 396.3 55.5 396.5C56.5 396.7 57.3 397.2 57.8 397.6C58.2 398.1 58.5 398.5 58.4 398.5Z"
            fill="#263238" />
        <path
            d="M55.7 395.8C55.7 395.8 55.7 395.5 55.9 394.9C56.1 394.3 56.5 393.5 57.2 392.7C57.6 392.3 58 391.8 58.7 391.6C59.1 391.5 59.6 391.7 59.8 392.1C60 392.5 60 392.9 59.9 393.3C59.5 394.8 57.8 396 56 395.8C54.2 395.6 52.9 394.2 52.5 392.7C52.4 392.3 52.4 391.9 52.7 391.5C53 391.1 53.5 391.1 53.9 391.2C54.6 391.5 54.9 392 55.3 392.4C56 393.3 56.3 394.1 56.5 394.7C56.7 395.3 56.7 395.6 56.7 395.6C56.6 395.6 56.4 394.3 55 392.6C54.7 392.2 54.3 391.7 53.8 391.6C53.6 391.5 53.3 391.6 53.2 391.7C53.1 391.9 53 392.2 53.1 392.5C53.4 393.7 54.6 395 56.2 395.2C57.7 395.4 59.2 394.4 59.5 393.1C59.6 392.8 59.6 392.5 59.5 392.3C59.4 392.1 59.2 392 58.9 392C58.4 392.1 57.9 392.5 57.6 392.9C56 394.4 55.8 395.8 55.7 395.8Z"
            fill="#263238" />
        <g opacity="0.3">
            <path opacity="0.3"
                d="M55.4 382.2L54.2 387.8L71.9 390.7L73.4 385.8L56 379.5L55.4 382.2Z"
                fill="black" />
        </g>
        <path
            d="M135.1 388.5L133.6 408C133.6 408 153 416 153 419.7L115 418.2L116 387.7L135.1 388.5Z"
            fill="#455A64" />
        <g opacity="0.6">
            <g opacity="0.6">
                <path opacity="0.6"
                    d="M122 406C121.3 406.2 120.7 407 120.9 407.7C121 408.4 121.9 409 122.6 408.8C123.3 408.6 124 407.7 123.8 407C123.6 406.3 122.6 405.7 121.9 406"
                    fill="white" />
            </g>
        </g>
        <g opacity="0.6">
            <path opacity="0.6"
                d="M115.1 418.3L115.3 415.2L151.6 417.8C151.6 417.8 153.3 418.6 153 419.8L115.1 418.3Z"
                fill="white" />
        </g>
        <path
            d="M134.3 407.9C134.3 408.1 133.4 408.1 132.4 408.7C131.5 409.2 130.9 410 130.8 409.9C130.6 409.9 130.9 408.8 132.1 408.1C133.2 407.5 134.3 407.7 134.3 407.9Z"
            fill="#263238" />
        <path
            d="M138.2 409.7C138.2 409.9 137.4 410.2 136.8 410.9C136.1 411.6 135.9 412.5 135.7 412.5C135.5 412.5 135.4 411.4 136.3 410.5C137.1 409.6 138.2 409.5 138.2 409.7Z"
            fill="#263238" />
        <path
            d="M140.3 414.6C140.1 414.6 139.9 413.7 140.4 412.7C140.9 411.7 141.8 411.3 141.9 411.5C142 411.7 141.4 412.2 141 413C140.5 413.8 140.4 414.5 140.3 414.6Z"
            fill="#263238" />
        <path
            d="M134.1 403.4C134 403.6 133.2 403.3 132.1 403.3C131 403.3 130.2 403.6 130.1 403.5C130 403.4 130.8 402.7 132.1 402.7C133.3 402.6 134.2 403.3 134.1 403.4Z"
            fill="#263238" />
        <g opacity="0.3">
            <path opacity="0.3" d="M134.8 392.4L134.5 395.9L115.9 395L116 391L134.8 392.4Z"
                fill="black" />
        </g>
        <path
            d="M134.3 399.5C134.3 399.6 133.6 399.7 132.4 399.4C131.8 399.3 131.1 399.1 130.4 398.7C130 398.5 129.7 398.3 129.3 398.1C129.1 398 128.9 397.9 128.7 397.6C128.5 397.4 128.4 396.9 128.7 396.6C128.9 396.3 129.3 396.2 129.5 396.2C129.8 396.2 130 396.3 130.2 396.3C130.6 396.4 131 396.6 131.4 396.8C132.1 397.2 132.7 397.6 133.1 398C133.9 398.8 134.2 399.6 134.2 399.6C134.1 399.7 133.7 399.1 132.8 398.4C132.4 398 131.8 397.7 131.1 397.4C130.8 397.3 130.4 397.1 130 397C129.6 396.9 129.3 396.9 129.2 397C129.2 397.1 129.2 397.1 129.2 397.2C129.3 397.3 129.4 397.4 129.6 397.5C129.9 397.7 130.3 397.9 130.6 398.1C131.2 398.5 131.9 398.7 132.4 398.9C133.6 399.3 134.3 399.4 134.3 399.5Z"
            fill="#263238" />
        <path
            d="M134.1 399.7C134 399.7 133.7 399 133.7 397.8C133.7 397.2 133.8 396.5 134 395.7C134.1 395.3 134.3 394.9 134.5 394.6C134.7 394.2 135 393.7 135.7 393.7C136.1 393.7 136.4 394 136.5 394.3C136.6 394.6 136.6 394.8 136.7 395C136.8 395.4 136.7 395.9 136.7 396.3C136.5 397.1 136.2 397.8 135.8 398.2C135 399.2 134.2 399.3 134.2 399.3C134.1 399.2 134.8 398.9 135.4 397.9C135.7 397.4 136 396.8 136.1 396.1C136.2 395.7 136.2 395.4 136.1 395C136.1 394.6 135.9 394.3 135.8 394.3C135.6 394.3 135.3 394.6 135.1 394.9C134.9 395.2 134.7 395.6 134.6 395.9C134.3 396.6 134.2 397.2 134.2 397.8C134 399 134.2 399.7 134.1 399.7Z"
            fill="#263238" />
        <path
            d="M95.8 178C95.8 178 89.8 178.3 85.8 198.8C81.8 219.3 51.3 385.6 51.3 385.6L73.4 385.8L115.1 227.7L112.3 390.7L134.8 392.4C134.8 392.4 151.7 212.1 151.8 201.6C152 188.5 144.5 175.3 144.5 175.3L95.8 178Z"
            fill="#444B8C" />
        <path
            d="M126.2 176.3C126.3 176.3 124 188.1 121.1 202.5C118.1 216.9 115.6 228.6 115.5 228.6C115.4 228.6 117.7 216.8 120.6 202.4C123.5 187.9 126 176.2 126.2 176.3Z"
            fill="#262626" />
        <path
            d="M129.6 179.2C129.6 179.1 130.2 179 130.9 179.6C131.2 179.9 131.5 180.4 131.5 181C131.5 181.6 131 182.3 130.4 182.5C129.8 182.8 129 182.7 128.5 182.3C128 181.9 127.9 181.3 127.9 180.9C127.9 180 128.5 179.7 128.5 179.7C128.6 179.8 128.2 180.1 128.2 180.9C128.2 181.3 128.4 181.7 128.7 182C129 182.3 129.6 182.3 130.1 182.1C130.6 181.9 130.9 181.5 131 181C131 180.6 130.8 180.1 130.6 179.9C130.2 179.3 129.6 179.3 129.6 179.2Z"
            fill="#262626" />
        <path
            d="M128.7 187.3C128.7 187.2 129.3 187.3 129.7 188.1C129.9 188.5 129.9 189 129.6 189.6C129.3 190.1 128.6 190.5 128 190.4C127.3 190.4 126.7 189.9 126.5 189.3C126.3 188.7 126.5 188.2 126.7 187.8C127.2 187.1 127.8 187.1 127.8 187.1C127.8 187.2 127.3 187.3 127 187.9C126.9 188.2 126.8 188.6 127 189C127.1 189.4 127.6 189.7 128.1 189.7C128.6 189.7 129.1 189.5 129.3 189.2C129.5 188.8 129.5 188.4 129.4 188.1C129.1 187.6 128.6 187.4 128.7 187.3Z"
            fill="#262626" />
        <path
            d="M107.5 179.4C107.5 179.4 107.5 179.8 107.2 180.4C107 181 106.6 182 106 183C104.9 185.2 102.7 187.9 99.6 190C96.5 192.1 93.1 192.9 90.6 193.1C89.4 193.2 88.4 193.2 87.7 193.1C87 193 86.6 193 86.7 192.9C86.7 192.8 88.2 193 90.6 192.7C93 192.4 96.3 191.5 99.3 189.5C102.4 187.5 104.5 184.8 105.7 182.8C107 180.8 107.4 179.4 107.5 179.4Z"
            fill="#262626" />
        <path
            d="M150.5 194C150.5 194 150.2 193.9 149.8 193.6C149.4 193.3 148.8 192.9 148.2 192.2C146.9 191 145.4 188.9 144.4 186.4C143.4 183.8 143.2 181.3 143.3 179.5C143.3 178.6 143.4 177.9 143.6 177.4C143.7 176.9 143.8 176.7 143.8 176.7C143.9 176.7 143.7 177.8 143.7 179.5C143.7 181.2 144 183.7 144.9 186.2C145.9 188.7 147.3 190.7 148.4 192C149.7 193.3 150.6 193.9 150.5 194Z"
            fill="#262626" />
        <path
            d="M87 138.5L96.8 139C97.4 142.2 99.6 147.1 99.6 147.1C107.5 133.4 113.6 115 115.2 107.6C115 106.9 114.7 106 114.4 105.1C114 104 114.3 102.1 114.5 100.9C114.8 99.2999 115.2 96.9999 115.4 95.9999C115.8 92.8999 116.3 92.3999 117.4 92.6999C118.9 93.1999 116.8 101.5 118 101.6C118.7 101.7 119.5 98.8999 119.7 96.4999C119.9 94.1999 121 86.9999 121.8 86.4999C122.9 85.7999 123.9 86.8999 123.6 89.1999C123.3 91.4999 122.9 98.5999 124.2 98.5999C125.4 98.6999 126.4 86.7999 126.4 86.7999C126.4 86.7999 126.2 84.1999 127.6 84.2999C130.2 84.3999 128.2 96.8999 127.9 98.0999C127.7 98.8999 129.1 99.0999 129.2 98.1999C129.3 97.2999 129.9 86.2999 132.6 86.3999C134.6 86.4999 131 96.6999 132.2 99.0999C133.3 101.5 134.1 90.9999 136 91.1999C136.7 91.2999 137.2 91.3999 135.9 97.2999C135.2 100.5 133.1 106.3 131.3 111.2C128.3 127.6 114.9 180.1 94 170.5C82.3 165.1 76.8 138.5 76.8 138.5H87Z"
            fill="#FFBE9D" />
        <path
            d="M131.3 111.4C131.3 111.4 131.3 111.3 131.4 111C131.5 110.7 131.6 110.4 131.8 110C132.1 109.1 132.6 107.7 133.2 106C133.8 104.3 134.5 102.2 135.2 99.6999C135.6 98.4999 135.9 97.0999 136.1 95.6999C136.2 94.9999 136.4 94.1999 136.5 93.4999C136.5 93.0999 136.6 92.6999 136.6 92.3999C136.6 91.9999 136.5 91.6999 136.2 91.6999C135.9 91.5999 135.7 91.8999 135.4 92.1999C135.2 92.4999 135 92.9 134.9 93.2999C134.6 94.0999 134.4 94.9 134.2 95.7999C134 96.6999 133.8 97.4999 133.5 98.3999C133.3 98.8999 133.3 99.2999 132.9 99.7999C132.8 99.9 132.8 99.8999 132.6 99.9999C132.4 99.9999 132.3 99.9999 132.2 99.8999C132.1 99.7999 132 99.5999 131.9 99.4999C131.8 99.1999 131.7 98.9999 131.7 98.6999C131.5 96.6999 132 94.7999 132.3 92.6999C132.5 91.6999 132.7 90.6999 132.8 89.6999C132.9 89.1999 132.9 88.6999 132.9 88.1999C132.9 87.6999 132.8 87.0999 132.6 86.9999C132.3 86.8999 131.9 87.1999 131.6 87.5999C131.3 87.9999 131.1 88.4999 130.9 88.9999C130.6 89.9999 130.3 91.0999 130.1 92.1999C129.9 93.2999 129.8 94.3999 129.6 95.5999C129.5 96.1999 129.5 96.6999 129.4 97.2999L129.3 98.1999C129.3 98.3999 129.3 98.8999 128.9 99.1999C128.6 99.4999 128.1 99.4999 127.7 99.1999C127.5 99.0999 127.4 98.8999 127.3 98.5999C127.3 98.4999 127.3 98.4 127.3 98.2999V98.0999C127.4 97.4999 127.5 96.8999 127.6 96.3999C127.8 95.1999 127.9 93.9999 128 92.7999C128.1 91.5999 128.2 90.3999 128.2 89.1999C128.2 87.9999 128.2 86.6999 127.8 85.5999C127.7 85.2999 127.5 84.9999 127.3 84.8999C127.1 84.7999 126.8 84.8999 126.6 85.0999C126.3 85.5999 126.2 86.3999 126.2 86.9999C126 89.3999 125.7 91.6999 125.4 93.8999C125.2 94.9999 125 96.1999 124.8 97.2999C124.7 97.5999 124.6 97.8999 124.5 98.0999C124.4 98.3999 124.3 98.6999 123.9 98.9999C123.6 99.1999 123.3 98.9999 123.2 98.7999C123.1 98.5999 123 98.4999 122.9 98.2999C122.8 97.9999 122.7 97.6999 122.7 97.3999C122.4 95.0999 122.5 92.9999 122.6 90.7999C122.6 89.6999 122.9 88.6999 122.8 87.6999C122.7 87.1999 122.6 86.7999 122.2 86.5999C122 86.4999 121.9 86.4999 121.7 86.4999C121.6 86.4999 121.5 86.5999 121.4 86.5999C121.3 86.6999 121.3 86.5999 121.3 86.7999C120.9 87.5999 120.7 88.5999 120.5 89.5999C120.3 90.5999 120.1 91.4999 120 92.3999C119.8 93.2999 119.7 94.2999 119.6 95.1999C119.5 96.0999 119.4 96.9999 119.2 97.8999C119 98.7999 118.8 99.6999 118.5 100.5C118.4 100.7 118.3 100.9 118.2 101.1C118.1 101.3 118 101.5 117.6 101.6C117.4 101.7 117.2 101.5 117.1 101.4C117 101.3 117 101.1 116.9 101C116.8 100.8 116.8 100.5 116.8 100.3C116.8 98.5999 117 96.9999 117.1 95.4999C117.1 94.7999 117.2 93.9999 117.1 93.2999C117.1 92.9999 117 92.5999 116.8 92.4999C116.5 92.3999 116.2 92.2999 116 92.4999C115.6 92.7999 115.4 93.5999 115.3 94.0999C115.2 94.6999 115.1 95.2999 115 95.8999C114.6 98.2999 114.1 100.3 113.9 102C113.8 102.8 113.8 103.6 113.9 104.2C114 104.8 114.2 105.3 114.4 105.8C114.5 106.2 114.6 106.5 114.7 106.8C114.8 107 114.8 107.1 114.8 107.1C114.8 107.1 114.7 107 114.7 106.8C114.6 106.6 114.5 106.2 114.4 105.9C114.3 105.5 114.1 105 113.9 104.3C113.8 103.6 113.8 102.9 113.9 102C114.1 100.3 114.5 98.2999 114.9 95.8999C115 95.2999 115.1 94.6999 115.2 93.9999C115.3 93.6999 115.3 93.3999 115.5 92.9999C115.6 92.6999 115.8 92.2999 116.1 92.0999C116.5 91.8999 116.9 91.8999 117.3 92.0999C117.8 92.3999 117.8 92.7999 117.9 93.1999C118 93.8999 118 94.6999 117.9 95.4999C117.8 96.9999 117.6 98.5999 117.6 100.2C117.6 100.4 117.6 100.6 117.7 100.8C117.7 101 117.8 101.1 117.8 101C117.8 101 118 100.8 118.1 100.7C118.2 100.5 118.3 100.3 118.4 100.1C118.7 99.2999 118.9 98.4999 119.1 97.5999C119.3 96.6999 119.3 95.7999 119.4 94.8999C119.5 93.9999 119.6 92.9999 119.8 92.0999C119.9 91.1999 120.1 90.1999 120.3 89.1999C120.5 88.1999 120.7 87.2999 121.1 86.1999C121.1 86.0999 121.3 85.8999 121.5 85.7999C121.6 85.6999 121.8 85.6999 121.9 85.5999C122.2 85.4999 122.6 85.5999 122.9 85.7999C123.5 86.1999 123.6 86.7999 123.7 87.2999C123.8 87.7999 123.8 88.3999 123.7 88.8999C123.6 89.3999 123.6 89.8999 123.6 90.4999C123.5 92.5999 123.4 94.7999 123.7 96.8999C123.7 97.1999 123.8 97.3999 123.9 97.5999C123.9 97.6999 124 97.7999 124 97.8999C124 98.0999 124 97.8999 124 97.9999C124 97.9999 124 97.9999 124 97.8999C124.1 97.8999 124.2 97.5999 124.3 97.3999C124.4 97.1999 124.5 96.8999 124.5 96.5999C124.8 95.4999 125 94.4 125.1 93.2999C125.4 90.9999 125.7 88.6999 125.9 86.3999C125.9 85.5999 125.9 84.7999 126.4 83.9999C126.7 83.5999 127.3 83.3999 127.8 83.5999C128.3 83.7999 128.5 84.2999 128.7 84.6999C129.1 85.9999 129.1 87.1999 129.1 88.4999C129.1 89.6999 129 90.9999 128.9 92.1999C128.8 93.3999 128.6 94.5999 128.5 95.7999C128.4 96.4 128.3 96.9999 128.2 97.5999C128.1 97.9999 128.1 97.9999 128.3 98.0999C128.4 98.1999 128.7 98.1999 128.8 98.0999C128.9 97.9999 128.9 97.7999 129 97.4999L129.1 96.5999C129.2 95.9999 129.2 95.3999 129.3 94.8999C129.4 93.7999 129.6 92.5999 129.8 91.4999C130 90.3999 130.2 89.2999 130.6 88.1999C130.8 87.6999 131 87.0999 131.3 86.5999C131.5 86.3999 131.7 86.0999 131.9 85.8999C132.2 85.6999 132.5 85.5999 132.9 85.6999C133.3 85.8999 133.4 86.2999 133.4 86.5999C133.4 86.8999 133.5 87.1999 133.5 87.3999C133.5 87.9999 133.4 88.4999 133.4 88.9999C133.3 89.9999 133.1 91.0999 132.9 92.0999C132.6 94.0999 132.1 96.0999 132.3 97.8999C132.3 98.0999 132.4 98.2999 132.5 98.4999C132.5 98.5999 132.6 98.6999 132.6 98.6999C132.6 98.7999 132.6 98.6999 132.6 98.6999C132.6 98.5999 132.6 98.6999 132.6 98.5999C132.8 98.2999 133 97.7999 133.1 97.3999C133.4 96.4999 133.6 95.5999 133.8 94.7999C134 93.9 134.3 93.0999 134.5 92.2999C134.6 91.9 134.8 91.4999 135 91.0999C135.1 90.8999 135.2 90.6999 135.5 90.5999C135.6 90.4999 135.7 90.4999 135.9 90.3999C136.1 90.3999 136.2 90.3999 136.3 90.3999C136.5 90.3999 136.9 90.5999 136.9 90.8999C137 91.0999 137 91.3999 137 91.5999C137 91.9999 137 92.4 136.9 92.7999C136.8 93.5999 136.7 94.2999 136.5 94.9999C136.2 96.3999 135.9 97.7999 135.5 98.9999C134.8 101.5 134 103.6 133.4 105.3C132.8 107 132.3 108.3 131.9 109.2C131.7 109.6 131.6 110 131.5 110.2C131.4 111.3 131.3 111.4 131.3 111.4Z"
            fill="#EB996E" />
        <path
            d="M76.7 139.6C78.6 146.3 82.3 156.7 86.3 167.6C86.9 169.2 89.1 169.3 89.8 167.8L99.6 147.1C99.6 147.1 97.2 130.1 97.4 130.7C97.6 131.3 77.2 132.9 77.2 132.9L76.7 139.6Z"
            fill="#FFC444" />
        <path
            d="M98.8 136.3C98.8 136.4 97.6 136.7 95.6 137.5C93.7 138.2 91 139.4 88.3 141C85.6 142.6 83.4 144.4 81.8 145.8C80.2 147.2 79.4 148.1 79.3 148C79.3 148 79.5 147.7 79.8 147.3C80.2 146.9 80.8 146.2 81.5 145.5C83 144 85.2 142.2 88 140.5C90.7 138.8 93.4 137.7 95.4 137.1C96.4 136.8 97.2 136.5 97.8 136.4C98.4 136.3 98.8 136.3 98.8 136.3Z"
            fill="#FAFAFA" />
        <path
            d="M102.6 141.4C102.5 141.4 101.9 140.7 101 139.3C100.1 137.9 99 135.9 98 133.6C97 131.3 96.4 129 96.1 127.4C95.8 125.8 95.7 124.7 95.7 124.7C95.8 124.7 96 125.7 96.4 127.3C96.8 128.9 97.5 131.1 98.4 133.4C99.4 135.7 100.4 137.7 101.3 139.1C102.1 140.5 102.7 141.4 102.6 141.4Z"
            fill="#263238" />
        <path
            d="M109.2 49.8C105.8 55.3 105.1 62.5 107.3 68.6C108.3 71.3 109.9 74.1 109.6 77C109.3 80 107 82.8 107.8 85.7C108.3 87.4 109.7 88.7 110.3 90.4C111 92.4 110.3 94.5 110 96.6C109.2 101.8 110.9 107.1 111.3 112.4C111.7 117.7 110.3 123.9 105.6 126.2C104.2 126.9 102.3 127.1 101.1 126C99.6 124.6 100 122.2 100.4 120.2C104.5 100.2 91.8 80.7 94.7 60.4C95.2 57.2 97 51.7 99.3 49.4C101.6 47.1 108.1 47.4 110.3 49.8"
            fill="#893976" />
        <path
            d="M89.5 107.8C89.5 107.8 90.1 107.1 91 105.7C91.9 104.3 93 102.1 93.6 99.1999C93.9 97.6999 94 96.0999 93.9 94.2999C93.8 92.4999 93.6 90.5999 93.7 88.5999C93.7 87.5999 94 86.5999 94.3 85.4999C94.7 84.4999 95.1 83.4999 95.7 82.5999C96.8 80.6999 98.2 78.8999 99.5 77.0999C100.8 75.1999 101.9 73.1999 102.2 71.0999C102.6 68.9999 102.2 66.8999 101.9 64.9999C101.6 62.9999 101.3 61.0999 101.5 59.2999C101.6 57.4999 102 55.8999 102.5 54.3999C103.5 51.4999 104.9 49.4999 106 48.1999C106.6 47.5999 107 47.0999 107.4 46.7999C107.7 46.4999 107.9 46.3999 107.9 46.3999C107.9 46.3999 107.2 47.0999 106.2 48.3999C105.2 49.6999 103.8 51.7999 102.9 54.5999C102.4 55.9999 102.1 57.5999 102 59.3999C101.9 61.1999 102.1 62.9999 102.5 64.9999C102.8 66.9999 103.2 69.0999 102.9 71.2999C102.5 73.4999 101.4 75.5999 100.1 77.4999C98.8 79.3999 97.4 81.1999 96.3 82.9999C95.8 83.8999 95.3 84.8999 95 85.7999C94.7 86.7999 94.5 87.7999 94.4 88.6999C94.3 90.6999 94.5 92.5999 94.6 94.2999C94.7 96.0999 94.5 97.7999 94.2 99.2999C93.6 102.3 92.4 104.5 91.4 105.9C90.9 106.6 90.5 107.1 90.2 107.4C89.6 107.7 89.5 107.9 89.5 107.8Z"
            fill="#682C5D" />
        <path
            d="M80 109.3C80 109.3 80.1 109.1 80.3 108.6C80.5 108.1 80.9 107.5 81.3 106.7C82.1 105.1 83.4 102.7 84.6 99.6999C85.8 96.6999 87 92.8999 87 88.5999C87 87.5 86.9 86.4 86.8 85.3C86.6 84.2 86.4 83.1 86.2 81.9C86 80.7 86 79.4999 86.3 78.1999C86.6 76.9999 87.4 75.7999 88.3 75C90.2 73.2999 92.5 72.1999 93.6 70.1999C94.8 68.1999 95.1 65.9 95.4 63.7999C95.7 61.5999 96.1 59.5999 96.8 57.7999C97.5 55.9999 98.4 54.4 99.3 53C101.2 50.3 103.3 48.5999 104.9 47.5999C105.7 47.0999 106.3 46.7 106.7 46.5C107.1 46.3 107.4 46.2 107.4 46.2C107.4 46.3 106.5 46.7 105 47.7C103.5 48.8 101.5 50.5 99.6 53.2C98.7 54.5 97.8 56.1 97.2 57.9C96.5 59.7 96.1 61.7 95.9 63.9C95.6 66 95.4 68.4 94.1 70.5C92.8 72.7 90.5 73.7999 88.7 75.5C87.8 76.2999 87.1 77.2999 86.8 78.5C86.5 79.5999 86.6 80.7999 86.7 82C86.9 83.2 87.1 84.3 87.3 85.4C87.5 86.5 87.5 87.7 87.5 88.8C87.4 93.2 86.2 97 84.9 100C83.6 103 82.3 105.4 81.4 107C81 107.8 80.6 108.4 80.3 108.8C80.1 109.1 80 109.4 80 109.3Z"
            fill="#682C5D" />
        <path
            d="M410.8 391.9C410.8 391.9 410.9 391.8 411 391.5C411.1 391.2 411.3 390.8 411.6 390.3C412.1 389.2 412.7 387.6 413.3 385.5C414.4 381.2 414.8 374.6 413.2 366.8C412.4 362.9 411.2 358.7 409.7 354.3C408.2 349.8 406.5 345.1 405.1 340C403.7 334.9 402.6 329.4 402.8 323.6C403 317.8 404.7 312 406.6 306.2C408.5 300.4 410.4 294.8 411 289.1C411.7 283.4 410.4 277.9 407.9 273.3C405.4 268.7 402.2 264.7 399.9 260.7C397.5 256.6 396 252.4 395.1 248.5C393.3 240.6 393.9 234 394.8 229.7C395.7 225.3 396.8 223.1 396.8 223.1C396.8 223.1 396.8 223.3 396.7 223.5C396.6 223.8 396.5 224.2 396.3 224.8C396 225.9 395.5 227.6 395.1 229.8C394.3 234.2 393.8 240.7 395.6 248.5C396.5 252.4 398 256.5 400.4 260.5C402.8 264.5 405.9 268.5 408.5 273.1C411.1 277.7 412.4 283.5 411.7 289.2C411.1 295 409.1 300.7 407.3 306.4C405.4 312.2 403.7 317.9 403.5 323.6C403.3 329.3 404.3 334.8 405.7 339.9C407.1 345 408.8 349.7 410.2 354.2C411.7 358.7 412.9 362.9 413.6 366.8C415.2 374.7 414.7 381.3 413.6 385.6C413 387.8 412.3 389.4 411.8 390.4C411.5 390.9 411.3 391.3 411.2 391.6C410.9 391.8 410.9 391.9 410.8 391.9Z"
            fill="#263238" />
        <path
            d="M403.1 264.6C403.1 264.6 398.3 249.3 406.9 240.3C407.2 240 407.7 240.1 407.8 240.6C408.3 243.1 408.9 250.8 403.1 264.6Z"
            fill="#B570F7" />
        <path
            d="M406 245.4C406.1 245.4 405.9 246.5 405.7 248.2C405.4 250.1 405 252.4 404.6 255C404.2 257.5 403.8 259.8 403.5 261.7C403.2 263.4 403.1 264.5 403 264.5C402.9 264.5 402.9 263.4 403.1 261.7C403.3 260 403.6 257.5 404 254.9C404.4 252.3 404.9 249.9 405.3 248.2C405.6 246.5 405.9 245.4 406 245.4Z"
            fill="#263238" />
        <path
            d="M408.8 300.7C408.8 300.7 411.7 284.9 423.5 281C423.9 280.9 424.3 281.2 424.2 281.7C423.4 284.1 420.3 291.2 408.8 300.7Z"
            fill="#B570F7" />
        <path
            d="M420.3 285.1C420.4 285.2 419.7 286 418.7 287.4C417.5 289 416.1 290.8 414.6 292.9C413.1 294.9 411.7 296.8 410.5 298.4C409.5 299.8 408.8 300.7 408.7 300.6C408.6 300.6 409.2 299.6 410.1 298.1C411.1 296.6 412.5 294.6 414.1 292.5C415.7 290.4 417.2 288.5 418.4 287.1C419.4 285.9 420.2 285.1 420.3 285.1Z"
            fill="#263238" />
        <path
            d="M405.6 340.3C405.6 340.3 403.8 324.4 414 317.2C414.4 316.9 414.8 317.2 414.8 317.6C414.7 320.2 413.8 327.8 405.6 340.3Z"
            fill="#B570F7" />
        <path
            d="M412 322C412.1 322 411.7 323.1 411.1 324.7C410.4 326.5 409.6 328.7 408.7 331.1C407.8 333.5 407 335.7 406.4 337.5C405.8 339.1 405.5 340.2 405.4 340.1C405.3 340.1 405.5 339 406 337.3C406.5 335.6 407.3 333.3 408.2 330.8C409.1 328.3 410 326 410.7 324.4C411.5 322.9 412 322 412 322Z"
            fill="#263238" />
        <path
            d="M414.4 380C414.4 380 413.2 364 423.6 357.2C424 357 424.4 357.2 424.4 357.7C424.3 360.3 423.1 367.9 414.4 380Z"
            fill="#B570F7" />
        <path
            d="M421.6 362C421.7 362 421.3 363.1 420.6 364.7C419.9 366.5 419 368.7 418 371C417 373.4 416.2 375.5 415.4 377.3C414.8 378.9 414.4 379.9 414.3 379.9C414.2 379.9 414.5 378.8 415 377.1C415.5 375.4 416.4 373.2 417.4 370.7C418.4 368.2 419.4 366 420.2 364.4C421 362.9 421.5 362 421.6 362Z"
            fill="#263238" />
        <path
            d="M396.3 251.2C396.3 251.2 382.1 243.8 381.8 231.4C381.8 231 382.3 230.7 382.6 230.9C384.7 232.3 390.6 237.4 396.3 251.2Z"
            fill="#B570F7" />
        <path
            d="M384.7 235.6C384.8 235.6 385.4 236.4 386.5 237.8C387.7 239.4 389 241.3 390.5 243.3C392 245.4 393.4 247.2 394.5 248.8C395.5 250.2 396.2 251.1 396.1 251.1C396 251.2 395.3 250.4 394.1 249C393 247.7 391.5 245.7 389.9 243.6C388.3 241.4 387 239.4 386 237.9C385.2 236.6 384.6 235.6 384.7 235.6Z"
            fill="#263238" />
        <path
            d="M411.5 284C411.5 284 396.9 277.5 395.8 265.1C395.8 264.7 396.2 264.4 396.6 264.6C398.8 265.9 405 270.6 411.5 284Z"
            fill="#B570F7" />
        <path
            d="M399.1 269.2C399.2 269.1 399.9 270 401 271.3C402.2 272.8 403.7 274.6 405.3 276.6C406.9 278.6 408.4 280.4 409.6 281.9C410.7 283.2 411.4 284.1 411.4 284.1C411.3 284.2 410.5 283.4 409.3 282.2C408.1 280.9 406.5 279.1 404.8 277C403.1 274.9 401.6 273 400.6 271.6C399.6 270.2 399 269.2 399.1 269.2Z"
            fill="#263238" />
        <path
            d="M403.1 320.7C403.1 320.7 393 308.2 397.8 296.7C398 296.3 398.5 296.2 398.7 296.6C400.1 298.8 403.4 305.8 403.1 320.7Z"
            fill="#B570F7" />
        <path
            d="M398.8 301.8C398.9 301.8 399.1 302.8 399.5 304.5C399.9 306.4 400.4 308.7 401 311.2C401.5 313.7 402 316 402.5 317.9C402.9 319.6 403.1 320.7 403 320.7C402.9 320.7 402.5 319.7 402 318C401.5 316.3 400.9 314 400.4 311.3C399.8 308.7 399.4 306.3 399.1 304.6C398.8 302.9 398.7 301.8 398.8 301.8Z"
            fill="#263238" />
        <path
            d="M413.1 363.8C413.1 363.8 398.6 357 397.8 344.6C397.8 344.2 398.2 343.9 398.6 344.1C400.7 345.5 406.8 350.3 413.1 363.8Z"
            fill="#B570F7" />
        <path
            d="M400.8 348.8C400.9 348.8 401.6 349.6 402.7 350.9C403.9 352.4 405.4 354.3 406.9 356.3C408.5 358.3 409.9 360.1 411.2 361.6C412.3 363 413 363.8 412.9 363.9C412.8 364 412 363.2 410.9 361.9C409.7 360.6 408.1 358.8 406.5 356.7C404.8 354.6 403.4 352.7 402.4 351.2C401.4 349.8 400.8 348.8 400.8 348.8Z"
            fill="#263238" />
        <path
            d="M442 300.8C442 300.8 442 300.9 442 301.2C442 301.5 442 301.8 442 302.2C442 303.2 441.9 304.5 441.8 306.1C441.6 309.5 441.4 314.3 441 320C440 325.8 437 332.2 433 338.5C430.1 343.1 427 347.3 424.4 351.2C421.8 355.1 419.5 358.7 418 361.9C416.4 365.1 415.5 367.8 415 369.7C414.7 370.7 414.6 371.4 414.4 371.9C414.3 372.4 414.2 372.7 414.2 372.7C414.2 372.7 414.2 372.4 414.3 371.9C414.4 371.4 414.5 370.6 414.8 369.6C415.3 367.7 416.1 364.9 417.7 361.7C419.2 358.5 421.4 354.8 424.1 350.9C426.7 347 429.8 342.8 432.6 338.2C436.5 332 439.5 325.7 440.6 319.9C441 314.2 441.3 309.4 441.6 306C441.7 304.4 441.8 303.1 441.9 302.1C441.9 301.7 442 301.4 442 301.1C442 300.9 442 300.8 442 300.8Z"
            fill="#263238" />
        <path
            d="M433.3 337.3C433.3 337.3 439.5 322.5 431.7 312.8C431.4 312.5 430.9 312.6 430.8 313C430.1 315.4 428.9 323 433.3 337.3Z"
            fill="#B570F7" />
        <path
            d="M432.2 317.9C432.3 317.9 432.5 319 432.7 320.7C432.9 322.4 433.2 324.8 433.4 327.5C433.6 330.2 433.7 332.6 433.7 334.3C433.7 336.1 433.6 337.1 433.5 337.1C433.4 337.1 433.4 336 433.2 334.3C433.1 332.3 432.9 330 432.7 327.5C432.5 325 432.4 322.6 432.2 320.7C432.2 319 432.1 317.9 432.2 317.9Z"
            fill="#263238" />
        <g opacity="0.3">
            <g opacity="0.3">
                <path opacity="0.3"
                    d="M433.3 337.3C433.3 337.3 439.5 322.5 431.7 312.8C431.4 312.5 430.9 312.6 430.8 313C430.1 315.4 428.9 323 433.3 337.3Z"
                    fill="black" />
            </g>
        </g>
        <path
            d="M414.3 372.9C414.3 372.9 419.2 357.6 410.7 348.6C410.4 348.3 409.9 348.4 409.8 348.9C409.3 351.4 408.7 359.1 414.3 372.9Z"
            fill="#B570F7" />
        <path
            d="M411.6 353.8C411.7 353.8 412 354.8 412.3 356.6C412.7 358.3 413.1 360.7 413.5 363.3C413.9 365.9 414.2 368.4 414.3 370.1C414.4 371.9 414.4 372.9 414.4 372.9C414.3 372.9 414.2 371.8 413.9 370.1C413.6 368.2 413.3 365.9 412.9 363.3C412.5 360.8 412.2 358.5 411.9 356.5C411.6 354.8 411.5 353.8 411.6 353.8Z"
            fill="#263238" />
        <g opacity="0.3">
            <g opacity="0.3">
                <path opacity="0.3"
                    d="M414.3 372.9C414.3 372.9 419.2 357.6 410.7 348.6C410.4 348.3 409.9 348.4 409.8 348.9C409.3 351.4 408.7 359.1 414.3 372.9Z"
                    fill="black" />
            </g>
        </g>
        <path
            d="M441.2 319.2C441.2 319.2 454.3 310 453 297.7C453 297.3 452.4 297.1 452.1 297.4C450.2 299 445 304.8 441.2 319.2Z"
            fill="#B570F7" />
        <g opacity="0.3">
            <g opacity="0.3">
                <path opacity="0.3"
                    d="M441.2 319.2C441.2 319.2 454.3 310 453 297.7C453 297.3 452.4 297.1 452.1 297.4C450.2 299 445 304.8 441.2 319.2Z"
                    fill="black" />
            </g>
        </g>
        <path
            d="M450.6 302.2C450.7 302.2 450.3 303.2 449.5 304.8C448.8 306.4 447.7 308.5 446.4 310.9C445.1 313.3 443.9 315.3 443 316.8C442.1 318.3 441.4 319.1 441.3 319.1C441.2 319.1 441.8 318.1 442.6 316.6C443.5 314.9 444.7 312.8 445.9 310.6C447.1 308.4 448.2 306.3 449.2 304.6C450 303.1 450.5 302.2 450.6 302.2Z"
            fill="#263238" />
        <path
            d="M419.6 357.8C419.6 357.8 435.4 355.3 439.7 343.7C439.8 343.3 439.5 342.9 439.1 343C436.6 343.7 429.4 346.6 419.6 357.8Z"
            fill="#B570F7" />
        <g opacity="0.3">
            <g opacity="0.3">
                <path opacity="0.3"
                    d="M419.6 357.8C419.6 357.8 435.4 355.3 439.7 343.7C439.8 343.3 439.5 342.9 439.1 343C436.6 343.7 429.4 346.6 419.6 357.8Z"
                    fill="black" />
            </g>
        </g>
        <path
            d="M435.5 346.8C435.6 346.9 434.7 347.6 433.4 348.7C432 349.8 430.1 351.3 427.9 352.8C425.7 354.4 423.7 355.7 422.2 356.6C420.7 357.5 419.7 358 419.7 357.9C419.7 357.8 420.5 357.2 422 356.2C423.6 355.1 425.5 353.7 427.6 352.3C429.7 350.8 431.6 349.5 433.2 348.3C434.5 347.3 435.5 346.7 435.5 346.8Z"
            fill="#263238" />
        <path d="M404.5 387L399.8 418.1H428.6L424.9 387H404.5Z" fill="#FFAC3E" />
        <path
            d="M426.1 396.6C426.1 396.8 420.9 396.9 414.5 396.9C408.1 396.9 402.9 396.8 402.9 396.6C402.9 396.4 408.1 396.3 414.5 396.3C420.9 396.3 426.1 396.4 426.1 396.6Z"
            fill="#263238" />
        <path
            d="M426.6 399.1C426.6 399.3 421.2 399.4 414.6 399.4C408 399.4 402.6 399.3 402.6 399.1C402.6 398.9 408 398.8 414.6 398.8C421.3 398.8 426.6 398.9 426.6 399.1Z"
            fill="#263238" />
        <path
            d="M314.6 85.3001C314.6 85.3001 314.3 85.3001 313.8 85.3001C313.3 85.3001 312.5 85.2001 311.5 85.3001C309.5 85.4001 306.5 85.8001 303 87.3001C299.5 88.8001 295.4 91.4001 292.2 95.7001C290.6 97.9001 289.2 100.5 288.4 103.4C287.6 106.4 287.3 109.6 287.7 113C288.1 116.4 289.2 119.9 291 123.1C291.9 124.7 293 126.2 294.4 127.6C295.7 129 297.3 130.3 299 131.2C300.7 132.1 302.7 132.7 304.8 132.7C306.8 132.6 308.9 131.9 310.4 130.4C311.9 128.9 312.6 126.8 312.6 124.6C312.6 122.4 311.9 120.3 310.6 118.5C308 114.9 303.8 112.4 299.3 111.1C294.8 109.8 289.8 109.8 285.1 110.9C282.7 111.5 280.4 112.4 278.3 113.6C276.1 114.8 274.2 116.4 272.4 118.2C272 118.7 271.5 119.1 271.2 119.6L270.1 121.1C269.4 122.2 268.8 123.3 268.3 124.4C267.2 126.7 266.5 129.2 266.1 131.8C265.4 136.9 266 142.2 268.1 146.8C270.1 151.4 273.5 155.4 277.8 157.8C279.9 159 282.3 159.7 284.6 159.9C287 160 289.3 159.4 291.3 158.3C293.3 157.1 295 155.4 295.9 153.3C296.8 151.2 296.8 148.8 296 146.8C295.3 144.7 293.9 142.9 292.2 141.5C290.6 140.1 288.7 139 286.7 138.3C282.7 137 278.4 137.1 274.5 138.1C270.6 139.1 267.2 141.1 264.5 143.7C261.8 146.3 259.9 149.4 258.8 152.6C256.5 159 257.1 165.6 259.1 170.6C261.1 175.6 264.4 179.2 267.3 181.6C270.3 184 273 185.3 274.9 186C275.8 186.4 276.6 186.6 277.1 186.8C277.6 187 277.8 187 277.8 187C277.8 187 277.5 186.9 277 186.8C276.5 186.7 275.8 186.4 274.8 186.1C272.9 185.4 270.2 184.1 267.1 181.8C264.1 179.4 260.8 175.8 258.7 170.8C256.7 165.8 256 159.1 258.4 152.6C259.5 149.4 261.5 146.2 264.2 143.6C266.9 141 270.4 139 274.3 137.9C278.2 136.8 282.6 136.7 286.7 138.1C288.7 138.8 290.7 139.9 292.4 141.4C294.1 142.9 295.5 144.7 296.3 146.9C297.1 149.1 297.1 151.6 296.2 153.8C295.3 156 293.5 157.8 291.4 159C289.3 160.2 286.8 160.8 284.4 160.7C281.9 160.6 279.5 159.8 277.3 158.6C272.9 156.2 269.5 152.1 267.4 147.4C265.3 142.7 264.7 137.3 265.3 132.1C265.7 129.5 266.4 127 267.5 124.6C268 123.4 268.7 122.3 269.4 121.2L270.6 119.6C271 119.1 271.5 118.6 271.9 118.1C273.7 116.2 275.7 114.6 277.9 113.4C280.1 112.2 282.5 111.3 284.9 110.6C289.7 109.4 294.8 109.5 299.4 110.8C304 112.2 308.2 114.6 310.9 118.4C312.2 120.3 313 122.5 313 124.8C313 127 312.2 129.3 310.6 130.9C309 132.5 306.8 133.2 304.7 133.3C302.6 133.4 300.5 132.8 298.7 131.8C296.9 130.8 295.3 129.5 294 128.1C292.6 126.7 291.5 125.1 290.6 123.5C288.7 120.2 287.7 116.7 287.2 113.3C286.8 109.9 287.1 106.5 287.9 103.5C288.7 100.5 290.1 97.9001 291.8 95.7001C295.1 91.3001 299.2 88.7001 302.8 87.3001C306.4 85.8001 309.4 85.5001 311.4 85.4001C312.4 85.3001 313.2 85.4001 313.7 85.4001C314.4 85.2001 314.6 85.3001 314.6 85.3001Z"
            fill="#263238" />
        <path d="M348 185.3H207.8V293.4H348V185.3Z" fill="#C68B59" />
        <path d="M207.8 185.3L233.7 209.5H371.6L348 185.3H207.8Z" fill="#C68B59" />
        <path
            d="M207.8 185.3C210.3 185.3 268.2 185.2 348 185H348.1L348.2 185.1C355.7 192.8 363.5 200.8 371.5 209C371.6 209.1 371.7 209.2 371.7 209.2L372.1 209.6H371.5C315 209.6 264.8 209.5 233.7 209.5H233.6C217.4 194.4 208.7 186.1 207.8 185.3C208.7 186.1 217.5 194.2 233.8 209.3H233.7C264.9 209.3 315 209.2 371.5 209.2L371.3 209.6C371.2 209.5 371.1 209.4 371.1 209.4C363.1 201.2 355.3 193.2 347.8 185.5L348 185.6C268.3 185.4 210.4 185.3 207.8 185.3Z"
            fill="#263238" />
        <path
            d="M249.9 235.2C248.4 235.2 247.1 236.5 247 238C247 239.5 248.3 240.9 249.8 240.9C251.3 241 252.7 239.7 252.8 238.2C252.9 236.7 251.6 235.3 250.1 235.2"
            fill="#263238" />
        <path
            d="M283 235.2C281.5 235.2 280.2 236.5 280.1 238C280.1 239.5 281.4 240.9 282.9 240.9C284.4 241 285.8 239.7 285.9 238.2C286 236.7 284.7 235.3 283.2 235.2"
            fill="#263238" />
        <path
            d="M283.3 261.1C283.2 261.2 282.9 258.4 280.5 254.9C279.3 253.2 277.6 251.3 275.2 249.8C272.9 248.3 269.9 247.2 266.7 247.1C263.5 247 260.5 248 258.1 249.3C255.7 250.7 253.8 252.4 252.5 254.1C249.9 257.5 249.5 260.2 249.4 260.2C249.4 260.2 249.4 260 249.5 259.7C249.6 259.4 249.6 258.9 249.9 258.4C250.3 257.3 251 255.7 252.3 253.9C253.6 252.2 255.4 250.3 257.9 248.9C260.4 247.5 263.5 246.5 266.8 246.6C270.1 246.7 273.2 247.8 275.5 249.4C277.9 251 279.7 252.9 280.8 254.7C282 256.5 282.6 258.1 282.9 259.3C283.1 259.9 283.1 260.3 283.2 260.6C283.3 260.9 283.3 261.1 283.3 261.1Z"
            fill="#263238" />
        <path opacity="0.5" d="M208 186.8L232.8 218.3H347.9V209.8H233.6L208 186.8Z" fill="black" />
        <path
            d="M320.4 293.2C320.3 293.2 320.1 274.4 320.1 251.2C320.1 228 320.2 209.2 320.4 209.2C320.5 209.2 320.7 228 320.7 251.2C320.6 274.4 320.5 293.2 320.4 293.2Z"
            fill="#263238" />
        <path d="M342.4 268.7H330V282.7H342.4V268.7Z" fill="#F5F5F5" />
        <path d="M207.8 185.3L179 209.5H207.8V185.3Z" fill="#C68B59" />
        <g opacity="0.4">
            <path opacity="0.4" d="M207.8 185.3L179 209.5H207.8V185.3Z" fill="black" />
        </g>
        <path d="M352.2 293.5H191V417.8H352.2V293.5Z" fill="#C68B59" />
        <path opacity="0.3" d="M352.2 293.5H191V417.8H352.2V293.5Z" fill="black" />
        <path
            d="M311.8 416.9C311.7 416.9 311.5 389.2 311.5 355C311.5 320.8 311.6 293.1 311.8 293.1C312 293.1 312.1 320.8 312.1 355C312 389.2 311.9 416.9 311.8 416.9Z"
            fill="#263238" />
        <path d="M338.5 389.5H326.1V403.5H338.5V389.5Z" fill="#F5F5F5" />
        <path d="M258.4 293.8H240.1V320.3H258.4V293.8Z" fill="#263238" />
        <path d="M258.4 390.9H240.1V417.4H258.4V390.9Z" fill="#263238" />
        <path
            d="M350.8 293.5C350.8 293.5 350.7 293.5 350.4 293.5C350.1 293.5 349.7 293.5 349.2 293.5C348.1 293.5 346.5 293.5 344.5 293.5C340.4 293.5 334.6 293.5 327.4 293.6C312.9 293.6 293 293.6 270.9 293.7C248.8 293.7 228.9 293.6 214.4 293.6C207.2 293.6 201.3 293.5 197.3 293.5C195.3 293.5 193.7 293.5 192.6 293.5C192.1 293.5 191.7 293.5 191.4 293.5C191.1 293.5 191 293.5 191 293.5C191 293.5 191.1 293.5 191.4 293.5C191.7 293.5 192.1 293.5 192.6 293.5C193.7 293.5 195.3 293.5 197.3 293.5C201.4 293.5 207.2 293.5 214.4 293.4C228.9 293.4 248.8 293.4 270.9 293.3C292.9 293.3 312.9 293.4 327.4 293.4C334.6 293.4 340.5 293.5 344.5 293.5C346.5 293.5 348.1 293.5 349.2 293.5C349.7 293.5 350.1 293.5 350.4 293.5C350.6 293.5 350.8 293.5 350.8 293.5Z"
            fill="#263238" />
        <path
            d="M74.5 78.2C73.3 77.9 67.8 76.5 56.9 73.9H57C53.1 76.4 47.9 78.3 41.8 78.4C38.8 78.4 35.6 78 32.4 77C29.2 76 26.1 74.4 23.2 72.1C17.5 67.7 13.1 60.7 12.1 52.5C11.6 48.5 11.9 44.2 13.2 40.2C14.5 36.2 16.7 32.3 19.6 29.1C21.1 27.4 22.9 26 24.7 24.7C25.6 24.1 26.6 23.5 27.6 23L29.1 22.3L30 22L30.8 21.7C34.9 20.1 39.2 19.5 43.4 19.8C47.6 20.1 51.6 21.2 55.1 23.1C58.6 24.9 61.6 27.4 64 30.3C66.4 33.1 68.1 36.3 69.2 39.5C70.3 42.7 70.8 45.9 70.8 49C70.8 55.1 68.9 60.4 66.6 64.2V64C71.5 72.8 73.9 77.2 74.5 78.2C73.9 77.2 71.4 72.8 66.3 64.1V64V63.9C68.6 60.1 70.4 54.9 70.4 48.9C70.4 45.9 69.8 42.7 68.8 39.6C67.7 36.5 66 33.3 63.7 30.6C61.4 27.8 58.4 25.4 55 23.6C51.6 21.8 47.6 20.7 43.5 20.4C39.4 20.1 35.1 20.7 31.1 22.3L30.3 22.6L29.6 23L28.1 23.7C27.1 24.2 26.2 24.8 25.3 25.4C23.5 26.7 21.8 28.1 20.3 29.7C17.4 32.9 15.2 36.6 14 40.6C12.8 44.6 12.4 48.7 12.9 52.7C13.8 60.7 18.2 67.6 23.7 71.9C26.5 74.1 29.6 75.7 32.7 76.7C35.8 77.7 39 78.1 41.9 78.1C47.9 78 53 76.1 56.9 73.7H57H57.1C67.8 76.4 73.3 77.9 74.5 78.2Z"
            fill="#263238" />
        <path
            d="M39 36L40 50.7C40.1 51.9 41 52.9 42.2 52.9C43.5 53 44.6 52 44.7 50.8L46.3 36.1C46.4 35 45.5 34 44.4 34H40.8C39.8 34.1 39 35 39 36Z"
            fill="#885ABF" />
        <path
            d="M46.1 61.2C45.5 63.1 43.5 64.1 41.6 63.5C39.7 62.9 38.7 60.9 39.3 59C39.9 57.1 41.9 56.1 43.8 56.7C45.7 57.3 46.7 59.3 46.1 61.2Z"
            fill="#885ABF" />
    </g>
    <defs>
        <clipPath id="clip0_1028:8320">
            <rect width="453.1" height="425.8" fill="white" />
        </clipPath>
    </defs>
</svg>
