<svg width="602" height="444" viewBox="0 0 602 444" fill="none" xmlns="http://www.w3.org/2000/svg">
    <g clip-path="url(#clip0_1030:8820)">
        <path d="M133.542 122.241L21.3303 197.301L131.863 362.544L244.075 287.484L133.542 122.241Z"
            fill="#F5F5F5" />
        <path d="M186.1 279.7L184.8 287.5L129 279.5L130.3 271.6L186.1 279.7Z" fill="#E0E0E0" />
        <path d="M158 251.5L166 252.7L157.1 307.6L149.1 306.5L158 251.5Z" fill="#E0E0E0" />
        <path
            d="M106.6 181.7C106.7 181.8 95.4 189.5 81.5 198.8C67.5 208.1 56.2 215.6 56.1 215.5C56 215.4 67.3 207.7 81.2 198.4C95.2 189.1 106.5 181.6 106.6 181.7Z"
            fill="#E0E0E0" />
        <path
            d="M147.9 171.4C148 171.5 129.3 184.2 106.1 199.6C83 215.1 64.1 227.5 64 227.4C63.9 227.3 82.6 214.6 105.8 199.2C129 183.7 147.8 171.3 147.9 171.4Z"
            fill="#E0E0E0" />
        <path
            d="M156.2 183.8C156.3 183.9 137.6 196.6 114.4 212C91.3 227.5 72.4 239.9 72.3 239.8C72.2 239.7 90.9 227 114.1 211.6C137.2 196.1 156.1 183.6 156.2 183.8Z"
            fill="#E0E0E0" />
        <path
            d="M164.4 196.1C164.5 196.2 145.8 208.9 122.6 224.3C99.5 239.8 80.6 252.2 80.5 252.1C80.4 252 99.1 239.3 122.3 223.9C145.5 208.5 164.3 196 164.4 196.1Z"
            fill="#E0E0E0" />
        <path
            d="M172.7 208.5C172.8 208.6 154.1 221.3 130.9 236.7C107.8 252.2 88.9 264.6 88.8 264.5C88.7 264.4 107.4 251.7 130.6 236.3C153.8 220.8 172.6 208.4 172.7 208.5Z"
            fill="#E0E0E0" />
        <path d="M508.719 232.961L414.461 296.012L507.257 434.739L601.515 371.689L508.719 232.961Z"
            fill="#F5F5F5" />
        <path d="M552.9 365.2L551.8 371.8L505 365L506 358.4L552.9 365.2Z" fill="#E0E0E0" />
        <path d="M529.3 341.6L536 342.5L528.5 388.7L521.8 387.7L529.3 341.6Z" fill="#E0E0E0" />
        <path
            d="M486.1 282.9C486.2 283 476.7 289.5 465 297.3C453.3 305.1 443.7 311.4 443.6 311.3C443.5 311.2 453 304.7 464.7 296.9C476.5 289.1 486 282.8 486.1 282.9Z"
            fill="#E0E0E0" />
        <path
            d="M520.8 274.2C520.9 274.3 505.2 285 485.8 298C466.4 311 450.5 321.4 450.5 321.3C450.4 321.2 466.1 310.5 485.6 297.5C504.9 284.6 520.7 274.1 520.8 274.2Z"
            fill="#E0E0E0" />
        <path
            d="M527.7 284.6C527.8 284.7 512.1 295.4 492.7 308.4C473.3 321.4 457.4 331.8 457.4 331.7C457.3 331.6 473 320.9 492.5 307.9C511.8 295 527.6 284.5 527.7 284.6Z"
            fill="#E0E0E0" />
        <path
            d="M534.7 295C534.8 295.1 519.1 305.8 499.7 318.8C480.3 331.8 464.4 342.2 464.4 342.1C464.3 342 480 331.3 499.5 318.3C518.8 305.3 534.6 294.9 534.7 295Z"
            fill="#E0E0E0" />
        <path
            d="M541.6 305.4C541.7 305.5 526 316.2 506.6 329.2C487.2 342.2 471.3 352.6 471.3 352.5C471.2 352.4 486.9 341.7 506.4 328.7C525.7 315.7 541.5 305.3 541.6 305.4Z"
            fill="#E0E0E0" />
        <path d="M359.683 128.353L256.865 73.3644L175.892 224.769L278.71 279.758L359.683 128.353Z"
            fill="#F5F5F5" />
        <path d="M261.1 232.4L254.6 234.6L238 188.8L244.5 186.6L261.1 232.4Z" fill="#E0E0E0" />
        <path d="M271.1 199.5L273.5 206.1L228 221.7L225.6 215.1L271.1 199.5Z" fill="#E0E0E0" />
        <path
            d="M303.4 132C303.3 132.2 292.9 126.7 280.1 119.9C267.3 113.1 257 107.4 257.1 107.2C257.2 107 267.6 112.5 280.4 119.3C293.2 126.2 303.5 131.8 303.4 132Z"
            fill="#E0E0E0" />
        <path
            d="M328.1 159.2C328 159.4 310.8 150.3 289.6 138.9C268.4 127.6 251.3 118.2 251.3 118.1C251.4 117.9 268.6 127 289.8 138.4C311 149.8 328.1 159.1 328.1 159.2Z"
            fill="#E0E0E0" />
        <path
            d="M322 170.6C321.9 170.8 304.7 161.7 283.5 150.3C262.3 139 245.2 129.6 245.2 129.5C245.3 129.3 262.5 138.4 283.7 149.8C305 161.1 322.1 170.4 322 170.6Z"
            fill="#E0E0E0" />
        <path
            d="M315.9 181.9C315.8 182.1 298.6 173 277.4 161.6C256.2 150.3 239.1 140.9 239.1 140.8C239.2 140.6 256.4 149.7 277.6 161.1C298.9 172.4 316 181.7 315.9 181.9Z"
            fill="#E0E0E0" />
        <path
            d="M309.9 193.2C309.8 193.4 292.6 184.3 271.4 172.9C250.2 161.6 233.1 152.2 233.1 152.1C233.2 151.9 250.4 161 271.6 172.4C292.8 183.8 310 193.1 309.9 193.2Z"
            fill="#E0E0E0" />
        <path opacity="0.2" d="M310.4 0H307.8V44H310.4V0Z" fill="black" />
        <path d="M248.9 97.2H369.4C369.4 97.2 358.3 44 308.3 44C263.7 44 248.9 97.2 248.9 97.2Z"
            fill="#B570F7" />
        <path d="M310.4 0H307.8V44H310.4V0Z" fill="#B570F7" />
        <path
            d="M577.3 439.8C577.3 439.9 448 440.1 288.6 440.1C129.2 440.1 0 440 0 439.8C0 439.7 129.2 439.5 288.7 439.5C448.1 439.6 577.3 439.7 577.3 439.8Z"
            fill="#263238" />
        <path
            d="M32 377.2C35.4 377.3 38.6 379.2 40.8 381.7C43 384.2 44.4 387.4 45.3 390.7C47 397 46 404.5 44.1 410.8C37.3 408.4 33 401.1 31.1 397.2C28.1 391.1 26.3 378.3 32 377.2Z"
            fill="#B570F7" />
        <path
            d="M53.9 418.5C51.7 415.4 51.7 411.1 53.4 407.7C55.1 404.3 58.4 401.9 62 400.8C63.7 400.3 65.6 400.1 67.1 401C68.5 401.9 69 403.7 68.9 405.3C68.7 406.9 67.9 408.4 66.9 409.7C63.5 414.2 59.5 418 53.9 418.5Z"
            fill="#B570F7" />
        <path
            d="M54.7 439.6C54.7 439.6 54.6 439.1 54.4 438.3C54.2 437.4 54 436.2 53.7 434.7C53.2 431.7 52.3 427.4 53 422.6C53.6 417.9 55.5 413.8 57.5 411.4C58.5 410.2 59.4 409.3 60.1 408.8C60.4 408.5 60.7 408.3 60.9 408.2C61.1 408.1 61.2 408 61.2 408C61.3 408.1 59.6 409.1 57.7 411.6C55.8 414 54 418 53.4 422.7C52.8 427.4 53.6 431.6 54 434.7C54.2 436.2 54.4 437.5 54.6 438.3C54.7 439.1 54.7 439.6 54.7 439.6Z"
            fill="#263238" />
        <path
            d="M34.2 386.8C34.2 386.8 34.3 387 34.5 387.3C34.7 387.7 34.9 388.2 35.2 388.8C35.8 390.1 36.7 392.1 37.7 394.5C39.8 399.3 42.5 405.9 45.4 413.4C48.3 420.8 50.7 427.6 52.4 432.5C53.3 435 53.9 437 54.4 438.4C54.6 439.1 54.8 439.6 54.9 440C55 440.4 55.1 440.6 55 440.6C55 440.6 54.9 440.4 54.8 440.1C54.6 439.7 54.5 439.2 54.2 438.5C53.7 437.1 53 435.1 52.1 432.7C50.3 427.8 47.8 421.1 44.9 413.6C42 406.2 39.3 399.5 37.3 394.7C36.3 392.3 35.5 390.4 35 389C34.7 388.4 34.5 387.8 34.4 387.4C34.2 387 34.1 386.8 34.2 386.8Z"
            fill="#263238" />
        <path
            d="M46.5 425.6C42.5 418.7 34.9 414 27 413.5C25 413.4 22.5 413.7 21.6 415.5C20.7 417.3 21.9 419.5 23.3 421C29 427.2 38.7 429.4 46.6 426.2"
            fill="#B570F7" />
        <path
            d="M30.1 418.9C30.1 418.9 30.6 418.9 31.4 418.9C31.8 418.9 32.3 419 32.9 419.1C33.5 419.2 34.1 419.3 34.8 419.5C35.5 419.7 36.3 419.8 37.1 420.1C37.9 420.3 38.8 420.7 39.7 421.1C41.5 421.9 43.3 422.9 45.1 424.3C46.9 425.7 48.4 427.2 49.6 428.7C50.2 429.5 50.7 430.2 51.2 431C51.7 431.7 52 432.4 52.4 433.1C52.8 433.7 53 434.4 53.2 434.9C53.4 435.4 53.6 435.9 53.7 436.3C53.9 437.1 54.1 437.5 54 437.5C53.9 437.5 53.4 435.8 52.1 433.2C51.7 432.6 51.4 431.9 50.9 431.2C50.5 430.5 49.9 429.8 49.3 429C48.1 427.5 46.6 426 44.9 424.7C43.1 423.4 41.3 422.3 39.6 421.5C38.7 421.1 37.9 420.8 37.1 420.5C36.3 420.2 35.5 420 34.8 419.8C31.9 419.1 30.1 419 30.1 418.9Z"
            fill="#263238" />
        <path
            d="M484 105.5C481.1 106.2 479.6 109.6 479.3 112.6C479 115.6 479.4 118.8 478.1 121.5C476.7 124.6 473.3 126.9 473.2 130.3C473.1 132.4 474.4 134.3 474.3 136.4C474.2 139.8 470.7 142.4 470.6 145.8C470.5 148.2 472.1 150.6 471.7 153C471.4 154.9 469.9 156.4 469.3 158.2C468.1 161.8 470.5 165.7 473.7 167.8C477.3 170.1 481.9 170.6 485.9 169.3C489.9 168 493.3 164.9 494.9 161C496.7 156.7 496.3 151.8 495.9 147.2C494.7 132.7 493.8 118.2 493.2 103.6"
            fill="#893976" />
        <path
            d="M475.5 156.7C475.4 156.6 476.3 156.4 476.8 155.1C477.1 154.5 477.2 153.6 477.1 152.7C477.1 151.7 476.7 150.7 476.4 149.5C476.1 148.3 475.6 146.9 475.9 145.4C476.2 143.8 477.3 142.6 478.3 141.3C478.8 140.7 479.3 140 479.7 139.2C480 138.5 480.1 137.6 479.9 136.8C479.4 135.2 477.8 134 477 132.1C476.6 131.2 476.6 130.1 476.8 129.2C477 128.3 477.4 127.4 477.8 126.6C478.6 125 479.4 123.5 479.8 121.9C480.5 118.7 480.2 115.7 480.7 113.2C481.1 110.7 482.2 108.8 483.2 107.9C483.7 107.4 484.2 107.1 484.5 107C484.8 106.9 485 106.8 485 106.8C485 106.9 484.3 107.1 483.3 108.1C482.3 109.1 481.4 110.9 481 113.3C480.8 114.5 480.8 115.9 480.7 117.3C480.6 118.8 480.6 120.4 480.2 122C479.9 123.7 479 125.2 478.2 126.8C477.4 128.4 476.8 130.2 477.4 131.9C478 133.6 479.6 134.8 480.3 136.7C480.6 137.6 480.5 138.6 480.1 139.4C479.7 140.2 479.2 140.9 478.7 141.6C477.7 142.9 476.6 144.1 476.4 145.5C476.1 146.9 476.5 148.2 476.9 149.4C477.2 150.6 477.6 151.7 477.6 152.7C477.6 153.7 477.5 154.6 477.2 155.2C476.9 155.9 476.5 156.3 476.2 156.5C475.7 156.6 475.5 156.7 475.5 156.7Z"
            fill="#682C5D" />
        <path
            d="M467.6 180.4L458.6 206.4L421 208.4L414.7 222.4L454 226.4C461.8 229.6 470.8 225.7 473.7 217.7L484.2 188.4L467.6 180.4Z"
            fill="#B78876" />
        <path
            d="M545.5 425.7C545.5 425.7 517.9 338.1 517.3 335.2C516.8 332.6 527.3 269.6 528.6 253.3L491.3 254.7C491.3 254.7 491.3 254.8 491.3 255L475.5 255.9L489.7 435H506.9L505.2 375.5C515.8 403.9 530.9 432.8 530.9 432.8L545.5 425.7Z"
            fill="#B78876" />
        <path
            d="M505.9 396.9C505.9 396.4 505.7 377 505.7 377C505.5 378.2 499.1 360.2 499.3 359.1C499.3 358.5 505.9 396.9 505.9 396.9Z"
            fill="#A36957" />
        <path
            d="M498.5 350.5C498.5 350.5 498.4 350.9 498.4 351.6C498.4 352.3 498.4 353.3 498.4 354.6C498.4 355.2 498.5 355.9 498.6 356.6C498.7 357.3 498.8 358.1 499 358.9C499.3 360.5 499.8 362.3 500.4 364.1C501.6 367.7 503 370.9 504 373.2C504.5 374.2 504.9 375.2 505.2 375.9C505.5 376.5 505.7 376.9 505.7 376.9C505.7 376.9 505.6 376.5 505.4 375.9C505.2 375.2 504.8 374.3 504.4 373.1C503.5 370.8 502.2 367.6 501 364C500.4 362.2 499.9 360.5 499.6 358.9C499.4 358.1 499.3 357.3 499.2 356.6C499.1 355.9 499 355.2 499 354.6C498.9 353.4 498.8 352.4 498.8 351.7C498.6 350.9 498.6 350.5 498.5 350.5Z"
            fill="#A36957" />
        <path
            d="M489.4 435.9V434.3L507 433.5V440.1L505.9 440.2C501.1 440.5 481.4 441.3 478.1 440.3C474.6 439.3 489.4 435.9 489.4 435.9Z"
            fill="#455A64" />
        <path
            d="M507.3 439.8C507.3 439.8 507.2 439.8 507 439.8C506.7 439.8 506.5 439.8 506.1 439.9C505.2 439.9 504.2 440 502.9 440C500.2 440.1 496.5 440.2 492.4 440.2C488.3 440.2 484.6 440.2 481.9 440.1C480.6 440.1 479.6 440 478.7 440C478.4 440 478.1 440 477.8 440C477.6 440 477.5 440 477.5 440C477.5 440 477.6 440 477.8 440C478.1 440 478.3 440 478.7 440C479.6 440 480.6 440 481.9 440.1C484.6 440.1 488.3 440.2 492.4 440.2C496.5 440.2 500.2 440.1 502.9 440C504.2 440 505.2 439.9 506.1 439.9C506.4 439.9 506.7 439.9 507 439.9C507.1 439.8 507.3 439.8 507.3 439.8Z"
            fill="#263238" />
        <path
            d="M483.7 440.3C483.6 440.3 483.6 439.5 483.1 438.8C482.6 438 482 437.6 482 437.6C482 437.5 482.8 437.9 483.3 438.7C483.8 439.5 483.8 440.4 483.7 440.3Z"
            fill="#263238" />
        <path
            d="M488.9 437.7C488.9 437.7 488.6 437.4 488.3 437C488 436.6 487.9 436.2 487.9 436.2C487.9 436.2 488.2 436.5 488.5 436.9C488.7 437.3 488.9 437.7 488.9 437.7Z"
            fill="#263238" />
        <path
            d="M490.3 437C490.3 437 490 436.9 489.7 436.6C489.4 436.3 489.2 436.1 489.2 436C489.2 436 489.5 436.1 489.8 436.4C490.1 436.7 490.3 436.9 490.3 437Z"
            fill="#263238" />
        <path
            d="M491.2 435.3C491.2 435.4 490.8 435.4 490.3 435.4C489.8 435.4 489.4 435.4 489.4 435.3C489.4 435.2 489.8 435.2 490.3 435.2C490.7 435.2 491.2 435.2 491.2 435.3Z"
            fill="#263238" />
        <path
            d="M491.5 434.1C491.5 434.2 491.1 434.4 490.5 434.4C489.9 434.4 489.4 434.3 489.4 434.3C489.4 434.2 489.9 434.3 490.4 434.2C491 434.2 491.4 434.1 491.5 434.1Z"
            fill="#263238" />
        <path
            d="M488.3 436.2C488.3 436.2 487.9 436.3 487.2 436.2C486.9 436.2 486.4 436.1 486 435.9C485.8 435.8 485.6 435.8 485.3 435.6C485.2 435.5 485.1 435.4 485 435.3C485 435.1 485 434.9 485.2 434.9C486.3 434.3 487.3 434.9 487.7 435.5C487.9 435.8 488 436.1 488.1 436.2C488.1 436.4 488.1 436.5 488.1 436.5C488.1 436.5 488 436.1 487.6 435.5C487.4 435.2 487.1 435 486.6 434.9C486.2 434.8 485.6 434.8 485.3 435C485.1 435.1 485.2 435.3 485.4 435.5C485.6 435.6 485.8 435.7 486 435.8C486.4 435.9 486.8 436 487.2 436.1C487.8 436.2 488.3 436.1 488.3 436.2Z"
            fill="#263238" />
        <path
            d="M488 436.2C488 436.2 487.8 435.9 487.9 435.4C487.9 435.2 488 434.9 488.2 434.6C488.4 434.4 488.7 434 489.1 434C489.4 434 489.5 434.3 489.4 434.5C489.4 434.7 489.3 434.9 489.2 435C489 435.3 488.8 435.5 488.7 435.7C488.3 436.1 488.1 436.2 488 436.2C488.1 436.2 488.3 436 488.6 435.6C488.8 435.4 488.9 435.2 489.1 434.9C489.3 434.7 489.4 434.2 489.1 434.2C488.8 434.2 488.5 434.5 488.4 434.7C488.2 434.9 488.1 435.2 488.1 435.4C487.9 435.9 488 436.2 488 436.2Z"
            fill="#263238" />
        <path
            d="M506.9 435C506.9 435 506.4 435 505.6 435.1C504.8 435.2 503.7 435.5 502.8 436.3C501.9 437.1 501.3 438.1 501 438.8C500.7 439.6 500.7 440.1 500.7 440C500.7 440 500.7 439.9 500.7 439.6C500.7 439.4 500.8 439 500.9 438.7C501.1 437.9 501.7 436.9 502.7 436.1C503.7 435.3 504.8 435 505.6 434.9C506 434.9 506.3 434.9 506.6 434.9C506.8 434.9 506.9 435 506.9 435Z"
            fill="#263238" />
        <path
            d="M498.5 438.4C498.5 438.5 497.4 438.6 495.9 438.6C494.5 438.6 493.3 438.4 493.3 438.4C493.3 438.3 494.4 438.4 495.9 438.4C497.3 438.4 498.5 438.3 498.5 438.4Z"
            fill="#263238" />
        <path
            d="M501.9 438.3C501.9 438.3 501.8 438.5 501.7 438.8C501.6 439.1 501.5 439.3 501.5 439.3C501.4 439.3 501.4 439 501.5 438.7C501.6 438.5 501.8 438.3 501.9 438.3Z"
            fill="#263238" />
        <path
            d="M503.2 436.7C503.2 436.7 503.1 436.9 502.9 437.1C502.7 437.3 502.5 437.4 502.5 437.4C502.5 437.4 502.6 437.2 502.8 437C503 436.8 503.1 436.7 503.2 436.7Z"
            fill="#263238" />
        <path
            d="M505 436C505 436.1 504.8 436.1 504.5 436.1C504.2 436.2 504.1 436.3 504 436.3C504 436.3 504.1 436 504.4 435.9C504.8 435.8 505 435.9 505 436Z"
            fill="#263238" />
        <path
            d="M506.3 435.6C506.3 435.7 506.2 435.7 506.1 435.8C506 435.9 505.8 435.9 505.8 435.8C505.8 435.7 505.9 435.7 506 435.6C506.2 435.6 506.3 435.6 506.3 435.6Z"
            fill="#263238" />
        <path
            d="M530.6 434.4L529.9 432.9L545.6 425L548.4 431L547.4 431.5C543.1 433.7 525.5 442.6 522.1 443C518.4 443.5 530.6 434.4 530.6 434.4Z"
            fill="#455A64" />
        <path
            d="M548.4 430.6C548.4 430.6 548.3 430.7 548.1 430.8C547.9 430.9 547.6 431.1 547.3 431.2C546.5 431.6 545.6 432.1 544.5 432.6C542.1 433.8 538.8 435.4 535 437.1C531.3 438.8 527.9 440.3 525.4 441.3C524.2 441.8 523.3 442.2 522.5 442.5C522.2 442.6 521.9 442.7 521.7 442.8C521.5 442.9 521.4 442.9 521.4 442.9C521.4 442.9 521.5 442.8 521.7 442.8C521.9 442.7 522.2 442.6 522.5 442.5C523.3 442.2 524.3 441.7 525.4 441.2C527.9 440.1 531.3 438.7 535 437C538.7 435.3 542.1 433.7 544.5 432.6C545.6 432.1 546.6 431.6 547.4 431.2C547.7 431.1 547.9 430.9 548.2 430.8C548.3 430.6 548.4 430.6 548.4 430.6Z"
            fill="#263238" />
        <path
            d="M527.2 440.7C527.1 440.7 526.8 440.1 526 439.6C525.3 439.1 524.5 439 524.5 438.9C524.5 438.8 525.3 438.8 526.1 439.4C526.9 440 527.2 440.7 527.2 440.7Z"
            fill="#263238" />
        <path
            d="M530.8 436.2C530.8 436.2 530.4 436.1 530 435.8C529.6 435.5 529.3 435.3 529.3 435.2C529.3 435.2 529.7 435.3 530.1 435.6C530.5 435.9 530.8 436.2 530.8 436.2Z"
            fill="#263238" />
        <path
            d="M531.8 435C531.8 435.1 531.5 435 531.1 434.9C530.7 434.8 530.4 434.6 530.4 434.6C530.4 434.5 530.7 434.6 531.1 434.7C531.5 434.8 531.8 434.9 531.8 435Z"
            fill="#263238" />
        <path
            d="M531.9 433.1C531.9 433.2 531.6 433.4 531.1 433.6C530.6 433.8 530.3 433.9 530.2 433.9C530.2 433.8 530.5 433.6 531 433.4C531.5 433.2 531.9 433 531.9 433.1Z"
            fill="#263238" />
        <path
            d="M531.7 431.9C531.7 431.9 531.4 432.3 530.9 432.6C530.4 432.9 529.9 433 529.9 432.9C529.9 432.8 530.3 432.7 530.8 432.4C531.3 432.1 531.7 431.9 531.7 431.9Z"
            fill="#263238" />
        <path
            d="M529.6 435.1C529.6 435.1 529.2 435.3 528.6 435.6C528.3 435.7 527.9 435.8 527.4 435.9C527.2 435.9 526.9 436 526.7 435.9C526.6 435.9 526.4 435.8 526.3 435.7C526.2 435.6 526.2 435.4 526.3 435.2C527 434.2 528.3 434.4 528.9 434.7C529.2 434.9 529.4 435.1 529.5 435.2C529.6 435.4 529.7 435.5 529.7 435.5C529.7 435.5 529.4 435.1 528.8 434.8C528.5 434.7 528.1 434.6 527.7 434.6C527.3 434.7 526.8 434.9 526.5 435.2C526.4 435.4 526.5 435.6 526.8 435.6C527 435.6 527.3 435.6 527.5 435.6C527.9 435.6 528.3 435.5 528.7 435.4C529.2 435.2 529.6 435 529.6 435.1Z"
            fill="#263238" />
        <path
            d="M529.4 435.2C529.4 435.2 529.1 435 529 434.5C528.9 434.3 528.9 434 528.9 433.6C529 433.3 529.1 432.9 529.5 432.7C529.8 432.6 530.3 433.1 530.4 433.3C530.5 433.5 530.1 433.4 530.1 433.5C530.1 433.8 530 434.1 529.9 434.3C529.7 435 529.5 435.2 529.4 435.2C529.4 435.1 529.6 434.9 529.7 434.4C529.8 434.2 529.8 433.9 529.8 433.6C529.8 433.3 529.8 432.9 529.5 433C529.2 433.1 529.1 433.5 529 433.7C528.9 434 529 434.3 529 434.5C529.2 435 529.4 435.2 529.4 435.2Z"
            fill="#263238" />
        <path
            d="M546.1 426.4C546.1 426.4 545.6 426.6 544.9 427C544.2 427.4 543.4 428.1 542.8 429.2C542.3 430.3 542.2 431.4 542.2 432.2C542.3 433 542.5 433.5 542.4 433.5C542.4 433.5 542.3 433.4 542.3 433.2C542.2 433 542.1 432.7 542.1 432.3C542 431.5 542.1 430.3 542.6 429.2C543.2 428.1 544.1 427.3 544.8 426.9C545.2 426.7 545.5 426.6 545.7 426.5C546 426.4 546.1 426.4 546.1 426.4Z"
            fill="#263238" />
        <path
            d="M539.8 432.9C539.8 432.9 538.9 433.6 537.6 434.2C536.3 434.8 535.2 435.1 535.2 435.1C535.2 435 536.3 434.6 537.5 434.1C538.8 433.4 539.8 432.8 539.8 432.9Z"
            fill="#263238" />
        <path
            d="M543 431.5C543.1 431.5 543 431.8 543 432C543 432.3 543 432.5 543 432.5C542.9 432.5 542.8 432.3 542.8 432C542.8 431.7 542.9 431.4 543 431.5Z"
            fill="#263238" />
        <path
            d="M543.5 429.5C543.6 429.5 543.5 429.7 543.4 430C543.3 430.2 543.2 430.4 543.1 430.4C543 430.4 543.1 430.2 543.2 429.9C543.3 429.6 543.4 429.4 543.5 429.5Z"
            fill="#263238" />
        <path
            d="M544.8 428C544.8 428.1 544.6 428.2 544.4 428.3C544.2 428.5 544.1 428.7 544 428.7C543.9 428.7 544 428.4 544.2 428.2C544.6 428 544.8 428 544.8 428Z"
            fill="#263238" />
        <path
            d="M545.9 427.2C545.9 427.2 545.9 427.4 545.8 427.5C545.7 427.6 545.6 427.7 545.5 427.6C545.5 427.6 545.5 427.4 545.6 427.3C545.7 427.2 545.9 427.1 545.9 427.2Z"
            fill="#263238" />
        <path
            d="M526.2 223.6L523.3 187.9L538.3 188.2C538.3 188.2 539 182.9 536.8 171.4C535.4 164.3 530.7 160 525.4 157.4V157.3L524.9 157.2C518.2 154.1 511.1 153.6 511.1 153.6L492.7 153.8C492.7 153.8 478.6 152 470.8 162.1C467.8 166 458.5 192.5 458.5 192.5L480.6 203.2L478.5 188.5C478.5 188.5 478.9 199.1 480.3 202.5C481.1 204.4 483.2 210.2 483.2 210.2L482.9 227.8L526.2 223.6Z"
            fill="#FFC444" />
        <path d="M516.1 182.8L513.3 194.4H539.1L537.4 174.9L516.1 182.8Z" fill="#FFC444" />
        <path
            d="M539.1 194.4C539.1 194.3 537.8 194.2 535.7 194.1C533.6 194 530.7 193.9 527.4 193.9C524.2 193.9 521.2 194.1 519.1 194.2C517 194.4 515.7 194.5 515.7 194.6C515.7 194.7 517 194.6 519.1 194.6C521.2 194.5 524.1 194.5 527.4 194.4C530.6 194.4 533.5 194.4 535.7 194.4C537.8 194.5 539.1 194.5 539.1 194.4Z"
            fill="#263238" />
        <path
            d="M514.9 174.8C514.8 174.8 514.8 175.9 514.8 177.8C514.8 179.6 514.9 182.2 515 184.9C515.1 187.7 515.2 190.2 515.4 192C515.5 193.8 515.6 195 515.7 195C515.8 195 515.8 193.9 515.8 192C515.8 190.2 515.7 187.6 515.6 184.9C515.5 182.1 515.4 179.6 515.2 177.8C515.1 175.9 515 174.8 514.9 174.8Z"
            fill="#263238" />
        <g opacity="0.3">
            <path opacity="0.3"
                d="M491.4 184.9C491.4 184.9 497.1 227.5 513.3 226.3C513.3 226.3 520.6 226.2 522.9 221.4V219.5L491.4 184.9Z"
                fill="black" />
        </g>
        <g opacity="0.3">
            <path opacity="0.3"
                d="M514.9 177.3L511.9 198.1L513.9 201.8L517.1 194.6H515.7L514.9 177.3Z"
                fill="black" />
        </g>
        <path
            d="M483.4 210.2C483.4 210.2 483.2 209.9 483 209.2C482.7 208.5 482.4 207.6 482 206.4C481.2 204 480.3 200.7 479.5 197C478.8 193.3 478.4 189.8 478.3 187.3C478.2 186.1 478.2 185 478.2 184.3C478.2 183.6 478.2 183.2 478.3 183.2C478.4 183.2 478.4 184.7 478.7 187.2C478.9 189.7 479.3 193.1 480.1 196.8C480.8 200.5 481.7 203.8 482.4 206.2C482.7 207.3 483 208.3 483.2 209C483.3 209.8 483.4 210.1 483.4 210.2Z"
            fill="#263238" />
        <path
            d="M489.9 222.4C489.8 222.4 489.4 221.5 489 220.3C488.6 219.1 488.5 218.1 488.6 218.1C488.7 218.1 489.1 219 489.5 220.2C489.8 221.4 490 222.4 489.9 222.4Z"
            fill="#263238" />
        <path
            d="M492.1 222.2C492 222.2 491.5 220.9 491.5 219.1C491.5 217.3 491.9 215.9 492 216C492.1 216 492 217.4 492 219.1C492.1 220.8 492.3 222.2 492.1 222.2Z"
            fill="#263238" />
        <path
            d="M481.2 203.6C481.1 203.7 476 201.3 469.7 198.1C463.4 195 458.4 192.3 458.4 192.2C458.5 192.1 463.6 194.5 469.9 197.7C476.2 200.8 481.2 203.5 481.2 203.6Z"
            fill="#263238" />
        <path
            d="M490.3 157.3C490.4 152.2 490.4 146.9 490.4 146.9C490.4 146.9 483.9 145.6 482.8 137.1C481.7 129 484.7 109.9 484.7 109.9C494.2 106.3 504 109.6 510.5 117.2L508.9 158.3C508.7 163.1 504.5 166.7 499.4 166.5C494.2 166.2 490.2 162.1 490.3 157.3Z"
            fill="#B78876" />
        <path
            d="M484.2 125.1C484.2 125.7 484.6 126.2 485.2 126.2C485.8 126.2 486.3 125.8 486.3 125.2C486.3 124.6 485.9 124.1 485.3 124.1C484.8 124.1 484.3 124.5 484.2 125.1Z"
            fill="#263238" />
        <path
            d="M483.8 123.7C483.9 123.8 484.8 123.3 485.9 123.3C487.1 123.3 487.9 123.9 488 123.8C488.1 123.7 487.9 123.5 487.6 123.2C487.2 122.9 486.6 122.6 485.9 122.6C485.2 122.6 484.5 122.8 484.2 123.1C483.9 123.3 483.8 123.6 483.8 123.7Z"
            fill="#263238" />
        <path
            d="M496.1 125.8C496.1 126.4 496.5 126.9 497.1 126.9C497.7 126.9 498.2 126.5 498.2 125.9C498.2 125.3 497.8 124.8 497.2 124.8C496.7 124.8 496.2 125.3 496.1 125.8Z"
            fill="#263238" />
        <path
            d="M496.1 124.4C496.2 124.5 497.1 124 498.2 124C499.4 124 500.2 124.6 500.3 124.5C500.4 124.4 500.2 124.2 499.9 123.9C499.5 123.6 498.9 123.3 498.2 123.3C497.5 123.3 496.8 123.5 496.5 123.8C496.1 124.1 496 124.3 496.1 124.4Z"
            fill="#263238" />
        <path
            d="M491.6 133C491.6 132.9 490.9 132.8 489.7 132.6C489.4 132.6 489.1 132.5 489.1 132.3C489 132.1 489.2 131.8 489.3 131.4C489.6 130.7 489.9 129.9 490.2 129.1C491.5 125.9 492.5 123.2 492.3 123.2C492.2 123.1 491 125.7 489.7 128.9C489.4 129.7 489.1 130.4 488.8 131.2C488.7 131.5 488.5 131.9 488.6 132.4C488.7 132.6 488.9 132.8 489.1 132.9C489.3 133 489.5 133 489.6 133C490.8 133 491.6 133.1 491.6 133Z"
            fill="#263238" />
        <path
            d="M490.4 146.9C490.4 146.9 496.1 147.4 501.9 144.2C501.9 144.2 499 150 490.5 149L490.4 146.9Z"
            fill="#A36957" />
        <path
            d="M499.8 121C499.6 121.4 498.7 121.2 497.7 121C496.7 120.8 495.8 120.6 495.7 120.2C495.6 119.8 496.6 119.2 498 119.5C499.3 119.8 500.1 120.7 499.8 121Z"
            fill="#263238" />
        <path
            d="M488.1 119.3C488 119.7 487.1 119.9 486 119.9C484.9 119.9 483.9 119.9 483.8 119.5C483.7 119.1 484.6 118.4 485.9 118.4C487.3 118.3 488.2 118.9 488.1 119.3Z"
            fill="#263238" />
        <path
            d="M491.6 135.8C491.4 135.7 491.1 135.9 491 136.1C490.9 136.4 490.9 136.7 491.2 136.9C491.4 137.1 491.8 137.1 492 136.9C492.2 136.7 492.3 136.3 492.2 136.1C492.1 135.8 491.7 135.7 491.4 135.8"
            fill="#A36957" />
        <path
            d="M491.9 135.9C492 135.9 491.7 135.6 491.2 135.7C491 135.8 490.7 136 490.6 136.3C490.5 136.6 490.6 137.1 491 137.4C491.4 137.7 491.8 137.6 492.1 137.4C492.4 137.2 492.5 136.8 492.5 136.6C492.4 136.1 492 136 492 136.1C492 136.2 492.1 136.3 492.1 136.7C492.1 136.9 492 137 491.9 137.1C491.8 137.2 491.5 137.2 491.4 137.1C491.3 137 491.2 136.8 491.2 136.6C491.2 136.4 491.3 136.3 491.5 136.2C491.6 135.9 491.8 136 491.9 135.9Z"
            fill="#263238" />
        <path
            d="M506.6 127.2C505.6 129.5 503.1 131.4 503.5 133.9C503.7 135.5 504.8 137.1 504.6 138.7C504.3 140.8 502.2 142.2 501.9 144.2C501.5 146.7 504 148.7 504.9 151C506.3 154.4 504.5 158.3 504.5 161.9C504.4 167.6 509.3 172.9 514.9 173.3C517.2 173.5 519.8 172.8 520.9 170.8C521.9 169.2 521.7 167.1 522.3 165.3C523.2 162.6 525.7 160.7 526.3 157.9C527.3 152.9 521.2 148.7 521.6 143.6C521.8 141.4 523.1 139.5 523.7 137.4C524.5 134.6 523.8 131.5 521.9 129.3C520.4 127.5 518.2 126.3 516.9 124.4C515.4 122.2 515.4 119.4 514.9 116.8C513.6 110.5 508.8 105 502.8 102.8C496.7 100.6 489.6 101.7 484.5 105.6C484.5 105.6 483 112.2 489.8 113.3C496.6 114.4 499.7 113.1 500.5 115.8C500.5 115.8 499.7 119 502.5 122C505.2 125.1 507.8 124.5 506.6 127.2Z"
            fill="#893976" />
        <path
            d="M517.4 172.9C517.4 172.9 517.2 172.9 516.8 172.8C516.4 172.7 515.8 172.6 515.1 172.3C513.7 171.8 511.6 170.6 509.9 168.4C509 167.3 508.2 166 507.7 164.4C507.1 162.9 506.8 161.1 506.8 159.3C506.8 157.5 507 155.5 507.5 153.6C507.8 152.6 508.1 151.7 508.5 150.7C508.9 149.7 509.3 148.8 509.6 147.8C509.9 146.8 509.8 145.8 509.6 144.9C509.3 143.9 508.9 143 508.5 142.2C508.1 141.3 507.6 140.4 507.3 139.5C507 138.6 506.9 137.6 507.1 136.6C507.5 134.7 508.6 133.3 509.3 131.9C510 130.5 510.2 129 510.2 127.6C510.1 124.9 508.9 122.9 508 121.7C507 120.5 506.3 120.1 506.3 120C506.3 120 507.1 120.4 508.2 121.5C509.2 122.6 510.5 124.7 510.6 127.5C510.7 128.9 510.4 130.5 509.7 132C509 133.5 507.9 134.9 507.6 136.6C507.2 138.3 508.1 140.1 509 141.9C509.4 142.8 509.9 143.7 510.2 144.7C510.5 145.7 510.5 146.9 510.2 147.9C509.9 148.9 509.4 149.9 509.1 150.8C508.7 151.7 508.4 152.7 508.2 153.6C507.7 155.5 507.4 157.4 507.5 159.2C507.5 162.8 508.7 166 510.4 168.1C512.1 170.3 514 171.4 515.4 172C516.6 172.8 517.4 172.9 517.4 172.9Z"
            fill="#682C5D" />
        <path
            d="M516.4 122.5C516.4 122.5 515.9 122.6 514.9 122.7C513.9 122.8 512.5 122.9 510.8 122.6C509.1 122.3 507 121.5 505.6 119.4C504.9 118.4 504.7 117.2 504.2 116C503.8 114.9 503 113.9 501.9 113.2C499.7 111.8 497.1 111.6 494.9 111.4C492.6 111.1 490.5 110.7 489.1 109.6C487.6 108.6 486.9 107.2 486.7 106.3C486.6 105.8 486.6 105.4 486.6 105.2C486.6 104.9 486.7 104.8 486.7 104.8C486.8 104.8 486.6 105.3 486.9 106.3C487.1 107.2 487.9 108.4 489.3 109.4C490.7 110.4 492.7 110.8 495 111C497.2 111.3 499.9 111.4 502.2 112.9C503.4 113.6 504.3 114.8 504.7 116C505.1 117.2 505.4 118.4 506 119.3C507.2 121.2 509.2 122 510.9 122.4C512.6 122.7 514 122.7 514.9 122.7C515.9 122.4 516.4 122.4 516.4 122.5Z"
            fill="#682C5D" />
        <path
            d="M513.9 114.3C513.9 114.3 513.5 114.5 512.7 114.5C511.9 114.5 510.8 114.4 509.5 113.8C508.9 113.5 508.2 113.1 507.6 112.5C507 111.9 506.5 111.2 506 110.4C505.1 108.9 504.2 107 502.4 106.2C500.6 105.4 498.5 105.6 496.8 105.7C495 105.9 493.4 105.9 492 105.7C490.6 105.5 489.6 104.9 489 104.4C488.7 104.1 488.5 103.9 488.4 103.7C488.3 103.5 488.2 103.4 488.3 103.4C488.3 103.4 488.6 103.7 489.2 104.2C489.8 104.7 490.8 105.1 492.1 105.3C493.4 105.5 495 105.4 496.8 105.2C498.6 105.1 500.6 104.8 502.7 105.7C503.7 106.1 504.5 106.9 505.1 107.7C505.7 108.5 506.1 109.4 506.6 110.1C507 110.9 507.5 111.6 508 112.1C508.5 112.6 509.1 113.1 509.7 113.4C510.9 114 512 114.2 512.7 114.2C513.5 114.3 513.9 114.3 513.9 114.3Z"
            fill="#682C5D" />
        <path
            d="M520.4 170.8C520.3 170.8 520.7 170.1 521 168.9C521.4 167.7 521.7 165.8 521.7 163.5C521.6 161.2 521.1 158.5 519.6 155.9C518.9 154.6 517.8 153.4 516.9 152C516.5 151.3 516.1 150.5 515.9 149.6C515.7 148.7 515.8 147.8 516.1 146.9C516.7 145.2 517.7 143.7 517.9 142.1C518.2 140.5 517.4 139.1 516.6 137.8C516.2 137.1 515.8 136.5 515.5 135.8C515.2 135.1 515 134.4 514.9 133.7C514.7 132.3 514.9 131 515 129.9C515.3 127.6 515.1 125.7 514.5 124.6C514 123.4 513.3 123.1 513.3 123C513.3 123 513.3 123 513.4 123.1C513.5 123.1 513.6 123.2 513.7 123.3C514 123.5 514.3 123.9 514.6 124.5C515.2 125.7 515.5 127.6 515.3 129.9C515.2 131.1 515.1 132.3 515.2 133.6C515.3 134.9 516 136.2 516.8 137.5C517.2 138.2 517.6 138.8 517.9 139.6C518.2 140.4 518.3 141.3 518.2 142.1C518 143.8 516.9 145.3 516.4 147C516.1 147.8 516 148.6 516.2 149.4C516.4 150.2 516.7 150.9 517.1 151.6C518 153 519.1 154.2 519.8 155.5C521.3 158.2 521.9 161 521.9 163.4C521.9 165.7 521.5 167.6 521.1 168.8C520.9 169.4 520.7 169.9 520.5 170.2C520.5 170.6 520.4 170.8 520.4 170.8Z"
            fill="#682C5D" />
        <path
            d="M479.7 357.1C479.7 357.1 473 293.3 472.6 269.7C472.2 246.1 483.2 222.8 483.2 222.8L526.3 221C526.3 221 534.8 244.9 535 255C535.3 274.5 529.8 293.8 530.4 309.3L531.8 357.1"
            fill="#263238" />
        <path
            d="M533.2 278.6C533.2 278.6 533 278.8 532.5 279.1C532.4 279.2 532.2 279.3 532.1 279.4C532 279.5 531.8 279.7 531.7 279.8C531.4 280.1 531 280.4 530.7 280.9C529.3 282.6 528.3 285.6 527.3 289.4C526.8 291.3 526.2 293.4 525.1 295.5C524.8 296 524.5 296.5 524.1 297C523.9 297.2 523.7 297.5 523.5 297.7L522.8 298.4C521.9 299.3 520.8 300 519.6 300.5C517.2 301.6 514.5 302.1 512 303.3C509.5 304.5 507.6 306.9 506.5 309.6C505.3 312.3 504.6 315.2 503.5 317.8C502.5 320.4 501.2 323 499 324.6C496.9 326.3 494.2 326.7 491.9 326.8C489.6 326.9 487.4 326.9 485.5 327.2C483.6 327.5 481.9 328.1 480.7 329C479.5 329.9 478.8 331.1 478.5 332.2C478.2 333.2 478.2 334.1 478.3 334.7C478.4 335.3 478.6 335.5 478.5 335.5C478.5 335.5 478.3 335.2 478.2 334.7C478 334.1 478 333.2 478.3 332.2C478.6 331.1 479.3 329.9 480.6 328.9C481.8 327.9 483.6 327.2 485.5 326.9C487.5 326.6 489.6 326.6 491.9 326.5C494.2 326.3 496.7 325.9 498.7 324.3C500.7 322.8 502 320.3 503 317.7C504 315.1 504.7 312.2 506 309.5C507.2 306.7 509.2 304.2 511.8 303C514.4 301.7 517.1 301.2 519.5 300.2C520.7 299.7 521.8 299.1 522.6 298.2L523.2 297.6C523.4 297.4 523.6 297.1 523.7 296.9C524.1 296.5 524.3 295.9 524.6 295.4C525.7 293.4 526.3 291.3 526.8 289.4C527.8 285.6 528.9 282.5 530.4 280.8C530.7 280.3 531.1 280 531.4 279.7C531.6 279.6 531.7 279.4 531.8 279.3C531.9 279.2 532.1 279.1 532.2 279C533 278.7 533.2 278.6 533.2 278.6Z"
            fill="#FAFAFA" />
        <path
            d="M533.5 249.1C533.5 249.1 533.5 249.4 533.6 250C533.6 250.6 533.5 251.4 533.3 252.4C532.8 254.5 531.3 257.3 528.4 259.9C527 261.2 525.3 262.5 523.4 263.6C521.5 264.7 519.3 265.8 517.2 267.1C515 268.3 512.8 269.7 510.8 271.6C508.8 273.4 507.3 275.8 506 278.4C504.6 280.9 503.4 283.5 501.8 285.8C501 286.9 500.1 287.9 499.1 288.8C498.1 289.7 497 290.4 495.8 291C493.5 292.2 491.2 292.9 489.1 293.6C487 294.3 485 294.8 483.2 295.6C481.5 296.3 479.9 297.1 478.7 298C477.5 298.9 476.5 299.8 475.9 300.6C474.6 302.2 474.3 303.4 474.2 303.4C474.2 303.4 474.3 303.1 474.5 302.6C474.7 302.1 475.1 301.3 475.8 300.5C476.4 299.6 477.4 298.7 478.6 297.8C479.8 296.9 481.4 296 483.1 295.3C484.9 294.5 486.9 293.9 489 293.3C491.1 292.6 493.4 291.9 495.6 290.7C496.7 290.1 497.8 289.4 498.8 288.6C499.8 287.7 500.7 286.8 501.4 285.7C503 283.5 504.2 280.9 505.5 278.4C506.9 275.8 508.4 273.4 510.4 271.5C512.4 269.6 514.7 268.2 516.9 267C519.1 265.8 521.2 264.7 523.2 263.6C525.1 262.5 526.8 261.3 528.2 260C531 257.5 532.6 254.7 533.1 252.7C533.6 250.3 533.4 249.1 533.5 249.1Z"
            fill="#FAFAFA" />
        <path
            d="M472.8 273C472.8 273 472.8 272.9 472.7 272.8C472.7 272.7 472.6 272.5 472.5 272.2C472.4 271.7 472.3 270.8 472.6 269.8C473.2 267.8 475.4 265.2 478.9 264C480.7 263.4 482.7 263 484.8 262.5C486.9 261.9 489.1 261.2 490.8 259.4C491.6 258.5 492.3 257.5 492.9 256.4C493.5 255.3 493.9 254.1 494.4 252.8C495.3 250.3 496 247.6 497.6 245.1C499.1 242.6 501.6 240.9 504.1 240C506.6 239.1 509.2 238.7 511.6 238.1C514 237.6 516.2 236.9 518.1 235.9C520 234.8 521.5 233.4 522.5 231.9C524.7 228.9 525.2 225.8 525.3 223.8C525.3 221.7 525 220.6 525.1 220.6C525.1 220.6 525.5 221.7 525.5 223.8C525.5 225.9 525 229 522.8 232.1C521.7 233.6 520.2 235.1 518.3 236.2C516.4 237.3 514.1 238 511.7 238.5C509.3 239.1 506.8 239.5 504.3 240.4C501.8 241.3 499.5 242.9 498 245.3C496.5 247.7 495.8 250.4 494.9 252.9C494.4 254.2 494 255.4 493.4 256.6C492.8 257.8 492 258.8 491.2 259.7C489.4 261.5 487.1 262.3 485 262.8C482.9 263.3 480.9 263.7 479.1 264.3C475.6 265.5 473.4 267.9 472.8 269.8C472.5 270.8 472.5 271.6 472.6 272.1C472.7 272.8 472.8 273 472.8 273Z"
            fill="#FAFAFA" />
        <path
            d="M529.8 327C529.8 327 529.8 327.2 529.9 327.6C529.9 328 529.9 328.6 529.7 329.4C529.3 330.9 528.2 333 525.9 334.8C524.8 335.7 523.5 336.5 521.9 337.2C520.4 337.9 518.7 338.4 516.9 338.9C515.1 339.4 513.3 340 511.5 340.9C509.7 341.7 508 342.9 506.6 344.5C505.1 346 503.9 347.7 502.5 349.2C501.1 350.7 499.5 351.9 497.9 352.8C494.6 354.6 491.2 355.2 488.4 355.3C485.6 355.3 483.3 354.7 481.9 354.2C481.2 353.9 480.6 353.7 480.2 353.5C479.8 353.3 479.6 353.2 479.6 353.2C479.6 353.2 479.8 353.3 480.2 353.4C480.6 353.6 481.1 353.8 481.9 354C483.4 354.5 485.6 355 488.4 354.9C491.2 354.8 494.5 354.2 497.7 352.4C499.3 351.5 500.8 350.3 502.2 348.9C503.6 347.4 504.8 345.8 506.3 344.2C507.8 342.6 509.5 341.3 511.4 340.5C513.2 339.6 515.1 339.1 516.9 338.5C518.7 338 520.3 337.5 521.9 336.8C523.4 336.2 524.7 335.4 525.8 334.6C528 332.9 529.2 330.9 529.6 329.4C529.9 327.9 529.7 327 529.8 327Z"
            fill="#FAFAFA" />
        <path
            d="M524.9 194.5L516.6 194.7C516.1 197.5 514.7 199.4 514.7 199.4C507.7 187.3 502.3 171.1 501 164.6C501.2 163.9 501.4 163.2 501.7 162.4C502 161.5 501.7 159.7 501.6 158.7C501.4 157.3 501 155.3 500.8 154.4C500.4 151.6 500 151.2 499 151.5C497.7 151.9 499.5 159.2 498.5 159.4C497.9 159.5 497.2 157 497 154.9C496.8 152.8 495.9 146.5 495.2 146.1C494.2 145.5 493.3 146.5 493.6 148.5C493.9 150.6 494.2 156.7 493.1 156.8C492 156.9 491.1 146.4 491.1 146.4C491.1 146.4 491.3 144.1 490 144.2C487.7 144.3 489.5 155.3 489.7 156.4C489.8 157.1 488.7 157.3 488.6 156.5C488.5 155.7 487.9 146 485.6 146.1C483.8 146.2 487 155.2 486 157.3C485 159.4 484.3 150.2 482.6 150.3C482 150.3 481.5 150.5 482.7 155.7C483.3 158.5 485.1 163.7 486.7 167.9C489.4 182.3 501.1 228.6 519.6 220.1C529.9 215.4 534.1 194.4 534.1 194.4L524.9 194.5Z"
            fill="#B78876" />
        <path
            d="M489.3 157.2C489.3 157.2 489.4 157.2 489.5 157.2C489.6 157.2 489.9 157 489.9 156.6C489.9 156 489.8 155.1 489.6 153.9C489.5 152.7 489.1 151.3 489.1 149.6C489.1 148.8 489.1 147.9 489.2 146.9C489.2 146.4 489.2 145.9 489.3 145.5C489.4 145 489.7 144.5 490 144.6C490.4 144.6 490.6 144.9 490.7 145.3C490.8 145.7 490.9 146.2 490.8 146.6C491 149.2 491.3 152 491.9 154.9C492 155.3 492.1 155.6 492.2 156C492.3 156.2 492.3 156.4 492.4 156.6C492.5 156.7 492.5 156.8 492.6 156.9C492.7 157 492.8 157.1 493 157.2C493.4 157.2 493.5 156.9 493.6 156.7C493.7 156.5 493.7 156.3 493.8 156.1C493.9 155.7 493.9 155.3 494 154.9C494.1 153.3 494.1 151.6 493.9 149.9C493.9 149 493.6 148.2 493.8 147.4C493.9 147 494 146.6 494.3 146.5C494.4 146.4 494.6 146.4 494.7 146.4C494.8 146.4 494.9 146.5 494.9 146.5C495 146.6 495 146.5 495 146.6C495.3 147.3 495.5 148.2 495.7 149.1C495.9 150 496 150.9 496.2 151.8C496.3 152.7 496.5 153.6 496.6 154.6C496.7 155.5 496.8 156.5 497.1 157.4C497.2 157.9 497.4 158.3 497.6 158.8C497.7 159 497.8 159.3 498 159.5C498.1 159.6 498.3 159.8 498.6 159.7C498.9 159.6 499 159.4 499 159.3C499.2 158.7 499.1 158.2 499.1 157.7C499.1 157.2 499 156.7 499 156.2C498.9 155.4 498.8 154.5 498.8 153.7C498.8 153.3 498.8 152.9 498.8 152.5C498.8 152.3 498.9 152.1 498.9 152C498.9 151.9 499 151.9 499 151.9H499.1C499.8 151.6 500 152.5 500.2 153.3C500.4 154.1 500.5 154.9 500.6 155.7C500.9 157.3 501.2 158.8 501.4 160.3C501.5 161 501.5 161.8 501.3 162.5C501.1 163.2 500.8 163.9 500.6 164.6V164.7V164.8C501.8 170.2 503.5 175 505.1 179.3C506.7 183.6 508.3 187.3 509.7 190.3C511.1 193.3 512.3 195.6 513.2 197.2C513.6 198 514 198.5 514.2 199C514.4 199.4 514.6 199.6 514.6 199.6C514.6 199.6 514.5 199.4 514.3 199C514.1 198.5 513.7 197.9 513.3 197.2C512.5 195.6 511.3 193.2 509.9 190.2C508.5 187.2 507 183.5 505.5 179.2C504 174.9 502.3 170.1 501.1 164.8V164.9C501.3 164.2 501.6 163.5 501.8 162.8C502.1 162 502 161.2 501.9 160.4C501.7 158.8 501.4 157.3 501.1 155.7C500.9 154.9 500.9 154.1 500.7 153.3C500.6 152.9 500.5 152.5 500.3 152.1C500.2 151.9 500 151.7 499.7 151.5C499.4 151.4 499.1 151.4 498.9 151.5H498.7C498.6 151.5 498.5 151.6 498.5 151.6C498.4 151.7 498.3 151.8 498.2 152C498.1 152.2 498.1 152.5 498 152.7C498 153.1 498 153.6 498 154C498 154.8 498.1 155.7 498.2 156.5C498.2 157 498.3 157.5 498.3 158C498.3 158.5 498.3 159 498.2 159.3C498.2 159.4 498.1 159.4 498.2 159.4C498.2 159.4 498.2 159.5 498.2 159.4C498.2 159.4 498.2 159.4 498.1 159.3C498 159.2 497.9 159 497.8 158.8C497.6 158.4 497.5 157.9 497.4 157.5C497.2 156.6 497 155.7 496.9 154.7C496.8 153.8 496.7 152.8 496.5 151.9C496.4 151 496.2 150.1 496 149.2C495.8 148.3 495.7 147.4 495.2 146.5C495.2 146.4 495 146.2 494.9 146.1C494.8 146 494.7 146 494.5 145.9C494.2 145.8 493.9 145.9 493.7 146C493.2 146.3 493.1 146.8 493 147.3C492.9 147.8 492.9 148.2 493 148.7C493.1 149.1 493.1 149.5 493.1 150C493.2 151.7 493.3 153.3 493.2 154.9C493.2 155.3 493.1 155.7 493.1 156.1C493.1 156.3 493 156.5 492.9 156.6C492.9 156.7 492.8 156.7 492.8 156.8C492.8 156.9 492.7 156.8 492.7 156.9C492.8 156.8 492.7 156.9 492.7 156.8C492.7 156.8 492.6 156.7 492.6 156.6C492.5 156.4 492.5 156.3 492.4 156.1C492.3 155.7 492.2 155.4 492.1 155C491.5 152.1 491.2 149.3 491 146.7C491 146.2 491 145.7 490.8 145.2C490.7 145 490.6 144.7 490.4 144.5C490.2 144.3 489.9 144.2 489.7 144.2H489.8C489.4 144.1 489.1 144.4 488.9 144.6C488.7 144.8 488.7 145.1 488.6 145.4C488.5 145.9 488.5 146.4 488.5 146.9C488.5 147.9 488.5 148.8 488.5 149.6C488.5 151.3 488.9 152.7 489.1 153.9C489.3 155.1 489.4 156 489.5 156.6C489.6 156.9 489.3 157.1 489.2 157.1C489.4 157.2 489.3 157.2 489.3 157.2Z"
            fill="#A36957" />
        <path
            d="M424.2 208.2C424.2 208.2 421.4 208.1 418.4 208.9C413.2 210.3 404.3 215.7 404 222.3H410.5C410.5 222.3 406.9 230 407.9 229.3C410.7 227.4 416.2 221.9 416.2 221.9L424.2 208.2Z"
            fill="#B78876" />
        <path
            d="M512.5 92C512.4 92 511.8 86.7 511.2 80C510.6 73.4 510.3 68 510.4 68C510.5 68 511.1 73.3 511.7 80C512.3 86.7 512.7 92 512.5 92Z"
            fill="#263238" />
        <path
            d="M540.9 68.4C541 68.5 536.6 74.8 531.1 82.6C525.6 90.4 521 96.6 520.9 96.5C520.8 96.4 525.2 90.1 530.7 82.3C536.2 74.5 540.8 68.3 540.9 68.4Z"
            fill="#263238" />
        <path
            d="M552.7 97.2C552.7 97.3 547.6 98.5 541.3 99.8C535 101.1 529.8 102 529.8 101.9C529.8 101.8 534.9 100.6 541.2 99.3C547.6 98 552.7 97 552.7 97.2Z"
            fill="#263238" />
        <path
            d="M212.6 234.5L177.2 416.3L172.6 440.1L408.7 438.9C419.3 438.8 428.7 429.4 432.1 415.5L474 243.9C476.6 233.3 470.9 222.3 462.9 222.3L224 222.6C218.6 222.5 214 227.4 212.6 234.5Z"
            fill="#EC6E6E" />
        <g opacity="0.5">
            <path opacity="0.5"
                d="M212.6 234.5L177.2 416.3L172.6 440.1L408.7 438.9C419.3 438.8 428.7 429.4 432.1 415.5L474 243.9C476.6 233.3 470.9 222.3 462.9 222.3L224 222.6C218.6 222.5 214 227.4 212.6 234.5Z"
                fill="black" />
        </g>
        <path
            d="M386.1 404L361.1 202.6C360.1 194.3 353.5 188.2 345.7 188.2L290.9 188.4C286.8 188.4 283 190.1 280.1 193.2L254.1 220.9L101.7 221.7C92.4 221.7 85.2 230.6 86.5 240.5L109.7 426.7C110.7 434.9 117.3 441.1 125 441.1L390.6 440.6C420.2 441.2 423 432.5 423 432.5C389.1 439.8 386.1 404 386.1 404Z"
            fill="#EC6E6E" />
        <g opacity="0.5">
            <path opacity="0.5" d="M271.5 363.7L262.5 373.3L193.5 311.3L202.5 301.6L271.5 363.7Z"
                fill="white" />
            <path opacity="0.5" d="M258.8 299.5L268.7 308.4L206.3 375.5L196.4 366.6L258.8 299.5Z"
                fill="white" />
        </g>
        <path
            d="M424 103.8C423.4 103.5 422.9 102.9 422.9 102.2L422.5 92.9001C422.5 92.3001 422.7 91.8001 423.2 91.4001C423.7 91.0001 424.2 90.9001 424.8 91.0001C426.3 91.4001 427.9 91.0001 429.3 90.1001C430.6 89.3001 431.4 88.0001 431.6 86.7001C431.8 85.4001 431.4 83.9001 430.5 82.7001C429.5 81.4001 428 80.5001 426.6 80.3001C423.6 80.0001 420.3 82.3001 419.5 85.3001C419.2 86.3001 418.2 86.9001 417.2 86.6001C416.2 86.3001 415.6 85.3001 415.9 84.3001C417.2 79.5001 422.2 76.0001 427 76.5001C429.5 76.8001 431.9 78.2001 433.5 80.3001C435 82.3001 435.7 84.8001 435.3 87.2001C434.9 89.5001 433.5 91.7001 431.4 93.1001C429.9 94.1001 428.1 94.7001 426.3 94.8001L426.6 102C426.6 103 425.8 103.9 424.8 103.9C424.5 103.9 424.2 103.9 424 103.8Z"
            fill="#885ABF" />
        <path
            d="M426.7 107.6C426.8 108.4 426.1 109.2 425.3 109.2C424.5 109.3 423.7 108.6 423.7 107.8C423.6 107 424.3 106.2 425.1 106.2C425.9 106.2 426.7 106.7 426.7 107.6Z"
            fill="#885ABF" />
        <path
            d="M391.9 90.7001C391.9 90.7001 391.9 90.5001 392 90.1001C392 89.7001 392.1 89.1001 392.2 88.3001C392.2 87.5001 392.4 86.6001 392.7 85.4001C392.8 84.8001 392.9 84.2001 393.1 83.6001C393.3 83.0001 393.5 82.3001 393.7 81.6001C394.7 78.8001 396.2 75.4001 398.7 72.1001C401.2 68.8001 404.7 65.5001 409.2 63.0001C411.4 61.7001 414 60.8001 416.6 59.9001C419.3 59.3001 422.2 58.7001 425.1 58.8001C426.6 58.7001 428.1 58.9001 429.6 59.1001C430.4 59.2001 431.1 59.4001 431.9 59.5001C432.7 59.6001 433.4 59.8001 434.2 60.1001C437.3 60.9001 440.3 62.3001 443.1 64.2001C448.8 67.8001 453.7 73.7001 456.3 80.8001C457.6 84.4001 458.3 88.3001 458.3 92.2001C458.4 96.2001 457.6 100.2 456.2 103.9L455.7 105L455.6 105.2L455.7 105.3C458.2 111.1 460.7 116.7 463.1 122.2L463.5 121.7C458.3 119.7 453.3 117.8 448.5 115.9L448.3 115.8L448.2 115.9C444 119.9 439.1 122.6 434.1 124.1C429.1 125.5 424 125.6 419.4 124.8C414.8 124 410.6 122.2 407.1 119.9C403.6 117.6 400.8 114.9 398.7 112C396.6 109.2 395.2 106.2 394.1 103.6C393.2 100.9 392.6 98.6001 392.3 96.6001C392.2 95.6001 392.1 94.8001 392 94.0001C392 93.3001 392 92.6001 392 92.1001C392 91.6001 392 91.2001 392 90.9001C391.9 90.8001 391.9 90.7001 391.9 90.7001C391.9 90.7001 391.9 90.8001 391.9 91.1001C391.9 91.4001 391.9 91.8001 391.9 92.3001C391.9 92.8001 391.9 93.5001 391.9 94.2001C392 95.0001 392.1 95.8001 392.2 96.8001C392.4 98.8001 393 101.2 393.9 103.9C394.9 106.5 396.3 109.5 398.5 112.4C400.7 115.3 403.5 118.1 407 120.4C410.5 122.7 414.7 124.6 419.4 125.4C424.1 126.3 429.2 126.2 434.4 124.8C439.5 123.4 444.6 120.6 448.8 116.5L448.5 116.6C453.3 118.5 458.3 120.4 463.5 122.4L464.3 122.7L464 121.9C461.6 116.4 459.2 110.7 456.7 105V105.3L457.2 104.1C458.6 100.2 459.4 96.1001 459.3 92.1001C459.3 88.1001 458.6 84.1001 457.3 80.4001C454.6 73.1001 449.6 67.2001 443.8 63.5001C440.9 61.7001 437.8 60.2001 434.7 59.4001C433.9 59.1001 433.1 59.0001 432.4 58.8001C431.6 58.7001 430.8 58.5001 430.1 58.4001C428.5 58.3001 427 58.1001 425.5 58.1001C422.5 58.0001 419.6 58.6001 416.8 59.3001C414.1 60.1001 411.5 61.1001 409.3 62.4001C404.7 65.0001 401.2 68.3001 398.7 71.7001C396.2 75.1001 394.7 78.5001 393.8 81.4001C393.6 82.1001 393.4 82.8001 393.2 83.4001C393 84.0001 392.9 84.7001 392.8 85.2001C392.6 86.3001 392.4 87.3001 392.4 88.1001C392.3 88.9001 392.3 89.5001 392.3 89.9001C391.8 90.5001 391.8 90.7001 391.9 90.7001Z"
            fill="#263238" />
    </g>
    <defs>
        <clipPath id="clip0_1030:8820">
            <rect width="601.5" height="443.1" fill="white" />
        </clipPath>
    </defs>
</svg>
