<svg width="1016" height="1229" viewBox="0 0 1016 1229" fill="none"
    xmlns="http://www.w3.org/2000/svg">
    <path d="M539.8 793H178.8V1228H539.8V793Z" fill="#345668" />
    <path
        d="M572.2 164.6C572 165.3 571.8 166.1 572.2 166.8C572.8 167.8 574.4 167.7 575.5 167.2C584.1 164.1 589.6 155.6 597.3 150.7C600.8 146.6 603.3 141.8 604.7 136.7C604.9 136.1 605 135.5 605.1 135C605.5 133.3 605.6 131.3 604.5 130C603.7 129.2 602.5 128.8 601.3 128.9C598.3 129 595.9 131.2 593.7 133.2C588.9 137.9 584.1 142.9 580.2 148.4C576.8 153.4 573.9 158.7 572.2 164.6Z"
        fill="#FFCFCA" />
    <path
        d="M572.2 164.6C572 165.3 571.8 166.1 572.2 166.8C572.8 167.8 574.4 167.7 575.5 167.2C584.1 164.1 589.6 155.6 597.3 150.7C600.8 146.6 603.3 141.8 604.7 136.7C602.5 138.2 600.2 139.5 597.9 140.8C592.2 143.8 586.3 146.1 580.3 148.4C576.8 153.4 573.9 158.7 572.2 164.6Z"
        fill="#F9BFBB" />
    <path
        d="M601.3 155.4C600.1 157.6 598.5 161.4 601.1 163.3C603.9 165.2 606.2 162.4 607.9 160.5C613.1 154.4 619.2 149 625.8 144.5C629.1 142.3 632.5 140.3 635.8 138.3C643.6 133.4 651.1 127.8 658 121.7C658.7 121.1 659.4 120.5 659.7 119.6C660.3 117.9 659.1 115.9 657.4 115.2C657.2 115.1 657.1 115.1 656.9 115C655.3 114.5 653.6 114.7 652 115C650.8 115.2 649.7 115.6 648.5 115.9C642.7 117.8 637.3 121.1 632.2 124.5C620 132.8 608.1 142.4 601.3 155.4Z"
        fill="#FFCFCA" />
    <path
        d="M610.7 149.3C624.3 136.1 640.7 126.1 656.3 115.3C656.5 115.2 656.6 115.1 656.8 115C655.2 114.5 653.5 114.7 651.9 115C650.7 115.2 649.6 115.6 648.4 115.9C647.1 116.6 645.9 117.4 644.6 118.1C642.5 119.3 640.4 120.5 638.3 121.9C635.8 123.6 633.5 125.6 631.1 127.5C623.4 134.1 615.9 140.5 610.7 149.3Z"
        fill="#F9BFBB" />
    <path
        d="M599.2 152.6C598.8 153.4 598.3 154.3 598.4 155.2C598.5 157.6 602 159 604.4 159.4C607 154.9 610.1 150.6 613.6 146.7C624.5 134.7 638.4 125.4 651.8 116.2C653.4 115.1 655.3 113.3 654.4 111.5C654.1 110.9 653.6 110.5 653 110.2C650.9 109.1 648.6 109 646.3 109.5C643.8 110 641.4 111.2 639.1 112.4C636.9 113.6 634.6 114.8 632.6 116.2C628 119.6 624.6 124.4 620.7 128.6C620.5 128.8 620.3 129 620.1 129.2C613.1 137.1 604.2 143.4 599.2 152.6Z"
        fill="#FFCFCA" />
    <path
        d="M614.9 139.5C618.5 135.3 622.1 131 625.7 126.8C627.5 124.6 629.4 122.5 631.4 120.5C634.2 117.8 637.2 115.5 640.5 113.4C642.1 112.3 643.9 111.3 645.5 110.3C645.9 110.1 646.2 109.8 646.3 109.6C643.8 110.1 641.4 111.3 639.1 112.5C636.9 113.7 634.6 114.9 632.6 116.3C628 119.7 624.6 124.5 620.7 128.7C620.5 128.9 620.3 129.1 620.1 129.3C618.7 133 617.1 136.4 614.9 139.5Z"
        fill="#F9BFBB" />
    <path
        d="M545.8 217.9C546.1 214.9 546.4 211.9 546.7 208.9C547 206 547 203.1 547.1 200.1C547.2 196.9 547.4 193.7 548.1 190.6C548.5 189 548.9 187.4 549.5 185.8C551.3 181 554.1 176.4 557.2 172.4C559.9 169 562.9 165.9 566.3 163.2C569.1 160.9 572.1 158.9 575.1 156.9C582.3 152.3 589.9 148.3 596.8 143.3C599.2 141.6 601.3 139.6 603.3 137.5C603.8 137 604.3 136.4 604.8 135.9C610.2 129.9 614.6 122.8 619.5 116.4C620.3 115.4 621.1 114.4 622.1 113.6C625.4 111.3 630.5 114 630 118.1C630 118.2 630 118.4 629.9 118.5V118.6C629.6 119.8 629 120.8 628.4 121.8C627.2 123.6 626.1 125.5 625 127.4C625 127.4 625 127.4 625 127.5C624.2 128.8 623.3 130.2 622.5 131.5C620.5 134.7 618.4 138 616.4 141.3C615.1 143.4 613.8 145.5 612.5 147.5C612.3 147.8 612.1 148.1 611.9 148.4C611.6 148.9 611.3 149.4 611 149.9C610.7 150.4 610.4 150.9 610.5 151.4C610.6 151.9 611 152.4 611.2 152.9C611.9 154.3 611.3 155.8 610.5 157.2V157.3C610.4 157.5 610.3 157.7 610.2 157.9C602.4 171.2 594 184.1 584.3 196.2C585.6 202.1 586.9 208.1 588.2 214C580.9 218 572.7 220.9 564.4 221.2C558.2 221.4 551.9 220.1 545.8 217.9Z"
        fill="#FFCFCA" />
    <path
        d="M549.6 185.9C549 187.5 548.5 189.1 548.2 190.7C547.5 193.8 547.3 197 547.2 200.2C549.6 200.5 552 200.5 554.4 200.4C557.7 200.2 560.7 199.8 564 199.2C560.5 198.8 557.1 197.4 554.3 195.2C553.2 194.4 552.2 193.5 551.5 192.4C550.1 190.5 549.6 188.2 549.6 185.9Z"
        fill="#F9BFBB" />
    <path
        d="M376.7 253.8C372.1 298.1 366.9 342.2 365 386.7C363.2 428.8 361.5 471 358.4 513.1C324.3 516.7 290.1 518.1 255.8 518.3C221.7 518.5 187.7 516.6 154.8 506.8C137.4 501.6 120.3 494.9 104 486.8C117.4 463.4 124.6 437.1 132.8 411.5C141.5 384.1 148.6 356.2 154.1 328C166.1 266.5 167.8 205.7 166.7 143.2C166.1 107.7 173.1 69.7 194.6 40.6C216.1 11.4 254.8 -7.50003 291 2.89997C313.4 9.29997 332.5 24.8 346 43.8C352.4 52.8 357.6 62.6 361.9 72.9C363 75.6 364.1 78.4 365.1 81.2C368.2 89.9 370.8 98.9 372.8 107.9C376 121.9 378.1 136.1 379.3 150.3C382.3 184.6 380.3 219.5 376.7 253.8Z"
        fill="#893976" />
    <path
        d="M348.8 263.3C344.4 267.4 338.5 269.3 332.8 271C325.9 273.1 319 275.3 311.9 276.4C298 278.6 284.5 276.2 270.6 274.4C269.2 266.4 267.9 258.4 266.5 250.4C264.8 240.4 263.1 230.4 260.4 220.6C259.6 217.6 258.7 214.6 257.7 211.7C255.3 204.4 252.5 197.2 249.6 189.9C247.3 184 244.9 178 242.6 172.1C246.8 174.8 250.6 175.9 255.4 177.5C275.7 184 296.2 189.6 316.8 195.1C323 196.7 329.3 198.3 335.7 198.6L342.8 233.4L348.8 263.3Z"
        fill="#FFCFCA" />
    <path
        d="M342.7 233.5C320.5 232.3 298.5 227.9 277.7 220C271.1 217.5 264.2 214.8 257.6 211.7C255.2 204.4 252.4 197.2 249.5 189.9C247.2 184 244.8 178 242.5 172.1C246.7 174.8 250.5 175.9 255.3 177.5C275.6 184 296.1 189.6 316.7 195.1C322.9 196.7 329.2 198.3 335.6 198.6L342.7 233.5Z"
        fill="#F9BFBB" />
    <path
        d="M371.6 174.1C369.2 186.4 364.8 198 355.5 206.8C347.3 214.6 336.6 219.7 325.4 221.4C313.1 223.3 300.5 221.4 288.7 216.9C282.9 214.7 277.3 211.8 272 208.4C262.9 202.5 254.7 195.3 247.3 187.3C235.3 174.3 224.7 159 217.7 142.4C209.7 123.6 206.2 103.2 210.5 82.8C212.2 74.5 215.3 66.5 219.7 59.2C238 28.4 277.5 15.8 310.3 30.5C327.4 38.1 341.7 51.8 351.1 67.9C354.1 73 356.8 78.3 359.3 83.7C372.1 111.7 377.5 143.9 371.6 174.1Z"
        fill="#FFCFCA" />
    <path
        d="M201.6 143.7C229.9 138.6 253.2 118.5 266 94.5999C278.8 70.6999 282.3 43.2999 281.9 16.4999C263.9 16.1999 246.5 22.0999 231.8 31.5999C220.5 38.8999 209.9 47.2999 202.7 58.1999C194.2 70.9999 191.2 86.3999 191.8 101.4C192.4 116.5 196.6 129.4 201.6 143.7Z"
        fill="#893976" />
    <path
        d="M294.4 33.1C298.3 31.1 302.3 28.3 303.5 24.1C304.9 19 301.7 13.5 297.2 10.9C292.7 8.20002 287.2 7.80002 281.9 8.10002C275.5 8.40002 268.9 9.70002 263.6 13.3C256.6 18.1 250.6 31.3 260.4 36.4C270.2 41.5 285.3 37.7 294.4 33.1Z"
        fill="#893976" />
    <path
        d="M365.1 81.0999C347 81.3999 329.2 75.0999 314 65.3999C297.8 55.0999 284.4 41.0999 272.1 26.3999C270.7 24.6999 269.2 22.8999 267.8 21.1999C287.7 14.6999 309.1 21.7999 325.8 34.3999C339.7 44.7999 350.8 59.1999 361.9 72.8999C363 75.5999 364.1 78.2999 365.1 81.0999Z"
        fill="#893976" />
    <path
        d="M594.1 223.8C593.8 222.2 593.5 220.5 593.2 218.9C592.4 214.3 592 209.7 591.3 205.1C589.9 195.6 579.5 198.7 573.2 201.1C566.1 203.8 558.4 205.2 550.8 204.9C549.4 204.8 547.9 204.8 546.6 205.4C542.9 207 541.2 212.6 541.9 216.2C543.6 224.7 545.3 233.1 548.3 241.3C552.1 251.6 571.2 247.1 578.9 245.4C585.9 243.9 593.9 241.1 594.8 232.9C595.1 229.9 594.7 226.8 594.1 223.8Z"
        fill="#E4B03D" />
    <path
        d="M429.6 470.1C426.2 486.1 421.8 501.7 416.7 517.1C407 546.5 394.9 575 381.6 603.1C380.2 606 378.9 608.8 377.5 611.7C376.3 612.4 375.2 613.1 374 613.7L320.5 644.5C307.3 652.1 294 659.7 279.7 664.8C256.6 673 233.8 670.7 210.2 665.7C211.2 665.7 216.6 603.9 216.9 599C217.2 593.7 217.4 588.5 217.5 583.2C217.9 565.1 217.2 547 214.6 529.1C213.9 524.6 213.2 520.1 212.2 515.7C207 489.9 198.2 465 189.9 440C181 413 176.5 385 168.9 357.8C167.7 353.6 167 348.9 168.6 344.8C171.1 338.5 177 336.8 182.5 334.2C217.6 317.5 254.7 304.5 293 297.7C312 294.3 331.3 292.6 350.6 292.8C367.1 293 388.7 292 401.9 303.6C415.2 315.3 423.4 331.7 427.8 348.6C431.7 363.6 432.8 379.2 433.2 394.7C433.9 419.8 432.7 445 429.6 470.1Z"
        fill="#FFCFCA" />
    <path
        d="M417.8 508.6C388.7 513.5 359 513.2 329.5 513.1C310.6 513 291.7 512.6 272.7 511.8C263.1 511.4 253.5 510.9 243.9 510.3C236.5 509.8 227.3 508.6 220.4 511.9C205.7 519 210 546.7 211.5 559.6C212.8 571 220.4 575.4 230.4 578C282.1 591.7 337.1 587.8 389 575.2C396.8 573.3 408 572.5 412.4 564.7C419.5 552.4 423.4 536.4 427.6 522.8C430.1 515.2 426.9 507 417.8 508.6Z"
        fill="#E4B03D" />
    <path
        d="M942.2 871.5C938.5 873.7 934.3 874.9 930.1 875.6C923 876.8 915.8 876.7 908.7 876.6C892.2 876.3 876.1 875.6 859.5 875.4C854.2 868.5 847.7 862.6 840.4 857.9C850.9 845.1 862.3 832.1 875.6 822.3L886.2 830.1L929.8 862.3L942.2 871.5Z"
        fill="#FFCFCA" />
    <path
        d="M890.5 820.5C890.5 821.9 890.2 823.4 889.7 824.8C888.6 827.9 886.4 830.5 884.1 832.9C877.1 840.1 869.8 847 862.1 853.4C851.1 862.4 844.2 869.1 831.1 859.2C811.5 844.4 791.9 829.5 772.3 814.7C752.9 800 733.4 785.3 714.4 770.1C703.7 761.6 693.1 753 682.8 744.1C668.7 732.1 655.3 719.4 642.2 706.4C638.6 702.8 605.3 665.8 603.5 666.7C602.4 667.3 601.2 667.9 600.1 668.5C548.6 695.6 498.5 725.9 445.3 750C385.9 777 321.8 798.5 256 798.2C236.7 798.1 216.7 796.1 199 787.8C182.8 780.3 171.1 764.1 165.2 747.5C158.5 728.3 158.2 707 163.2 687.4C163.5 686.2 163.8 684.9 164.2 683.7C169.3 664.8 176.5 647.9 186.2 630.9C192.1 620.6 202.4 607.4 211.5 598.4C218.1 591.8 217.4 597.7 225.9 598.4C258.5 601 301.9 596 334.1 590.2C334.8 590.1 335.4 590 336.1 589.8C420.3 574.4 503.7 551 589.3 548.3C621 547.3 648.6 561.6 672.6 581.3C689.9 595.5 705.1 612 720.2 628.5C749.8 660.9 779.4 693.3 809.1 725.7C824.1 742 839.1 758.4 854.1 774.6C860.8 781.9 878 794.7 886.1 807.6C888.9 811.9 890.6 816.3 890.5 820.5Z"
        fill="#FD7064" />
    <path
        d="M766.1 1139.6C762 1138.4 758.2 1136.2 754.8 1133.7C749.1 1129.4 744.2 1124.1 739.3 1118.9C733.9 1113 728.6 1107.1 723.3 1101.2C717.7 1094.9 712.1 1088.7 706.3 1082.4C707.6 1073.8 707.4 1065 705.8 1056.5C722.3 1055.3 739.6 1054.6 755.9 1057.5L757 1066.3L766.1 1139.6Z"
        fill="#FFCFCA" />
    <path
        d="M784.4 1220.9C784.2 1222 783.7 1223 783 1224.1C777.8 1231.5 769.9 1227.5 764.4 1222.7C755.8 1215.1 748.8 1205.1 741.6 1196.2C721 1170.7 701.7 1144.2 682.3 1117.7C679.2 1113.5 676.1 1109.1 674.7 1104.1C673.7 1100.1 673.8 1095.9 675.1 1092C675.9 1089.6 677.2 1087.4 678.9 1085.6C680.8 1083.7 683.2 1082.4 685.7 1081.4C687.3 1080.8 688.9 1080.2 690.5 1079.7C696.6 1077.8 700.7 1075.9 706.9 1073.9C723.3 1094.1 743.3 1111.3 764.4 1126.5C765 1129.2 765.6 1132 766.2 1134.7C769.6 1150.6 773 1166.4 776.4 1182.3C777 1185.2 777.7 1188.1 778.3 1191C779.4 1196.1 780.5 1201.2 781.6 1206.2C782.8 1210.7 785.5 1216.1 784.4 1220.9Z"
        fill="#602826" />
    <path
        d="M792.1 829.5C791.4 836.2 790.7 842.8 790.1 849.2C785.6 895.1 777.8 941.3 772.9 986.7C771.3 1001.8 769.1 1017.1 768.4 1032.2C768.2 1037 768.9 1043.8 768.4 1050C768.1 1054.4 767.1 1058.5 764.6 1061.3C757.7 1069.3 737.5 1065.7 728.1 1065.6C719 1065.5 700.5 1067 695.1 1057.5C692.1 1052.3 692.9 1041.7 692.3 1035.9C690.8 1020.9 690 1005.9 688.5 990.9C686.8 974.2 685.4 957.5 684.3 940.8C683.7 932.7 683.3 924.5 682.8 916.4C682.6 912.7 682.7 895.5 682.4 875.2C682 840.2 680.8 795.6 676.1 793.4C676 793.3 675.8 793.3 675.7 793.3H313.1C358.8 785.5 403.3 769.1 445.4 750C494.5 727.7 541 700.2 588.4 674.7C592.3 672.6 596.2 670.5 600.2 668.4C601.1 667.9 602.1 667.4 603 666.9H603.1C603.6 666.9 604 666.9 604.5 667C629 668.1 651.1 668.5 675.8 669.9C699.5 671.3 723.5 674.4 744.9 684.7C751.8 688 757.8 691.8 763 696.1C800.9 727.1 797 781.4 792.1 829.5Z"
        fill="#F95850" />
    <path
        d="M181.5 734.9C182 737.4 182.8 739.8 183.6 742.2C185.7 748.7 188.1 755.1 190.2 761.6C191.1 764.4 191.9 767.3 192 770.2C192 773.1 191.1 776.2 189 778.2C186.9 780.2 183.3 780.9 180.9 779.2C178.8 777.7 177.9 775 177.3 772.5C176.4 769.2 175.5 765.9 174.6 762.7C173.4 758.3 172.2 753.8 171.2 749.4C169.2 740.3 168 730.5 171.4 721.8C172.5 719 179.1 710.8 181.1 717.2C181.9 719.7 180.7 723.1 180.7 725.6C180.5 728.8 180.8 731.9 181.5 734.9Z"
        fill="#F4B9B8" />
    <path
        d="M177.6 740.7C178.1 743.2 178.9 745.6 179.7 748C181.8 754.5 184.2 760.9 186.3 767.4C187.2 770.2 188 773.1 188.1 776C188.1 778.9 187.2 782 185.1 784C183 786 179.4 786.7 177 785C174.9 783.5 174 780.8 173.4 778.3C172.5 775 171.6 771.7 170.7 768.5C169.5 764.1 168.3 759.6 167.3 755.2C165.3 746.1 164.1 736.3 167.5 727.6C168.6 724.8 175.2 716.6 177.2 723C178 725.5 176.8 728.9 176.8 731.4C176.7 734.5 177 737.6 177.6 740.7Z"
        fill="#F9BFBB" />
    <path
        d="M207.5 637.4C205.6 633.9 199.5 628.5 192.1 622.7C189.4 624.9 186.8 627.2 184.1 629.4C177.9 634.7 171.7 640 165.4 645.2C164 646.3 162.2 647.6 160.3 649C168.8 653.5 176.5 657.5 176.6 659C176.8 661.2 176.2 663.3 175.6 665.4C175.5 665.6 175.5 665.8 175.4 666.1C170.7 681.2 167.8 696.6 165.4 712.1C163.7 722.6 162 733.5 163.1 744.2C164.3 755.5 167.3 766.4 170.1 777.4C170.5 779.1 171 780.9 172 782.3C173.9 784.9 178.2 785.6 180.2 782.8C184.6 776.7 182.2 767.7 180.7 761C179.3 754.7 177.6 748.5 177.2 742.1C176.9 735.8 178.5 730.1 181 724.3C182.8 720.2 184.4 716 186.3 711.8C187 710.2 187.8 708.6 188.8 707.2C190.1 705.2 191.7 703.5 193.8 702.5C195.6 701.7 198.5 701.1 200.4 702C202.4 703 202.3 705.7 202.5 707.6C202.7 709.9 202.4 712.2 202.1 714.5C201.5 718.4 200.5 722.4 201 726.4C201.1 727.1 201.2 727.7 201.4 728.4C203.3 735.4 212.8 741.7 216.4 732.3C217.2 730.3 217.4 728.1 217.7 726C219.1 715.8 222.7 705.9 222.3 695.5C222 688.9 221 682.4 220 675.9C216.5 651.2 213.2 647.7 207.5 637.4Z"
        fill="#FFCFCA" />
    <path
        d="M188.9 707.1C189.4 705.6 189.9 704.2 190.5 702.7C191.6 700.2 193 697.7 195.2 696.1C197.4 694.5 200.6 693.9 202.9 695.4C204.9 696.6 205.8 699 206.2 701.3C207.1 706.9 204.9 712.5 203 717.8C202.1 720.6 201.2 723.4 201 726.3C200.5 722.4 201.5 718.3 202.1 714.4C202.5 712.1 202.7 709.8 202.5 707.5C202.3 705.6 202.4 702.9 200.4 701.9C198.5 700.9 195.6 701.5 193.8 702.4C191.8 703.4 190.2 705.1 188.9 707.1Z"
        fill="#F9BFBB" />
    <path
        d="M213.5 634.4C209.4 625.6 202.9 617.9 195.9 611.1C193.9 609.1 191.7 607.1 189.1 606C182.2 602.9 173.9 609.1 168.3 612.7C161.5 617.1 155.2 622.4 149.7 628.4C147.9 630.4 146.1 632.6 145.8 635.3C145.5 638.6 147.7 641.6 149.8 644.3C154.6 650.4 159.4 656.5 164.2 662.6C165.7 664.6 167.4 666.6 169.7 667.6C172.2 668.7 175 668.5 177.7 668.1C189.3 666.4 200.5 662.2 210.4 655.7C212.5 654.3 214.6 652.8 215.8 650.6C217.6 647.2 216.9 643 215.6 639.3C214.9 637.6 214.2 636 213.5 634.4Z"
        fill="#E4B03D" />
    <path
        d="M658.7 407C657.3 421.6 654.2 435.5 641.3 444.2C626.9 453.9 607.8 454.2 591.1 454C580.6 453.9 570.1 453 559.6 451.7C546.9 450.1 534.3 447.7 521.8 445.1C494.6 439.4 467.1 433.2 440.5 424.6V427.6C440.5 432.7 440.5 437.8 440.4 442.9C440.3 451.7 440.7 461.9 440.7 472.6C440.8 496.6 438.9 522.8 424.4 538.9C412.7 551.9 397.1 551.1 380.4 556.4C376.9 557.5 373.4 558.5 369.9 559.4C360 561.2 350 562.8 339.9 564C316.4 566.8 292.8 567.6 269.2 565.6C250.4 564 231.7 559.7 213.9 553.5C205.6 550.6 201.2 545.2 200.9 536.4C200.6 526.4 202.5 516.6 203 506.7C203.3 502.1 203.3 497.5 202.7 492.9C200.4 474.8 195 457.2 188.9 440C187 441.3 185.1 442.5 183.2 443.8C180.7 445.5 165.1 456.5 151.1 466.4C146.4 469.7 142 472.8 138.1 475.5C132.6 479.4 128.5 482.2 127.5 483C127.3 483.1 127.2 483.2 127.2 483.2C149.2 510.4 166.3 541.2 181.3 572.7C185.1 580.7 188.8 588.8 192.3 597C192.4 597.2 192.5 597.4 192.6 597.6C195.4 604.1 200 612.1 196.4 619.2C194.8 622.3 192.4 624.8 189.9 627.1C180.6 635.7 169.1 647.2 156.1 649.2C143.1 651.3 132.7 640.8 122.4 634.6C108.9 626.4 95.9001 617.4 83.7001 607.4C54.3001 583.5 29.5001 554.5 11.8001 520.3C4.70009 506.5 -0.899912 491 0.100088 475.2C1.10009 459.8 8.30009 446.8 17.9001 435C29.5001 420.8 43.0001 408.3 56.7001 395.9C79.9001 375.1 104.2 355.6 128.8 336.6C151.2 319.3 173.3 301.3 198 287.4C211.3 279.9 225.4 274 240 269.6C241 269.3 241.9 269 242.9 268.8C260.3 263.8 278.4 260.9 296.4 260.1C326.7 258.7 359.4 259.8 390.3 265C390.6 265.1 390.9 265.1 391.2 265.2C399.4 266.6 407.4 268.3 415.2 270.3C433.2 275 450.5 282.2 467.2 290.3C488.3 300.6 509.4 310.9 530.4 321.2C537.4 324.6 544.5 328.1 551.5 331.5C551.7 331.6 552 331.7 552.2 331.8C550.9 331.2 549.8 322 549.4 320.4C544.9 301.2 541.4 281.7 541 261.9C540.8 253.1 539.2 243.6 542.1 235.1C542.7 233.4 543.5 232 544.6 230.9C544.7 230.9 544.7 230.9 544.8 230.9C560.9 231.6 578.6 229.1 594.7 224.3C604.5 229.3 609.7 243.3 614.3 252.5C618.7 261.3 623 270.2 627 279.2C638.3 304.2 649.1 330 655 356.9C658.7 373.3 660.3 390.2 658.7 407Z"
        fill="#FFC444" />
    <path
        d="M249.5 290.4C249.1 290.4 248.7 290.1 248.6 289.7C248.5 289.2 248.8 288.7 249.3 288.6C251 288.2 252.5 288.1 254 288.1C254.5 288.1 254.9 288.5 254.9 289C254.9 289.5 254.5 289.9 254 289.9C252.7 289.9 251.3 290.1 249.7 290.4C249.6 290.4 249.6 290.4 249.5 290.4Z"
        fill="#E4B03D" />
    <path
        d="M153.6 622.7C153.4 622.7 153.2 622.6 153 622.5C150.6 620.6 148.2 618.6 145.9 616.7C145.5 616.4 145.5 615.8 145.8 615.4C146.1 615 146.7 615 147.1 615.3C149.4 617.3 151.8 619.2 154.2 621.1C154.6 621.4 154.7 622 154.3 622.4C154.2 622.6 153.9 622.7 153.6 622.7ZM139.6 610.9C139.4 610.9 139.2 610.8 139 610.7C136.7 608.7 134.4 606.6 132.2 604.5C131.8 604.2 131.8 603.6 132.2 603.2C132.5 602.8 133.1 602.8 133.5 603.2C135.7 605.3 138 607.3 140.2 609.3C140.6 609.6 140.6 610.2 140.3 610.6C140.1 610.8 139.9 610.9 139.6 610.9ZM126.3 598.4C126.1 598.4 125.8 598.3 125.7 598.1C123.5 596 121.4 593.8 119.3 591.6C119 591.2 119 590.7 119.3 590.3C119.7 590 120.2 590 120.6 590.3C122.7 592.5 124.9 594.7 127 596.8C127.4 597.2 127.4 597.7 127 598.1C126.8 598.3 126.5 598.4 126.3 598.4ZM113.7 585.2C113.5 585.2 113.2 585.1 113 584.9C111 582.7 108.9 580.4 106.9 578C106.6 577.6 106.6 577.1 107 576.7C107.4 576.4 107.9 576.4 108.3 576.8C110.3 579.1 112.3 581.4 114.3 583.6C114.6 584 114.6 584.5 114.2 584.9C114.1 585.1 113.9 585.2 113.7 585.2ZM101.7 571.4C101.4 571.4 101.2 571.3 101 571.1C99.1 568.7 97.2 566.3 95.3 563.9C95 563.5 95.1 562.9 95.5 562.6C95.9 562.3 96.5 562.4 96.8 562.8C98.6 565.2 100.6 567.6 102.5 569.9C102.8 570.3 102.8 570.9 102.4 571.2C102.1 571.3 101.9 571.4 101.7 571.4ZM90.6 556.9C90.3 556.9 90 556.8 89.9 556.5C88.1 554 86.3 551.5 84.6 549C84.3 548.6 84.4 548 84.8 547.7C85.2 547.4 85.8 547.5 86.1 547.9C87.8 550.4 89.6 552.9 91.4 555.3C91.7 555.7 91.6 556.3 91.2 556.6C90.9 556.8 90.7 556.9 90.6 556.9ZM80.2 541.9C79.9 541.9 79.6 541.8 79.4 541.5C77.7 539 76.1 536.3 74.5 533.8C74.2 533.4 74.4 532.8 74.8 532.6C75.2 532.3 75.8 532.5 76 532.9C77.6 535.5 79.2 538.1 80.9 540.6C81.2 541 81.1 541.6 80.6 541.8C80.5 541.8 80.3 541.9 80.2 541.9ZM70.6 526.3C70.3 526.3 70 526.1 69.8 525.8C68.3 523.2 66.8 520.5 65.3 517.8C65.1 517.4 65.2 516.8 65.7 516.6C66.1 516.4 66.7 516.5 66.9 517C68.3 519.7 69.8 522.3 71.4 525C71.6 525.4 71.5 526 71.1 526.2C70.9 526.2 70.8 526.3 70.6 526.3ZM61.9 510.2C61.6 510.2 61.2 510 61.1 509.7C59.6 506.7 58.3 503.9 57.3 501.3C57.1 500.8 57.3 500.3 57.8 500.1C58.3 499.9 58.8 500.1 59 500.6C60 503.1 61.3 505.8 62.8 508.9C63 509.3 62.8 509.9 62.4 510.1C62.2 510.2 62 510.2 61.9 510.2ZM55.1 493.2C54.7 493.2 54.3 492.9 54.2 492.5C53.3 489.4 52.8 486.3 52.5 483.4C52.5 482.9 52.8 482.5 53.3 482.4C53.8 482.4 54.2 482.7 54.3 483.2C54.6 486 55.1 489 55.9 492C56 492.5 55.7 493 55.3 493.1C55.3 493.2 55.2 493.2 55.1 493.2ZM53.6 475.1H53.5C53 475 52.7 474.6 52.7 474.1C53 471.1 53.7 468 54.6 465C54.7 464.5 55.2 464.3 55.7 464.4C56.2 464.5 56.4 465 56.3 465.5C55.4 468.4 54.8 471.4 54.5 474.3C54.5 474.8 54.1 475.1 53.6 475.1ZM58.8 457.7C58.7 457.7 58.5 457.7 58.4 457.6C57.9 457.4 57.8 456.9 58 456.4C59.3 453.7 60.8 451 62.5 448.3C62.8 447.9 63.3 447.8 63.7 448C64.1 448.3 64.2 448.8 64 449.2C62.3 451.8 60.9 454.4 59.6 457.1C59.4 457.5 59.1 457.7 58.8 457.7ZM68.5 442.3C68.3 442.3 68.1 442.2 67.9 442.1C67.5 441.8 67.5 441.2 67.8 440.8C69.4 438.8 71.2 436.8 73 434.9L73.9 434L74.6 434.6L75.2 435.3L74.3 436.3C72.5 438.2 70.8 440.1 69.2 442.1C69 442.2 68.8 442.3 68.5 442.3ZM81 428.9C80.8 428.9 80.5 428.8 80.4 428.6C80 428.3 80 427.7 80.4 427.3C82.5 425.1 84.6 423 86.8 420.8C87.1 420.4 87.7 420.4 88.1 420.8C88.5 421.1 88.5 421.7 88.1 422.1C85.9 424.3 83.8 426.5 81.7 428.6C81.4 428.8 81.2 428.9 81 428.9ZM93.8 415.8C93.6 415.8 93.3 415.7 93.2 415.5C92.8 415.1 92.8 414.6 93.2 414.2C95.3 412.1 97.5 409.9 99.7 407.7C100.1 407.3 100.6 407.3 101 407.7C101.4 408.1 101.3 408.6 101 409C98.8 411.2 96.7 413.3 94.5 415.5C94.3 415.7 94 415.8 93.8 415.8ZM106.8 402.9C106.6 402.9 106.3 402.8 106.2 402.6C105.9 402.2 105.9 401.7 106.2 401.3C108.4 399.2 110.5 397 112.7 394.9C113.1 394.6 113.6 394.6 114 394.9C114.3 395.3 114.3 395.8 114 396.2C111.8 398.3 109.6 400.5 107.5 402.6C107.2 402.8 107 402.9 106.8 402.9ZM119.9 390.1C119.7 390.1 119.4 390 119.3 389.8C119 389.4 119 388.9 119.3 388.5C121.5 386.4 123.7 384.3 125.9 382.2C126.3 381.9 126.8 381.9 127.2 382.2C127.5 382.6 127.5 383.1 127.2 383.5C125 385.6 122.8 387.7 120.6 389.8C120.3 390.1 120.1 390.1 119.9 390.1ZM133.1 377.5C132.9 377.5 132.6 377.4 132.4 377.2C132.1 376.8 132.1 376.3 132.4 375.9C134.6 373.8 136.9 371.7 139.1 369.6C139.5 369.3 140 369.3 140.4 369.6C140.7 370 140.7 370.5 140.4 370.9C138.2 373 135.9 375.1 133.7 377.1C133.6 377.4 133.4 377.5 133.1 377.5ZM146.5 365.1C146.3 365.1 146 365 145.8 364.8C145.5 364.4 145.5 363.9 145.9 363.5C148.2 361.4 150.4 359.4 152.7 357.3C153.1 357 153.6 357 154 357.4C154.3 357.8 154.3 358.3 153.9 358.7C151.6 360.7 149.4 362.8 147.1 364.9C147 365 146.7 365.1 146.5 365.1ZM160.1 352.8C159.9 352.8 159.6 352.7 159.4 352.5C159.1 352.1 159.1 351.6 159.5 351.2C161.8 349.2 164.1 347.1 166.4 345.1C166.8 344.8 167.3 344.8 167.7 345.2C168 345.6 168 346.1 167.6 346.5C165.3 348.5 163 350.5 160.7 352.5C160.5 352.7 160.3 352.8 160.1 352.8ZM173.9 340.8C173.6 340.8 173.4 340.7 173.2 340.5C172.9 340.1 172.9 339.6 173.3 339.2C175.6 337.2 178 335.2 180.3 333.3C180.7 333 181.3 333 181.6 333.4C181.9 333.8 181.9 334.3 181.5 334.7C179.2 336.6 176.9 338.6 174.5 340.6C174.3 340.7 174.1 340.8 173.9 340.8ZM187.9 329C187.6 329 187.4 328.9 187.2 328.7C186.9 328.3 186.9 327.7 187.3 327.4C189.7 325.4 192.1 323.5 194.4 321.7C194.8 321.4 195.4 321.5 195.7 321.8C196 322.2 195.9 322.8 195.6 323.1C193.3 325 190.9 326.9 188.5 328.8C188.3 329 188.1 329 187.9 329ZM202.3 317.7C202 317.7 201.8 317.6 201.6 317.3C201.3 316.9 201.4 316.3 201.8 316C204.3 314.1 206.8 312.3 209.2 310.5C209.6 310.2 210.2 310.3 210.5 310.7C210.8 311.1 210.7 311.7 210.3 312C207.9 313.7 205.5 315.6 203 317.4C202.7 317.6 202.5 317.7 202.3 317.7ZM217.1 307C216.8 307 216.5 306.9 216.4 306.6C216.1 306.2 216.2 305.6 216.6 305.3C219.3 303.5 221.8 301.8 224.3 300.3C224.7 300 225.3 300.2 225.5 300.6C225.8 301 225.6 301.6 225.2 301.8C222.8 303.3 220.2 305 217.6 306.8C217.5 306.9 217.3 307 217.1 307ZM232.7 297.3C232.4 297.3 232.1 297.1 231.9 296.8C231.7 296.4 231.8 295.8 232.3 295.6C235.2 294 238 292.6 240.6 291.5C241.1 291.3 241.6 291.5 241.8 292C242 292.5 241.8 293 241.3 293.2C238.8 294.3 236.1 295.6 233.2 297.2C233 297.3 232.8 297.3 232.7 297.3Z"
        fill="#E4B03D" />
    <path
        d="M164.4 630.9C164.2 630.9 164 630.8 163.9 630.7C162.7 629.8 161.5 628.9 160.3 628C159.9 627.7 159.8 627.1 160.1 626.7C160.4 626.3 161 626.2 161.4 626.5C162.6 627.4 163.8 628.3 165 629.2C165.4 629.5 165.5 630.1 165.2 630.5C164.9 630.8 164.7 630.9 164.4 630.9Z"
        fill="#83B2A3" />
    <path
        d="M363.7 254.2C363.1 252.5 362.5 250.8 362 249.2C360.1 242.6 360.7 233.8 352.8 229.8C349 227.8 344.5 228.6 340.2 228.9C335.2 229.2 330.2 229.8 325.2 230.1C314.7 230.7 304.2 230.6 293.7 229.5C288.4 229 283.1 228.2 277.8 227.3C273.1 226.4 268.2 224.7 263.3 224.7C259.8 224.6 256.1 225.8 254.3 228.3C253.1 229.9 252.9 231.9 252.7 233.9C251.7 243.6 250.8 253.5 253.2 263.1C253.9 266.1 255.1 269.1 257.7 271.2C263.6 275.8 275.7 276.4 283.2 277.4C308 280.6 334.1 279.1 356.2 268.8C358.9 267.6 361.5 266.1 363.3 264C365.9 260.8 364.9 257.5 363.7 254.2Z"
        fill="#E4B03D" />
    <path
        d="M1001.1 930C989.6 931 977.6 929.2 966.2 928.2C933.5 925.5 901 921.3 868.5 917.1C863.3 916.4 858 915.7 853.4 913.2C849.8 911.2 846.8 908.2 844.9 904.5C843.7 902.3 843 899.8 842.9 897.3C842.9 896.4 842.9 895.6 843.1 894.7C843.6 891.3 845.2 888 846.7 884.8C849.5 879 851 874.7 853.8 868.9C879.7 871 905.9 868.3 931.5 863.5C933.9 865 936.3 866.4 938.7 867.9L980.3 893.3C985.9 896.7 991.5 900.2 997.2 903.6C998.6 904.4 999.9 905.2 1001.2 906.1C1005.2 908.5 1011 910.3 1013.7 914.4C1014.3 915.3 1014.8 916.4 1015 917.6C1016.8 926.4 1008.4 929.3 1001.1 930Z"
        fill="#602826" />
    <path
        d="M265.4 272.2C265 272.2 264.7 271.9 264.6 271.6C260.8 257.5 259.4 243.2 260.4 228.8C260.4 228.4 260.8 228.1 261.3 228.1C261.8 228.1 262.2 228.5 262.1 228.9C261.1 243.1 262.5 257.3 266.2 271.2C266.3 271.6 266 272 265.5 272.1C265.6 272.2 265.5 272.2 265.4 272.2Z"
        fill="#F9C960" />
    <path
        d="M273.3 274.2C272.8 274.2 272.4 273.8 272.4 273.4C272.8 266.8 272.1 260.2 271.5 253.7L269.2 232.1C269.1 231.5 269 231.3 268.9 231.2C268.5 231 268.3 230.5 268.6 230.1C268.8 229.7 269.4 229.6 269.8 229.8C270.8 230.3 270.9 231.4 271 231.9L273.3 253.5C274 260 274.7 266.8 274.3 273.4C274.2 273.9 273.8 274.3 273.3 274.2Z"
        fill="#F9C960" />
    <path
        d="M282.8 275.4C282.3 275.4 282 275.1 281.9 274.7C280.7 260.7 279.9 246.5 279.6 232.5C279.6 232.1 280 231.7 280.5 231.7C281 231.7 281.4 232 281.4 232.5C281.7 246.5 282.4 260.6 283.6 274.6C283.6 275 283.3 275.4 282.8 275.4C282.9 275.4 282.9 275.4 282.8 275.4Z"
        fill="#F9C960" />
    <path
        d="M290.6 276.3C290.1 276.3 289.7 275.9 289.7 275.5C289.6 261.6 288.7 247.6 286.9 233.8C286.8 233.4 287.2 233 287.7 233C288.2 233 288.6 233.3 288.7 233.7C290.5 247.6 291.5 261.7 291.5 275.6C291.5 276 291.1 276.3 290.6 276.3Z"
        fill="#F9C960" />
    <path
        d="M299.3 278C298.8 278 298.4 277.6 298.4 277.2C298.7 270.9 298.3 264 297.2 255.1L297.1 254.3C296.7 251.2 296.3 248.1 296.5 244.9C296.6 243.8 296.7 242.7 296.8 241.7C297.1 239.6 297.3 237.7 297.1 235.7C297 235.3 297.4 234.9 297.9 234.9C298.4 234.9 298.8 235.2 298.9 235.6C299.2 237.7 298.9 239.9 298.6 241.9C298.5 243 298.3 244 298.3 245.1C298.1 248.1 298.5 251.2 298.9 254.2L299 255C300.2 264 300.5 270.9 300.2 277.4C300.2 277.7 299.8 278 299.3 278Z"
        fill="#F9C960" />
    <path
        d="M306.6 276.7C306.6 276.7 306.5 276.7 306.6 276.7C306.1 276.7 305.7 276.3 305.7 275.9C306.9 262.6 306.5 249.2 304.6 236C304.5 235.6 304.9 235.2 305.4 235.1C305.9 235 306.3 235.4 306.4 235.8C308.3 249.1 308.7 262.7 307.5 276.1C307.5 276.4 307 276.7 306.6 276.7Z"
        fill="#F9C960" />
    <path
        d="M316.4 275.6C315.9 275.6 315.5 275.2 315.5 274.8C315.8 271.7 315.2 268.6 314.7 265.6C314.4 264.2 314.2 262.7 314 261.2C313.6 258 313.6 254.6 313.6 251.4C313.6 246.1 313.7 240.5 311.7 235.4C311.5 235 311.8 234.6 312.3 234.4C312.8 234.3 313.3 234.5 313.4 234.9C315.5 240.2 315.4 245.9 315.4 251.4C315.4 254.6 315.4 257.8 315.7 261C315.9 262.4 316.1 263.9 316.4 265.3C317 268.4 317.6 271.7 317.2 274.9C317.3 275.3 316.9 275.6 316.4 275.6Z"
        fill="#F9C960" />
    <path
        d="M324.1 274.4C323.6 274.4 323.2 274 323.2 273.6C323.3 260.6 322.6 247.5 321.1 234.5C321 234.1 321.4 233.7 321.9 233.7C322.4 233.7 322.8 234 322.9 234.4C324.4 247.4 325.2 260.6 325 273.6C325 274 324.6 274.4 324.1 274.4Z"
        fill="#F9C960" />
    <path
        d="M332.7 271.7C332.2 271.7 331.8 271.3 331.8 270.9C332.1 259.1 332.3 246.8 329 235.1C328.9 234.7 329.2 234.3 329.7 234.2C330.2 234.1 330.7 234.4 330.8 234.8C334.2 246.7 333.9 259.1 333.6 271C333.6 271.4 333.2 271.7 332.7 271.7Z"
        fill="#F9C960" />
    <path
        d="M340.4 272.4C339.9 272.4 339.6 272.1 339.5 271.7L336.6 234.5C336.6 234.1 336.9 233.7 337.4 233.7C337.9 233.7 338.3 234 338.4 234.4L341.3 271.6C341.4 272 341 272.3 340.4 272.4C340.5 272.4 340.4 272.4 340.4 272.4Z"
        fill="#F9C960" />
    <path
        d="M349.2 269.2C348.7 269.2 348.4 268.9 348.3 268.4C347.8 256.8 346.5 245.1 344.5 233.7C344.4 233.3 344.8 232.9 345.3 232.8C345.8 232.7 346.3 233 346.3 233.5C348.4 245 349.6 256.8 350.1 268.4C350.2 268.9 349.8 269.2 349.2 269.2C349.3 269.2 349.2 269.2 349.2 269.2Z"
        fill="#F9C960" />
    <path
        d="M357.7 265.2C357.6 265.2 357.6 265.2 357.5 265.2C357 265.1 356.7 264.7 356.9 264.3C357.8 261.4 357 258.5 356.2 255.3C355.8 253.9 355.5 252.4 355.3 250.9C355.1 249.7 355.1 248.5 355 247.4C354.9 246.2 354.9 245 354.7 243.9C354.2 240.1 352.4 236.5 350.7 232.9C350.5 232.5 350.7 232.1 351.2 231.9C351.7 231.7 352.2 231.9 352.4 232.3C354.2 235.9 356 239.7 356.5 243.7C356.7 244.9 356.7 246.2 356.8 247.3C356.9 248.4 356.9 249.6 357.1 250.7C357.3 252.1 357.7 253.6 358 255C358.8 258.2 359.6 261.5 358.6 264.7C358.5 264.9 358.1 265.2 357.7 265.2Z"
        fill="#F9C960" />
    <path
        d="M174.1 665.8C173.9 665.8 173.8 665.8 173.6 665.7C171.8 664.5 170.4 662.9 169 661.3L168.6 660.8C165.7 657.5 162.5 654.4 159.2 651.5C158.8 651.2 158.8 650.6 159.1 650.2C159.4 649.8 160 649.8 160.4 650.1C163.8 653 167 656.2 170 659.6L170.5 660.1C171.8 661.6 173.1 663.1 174.7 664.2C175.1 664.5 175.2 665 175 665.4C174.7 665.7 174.4 665.8 174.1 665.8Z"
        fill="#F9C960" />
    <path
        d="M181.1 663.9C180.9 663.9 180.7 663.8 180.5 663.7C179.2 662.4 178 661 176.8 659.7C174.1 656.5 171.3 653.2 169.1 649.5C168.9 649.1 168.1 647.9 168.8 646.8C169 646.4 169.5 646.4 169.9 646.6C170.3 646.8 170.5 647.4 170.3 647.8C170.3 647.8 170.2 648 170.6 648.6C172.7 652.2 175.5 655.4 178.1 658.6C179.2 659.9 180.4 661.3 181.7 662.5C182.1 662.8 182.1 663.4 181.7 663.8C181.5 663.8 181.3 663.9 181.1 663.9Z"
        fill="#F9C960" />
    <path
        d="M189 661.5C188.7 661.5 188.4 661.4 188.2 661.1C185.9 657.5 183.1 654.3 180 651.4C179.4 650.9 178.9 650.4 178.3 649.9C176.4 648.2 174.5 646.5 173 644.4C172.7 644 172.8 643.4 173.2 643.1C173.6 642.8 174.2 642.9 174.5 643.3C175.9 645.2 177.7 646.8 179.6 648.5C180.2 649 180.8 649.5 181.3 650.1C184.5 653.1 187.4 656.5 189.8 660.1C190.1 660.5 190 661.1 189.5 661.3C189.3 661.5 189.2 661.5 189 661.5Z"
        fill="#F9C960" />
    <path
        d="M197.2 659.7C196.9 659.7 196.7 659.6 196.5 659.4C191.1 652.8 185.3 646.6 179.1 640.8C178.7 640.5 178.7 639.9 179.1 639.5C179.4 639.1 180 639.1 180.4 639.5C186.7 645.3 192.6 651.6 198 658.3C198.3 658.7 198.3 659.3 197.9 659.6C197.6 659.6 197.4 659.7 197.2 659.7Z"
        fill="#F9C960" />
    <path
        d="M203.8 655.2C203.5 655.2 203.3 655.1 203.1 654.9C198 648.5 192.1 642.9 185.5 638.2C185.1 637.9 185 637.3 185.3 636.9C185.6 636.5 186.2 636.4 186.6 636.7C193.4 641.5 199.4 647.3 204.6 653.8C204.9 654.2 204.8 654.8 204.5 655.1C204.2 655.1 204 655.2 203.8 655.2Z"
        fill="#F9C960" />
    <path
        d="M211.2 651C211 651 210.8 650.9 210.6 650.8C208.1 648.9 206.1 646.4 204.1 644.1C203.5 643.4 202.9 642.6 202.2 641.9C198.9 638.1 195.1 634.7 191 631.7C190.6 631.4 190.5 630.8 190.8 630.4C191.1 630 191.7 629.9 192.1 630.2C196.3 633.2 200.2 636.7 203.6 640.6C204.2 641.3 204.9 642.1 205.5 642.8C207.4 645.1 209.4 647.4 211.7 649.3C212.1 649.6 212.2 650.2 211.9 650.6C211.7 650.9 211.5 651 211.2 651Z"
        fill="#F9C960" />
    <path
        d="M212.1 638.5C211.9 638.5 211.6 638.4 211.5 638.2L197.4 624.5C197 624.2 197 623.6 197.4 623.2C197.7 622.8 198.3 622.8 198.7 623.2L212.8 636.9C213.2 637.2 213.2 637.8 212.8 638.2C212.6 638.4 212.4 638.5 212.1 638.5Z"
        fill="#F9C960" />
    <path
        d="M548.7 229.3C548.3 229.3 547.9 229 547.8 228.6C546.4 222.2 545.4 215.7 544.8 209.2C544.8 208.7 545.1 208.3 545.6 208.2C546.1 208.2 546.5 208.5 546.6 209C547.2 215.4 548.2 221.9 549.5 228.2C549.6 228.7 549.3 229.2 548.8 229.3C548.8 229.3 548.8 229.3 548.7 229.3Z"
        fill="#F9C960" />
    <path
        d="M554.4 228.1C554 228.1 553.6 227.8 553.5 227.4C552.3 221.4 551.3 215.4 550.4 209.3C550.3 208.8 550.7 208.3 551.2 208.3C551.7 208.2 552.2 208.6 552.2 209.1C553.1 215.1 554.1 221.2 555.3 227.1C555.4 227.6 555.1 228.1 554.6 228.2C554.5 228.1 554.4 228.1 554.4 228.1Z"
        fill="#F9C960" />
    <path
        d="M563.2 228.5C562.8 228.5 562.4 228.2 562.3 227.8C560.9 221.6 559.2 215.3 557.2 209.2C557 208.7 557.3 208.2 557.8 208.1C558.3 207.9 558.8 208.2 558.9 208.7C560.9 214.8 562.6 221.1 564 227.4C564.1 227.9 563.8 228.4 563.3 228.5C563.3 228.5 563.3 228.5 563.2 228.5Z"
        fill="#F9C960" />
    <path
        d="M568.3 227.4C567.9 227.4 567.5 227.1 567.4 226.6C566.4 220 565 213.4 563.4 206.9C563.3 206.4 563.6 205.9 564.1 205.8C564.6 205.7 565.1 206 565.2 206.5C566.9 213 568.2 219.7 569.3 226.4C569.4 226.9 569 227.4 568.5 227.4C568.4 227.4 568.3 227.4 568.3 227.4Z"
        fill="#F9C960" />
    <path
        d="M575.8 228C575.4 228 575 227.7 574.9 227.2L571.5 206.7C571.4 206.2 571.7 205.7 572.2 205.7C572.7 205.6 573.2 205.9 573.2 206.4L576.6 226.9C576.7 227.4 576.4 227.9 575.9 227.9C575.9 228 575.8 228 575.8 228Z"
        fill="#F9C960" />
    <path
        d="M582 226.5C581.6 226.5 581.2 226.2 581.1 225.8L576.7 202.8C576.6 202.3 576.9 201.8 577.4 201.7C577.9 201.6 578.4 201.9 578.5 202.4L582.9 225.4C583 225.9 582.7 226.4 582.2 226.5C582.2 226.5 582.1 226.5 582 226.5Z"
        fill="#F9C960" />
    <path
        d="M589.5 224.1C589.1 224.1 588.7 223.8 588.6 223.3C587.8 217 586.7 210.7 585.2 204.5C585.1 204 585.4 203.5 585.9 203.4C586.4 203.3 586.9 203.6 587 204.1C588.5 210.4 589.6 216.8 590.4 223.1C590.5 223.6 590.1 224 589.6 224.1C589.5 224.1 589.5 224.1 589.5 224.1Z"
        fill="#F9C960" />
    <path
        d="M559.6 451.6C546.9 450 534.3 447.6 521.8 445C494.6 439.3 467.1 433.1 440.5 424.5V427.5C439.3 422.8 438.1 418.2 437.2 413.4C435.6 405.1 433.9 396.8 432 388.5C428.4 373 424.2 357.6 419.3 342.4C416.9 334.8 414.3 327.2 411.6 319.8C409.2 313.3 407.2 305.9 402.5 300.6C409 307.9 414.9 315.4 420.3 323.5C435.3 346.2 446.8 371.7 466 391.4C479.8 405.5 496.6 416.1 513.4 426.5C523.9 433.1 534.5 439.7 545.6 445.2C550.2 447.6 554.9 449.7 559.6 451.6Z"
        fill="#E4B03D" />
    <path
        d="M189.1 439.8C187.2 441.1 185.3 442.3 183.4 443.6C180 445.9 153.6 464.5 138.3 475.3C138.9 472.1 139.8 468.6 141.2 464.8C143.1 459.7 155.6 437.7 164.7 423.3C169.8 415.1 178.4 394.9 185.2 379.4C185 386.6 185.5 395.1 184.6 401.6C182.7 414.3 189.1 439.8 189.1 439.8Z"
        fill="#E4B03D" />
    <path
        d="M581.3 371.8C576 368.7 571.1 365 566.3 361.1C552.4 349.8 539.5 336.4 530.5 321C537.5 324.4 544.6 327.9 551.6 331.3C560.5 345.6 570.4 359.1 581.3 371.8Z"
        fill="#E4B03D" />
    <path
        d="M585.2 423.5C582.4 423.5 579.5 423.3 576.6 423C576.1 422.9 575.7 422.5 575.8 422C575.9 421.5 576.3 421.1 576.8 421.2C579.7 421.5 582.5 421.7 585.2 421.7H585.7C586.3 421.7 586.6 422.1 586.6 422.6C586.6 423.1 586.2 423.5 585.7 423.5H585.2ZM594.6 422.8C594.2 422.8 593.8 422.5 593.7 422C593.6 421.5 594 421 594.5 421C597.5 420.5 600.4 419.9 603.1 418.9C603.6 418.7 604.1 419 604.2 419.5C604.4 420 604.1 420.5 603.6 420.6C600.8 421.5 597.8 422.3 594.7 422.7C594.7 422.8 594.7 422.8 594.6 422.8ZM567.7 421.7C567.6 421.7 567.6 421.7 567.5 421.7C564.7 421.2 561.7 420.5 558.7 419.7C558.2 419.6 557.9 419.1 558.1 418.6C558.2 418.1 558.7 417.8 559.2 418C562.2 418.8 565.2 419.5 567.9 420C568.4 420.1 568.7 420.6 568.6 421.1C568.5 421.4 568.1 421.7 567.7 421.7ZM550.3 417.1C550.2 417.1 550.1 417.1 550 417.1C547.3 416.2 544.5 415.3 541.4 414.2C540.9 414 540.7 413.5 540.9 413C541.1 412.5 541.6 412.3 542.1 412.5C545.1 413.6 547.9 414.5 550.6 415.4C551.1 415.5 551.3 416.1 551.2 416.5C551 416.9 550.6 417.1 550.3 417.1ZM611.6 417C611.3 417 611 416.8 610.8 416.5C610.6 416.1 610.7 415.5 611.1 415.3C613.6 413.9 616 412.1 618.3 410.2C618.7 409.9 619.2 409.9 619.6 410.3C619.9 410.7 619.9 411.2 619.5 411.6C617.2 413.6 614.6 415.4 612 416.9C611.9 417 611.8 417 611.6 417ZM533.2 411.2C533.1 411.2 533 411.2 532.9 411.1C530.1 410.1 527.2 409.1 524.4 408C523.9 407.8 523.7 407.3 523.9 406.8C524.1 406.3 524.6 406.1 525.1 406.3C527.9 407.4 530.7 408.4 533.6 409.4C534.1 409.6 534.3 410.1 534.1 410.6C534 410.9 533.6 411.2 533.2 411.2ZM625.4 405.5C625.2 405.5 625 405.4 624.8 405.3C624.4 405 624.4 404.4 624.7 404C626.6 401.8 628.1 399.3 629 396.5C629.2 396 629.7 395.8 630.1 395.9C630.6 396.1 630.8 396.6 630.7 397C629.7 400 628.1 402.7 626 405.1C625.9 405.4 625.6 405.5 625.4 405.5ZM516.4 404.8C516.3 404.8 516.2 404.8 516.1 404.7C513.3 403.6 510.5 402.4 507.8 401.2C507.3 401 507.1 400.5 507.3 400C507.5 399.5 508 399.3 508.5 399.5C511.3 400.7 514 401.8 516.8 403C517.3 403.2 517.5 403.7 517.3 404.2C517.1 404.6 516.7 404.8 516.4 404.8ZM499.8 397.6C499.7 397.6 499.5 397.6 499.4 397.5C496.7 396.2 493.9 395 491.2 393.6C490.8 393.4 490.6 392.8 490.8 392.4C491 392 491.6 391.8 492 392C494.7 393.3 497.4 394.6 500.1 395.9C500.6 396.1 500.8 396.6 500.5 397.1C500.5 397.4 500.1 397.6 499.8 397.6ZM483.6 389.7C483.5 389.7 483.3 389.7 483.2 389.6C480.6 388.2 477.9 386.8 475.2 385.3C474.8 385.1 474.6 384.5 474.9 384.1C475.1 383.7 475.7 383.5 476.1 383.8C478.7 385.3 481.4 386.7 484 388.1C484.4 388.3 484.6 388.9 484.4 389.3C484.2 389.5 483.9 389.7 483.6 389.7ZM631.2 388.9C630.7 388.9 630.3 388.5 630.3 388C630.3 385.3 630 382.4 629.3 379.2C629.2 378.7 629.5 378.2 630 378.1C630.5 378 631 378.3 631.1 378.8C631.8 382 632.1 385.1 632.2 387.9C632.1 388.5 631.7 388.9 631.2 388.9ZM467.8 380.9C467.6 380.9 467.5 380.9 467.3 380.8C464.7 379.2 462.1 377.6 459.6 376.1C459.2 375.8 459.1 375.3 459.3 374.9C459.6 374.5 460.1 374.4 460.5 374.6C463 376.2 465.6 377.8 468.2 379.3C468.6 379.6 468.8 380.1 468.5 380.5C468.4 380.7 468.1 380.9 467.8 380.9ZM627.7 371.3C627.3 371.3 627 371.1 626.8 370.7C625.9 368.2 624.9 365.4 623.5 362.3C623.3 361.8 623.5 361.3 624 361.1C624.5 360.9 625 361.1 625.2 361.6C626.5 364.7 627.6 367.5 628.5 370.1C628.7 370.6 628.4 371.1 627.9 371.2C627.9 371.3 627.8 371.3 627.7 371.3ZM452.6 371.2C452.4 371.2 452.2 371.1 452.1 371C449.6 369.3 447.1 367.6 444.7 365.8C444.3 365.5 444.2 364.9 444.5 364.5C444.8 364.1 445.4 364 445.8 364.3C448.2 366 450.7 367.8 453.2 369.5C453.6 369.8 453.7 370.3 453.4 370.8C453.2 371.1 452.9 371.2 452.6 371.2ZM438 360.6C437.8 360.6 437.6 360.5 437.4 360.4C435 358.6 432.6 356.7 430.3 354.7C429.9 354.4 429.9 353.8 430.2 353.4C430.5 353 431.1 353 431.5 353.3C433.8 355.2 436.2 357.1 438.5 358.9C438.9 359.2 439 359.8 438.7 360.2C438.5 360.5 438.3 360.6 438 360.6ZM620.6 354.7C620.3 354.7 620 354.5 619.8 354.2C618.4 351.5 617.1 348.8 615.7 346.2C615.5 345.8 615.6 345.2 616.1 345C616.5 344.8 617.1 344.9 617.3 345.4C618.7 348 620.1 350.7 621.4 353.4C621.6 353.8 621.4 354.4 621 354.6C620.9 354.7 620.7 354.7 620.6 354.7ZM612.3 338.7C612 338.7 611.7 338.5 611.5 338.2L607.3 330.2C607.1 329.8 607.2 329.2 607.7 329C608.1 328.8 608.7 328.9 608.9 329.4L613.1 337.4C613.3 337.8 613.2 338.4 612.7 338.6C612.6 338.7 612.4 338.7 612.3 338.7ZM603.9 322.7C603.6 322.7 603.3 322.5 603.1 322.2C601.7 319.6 600.3 316.9 599 314.2C598.8 313.8 598.9 313.2 599.4 313C599.8 312.8 600.4 312.9 600.6 313.4C602 316.1 603.4 318.8 604.7 321.4C604.9 321.8 604.8 322.4 604.3 322.6C604.2 322.7 604 322.7 603.9 322.7ZM595.7 306.7C595.3 306.7 595 306.5 594.9 306.1C593.8 303.3 592.7 300.5 591.6 297.7C591.4 297.2 591.6 296.7 592.1 296.5C592.6 296.3 593.1 296.5 593.3 297C594.4 299.8 595.5 302.6 596.6 305.4C596.8 305.9 596.5 306.4 596.1 306.6C595.9 306.6 595.8 306.7 595.7 306.7ZM589 289.9C588.6 289.9 588.3 289.7 588.2 289.3L584.7 281C584.5 280.5 584.7 280 585.2 279.8C585.7 279.6 586.2 279.8 586.4 280.3L589.9 288.6C590.1 289.1 589.9 289.6 589.4 289.8C589.2 289.9 589.1 289.9 589 289.9ZM582.1 273.2C581.7 273.2 581.4 273 581.3 272.6C580.2 269.8 579.1 267 578 264.2C577.8 263.7 578.1 263.2 578.5 263C579 262.8 579.5 263.1 579.7 263.5C580.7 266.3 581.8 269.1 583 271.9C583.2 272.4 583 272.9 582.5 273.1C582.3 273.2 582.2 273.2 582.1 273.2ZM575.8 256.3C575.4 256.3 575.1 256.1 574.9 255.7C573.9 252.7 573 249.9 572.2 247.1C572.1 246.6 572.3 246.1 572.8 246C573.3 245.9 573.8 246.1 573.9 246.6C574.7 249.4 575.6 252.2 576.6 255.2C576.8 255.7 576.5 256.2 576 256.3C576 256.3 575.9 256.3 575.8 256.3ZM570.9 239C570.5 239 570.1 238.7 570 238.3L569.8 237.4C569.7 236.9 570 236.4 570.5 236.3C571 236.2 571.5 236.5 571.6 237L571.8 237.8C571.9 238.3 571.6 238.8 571.1 238.9C571 239 570.9 239 570.9 239Z"
        fill="#E4B03D" />
    <path
        d="M217.7 569.1C217.2 569.1 216.8 568.7 216.8 568.2L217.2 557.9C217.2 557.4 217.6 557 218.1 557C218.6 557 219 557.4 219 557.9L218.6 568.2C218.6 568.7 218.2 569.1 217.7 569.1Z"
        fill="#F9C960" />
    <path
        d="M224 573.9H223.9C223.4 573.8 223.1 573.4 223.1 572.9C223.6 568.8 224.1 564.5 224.5 560.4C224.5 559.9 225 559.6 225.5 559.6C226 559.6 226.4 560.1 226.3 560.6C225.9 564.8 225.5 569 224.9 573.2C224.8 573.6 224.4 573.9 224 573.9Z"
        fill="#F9C960" />
    <path
        d="M231.3 576.5H231.2C230.7 576.4 230.4 576 230.4 575.5C231 571 231.4 566.4 231.4 561.8C231.4 561.3 231.8 561 232.3 560.9C232.8 560.9 233.2 561.3 233.2 561.8C233.1 566.4 232.8 571.1 232.2 575.7C232.1 576.1 231.7 576.5 231.3 576.5Z"
        fill="#F9C960" />
    <path
        d="M237.6 578.4C237.5 578.4 237.5 578.4 237.4 578.4C236.9 578.3 236.6 577.8 236.7 577.3C237.8 572.7 238.6 567.9 239.1 563.1C239.2 562.6 239.6 562.2 240.1 562.3C240.6 562.4 241 562.8 240.9 563.3C240.4 568.1 239.6 573 238.4 577.7C238.4 578.2 238 578.4 237.6 578.4Z"
        fill="#F9C960" />
    <path
        d="M245.6 579.8H245.5C245 579.7 244.7 579.3 244.7 578.8L246.5 565.7C246.6 565.2 247 564.9 247.5 564.9C248 565 248.3 565.4 248.3 565.9L246.5 579C246.4 579.5 246 579.8 245.6 579.8Z"
        fill="#F9C960" />
    <path
        d="M253.2 580.9C253.1 580.9 253.1 580.9 253.2 580.9C252.6 580.8 252.3 580.4 252.3 579.9L253.7 566.3C253.8 565.8 254.2 565.4 254.7 565.5C255.2 565.5 255.6 566 255.5 566.5L254.1 580.1C254 580.5 253.6 580.9 253.2 580.9Z"
        fill="#F9C960" />
    <path
        d="M260.3 580.3H260.2C259.7 580.2 259.4 579.8 259.4 579.3C259.8 575.5 260.5 571.7 261.3 568C261.4 567.5 261.9 567.2 262.4 567.3C262.9 567.4 263.2 567.9 263.1 568.4C262.3 572 261.6 575.8 261.2 579.5C261.1 580 260.7 580.3 260.3 580.3Z"
        fill="#F9C960" />
    <path
        d="M267.6 583.3H267.5C267 583.2 266.7 582.8 266.7 582.3L268.5 568.1C268.6 567.6 269 567.3 269.5 567.3C270 567.4 270.3 567.8 270.3 568.3L268.5 582.5C268.4 582.9 268 583.3 267.6 583.3Z"
        fill="#F9C960" />
    <path
        d="M274.1 583.9H274C273.5 583.8 273.2 583.4 273.2 582.9C273.8 578.6 274.4 574.2 274.9 569.8C275 569.3 275.4 568.9 275.9 569C276.4 569.1 276.7 569.5 276.7 570C276.2 574.4 275.6 578.8 275 583.1C274.9 583.6 274.5 583.9 274.1 583.9Z"
        fill="#F9C960" />
    <path
        d="M281.1 583.4C280.6 583.4 280.2 583 280.2 582.5C280 579.3 280.6 576.2 281.3 573.5L281.4 573.2C281.7 571.9 282 570.6 281.9 569.4C281.9 568.9 282.3 568.5 282.8 568.5C283.3 568.5 283.7 568.9 283.7 569.4C283.8 570.9 283.4 572.3 283.1 573.7L283 574C282.4 576.7 281.8 579.6 282 582.5C282 582.9 281.6 583.4 281.1 583.4Z"
        fill="#F9C960" />
    <path
        d="M287.5 584.3C287.4 584.3 287.4 584.3 287.5 584.3C286.9 584.3 286.6 583.8 286.6 583.3C286.9 578.8 287.4 574.2 288.1 569.7C288.2 569.2 288.6 568.9 289.1 569C289.6 569.1 289.9 569.5 289.8 570C289.1 574.4 288.6 578.9 288.3 583.4C288.3 584 287.9 584.3 287.5 584.3Z"
        fill="#F9C960" />
    <path
        d="M295.5 583.8H295.4C294.9 583.7 294.6 583.3 294.6 582.8C295.1 579.7 295.6 576.6 295.9 573.5C296 572.3 296.1 571.1 295.8 570C295.7 569.5 295.9 569 296.4 568.9C296.9 568.8 297.4 569 297.5 569.5C297.9 570.9 297.8 572.3 297.7 573.7C297.4 576.9 296.9 580 296.4 583.1C296.3 583.5 295.9 583.8 295.5 583.8Z"
        fill="#F9C960" />
    <path
        d="M303.3 584.6C303.2 584.6 303.2 584.6 303.3 584.6C302.7 584.6 302.4 584.1 302.4 583.6L303.3 572.2C303.4 571.4 303.4 570.6 303.4 569.9C303.4 569.4 303.7 569 304.2 568.9C304.7 568.9 305.1 569.2 305.2 569.7C305.3 570.6 305.2 571.5 305.1 572.3L304.2 583.7C304.1 584.2 303.7 584.6 303.3 584.6Z"
        fill="#F9C960" />
    <path
        d="M310.2 583.3C309.7 583.3 309.3 582.9 309.3 582.4C309.4 578 309.8 573.6 310.3 569.2C310.4 568.7 310.8 568.4 311.3 568.4C311.8 568.5 312.1 568.9 312.1 569.4C311.6 573.7 311.2 578.1 311.1 582.4C311.1 582.9 310.7 583.3 310.2 583.3Z"
        fill="#F9C960" />
    <path
        d="M317 583.9C316.9 583.9 316.9 583.9 316.8 583.9C316.3 583.8 316 583.3 316.1 582.9C316.9 578.4 317.3 573.8 317.2 569.2C317.2 568.7 317.6 568.3 318.1 568.3C318.6 568.2 319 568.7 319 569.2C319.1 573.9 318.7 578.6 317.9 583.3C317.8 583.6 317.5 583.9 317 583.9Z"
        fill="#F9C960" />
    <path
        d="M323.8 583.8C323.8 583.8 323.7 583.8 323.8 583.8C323.3 583.8 322.9 583.4 322.9 582.9L323.1 570.1C323.1 569.6 323.5 569.2 324 569.2C324.5 569.2 324.9 569.6 324.9 570.1L324.7 582.9C324.7 583.4 324.3 583.8 323.8 583.8Z"
        fill="#F9C960" />
    <path
        d="M330.5 582.1C330 582.1 329.6 581.7 329.6 581.2L329.3 568.1C329.3 567.6 329.7 567.2 330.2 567.2C330.7 567.2 331.1 567.6 331.1 568.1L331.4 581.2C331.4 581.6 331.1 582 330.5 582.1C330.6 582.1 330.5 582.1 330.5 582.1Z"
        fill="#F9C960" />
    <path
        d="M336.8 583.3C336.3 583.3 335.9 582.9 335.9 582.4L336.6 567.7C336.6 567.2 337.1 566.8 337.5 566.8C338 566.8 338.4 567.2 338.4 567.7L337.7 582.4C337.7 582.9 337.3 583.3 336.8 583.3Z"
        fill="#F9C960" />
    <path
        d="M343.8 579.2C343.3 579.2 342.9 578.8 342.9 578.3L343.4 566.5C343.4 566 343.9 565.6 344.3 565.6C344.8 565.6 345.2 566 345.2 566.5L344.7 578.3C344.7 578.9 344.3 579.2 343.8 579.2Z"
        fill="#F9C960" />
    <path
        d="M350.8 579.1C350.2 579.1 349.9 578.6 349.9 578.1L350.7 564.7C350.7 564.2 351.2 563.8 351.7 563.9C352.2 563.9 352.6 564.4 352.5 564.9L351.7 578.3C351.7 578.7 351.3 579.1 350.8 579.1Z"
        fill="#F9C960" />
    <path
        d="M357.9 578.1C357.5 578.1 357.2 577.9 357.1 577.6C356.9 577.1 357 576.7 357 576.4L358.7 564.8C358.8 564.3 359.2 564 359.7 564C360.2 564.1 360.5 564.5 360.5 565L358.8 576.6C358.8 576.7 358.8 576.8 358.8 576.8C359 577.3 358.8 577.8 358.3 578C358.1 578.1 358 578.1 357.9 578.1Z"
        fill="#F9C960" />
    <path
        d="M366 576.2C365.5 576.2 365.1 575.8 365.1 575.3C365.1 571 365.4 566.6 366 562.3C366.1 561.8 366.5 561.5 367 561.5C367.5 561.6 367.8 562 367.8 562.5C367.2 566.7 366.9 571 366.9 575.2C366.9 575.8 366.5 576.2 366 576.2Z"
        fill="#F9C960" />
    <path
        d="M373.4 574.7C372.8 574.7 372.5 574.2 372.5 573.7L373.5 560.3C373.5 559.8 374 559.4 374.5 559.5C375 559.5 375.4 560 375.3 560.5L374.3 573.9C374.3 574.3 373.9 574.7 373.4 574.7Z"
        fill="#F9C960" />
    <path
        d="M380.5 574C380 574 379.6 573.5 379.6 573L380.4 559C380.4 558.5 380.8 558.1 381.4 558.2C381.9 558.2 382.3 558.7 382.3 559.2L381.5 573.2C381.4 573.7 381 574 380.5 574Z"
        fill="#F9C960" />
    <path
        d="M387.5 571.9C387.4 571.9 387.2 571.9 387.1 571.8C386.8 571.7 386.5 571.3 386.5 570.7L387.6 562C387.8 560.5 388 559 387.8 557.6C387.7 557.1 388.1 556.7 388.6 556.6C389.1 556.5 389.5 556.9 389.6 557.4C389.8 559.1 389.6 560.7 389.4 562.3L388.3 570.6C388.4 570.9 388.4 571.4 388.1 571.6C388.1 571.8 387.8 571.9 387.5 571.9Z"
        fill="#F9C960" />
    <path
        d="M395.1 571.1C394.6 571.1 394.2 570.7 394.2 570.2C394.3 565.2 394.7 560.2 395.4 555.3C395.5 554.8 395.9 554.4 396.4 554.5C396.9 554.6 397.2 555 397.2 555.5C396.5 560.4 396.2 565.3 396 570.2C396 570.7 395.6 571.1 395.1 571.1Z"
        fill="#F9C960" />
    <path
        d="M400.9 568.9C400.8 568.9 400.8 568.9 400.7 568.9C400.2 568.8 399.9 568.4 400 567.9C400.7 562.9 401.5 557.9 402.4 553C402.5 552.5 403 552.2 403.5 552.3C404 552.4 404.3 552.9 404.2 553.4C403.3 558 402.5 562.7 401.9 567.3C401.9 567.4 401.9 567.6 401.9 567.7L401.8 568.3C401.7 568.6 401.3 568.9 400.9 568.9Z"
        fill="#F9C960" />
    <path
        d="M408.9 563.4C408.8 563.4 408.7 563.4 408.6 563.4C408.1 563.2 407.9 562.7 408 562.3C409.2 558.6 410.2 554.8 411 551C411.1 550.5 411.6 550.2 412.1 550.3C412.6 550.4 412.9 550.9 412.8 551.4C412 555.3 410.9 559.1 409.7 562.9C409.6 563.1 409.3 563.4 408.9 563.4Z"
        fill="#F9C960" />
    <path
        d="M255.3 180.9C247 189.5 234 193.3 222.3 190.4C212.5 187.9 204.1 180.6 200 171.4C199.3 169.7 198.7 168 198.2 166.2C197.4 163.1 197.1 159.8 197.6 156.6C198.8 148.7 205.3 142 213 140C220.7 137.9 229.3 140.3 235.3 145.7L243 159.3L255.3 180.9Z"
        fill="#FFCFCA" />
    <path
        d="M272.6 109.9C272 110 271.4 109.9 270.9 109.5C270.1 108.8 269.9 107.5 270.6 106.7C275 101.4 282.6 98.8 289.3 100.2C290.4 100.4 291.1 101.5 290.8 102.6C290.6 103.7 289.5 104.4 288.4 104.1C283 102.9 277.1 105 273.6 109.2C273.4 109.6 273 109.8 272.6 109.9Z"
        fill="#1F3C49" />
    <path
        d="M325.8 101C325.2 101 324.6 100.6 324.2 100.1C323.6 99.2 323.9 97.9 324.8 97.3C330.1 93.8 337.5 93.5 343.1 96.6C344.1 97.1 344.4 98.4 343.9 99.3C343.4 100.3 342.1 100.6 341.2 100.1C336.9 97.7 331.2 97.9 327.1 100.6C326.6 100.9 326.2 101 325.8 101Z"
        fill="#1F3C49" />
    <path
        d="M313.8 141.4C315.1 139.9 317.4 139.3 319.5 139.7C321.7 140 323.7 141.6 324.7 143.6C325.8 145.5 325.9 148.1 325 150.1C324.1 152.1 322.3 153.6 320.4 153.8C321.8 152.4 322.5 150.9 322.8 149.3C323.1 147.8 322.8 146.3 322.1 145C321.4 143.7 320.3 142.6 318.9 142C317.5 141.3 315.7 141 313.8 141.4Z"
        fill="#1F3C49" />
    <path
        d="M356.1 154.6V154.8C358 163.5 356.4 172.2 352.2 179.5C347.3 188.1 338.7 194.7 328.1 197C316.7 199.4 305.4 196.3 297.2 189.4C291.3 184.5 287.1 177.8 285.4 169.9V169.7L356.1 154.6Z"
        fill="#EA5353" />
    <path
        d="M352.2 179.5C347.3 188.1 338.7 194.7 328.1 197C316.7 199.4 305.4 196.3 297.2 189.4C299.9 187.7 302.6 186.1 305.5 184.8C316.3 179.5 328.4 176.1 340.5 177.2C344.4 177.5 348.4 178.4 352.2 179.5Z"
        fill="#FF948F" />
    <path d="M349.5 156C347.7 171.7 305.4 181.7 292.9 168.1L349.5 156Z" fill="white" />
    <path
        d="M333.4 125.4C333.2 125.4 333 125.4 332.9 125.4C332.5 125.3 332.2 124.9 332.2 124.4C332.3 121.1 334.4 117.9 337.5 116.3C340.2 114.9 343.6 114.6 347.1 115.4C347.6 115.5 348 116.1 347.8 116.6C347.7 117.1 347.1 117.5 346.6 117.3C343.6 116.6 340.7 116.8 338.4 118C336.9 118.8 335.7 120 335 121.3C335.1 121.3 335.1 121.2 335.2 121.2C338.2 119.3 342.2 118.8 346.7 119.8C347.2 119.9 347.6 120.5 347.5 121C347.4 121.5 346.8 121.9 346.3 121.8C344 121.3 339.7 120.8 336.3 123C335.2 123.7 334.6 124.2 334 125.1C333.8 125.2 333.6 125.3 333.4 125.4Z"
        fill="#1F3C49" />
    <path
        d="M294.6 131C294.8 130.9 295 130.8 295.1 130.7C295.4 130.3 295.5 129.8 295.3 129.4C293.5 126.2 289.7 124.2 285.7 124.3C282.2 124.4 278.7 125.9 275.8 128.6C275.3 129 275.3 129.7 275.7 130.2C276.1 130.7 276.8 130.7 277.3 130.3C279.8 128 282.8 126.6 285.7 126.6C287.5 126.6 289.4 127.1 290.8 128C290.7 128 290.6 128 290.6 128C286.7 127.7 282.4 129.4 278.6 132.8C278.1 133.2 278.1 133.9 278.5 134.4C278.9 134.9 279.6 134.9 280.1 134.5C282 132.8 286 129.9 290.5 130.2C291.9 130.3 292.8 130.4 293.9 131C294.1 131.1 294.4 131.1 294.6 131Z"
        fill="#1F3C49" />
</svg>
