<svg width="722" height="733" viewBox="0 0 722 733" fill="none" xmlns="http://www.w3.org/2000/svg">
    <defs>
        <linearGradient id="paint0_linear" x1="505.817" y1="347.577" x2="622.602" y2="360.356" gradientUnits="userSpaceOnUse">
            <stop stop-color="#444B8C"/>
            <stop offset="1" stop-color="#26264F"/>
        </linearGradient>
        <linearGradient id="paint1_linear" x1="607928" y1="438298" x2="-426459" y2="2.64911e+06" gradientUnits="userSpaceOnUse">
            <stop stop-color="#444B8C"/>
            <stop offset="1" stop-color="#26264F"/>
        </linearGradient>
        <linearGradient id="paint2_linear" x1="292.426" y1="373.75" x2="682.018" y2="373.75" gradientUnits="userSpaceOnUse">
            <stop stop-color="#AA80F9"/>
            <stop offset="1" stop-color="#6165D7"/>
        </linearGradient>
        <linearGradient id="paint3_linear" x1="511.13" y1="29.9418" x2="848.692" y2="947.037" gradientUnits="userSpaceOnUse">
            <stop stop-color="#FFC444"/>
            <stop offset="1" stop-color="#F36F56"/>
        </linearGradient>
        <linearGradient id="paint4_linear" x1="265.196" y1="356.519" x2="640.299" y2="356.519" gradientUnits="userSpaceOnUse">
            <stop stop-color="#311944"/>
            <stop offset="1" stop-color="#893976"/>
        </linearGradient>
        <linearGradient id="paint5_linear" x1="590.63" y1="599.233" x2="478.53" y2="599.233" gradientUnits="userSpaceOnUse">
            <stop stop-color="#FF9085"/>
            <stop offset="1" stop-color="#FB6FBB"/>
        </linearGradient>
        <linearGradient id="paint6_linear" x1="-396550" y1="740724" x2="-518195" y2="740724" gradientUnits="userSpaceOnUse">
            <stop stop-color="#FFC444"/>
            <stop offset="1" stop-color="#F36F56"/>
        </linearGradient>
        <linearGradient id="paint7_linear" x1="714.714" y1="664.531" x2="535.452" y2="664.531" gradientUnits="userSpaceOnUse">
            <stop stop-color="#E38DDD"/>
            <stop offset="1" stop-color="#9571F6"/>
        </linearGradient>
        <linearGradient id="paint8_linear" x1="119820" y1="162680" x2="229715" y2="162680" gradientUnits="userSpaceOnUse">
            <stop stop-color="#444B8C"/>
            <stop offset="1" stop-color="#26264F"/>
        </linearGradient>
        <linearGradient id="paint9_linear" x1="126332" y1="164638" x2="236228" y2="164638" gradientUnits="userSpaceOnUse">
            <stop stop-color="#AA80F9"/>
            <stop offset="1" stop-color="#6165D7"/>
        </linearGradient>
        <linearGradient id="paint10_linear" x1="-61984.6" y1="73336.4" x2="-53559.5" y2="63405.6" gradientUnits="userSpaceOnUse">
            <stop stop-color="#AA80F9"/>
            <stop offset="1" stop-color="#6165D7"/>
        </linearGradient>
        <linearGradient id="paint11_linear" x1="-72563.1" y1="622841" x2="-65808.1" y2="631792" gradientUnits="userSpaceOnUse">
            <stop stop-color="#AA80F9"/>
            <stop offset="1" stop-color="#6165D7"/>
        </linearGradient>
        <linearGradient id="paint12_linear" x1="218766" y1="68093.7" x2="212533" y2="60147.1" gradientUnits="userSpaceOnUse">
            <stop stop-color="#AA80F9"/>
            <stop offset="1" stop-color="#6165D7"/>
        </linearGradient>
        <linearGradient id="paint13_linear" x1="189804" y1="610857" x2="182218" y2="619149" gradientUnits="userSpaceOnUse">
            <stop stop-color="#AA80F9"/>
            <stop offset="1" stop-color="#6165D7"/>
        </linearGradient>
        <linearGradient id="paint14_linear" x1="168259" y1="82274.9" x2="190527" y2="151003" gradientUnits="userSpaceOnUse">
            <stop stop-color="#AA80F9"/>
            <stop offset="1" stop-color="#6165D7"/>
        </linearGradient>
        <linearGradient id="paint15_linear" x1="-51966.9" y1="58711" x2="-51394.4" y2="59844.6" gradientUnits="userSpaceOnUse">
            <stop stop-color="#444B8C"/>
            <stop offset="1" stop-color="#26264F"/>
        </linearGradient>
        <linearGradient id="paint16_linear" x1="-45899.4" y1="60698.4" x2="-47937.8" y2="60698.4" gradientUnits="userSpaceOnUse">
            <stop stop-color="#444B8C"/>
            <stop offset="1" stop-color="#26264F"/>
        </linearGradient>
        <linearGradient id="paint17_linear" x1="-200416" y1="124072" x2="-240830" y2="124072" gradientUnits="userSpaceOnUse">
            <stop stop-color="#FFC444"/>
            <stop offset="1" stop-color="#F36F56"/>
        </linearGradient>
        <linearGradient id="paint18_linear" x1="222.04" y1="365.721" x2="203.514" y2="365.721" gradientUnits="userSpaceOnUse">
            <stop stop-color="#311944"/>
            <stop offset="1" stop-color="#A03976"/>
        </linearGradient>
        <linearGradient id="paint19_linear" x1="26736.4" y1="39169.1" x2="27465.3" y2="39169.1" gradientUnits="userSpaceOnUse">
            <stop stop-color="#311944"/>
            <stop offset="1" stop-color="#A03976"/>
        </linearGradient>
        <linearGradient id="paint20_linear" x1="-341169" y1="301496" x2="-390154" y2="335238" gradientUnits="userSpaceOnUse">
            <stop stop-color="#311944"/>
            <stop offset="1" stop-color="#893976"/>
        </linearGradient>
        <linearGradient id="paint21_linear" x1="127.255" y1="669.402" x2="90.5549" y2="712.91" gradientUnits="userSpaceOnUse">
            <stop stop-color="#444B8C"/>
            <stop offset="1" stop-color="#3E4177"/>
        </linearGradient>
        <linearGradient id="paint22_linear" x1="-19361.8" y1="41946.5" x2="-19546.1" y2="43473.1" gradientUnits="userSpaceOnUse">
            <stop stop-color="#311944"/>
            <stop offset="1" stop-color="#893976"/>
        </linearGradient>
        <linearGradient id="paint23_linear" x1="57938.8" y1="32136.6" x2="58832.2" y2="34726.3" gradientUnits="userSpaceOnUse">
            <stop stop-color="#444B8C"/>
            <stop offset="1" stop-color="#3E4177"/>
        </linearGradient>
        <linearGradient id="paint24_linear" x1="-18372" y1="42079.4" x2="-18556" y2="43606" gradientUnits="userSpaceOnUse">
            <stop stop-color="#311944"/>
            <stop offset="1" stop-color="#893976"/>
        </linearGradient>
        <linearGradient id="paint25_linear" x1="159370" y1="560748" x2="177965" y2="560748" gradientUnits="userSpaceOnUse">
            <stop stop-color="#444B8C"/>
            <stop offset="1" stop-color="#3E4177"/>
        </linearGradient>
        <linearGradient id="paint26_linear" x1="155574" y1="560776" x2="173292" y2="560776" gradientUnits="userSpaceOnUse">
            <stop stop-color="#444B8C"/>
            <stop offset="1" stop-color="#3E4177"/>
        </linearGradient>
        <linearGradient id="paint27_linear" x1="182509" y1="569704" x2="207820" y2="569704" gradientUnits="userSpaceOnUse">
            <stop stop-color="#444B8C"/>
            <stop offset="1" stop-color="#3E4177"/>
        </linearGradient>
        <linearGradient id="paint28_linear" x1="-305476" y1="369716" x2="-378577" y2="369716" gradientUnits="userSpaceOnUse">
            <stop stop-color="#FFC444"/>
            <stop offset="1" stop-color="#F36F56"/>
        </linearGradient>
        <linearGradient id="paint29_linear" x1="67090.2" y1="58929.8" x2="71252.5" y2="56935.6" gradientUnits="userSpaceOnUse">
            <stop stop-color="#311944"/>
            <stop offset="1" stop-color="#A03976"/>
        </linearGradient>
        <linearGradient id="paint30_linear" x1="-224427" y1="357565" x2="-278171" y2="357565" gradientUnits="userSpaceOnUse">
            <stop stop-color="#FFC444"/>
            <stop offset="1" stop-color="#F36F56"/>
        </linearGradient>
        <linearGradient id="paint31_linear" x1="50367.8" y1="36252.3" x2="48178" y2="37496.7" gradientUnits="userSpaceOnUse">
            <stop stop-color="#311944"/>
            <stop offset="1" stop-color="#A03976"/>
        </linearGradient>
        <linearGradient id="paint32_linear" x1="-245973" y1="165858" x2="-299451" y2="165858" gradientUnits="userSpaceOnUse">
            <stop stop-color="#FFC444"/>
            <stop offset="1" stop-color="#F36F56"/>
        </linearGradient>
        <linearGradient id="paint33_linear" x1="91527.4" y1="42547.3" x2="90031.5" y2="40873.9" gradientUnits="userSpaceOnUse">
            <stop stop-color="#AA80F9"/>
            <stop offset="1" stop-color="#6165D7"/>
        </linearGradient>
        <linearGradient id="paint34_linear" x1="91601.3" y1="277109" x2="90098.3" y2="278792" gradientUnits="userSpaceOnUse">
            <stop stop-color="#AA80F9"/>
            <stop offset="1" stop-color="#6165D7"/>
        </linearGradient>
        <linearGradient id="paint35_linear" x1="-27439.9" y1="40151.2" x2="-26107.4" y2="38711.5" gradientUnits="userSpaceOnUse">
            <stop stop-color="#AA80F9"/>
            <stop offset="1" stop-color="#6165D7"/>
        </linearGradient>
        <linearGradient id="paint36_linear" x1="-27531.6" y1="272446" x2="-26145.8" y2="273887" gradientUnits="userSpaceOnUse">
            <stop stop-color="#AA80F9"/>
            <stop offset="1" stop-color="#6165D7"/>
        </linearGradient>
        <linearGradient id="paint37_linear" x1="295884" y1="165087" x2="290912" y2="88057.1" gradientUnits="userSpaceOnUse">
            <stop stop-color="#311944"/>
            <stop offset="1" stop-color="#893976"/>
        </linearGradient>
        <linearGradient id="paint38_linear" x1="361866" y1="3063.31" x2="373345" y2="197425" gradientUnits="userSpaceOnUse">
            <stop stop-color="#FFC444"/>
            <stop offset="1" stop-color="#F36F56"/>
        </linearGradient>
        <linearGradient id="paint39_linear" x1="450.042" y1="317.279" x2="443.321" y2="214.047" gradientUnits="userSpaceOnUse">
            <stop stop-color="#893976"/>
            <stop offset="1" stop-color="#311944"/>
        </linearGradient>
        <linearGradient id="paint40_linear" x1="120944" y1="88194.7" x2="94251.9" y2="103275" gradientUnits="userSpaceOnUse">
            <stop stop-color="#893976"/>
            <stop offset="1" stop-color="#311944"/>
        </linearGradient>
        <linearGradient id="paint41_linear" x1="170337" y1="75249.9" x2="168542" y2="40131.8" gradientUnits="userSpaceOnUse">
            <stop stop-color="#311944"/>
            <stop offset="1" stop-color="#893976"/>
        </linearGradient>
    </defs>
    <path d="M306.265 0.0661343C208.367 1.79078 56.9018 38.898 13.3028 134.256C-1.92321 167.56 -0.894151 216.526 1.16924 314.451C1.77565 343.238 2.77847 385.184 9.83233 437.238C24.4913 545.367 34.4723 618.977 72.2407 661.839C166.876 769.238 508.721 766.134 654.699 572.78C734.329 467.313 746.581 317.261 673.766 193.257C593.593 56.7333 437.327 -2.24211 306.265 0.0661343Z" fill="#F4F7FA"/>
    <path d="M366.359 54.2282L295.206 643.797C294.141 652.637 300.252 660.562 308.813 661.41L605.174 693.843C623.327 694.971 633.264 685.73 634.39 676.324L709.1 49.5123C710.213 40.1641 701.306 31.6979 683.074 31.6979L384.016 37.9789C375.35 38.1228 367.42 45.4349 366.359 54.2282Z" fill="url(#paint0_linear)"/>
    <path d="M353.021 53.2129L281.477 645.741C280.405 654.639 286.538 662.592 295.127 663.445L602.373 693.939C612.005 694.894 620.833 687.949 621.959 678.498L697.082 48.4394C698.202 39.0442 691.128 31.4913 681.388 31.6562L370.74 36.8903C362.051 37.0264 354.089 44.3751 353.021 53.2129Z" fill="url(#paint1_linear)"/>
    <path d="M358.851 85.8973L292.539 635.288C291.536 643.59 297.28 651.017 305.324 651.797L594.274 679.799C603.229 680.668 611.435 674.183 612.485 665.39L681.908 83.3561C682.958 74.6073 676.395 67.5282 667.338 67.625L375.418 70.7236C367.301 70.81 359.849 77.6379 358.851 85.8973Z" fill="url(#paint2_linear)"/>
    <path d="M513.802 52.8071C513.424 55.9607 515.695 58.4861 518.877 58.4442C522.059 58.4024 524.957 55.8115 525.338 52.6501C525.718 49.4886 523.437 46.9658 520.25 47.0103C517.063 47.0548 514.18 49.6509 513.802 52.8071Z" fill="url(#paint3_linear)"/>
    <g style="mix-blend-mode:soft-light">
        <g style="mix-blend-mode:soft-light">
            <path d="M408.808 454.682C467.964 345.653 556.343 313.016 582.937 200.65C597.317 139.91 587.52 81.7726 571.016 33.5114L681.389 31.6664C691.128 31.5015 698.19 39.0544 697.082 48.4496L621.96 678.501C620.834 687.948 612.005 694.894 602.373 693.941L360.857 669.969C359.064 572.272 382.438 503.283 408.808 454.682Z" fill="white"/>
        </g>
    </g>
    <path d="M626.714 121.251L628.158 129.021L598.43 129.092L340.478 129.702C333.844 129.717 327.738 135.184 326.827 141.915L265.253 552.199C264.335 559.004 274.938 569.357 281.53 569.864L395.971 578.632V578.493L567.154 591.578L567.569 591.751C574.88 592.313 581.584 587.024 582.532 579.854C582.532 579.854 582.532 579.883 582.532 579.88L640.215 141.845C641.15 134.732 634.064 121.233 626.714 121.251Z" fill="url(#paint4_linear)"/>
    <path d="M576.713 571.304C575.768 578.48 569.063 583.842 561.749 583.282L275.421 561.359C268.829 560.856 264.24 554.942 265.156 548.151L321.125 133.525C322.033 126.797 328.134 121.327 334.776 121.309L622.732 120.524C630.083 120.505 635.291 126.247 634.356 133.347L576.713 571.304Z" fill="white"/>
    <g style="mix-blend-mode:soft-light" opacity="0.4">
        <path d="M634.348 133.347L576.712 571.304C575.767 578.477 568.637 583.808 561.331 583.251L389.353 570.09C380.827 561.379 374.133 551.058 369.664 539.732C367.261 533.624 365.507 527.281 364.432 520.808C361.24 502.316 362.477 481.29 367.134 460.66C370.698 444.811 376.199 429.458 383.515 414.945C389.261 403.632 396.021 393.289 403.569 384.587C409.005 378.33 414.883 372.251 421.084 366.289C428.56 359.097 436.507 352.073 444.71 345.114C463.809 328.889 484.264 313.029 503.199 296.28C546.893 257.639 582.341 214.463 573.817 152.865C573.554 150.926 570.879 136.066 567.48 120.662L622.322 120.513C629.641 120.5 635.283 126.245 634.348 133.347Z" fill="white"/>
    </g>
    <path d="M530.109 702.941L530.343 702.98C543.012 704.996 558.889 703.588 569.148 695.182C574.553 690.754 578.216 684.912 579.339 677.993C580.006 673.892 580.368 669.561 579.725 665.431C579.05 661.11 577.375 656.936 575.218 653.144C573.998 651.026 572.649 648.985 571.177 647.033C567.001 641.446 557.128 633.592 561.706 625.67C564.473 620.881 570.852 617.932 575.065 614.574C584.07 607.393 590.538 597.04 590.627 585.224C590.701 575.939 584.852 566.745 578.271 560.503C551.46 535.097 571.212 491.413 533.239 494.836C495.266 498.259 487.036 536.05 501.248 571.322C506.01 583.133 511.804 595.203 515.038 607.545C517.585 617.262 513.988 623.98 506.05 629.721C501.779 632.812 495.549 634.916 491.829 638.557C483.542 646.685 476.905 658.08 478.882 670.006C480.845 681.837 490.958 690.526 501.621 695.022C510.841 698.921 520.249 701.371 530.109 702.941Z" fill="url(#paint5_linear)"/>
    <g style="mix-blend-mode:soft-light" opacity="0.8">
        <g style="mix-blend-mode:soft-light" opacity="0.8">
            <path d="M534.581 692.803C534.67 692.802 534.759 692.786 534.843 692.756C535.037 692.683 535.194 692.538 535.281 692.351C535.368 692.164 535.378 691.95 535.308 691.756C535.148 691.319 519.412 647.528 533.189 612.425C547.192 576.752 531.53 538.564 531.37 538.182C531.274 538.018 531.121 537.893 530.94 537.833C530.759 537.772 530.562 537.779 530.386 537.852C530.21 537.925 530.066 538.06 529.982 538.231C529.898 538.402 529.879 538.598 529.929 538.782C530.086 539.158 545.504 576.784 531.735 611.858C517.742 647.51 533.68 691.848 533.835 692.293C533.892 692.444 533.994 692.574 534.127 692.665C534.261 692.756 534.419 692.805 534.581 692.803V692.803Z" fill="white"/>
        </g>
    </g>
    <path d="M522.101 637.17C525.256 632.225 528.806 627.542 532.717 623.166C545.546 608.744 554.553 593.434 560.318 574.96C564.857 560.409 564.76 543.772 567.577 528.751C569.617 517.864 573.315 507.327 577.156 496.961C585.339 474.892 597.633 449.286 618.23 436.033C627.772 429.896 641.925 429.292 652.449 433.678C666.084 439.373 678.139 450.469 679.016 465.897C680.218 487.113 661.629 510.897 677.002 530.407C700.543 560.281 689.538 593.478 657.174 609.704C646.629 614.998 634.27 619.911 625.457 628.037C616.644 636.162 621.887 650.104 622.869 660.433C623.79 670.116 624.806 681.385 618.61 689.673C608.157 703.654 582.908 709.746 566.506 711.133C550.631 712.471 532.591 710.722 521.471 698.048C504.714 678.964 510.182 655.976 522.101 637.17Z" fill="url(#paint6_linear)"/>
    <g style="mix-blend-mode:soft-light" opacity="0.8">
        <g style="mix-blend-mode:soft-light" opacity="0.8">
            <path d="M547.94 697.99C548.098 697.989 548.252 697.941 548.382 697.851C548.513 697.761 548.613 697.635 548.67 697.488C549.195 696.129 600.522 561.066 629.817 506.636C629.883 506.546 629.928 506.442 629.951 506.332C629.973 506.222 629.971 506.109 629.946 506C629.921 505.891 629.873 505.788 629.805 505.699C629.736 505.61 629.65 505.537 629.551 505.484C629.452 505.431 629.343 505.4 629.231 505.392C629.119 505.385 629.006 505.402 628.901 505.441C628.796 505.481 628.701 505.542 628.621 505.621C628.542 505.701 628.48 505.796 628.441 505.901C599.099 560.419 547.725 695.577 547.21 696.946C547.168 697.063 547.155 697.189 547.172 697.312C547.189 697.436 547.235 697.553 547.306 697.656C547.377 697.758 547.472 697.842 547.582 697.901C547.692 697.959 547.815 697.991 547.94 697.993V697.99Z" fill="white"/>
        </g>
    </g>
    <path d="M570.13 717.095C566.717 716.613 563.305 716.048 559.916 715.525C550.436 714.007 538.694 711.076 535.712 700.518C534.864 697.517 536.326 692.144 536.678 689.035C537.004 685.848 537.523 682.685 538.232 679.561C539.272 675.289 540.886 671.176 543.031 667.334C546.722 660.621 550.943 655.57 558.8 654.05C564.528 652.943 570.876 652.684 576.696 652.875C608.437 653.922 612.338 642.501 629.769 618.12C647.2 593.74 761.934 633.163 692.731 676.481C692.731 676.481 682.325 683.225 644.341 678.815C637.393 678.009 628.606 677.473 622.715 681.956C612.327 689.857 622.773 706.6 612.283 713.172C606.166 717.001 596.337 718.129 589.31 718.406C582.889 718.623 576.491 717.992 570.13 717.095Z" fill="url(#paint7_linear)"/>
    <g style="mix-blend-mode:soft-light" opacity="0.8">
        <g style="mix-blend-mode:soft-light" opacity="0.8">
            <path d="M548.945 704.041C549.068 704.041 549.19 704.012 549.3 703.957C549.409 703.901 549.505 703.821 549.578 703.722C549.777 703.447 569.87 676.214 598.375 669.787C609.526 667.272 619.163 661.647 628.485 656.204C644.2 647.044 659.045 638.363 680.955 642.818C681.145 642.831 681.334 642.774 681.486 642.659C681.638 642.543 681.742 642.377 681.78 642.19C681.818 642.003 681.787 641.81 681.692 641.644C681.597 641.479 681.445 641.354 681.264 641.292C658.772 636.72 642.974 645.942 627.695 654.861C618.478 660.245 608.946 665.809 598.031 668.269C568.941 674.83 548.517 702.529 548.312 702.814C548.231 702.931 548.183 703.067 548.174 703.209C548.164 703.351 548.193 703.493 548.258 703.619C548.323 703.746 548.421 703.852 548.542 703.928C548.663 704.003 548.803 704.044 548.945 704.046V704.041Z" fill="white"/>
        </g>
    </g>
    <path d="M228.981 125.297C228.981 172.111 191.139 212.586 144.316 215.706C97.3256 218.846 59.1293 183.197 59.1293 136.09C59.1293 88.9826 97.3335 48.4888 144.316 45.6493C191.152 42.8177 228.981 78.4803 228.981 125.297Z" fill="url(#paint8_linear)"/>
    <path d="M239.03 128.296C239.03 175.11 201.191 215.585 154.368 218.705C107.378 221.845 69.1786 186.196 69.1786 139.089C69.1786 91.9818 107.385 51.488 154.368 48.6459C201.191 45.8169 239.03 81.4795 239.03 128.296Z" fill="url(#paint9_linear)"/>
    <path d="M151.375 179.687C149.602 179.825 147.825 179.476 146.236 178.68C144.647 177.883 143.307 176.668 142.361 175.167L110.346 123.918C107.346 119.115 108.963 112.539 113.956 109.228C118.949 105.917 125.418 107.134 128.416 111.926L150.617 147.503L179.914 88.0221C182.539 82.6833 188.858 80.2363 194.019 82.5498C199.18 84.8633 201.228 91.0657 198.602 96.3992L160.745 173.328C159.902 175.054 158.635 176.539 157.062 177.646C155.488 178.752 153.659 179.444 151.746 179.656L151.375 179.687Z" fill="white"/>
    <path d="M568.204 204.392C570.548 204.432 572.845 202.657 573.123 200.428L579.996 145.425C580.277 143.185 578.591 141.371 576.237 141.371H529.931C527.634 141.371 525.555 143.159 525.285 145.367C525.015 147.576 526.482 149.369 528.776 149.374L570.632 149.46L564.3 200.299C564.022 202.513 565.865 204.345 568.204 204.392Z" fill="url(#paint10_linear)"/>
    <path d="M502.595 364.114L548.119 366.778C550.432 366.912 552.532 365.242 552.807 363.046L559.58 308.831C559.843 306.622 558.021 304.754 555.698 304.644C553.374 304.534 551.101 306.253 550.825 308.454L544.583 358.587L503.388 356.25C502.312 356.188 501.252 356.535 500.421 357.219C499.59 357.904 499.049 358.877 498.907 359.942C498.642 362.12 500.34 363.983 502.595 364.114Z" fill="url(#paint11_linear)"/>
    <path d="M358.061 200.964C360.161 200.998 361.87 199.318 362.114 197.211L367.685 149.026L406.425 149.107C408.577 149.107 410.625 147.38 410.872 145.239C411.118 143.098 409.669 141.361 407.517 141.361H365.126C364.076 141.389 363.072 141.79 362.293 142.491C361.514 143.193 361.012 144.149 360.878 145.187L354.895 197.096C354.651 199.198 355.966 200.93 358.061 200.964Z" fill="url(#paint12_linear)"/>
    <path d="M340.504 354.632L382.21 357.071C383.245 357.12 384.261 356.779 385.055 356.116C385.849 355.453 386.364 354.516 386.497 353.491C386.743 351.397 385.042 349.586 382.921 349.469L344.762 347.328L350.259 299.779C350.5 297.685 349.19 295.924 347.109 295.838C345.027 295.751 343.334 297.366 343.095 299.449L337.191 350.657C337.126 351.138 337.162 351.628 337.297 352.094C337.432 352.561 337.662 352.995 337.973 353.368C338.285 353.742 338.67 354.047 339.106 354.264C339.541 354.482 340.017 354.607 340.504 354.632V354.632Z" fill="url(#paint13_linear)"/>
    <path d="M512.414 402.472C512.133 404.608 510.13 406.202 507.951 406.123L356.441 400.609C355.976 400.603 355.517 400.497 355.097 400.297C354.676 400.098 354.304 399.81 354.007 399.453C353.709 399.096 353.492 398.679 353.372 398.231C353.252 397.782 353.23 397.314 353.309 396.856L356.289 374.844C356.435 373.878 356.935 372.999 357.692 372.378C358.449 371.757 359.41 371.438 360.389 371.481L512.033 375.668C514.22 375.729 515.771 377.27 515.49 379.406L512.414 402.472Z" fill="#F4F7FA"/>
    <path d="M506.546 447.195C506.263 449.333 504.26 451.16 502.083 451.053L350.682 443.591C348.681 443.492 347.292 441.587 347.565 439.543L350.569 417.109C350.831 415.068 352.687 413.317 354.685 413.398L506.174 419.493C506.684 419.519 507.184 419.652 507.641 419.881C508.098 420.111 508.502 420.433 508.826 420.827C509.151 421.221 509.39 421.679 509.527 422.17C509.664 422.662 509.697 423.176 509.623 423.681L506.546 447.195Z" fill="#F4F7FA"/>
    <path d="M515.495 379.327C515.12 379.21 514.73 379.145 514.337 379.136L362.694 374.949C361.715 374.905 360.754 375.224 359.997 375.844C359.24 376.465 358.74 377.343 358.593 378.309L355.611 400.321C355.611 400.379 355.611 400.431 355.593 400.486C354.057 400.054 353.068 398.602 353.299 396.861L356.281 374.852C356.426 373.885 356.926 373.007 357.683 372.386C358.441 371.766 359.402 371.447 360.381 371.491L512.024 375.679C514.177 375.742 515.721 377.236 515.495 379.327Z" fill="#AABBCC"/>
    <path d="M509.657 423.199C509.283 423.052 508.886 422.968 508.484 422.951L357.011 416.858C355.011 416.78 353.165 418.53 352.895 420.572L349.886 443.008C349.869 443.149 349.859 443.292 349.857 443.434C348.319 442.94 347.343 441.291 347.574 439.551L350.582 417.112C350.845 415.073 352.698 413.32 354.698 413.401L506.171 419.493C507.12 419.542 508.013 419.955 508.663 420.646C509.313 421.337 509.669 422.252 509.657 423.199V423.199Z" fill="#AABBCC"/>
    <path d="M466.271 483.442C466.719 480.066 464.325 476.957 460.92 476.76L382.549 472.275C379.304 472.089 376.306 474.813 375.865 478.1L372.631 502.402C372.19 505.694 374.44 508.845 377.685 509.068L456.032 514.409C459.445 514.642 462.569 511.776 463.015 508.39L466.271 483.442Z" fill="url(#paint14_linear)"/>
    <path d="M138.082 301.854L232.276 336.19L208.407 369.259L142.825 321.859L138.082 301.854Z" fill="white"/>
    <path d="M207.166 368.079L214.343 341.411C214.484 340.887 214.755 340.407 215.13 340.015C215.506 339.623 215.975 339.332 216.493 339.168L229.031 335.198L229.078 335.182L229.175 335.154C229.211 335.144 229.248 335.137 229.286 335.135C229.312 335.129 229.34 335.123 229.367 335.12C229.396 335.12 229.422 335.12 229.448 335.12C229.972 335.027 230.511 335.079 231.008 335.269C231.504 335.46 231.939 335.782 232.265 336.2C232.005 336.414 231.69 336.552 231.356 336.598C231.022 336.645 230.681 336.597 230.372 336.462L221.407 365.234L208.408 369.267C208.241 369.318 208.064 369.324 207.894 369.284C207.725 369.243 207.569 369.159 207.443 369.038C207.318 368.918 207.227 368.766 207.18 368.599C207.133 368.431 207.132 368.255 207.176 368.087L207.166 368.079Z" fill="url(#paint15_linear)"/>
    <path d="M209.318 368.074L216.383 342.251C216.524 341.734 216.793 341.26 217.164 340.871C217.535 340.483 217.997 340.193 218.509 340.027L231.373 335.863C231.513 335.813 231.664 335.803 231.809 335.835C231.955 335.867 232.088 335.939 232.194 336.044C232.299 336.148 232.373 336.28 232.407 336.424C232.44 336.569 232.432 336.72 232.383 336.86L223.901 364.13C223.796 364.467 223.61 364.773 223.36 365.023C223.11 365.273 222.803 365.458 222.465 365.564L210.547 369.267C210.38 369.319 210.203 369.325 210.033 369.285C209.863 369.244 209.707 369.159 209.581 369.038C209.456 368.917 209.365 368.765 209.319 368.597C209.272 368.429 209.272 368.252 209.318 368.084V368.074Z" fill="url(#paint16_linear)"/>
    <path d="M244.444 358.254C249.76 362.923 240.033 397.9 212.417 408.326C190.651 416.547 164.67 407.431 152.208 389.387C145.023 378.981 138.515 360.403 146.496 351.369C146.858 350.958 151.365 346.012 157.797 346.362C172.682 347.179 173.643 375.079 189.606 378.492C193.358 379.293 194.707 378.052 226.047 364.428C241.162 357.857 243.163 357.139 244.444 358.254Z" fill="url(#paint17_linear)"/>
    <path d="M203.79 372.171C203.79 372.171 202.456 366.992 205.653 364.603C208.851 362.214 210.182 355.967 210.715 358.228C211.248 360.489 210.715 363.143 210.715 363.143C210.715 363.143 222.171 353.182 222.04 356.634C221.909 360.086 213.639 371.64 208.318 373.907C202.997 376.173 203.871 376.503 203.79 372.171Z" fill="url(#paint18_linear)"/>
    <path d="M242.997 358.626C242.997 358.626 243.175 351.277 246.995 349.597C250.815 347.917 255.165 339.414 254.899 343.753C254.634 348.092 250.725 350.128 250.725 350.128C250.725 350.128 257.026 352.392 254.277 355.907C251.529 359.421 248.415 360.131 245.218 361.724C245.218 361.724 244.352 364.404 242.154 364.004C239.957 363.603 241.844 359.822 242.997 358.626Z" fill="url(#paint19_linear)"/>
    <path d="M109.039 449.873C87.7754 460.024 67.5983 456.996 53.4775 454.879C37.519 452.487 22.1512 450.168 16.1212 438.295C10.1516 426.518 15.4859 409.622 24.9103 400.426C35.9833 389.625 47.0301 395.003 54.7323 384.462C62.6236 373.666 53.3068 364.907 60.3817 352.853C69.2889 337.674 88.4212 344.12 97.738 328.758C105.382 316.154 96.0159 305.858 103.702 297.777C114.366 286.565 145.466 292.561 150.446 305.767C152.392 310.925 149.441 314.777 147.262 322.029C140.326 345.101 154.51 358.194 155.812 379.141C157.571 407.437 135.236 437.353 109.039 449.873Z" fill="url(#paint20_linear)"/>
    <path d="M94.6271 690.642C94.6271 690.642 115.904 693.329 116.718 698.15C117.66 703.745 93.0572 698.83 93.0572 698.83C93.0572 698.83 89.2953 697.593 94.6271 690.642Z" fill="url(#paint21_linear)"/>
    <path d="M95.9816 679.168L95.4565 691.011C95.4565 691.011 98.0555 694.298 101.035 691.919L103.398 679.168H95.9816Z" fill="url(#paint22_linear)"/>
    <path d="M129.29 696.37C129.29 696.37 150.567 699.058 151.38 703.879C152.323 709.474 127.72 704.559 127.72 704.559C127.72 704.559 123.947 703.326 129.29 696.37Z" fill="url(#paint23_linear)"/>
    <path d="M130.644 684.903L130.119 696.745C130.119 696.745 132.718 700.032 135.698 697.653L138.073 684.903H130.644Z" fill="url(#paint24_linear)"/>
    <path d="M159.34 489.727C157.773 513.634 153.994 537.345 148.052 560.558C145.379 571.008 142.691 579.718 136.643 597.82C129.421 619.437 119.238 648.962 105.962 684.622L94.4116 686.384C86.4441 657.431 88.7333 634.663 96.916 616.563C101.762 605.833 104.613 605.744 109.601 593.774C114.901 581.055 117.067 568.239 115.728 524.974C115.347 512.724 114.639 496.448 113.205 477.173L159.34 489.727Z" fill="url(#paint25_linear)"/>
    <path style="mix-blend-mode:multiply" opacity="0.3" d="M159.34 489.728C157.773 513.634 153.994 537.345 148.052 560.558C145.379 571.008 142.691 579.718 136.643 597.82C129.421 619.437 119.238 648.962 105.962 684.622L94.4115 686.384C87.6045 659.36 92.5897 645.168 98.7825 637.154C102.607 632.203 107.411 628.937 110.921 620.405C115.048 610.379 112.124 605.841 114.268 594.104C117.156 578.281 124.018 578.045 126.441 565.672C129.3 551.079 121.191 544.052 115.728 524.964C112.685 514.344 110.01 498.424 113.205 477.163L159.34 489.728Z" fill="url(#paint26_linear)"/>
    <path d="M132.677 487.014C142.358 499.17 169.56 536.578 170.348 591.026C171.083 641.797 148.415 677.98 139.326 690.997L127.97 689.964C126.591 674.604 127.224 659.131 129.852 643.935C134.806 615.44 142.647 612.363 141.468 596.113C139.988 575.732 127.064 572.463 106.937 535.44C96.0895 515.49 83.1342 491.661 91.5558 482.837C93.1493 481.157 100.964 474.31 132.677 487.014Z" fill="url(#paint27_linear)"/>
    <path d="M142.524 337.862C156.159 340.338 164.328 349.657 166.581 352.303C169.379 355.593 177.656 366.317 177.817 393.757C177.969 420.064 170.435 423.108 168.151 448.064C164.783 484.876 178.985 502.151 169.083 510.449C160.653 517.516 150.402 504.954 122.003 506.322C98.5598 507.445 94.0471 516.542 73.8963 514.268C70.8169 513.92 43.9115 510.604 39.7689 496.571C36.8812 486.823 47.5027 480.427 62.0567 456.829C75.9911 434.235 82.8455 413.207 86.2503 402.76C96.52 371.245 92.2567 362.63 103.865 351.11C105.309 349.678 121.541 334.062 142.524 337.862Z" fill="url(#paint28_linear)"/>
    <path d="M128.747 312.87C128.747 312.87 131.524 332.1 120.939 342.424C120.771 342.589 120.65 342.795 120.589 343.023C120.528 343.25 120.53 343.489 120.594 343.716C120.658 343.942 120.783 344.147 120.954 344.309C121.125 344.47 121.337 344.583 121.567 344.635C126.484 345.667 137.922 347.326 149.013 343.612C149.229 343.533 149.421 343.398 149.568 343.222C149.716 343.046 149.814 342.834 149.853 342.608C149.893 342.382 149.872 342.149 149.792 341.933C149.713 341.718 149.578 341.527 149.401 341.38C147.081 339.524 143.177 335.978 141.098 331.718C138.016 325.405 137.465 314.633 137.465 314.633L128.747 312.87Z" fill="url(#paint29_linear)"/>
    <g style="mix-blend-mode:multiply" opacity="0.3">
        <path style="mix-blend-mode:multiply" opacity="0.3" d="M62.0455 456.834C75.98 434.241 82.8343 413.213 86.2392 402.765C96.5089 371.251 92.2456 362.635 103.854 351.115C107.595 347.561 111.835 344.568 116.442 342.233C114.536 348.417 113.397 355.695 114.47 363.575C118.146 390.436 144.135 399.777 140.838 416.463C137.816 431.715 114.659 431.082 111.331 447.444C107.905 464.285 130.324 475.344 125.769 487.189C121.372 498.62 98.8348 492.614 76.484 506.278C73.1888 508.295 70.0899 510.614 67.2276 513.205C58.0815 511.386 42.8135 506.864 39.7578 496.571C36.8727 486.828 47.4915 480.432 62.0455 456.834Z" fill="url(#paint30_linear)"/>
    </g>
    <path d="M128.41 319.739C128.41 319.739 133.193 326.282 140.691 323.555C147.403 321.113 143.397 303.827 138.066 301.854C136.291 301.197 133.028 301.488 130.849 302.843C129.313 303.799 125.22 308.863 127.567 314.552C125.872 314.063 124.378 314.508 124.005 315.337C123.53 316.4 124.966 317.844 125.291 318.174C126.141 319.008 127.232 319.555 128.41 319.739V319.739Z" fill="url(#paint31_linear)"/>
    <path d="M211.67 372.525L204.094 369.678C202.606 372.374 192.685 389.73 174.114 392.365C156.605 394.851 140.16 383.009 132.521 371.397C125.276 360.387 126.746 350.798 119.962 348.71C113.137 346.616 104.679 354.167 100.657 359.351C91.1484 371.607 91.4818 389.892 97.3622 403.006C106.92 424.325 132.6 435.238 154.491 433.016C188.403 429.575 204.107 395.535 206.766 389.39C209.086 383.989 210.733 378.325 211.67 372.525V372.525Z" fill="url(#paint32_linear)"/>
    <path d="M90.2954 290.737C89.8208 290.747 89.3616 290.57 89.0175 290.244C88.6733 289.918 88.4722 289.47 88.4578 288.997V264.891C88.4578 264.421 88.6447 263.971 88.9774 263.639C89.3101 263.307 89.7615 263.12 90.2324 263.119H109.509C109.738 263.12 109.964 263.167 110.175 263.255C110.386 263.344 110.577 263.473 110.738 263.636C110.898 263.798 111.025 263.99 111.111 264.202C111.197 264.413 111.241 264.639 111.239 264.867C111.248 265.092 111.212 265.315 111.133 265.526C111.054 265.736 110.934 265.928 110.78 266.091C110.625 266.254 110.439 266.385 110.233 266.475C110.027 266.566 109.805 266.614 109.58 266.618L92.1435 266.657V288.939C92.126 289.418 91.9243 289.872 91.5803 290.207C91.2362 290.541 90.7761 290.731 90.2954 290.737V290.737Z" fill="url(#paint33_linear)"/>
    <path d="M109.509 361.416L90.2272 362.604C89.9986 362.621 89.769 362.591 89.553 362.514C89.3369 362.438 89.1391 362.318 88.9722 362.161C88.8052 362.005 88.6728 361.815 88.5834 361.605C88.4939 361.395 88.4494 361.168 88.4526 360.94V336.836C88.4728 336.355 88.6724 335.899 89.0123 335.557C89.3521 335.215 89.8078 335.011 90.2902 334.986C90.5231 334.973 90.7562 335.007 90.9758 335.085C91.1953 335.164 91.3968 335.286 91.5682 335.443C91.7396 335.601 91.8775 335.792 91.9736 336.003C92.0698 336.215 92.1222 336.444 92.1278 336.677V358.958L109.564 357.912C109.787 357.897 110.009 357.929 110.218 358.006C110.427 358.083 110.618 358.203 110.778 358.358C110.937 358.513 111.062 358.699 111.145 358.906C111.228 359.112 111.266 359.333 111.257 359.555C111.249 360.026 111.066 360.477 110.743 360.821C110.42 361.165 109.98 361.377 109.509 361.416V361.416Z" fill="url(#paint34_linear)"/>
    <path d="M178.197 289.235C177.32 289.251 176.685 288.513 176.685 287.586V266.472L160.545 266.506C160.101 266.498 159.677 266.316 159.367 266C159.056 265.684 158.882 265.258 158.883 264.815C158.874 264.6 158.908 264.386 158.982 264.184C159.057 263.983 159.17 263.798 159.317 263.64C159.463 263.482 159.639 263.355 159.835 263.266C160.031 263.176 160.243 263.127 160.459 263.119H178.11C178.541 263.134 178.948 263.318 179.243 263.632C179.538 263.945 179.697 264.362 179.685 264.791V287.536C179.704 288.46 179.076 289.222 178.197 289.235Z" fill="url(#paint35_linear)"/>
    <path d="M178.121 357.202L160.469 358.288C160.255 358.299 160.042 358.265 159.841 358.189C159.641 358.113 159.459 357.997 159.307 357.847C159.154 357.697 159.035 357.517 158.955 357.319C158.876 357.121 158.839 356.908 158.847 356.695C158.859 356.24 159.04 355.806 159.353 355.475C159.666 355.144 160.091 354.94 160.545 354.902L176.685 353.949V332.835C176.685 331.908 177.32 331.126 178.197 331.087C179.074 331.047 179.704 331.764 179.704 332.688V355.433C179.71 355.872 179.551 356.297 179.258 356.625C178.965 356.952 178.559 357.158 178.121 357.202V357.202Z" fill="url(#paint36_linear)"/>
    <path d="M445.775 343.047C395.666 343.047 358.824 301.231 363.56 250.78C368.199 201.346 411.194 161.857 459.487 161.857C507.78 161.857 544.805 201.346 541.957 250.78C539.056 301.223 495.885 343.047 445.775 343.047Z" fill="#AABBCC"/>
    <path d="M538.463 250.78C535.636 299.31 494.245 339.362 446.057 339.362C397.869 339.362 362.541 299.321 367.059 250.78C371.493 203.191 412.738 165.283 459.23 165.283C505.722 165.283 541.23 203.191 538.463 250.78Z" fill="#EAEDF3"/>
    <path d="M448.157 188.881C431.836 188.41 415.604 196.881 407.676 208.71C398.079 223.044 408.642 230.236 401.15 253.776C394.186 275.663 381.986 279.423 382.651 293.919C383.388 309.883 398.843 320.09 404.965 324.115C432.613 342.34 478.207 341.576 502.847 318.095C504.892 316.146 521.73 300.08 518.372 285.382C515.385 272.313 499.109 272.221 496.636 258.714C494.515 247.137 505.824 243.407 505.861 226.75C505.861 223.505 505.897 208.195 494.152 201.152C486.348 196.473 477.325 197.813 474.007 198.467C470.279 195.536 461.183 189.258 448.157 188.881Z" fill="url(#paint37_linear)"/>
    <path d="M353.614 310.213C353.614 310.213 442.04 263.425 542.918 310.059C542.918 310.059 527.217 350.728 446.836 353.528C363.658 356.425 353.614 310.213 353.614 310.213Z" fill="url(#paint38_linear)"/>
    <path d="M439.864 249.474L434.984 271.575C433.309 279.164 427.279 285.524 419.388 287.992L392.944 296.251C392.944 296.251 440.489 318.951 504.388 296.251L476.729 286.853C468.909 283.975 463.968 276.767 464.215 268.597L464.788 249.754L439.864 249.474Z" fill="url(#paint39_linear)"/>
    <path d="M479.203 230.581C477.89 249.071 464.599 269 449.853 268.887C435.018 268.772 424.575 248.437 426.098 229.746C427.607 211.197 440.345 201.37 454.959 201.684C469.49 201.998 480.5 212.244 479.203 230.581Z" fill="url(#paint40_linear)"/>
    <path d="M465.714 213.743C457.776 213.976 445.65 215.544 436.687 223.607C421.569 237.216 426.449 259.322 420.07 260.576C414.386 261.69 407.067 245.865 408.666 228.713C409.994 214.439 416.592 197.832 430.4 193.937C438.496 191.658 440.504 195.699 465.803 198.606C480.549 200.299 474.278 206.421 477.454 208.813C491.596 219.477 487.351 253.894 479.247 254.25C475.406 254.42 470.768 245.31 465.714 213.743Z" fill="url(#paint41_linear)"/>
</svg>
