<svg width="440" height="444" viewBox="0 0 440 444" fill="none" xmlns="http://www.w3.org/2000/svg">
    <g clip-path="url(#clip0_1033:9176)">
        <path
            d="M165.1 16.1C165.6 12.4 160.3 9.29999 156.4 8.99999C154.5 8.79999 152.5 9.09999 150.8 8.49999C146.9 7.09999 145.4 2.09999 141.6 0.499989C138.8 -0.700011 135.5 0.399989 132.8 1.69999C130.1 3.09999 127.3 4.79999 124.3 4.99999C121.6 5.19999 118.7 4.19999 116.4 5.49999C114.7 6.49999 113.8 8.49999 112.2 9.69999C110.6 10.9 108.6 11.1 106.6 11.2C104.7 11.3 102.6 11.3 100.9 12.1C99.1 12.9 97.7 14.8 98 16.7L165.1 16.1Z"
            fill="#F5F5F5" />
        <path
            d="M430.6 236.8C431.5 230.6 422.7 225.5 416.1 224.9C413 224.6 409.7 225.1 406.7 224.1C400.3 221.9 397.7 213.5 391.4 210.9C386.7 208.9 381.3 210.7 376.7 213C372.1 215.3 367.6 218.2 362.5 218.5C358.1 218.8 353.3 217.1 349.4 219.3C346.5 220.9 345 224.2 342.3 226.2C339.7 228.1 336.3 228.5 333.1 228.7C329.9 228.9 326.5 228.9 323.6 230.3C320.7 231.6 318.2 234.8 318.8 237.9L430.6 236.8Z"
            fill="#EBEBEB" />
        <path
            d="M97.2001 85.2C97.9001 80.4 91.1001 76.5 86.1001 76.1C83.7001 75.9 81.2001 76.3 78.9001 75.5C74.0001 73.8 72.0001 67.5 67.2001 65.4C63.6001 63.9 59.5001 65.2 56.0001 67C52.5001 68.8 49.1001 71 45.2001 71.2C41.8001 71.4 38.1001 70.2 35.2001 71.8C33.0001 73 31.8001 75.6 29.8001 77.1C27.8001 78.6 25.2001 78.9 22.7001 79C20.2001 79.1 17.7001 79.2 15.4001 80.2C13.1001 81.2 11.3001 83.6 11.8001 86L97.2001 85.2Z"
            fill="#F5F5F5" />
        <path d="M362.7 344.1L340.4 440.7H349.8L372.1 345L362.7 344.1Z" fill="#E0E0E0" />
        <path d="M403.3 344.1L425.6 440.7H434.5L412.9 344.1H403.3Z" fill="#E0E0E0" />
        <path d="M347.7 271.5L360.3 338H374.7L361.2 271.5H347.7Z" fill="#E0E0E0" />
        <path d="M127 344.1L108.9 440.7H118.1L137.1 344.1H127Z" fill="#E0E0E0" />
        <path d="M165.2 344.1L185.9 440.2H195.1L175 344.1H165.2Z" fill="#E0E0E0" />
        <path d="M112 271.5L124.7 338H139.1L125.5 271.5H112Z" fill="#E0E0E0" />
        <path d="M83.5 265.5L86.1 277.6H375.1L371.8 265.5H83.5Z" fill="#EBEBEB" />
        <path d="M89 289L92.1 301.1H379.2L376.6 289H89Z" fill="#EBEBEB" />
        <path d="M94.7 313.3L97.6 325.4H383.8L381.1 313.3H94.7Z" fill="#EBEBEB" />
        <path d="M425.2 338H116.6V350.1H425.2V338Z" fill="#EBEBEB" />
        <path
            d="M300.2 188.3C295.3 188.3 290.9 185.8 288.4 181.5C285.9 177.2 285.9 172.2 288.4 167.9L327.4 99.9C329.8 95.6 334.2 93.1 339.2 93.1C344.1 93.1 348.5 95.6 351 99.9L390.4 167.7C392.9 172 392.9 177 390.4 181.3C388 185.6 383.6 188.1 378.6 188.1L300.2 188.3ZM339.2 97.2C335.7 97.2 332.6 99 330.9 102L291.9 170C290.2 173 290.2 176.6 291.9 179.5C293.6 182.5 296.7 184.2 300.1 184.2L378.5 184C381.9 184 385 182.2 386.7 179.2C388.4 176.2 388.4 172.6 386.7 169.7L347.3 101.9C345.7 98.9 342.6 97.2 339.2 97.2Z"
            fill="#EBEBEB" />
        <path
            d="M331.5 126.6L333.3 152C333.4 154.1 335.1 155.7 337.2 155.8C339.4 155.9 341.3 154.3 341.5 152.1L344.1 126.6C344.3 124.7 342.8 123 340.8 123L334.6 123.1C332.8 123.2 331.4 124.7 331.5 126.6Z"
            fill="#EBEBEB" />
        <path
            d="M344.1 170C343.1 173.3 339.6 175 336.3 174C333 173 331.3 169.5 332.3 166.2C333.3 162.9 336.8 161.2 340.1 162.2C343.4 163.2 345.1 166.7 344.1 170Z"
            fill="#EBEBEB" />
        <path
            d="M439.6 440.6C439.6 440.7 341.2 440.9 219.8 440.9C98.4 440.8 0 440.7 0 440.6C0 440.5 98.4 440.3 219.8 440.3C341.2 440.3 439.6 440.4 439.6 440.6Z"
            fill="#263238" />
        <path
            d="M287.3 333.3L186.3 333.2C174.2 333.2 164.3 322.8 164.3 310.1V44.1C164.3 31.3 174.2 21 186.3 21L287.3 21.1C299.4 21.1 309.3 31.5 309.3 44.2V310.2C309.3 322.9 299.5 333.3 287.3 333.3Z"
            fill="#263238" />
        <path
            d="M287.3 30.5H267.7C265.1 30.5 262.9 32.8 262.9 35.7V39.4C262.9 42.3 260.8 44.6 258.1 44.6H219.9C217.3 44.6 215.1 42.3 215.1 39.4V35.7C215.1 32.8 213 30.5 210.3 30.5H203.4H186.3C177.8 30.5 170.9 37.7 170.9 46.7V306.3C170.9 315.2 177.8 322.5 186.3 322.5L287.1 322.6C295.6 322.6 302.5 315.4 302.5 306.4V46.8C302.7 37.7 295.8 30.5 287.3 30.5Z"
            fill="white" />
        <path
            d="M198.6 298V304.4C198.6 305 198 305.3 197.5 305L192.5 301.8C192.1 301.5 192.1 300.9 192.5 300.6L197.5 297.4C198 297.1 198.6 297.4 198.6 298Z"
            fill="#E0E0E0" />
        <path
            d="M239.7 301.1C239.7 303.5 237.7 305.5 235.3 305.5C232.9 305.5 230.9 303.5 230.9 301.1C230.9 298.7 232.9 296.7 235.3 296.7C237.7 296.7 239.7 298.7 239.7 301.1Z"
            fill="#E0E0E0" />
        <path
            d="M277.3 305.4H273C272 305.4 271.1 304.6 271.1 303.5V299.1C271.1 298.1 271.9 297.2 273 297.2H277.3C278.3 297.2 279.2 298 279.2 299.1V303.5C279.2 304.5 278.4 305.4 277.3 305.4Z"
            fill="#E0E0E0" />
        <path
            d="M285.571 156.875C292.014 130.193 275.605 103.34 248.923 96.8975C222.24 90.4553 195.387 106.864 188.945 133.546C182.503 160.229 198.911 187.082 225.594 193.524C252.276 199.966 279.129 183.558 285.571 156.875Z"
            fill="#F5F5F5" />
        <path
            d="M239.5 167.1C239.5 169.4 237.6 171.2 235.4 171.2C233.1 171.2 231.3 169.3 231.3 167.1C231.3 164.8 233.2 163 235.4 163C237.7 163 239.5 164.8 239.5 167.1Z"
            fill="#455A64" />
        <path
            d="M227.2 161.8C231.7 157.1 239 156.9 243.7 161.6C245.8 163.7 249.1 160.5 247 158.3C240.6 151.9 230.2 151.9 224 158.5C221.8 160.7 225.1 164 227.2 161.8Z"
            fill="#455A64" />
        <path
            d="M213.2 142.7C219.5 137.3 226.9 133.9 235.3 133.9C243.6 133.9 251.7 136.8 257.8 142.5C260 144.5 263.3 141.3 261.1 139.2C254.2 132.7 244.8 129.2 235.3 129.2C225.7 129.2 217.1 133.2 210 139.4C207.7 141.3 211 144.6 213.2 142.7Z"
            fill="#455A64" />
        <path
            d="M218.7 153.3C222.9 148.8 228.8 145.9 235 145.8C241.4 145.7 247.5 148.3 252 152.8C254.1 154.9 257.4 151.7 255.3 149.5C250.1 144.1 242.6 140.9 235.1 141.1C227.7 141.3 220.6 144.5 215.6 149.9C213.4 152.2 216.7 155.5 218.7 153.3Z"
            fill="#455A64" />
        <path
            d="M274.192 133.954C275.403 127.102 270.831 120.565 263.978 119.353C257.126 118.142 250.589 122.714 249.377 129.567C248.166 136.419 252.739 142.956 259.591 144.168C266.443 145.379 272.98 140.806 274.192 133.954Z"
            fill="#B570F7" />
        <path d="M266.955 128.224L265.188 126.456L257.197 134.447L258.965 136.214L266.955 128.224Z"
            fill="white" />
        <path d="M258.925 126.499L257.157 128.267L265.148 136.257L266.915 134.49L258.925 126.499Z"
            fill="white" />
        <path
            d="M233.9 58.3C234.5 57.9 235.2 57.6001 235.9 57.4001L236.3 55.4001L239.6 55.3L240.1 57.3C240.8 57.5 241.5 57.7 242.1 58.1L243.8 57L246.2 59.3L245.2 61C245.6 61.6 245.9 62.3 246.1 63L248.1 63.4001L248.2 66.7L246.2 67.2C246 67.9 245.8 68.6 245.4 69.2L246.5 70.9001L244.2 73.3001L242.5 72.3001C241.9 72.7001 241.2 73 240.5 73.2L240.1 75.2L236.8 75.3001L236.3 73.3001C235.6 73.1001 234.9 72.9 234.3 72.5L232.6 73.6L230.2 71.3001L231.2 69.6C230.8 69 230.5 68.3 230.3 67.6L228.3 67.2L228.2 63.9001L230.2 63.4001C230.4 62.7001 230.6 62.0001 231 61.4001L229.9 59.7001L232.2 57.3L233.9 58.3ZM235.7 62.7001C234.3 64.1 234.4 66.4001 235.8 67.8001C237.2 69.2001 239.5 69.1 240.9 67.7C242.3 66.3 242.2 64 240.8 62.6C239.3 61.2 237.1 61.3001 235.7 62.7001Z"
            fill="#E0E0E0" />
        <path
            d="M191.6 65.7001C190.5 65.7001 189.2 65.7001 187.9 65.7001C186.3 65.7001 184.7 65.6001 183.6 65.7001C183.3 65.7001 183.1 65.5001 183.1 65.2001C183.1 64.9001 183.3 64.7001 183.6 64.7001C184.7 64.7001 186.3 64.7001 187.9 64.7001C189.5 64.7001 191.1 64.8001 192.2 64.7001C192.5 64.7001 192.7 64.9001 192.7 65.2001C192.7 65.5001 192.5 65.7001 192.2 65.7001C192 65.7001 191.8 65.7001 191.6 65.7001Z"
            fill="#263238" />
        <path
            d="M186.7 69.1C186.6 69.1 186.4 69 186.3 68.9L183.3 65.5C183.1 65.3 183.1 65.0001 183.3 64.8001L186.3 61.7C186.5 61.5 186.8 61.5 187 61.7C187.2 61.9 187.2 62.2 187 62.4L184.3 65.2L187 68.3001C187.2 68.5001 187.2 68.8 187 69C186.9 69 186.8 69.1 186.7 69.1Z"
            fill="#263238" />
        <path
            d="M289.7 62.8C290.584 62.8 291.3 62.0836 291.3 61.2C291.3 60.3163 290.584 59.6 289.7 59.6C288.816 59.6 288.1 60.3163 288.1 61.2C288.1 62.0836 288.816 62.8 289.7 62.8Z"
            fill="#263238" />
        <path
            d="M291.3 66.1C291.3 67 290.6 67.7 289.7 67.7C288.8 67.7 288.1 67 288.1 66.1C288.1 65.2 288.8 64.5 289.7 64.5C290.6 64.6 291.3 65.3 291.3 66.1Z"
            fill="#263238" />
        <path
            d="M289.7 72.6C290.584 72.6 291.3 71.8837 291.3 71C291.3 70.1164 290.584 69.4 289.7 69.4C288.816 69.4 288.1 70.1164 288.1 71C288.1 71.8837 288.816 72.6 289.7 72.6Z"
            fill="#263238" />
        <path
            d="M203.6 213.6C203.6 213.7 200.4 213.9 196.5 213.9C192.6 213.9 189.4 213.8 189.4 213.6C189.4 213.5 192.6 213.3 196.5 213.3C200.4 213.3 203.6 213.4 203.6 213.6Z"
            fill="#263238" />
        <path
            d="M229 230.2C229 230.3 220.3 230.5 209.5 230.5C198.7 230.5 190 230.4 190 230.2C190 230.1 198.7 229.9 209.5 229.9C220.3 229.9 229 230 229 230.2Z"
            fill="#263238" />
        <path
            d="M229 246.7C229 246.8 220.3 247 209.5 247C198.7 247 190 246.9 190 246.7C190 246.5 198.7 246.4 209.5 246.4C220.3 246.4 229 246.5 229 246.7Z"
            fill="#263238" />
        <path
            d="M280.5 236.4H266.2C262.8 236.4 260 233.6 260 230.2C260 226.8 262.8 224 266.2 224H280.5C283.9 224 286.7 226.8 286.7 230.2C286.7 233.6 284 236.4 280.5 236.4Z"
            fill="#EBEBEB" />
        <path
            d="M271.4 230.2C271.4 233.1 269.1 235.4 266.2 235.4C263.3 235.4 261 233.1 261 230.2C261 227.3 263.3 225 266.2 225C269.1 225 271.4 227.3 271.4 230.2Z"
            fill="#E0E0E0" />
        <path
            d="M280.5 252.9H266.2C262.8 252.9 260 250.1 260 246.7C260 243.3 262.8 240.5 266.2 240.5H280.5C283.9 240.5 286.7 243.3 286.7 246.7C286.7 250.1 284 252.9 280.5 252.9Z"
            fill="#EBEBEB" />
        <path
            d="M266.2 251.9C269.072 251.9 271.4 249.572 271.4 246.7C271.4 243.828 269.072 241.5 266.2 241.5C263.328 241.5 261 243.828 261 246.7C261 249.572 263.328 251.9 266.2 251.9Z"
            fill="#E0E0E0" />
        <path
            d="M229 263.3C229 263.4 220.3 263.6 209.5 263.6C198.7 263.6 190 263.5 190 263.3C190 263.1 198.7 263 209.5 263C220.3 263 229 263.1 229 263.3Z"
            fill="#263238" />
        <path
            d="M280.5 271.4H266.2C262.8 271.4 260 268.6 260 265.2C260 261.8 262.8 259 266.2 259H280.5C283.9 259 286.7 261.8 286.7 265.2C286.7 268.6 284 271.4 280.5 271.4Z"
            fill="#EBEBEB" />
        <path
            d="M266.2 270.3C269.072 270.3 271.4 267.972 271.4 265.1C271.4 262.228 269.072 259.9 266.2 259.9C263.328 259.9 261 262.228 261 265.1C261 267.972 263.328 270.3 266.2 270.3Z"
            fill="#E0E0E0" />
        <path
            d="M399.523 47.969C400.958 39.082 394.917 30.7143 386.03 29.2794C377.143 27.8444 368.775 33.8855 367.34 42.7725C365.905 51.6596 371.946 60.0272 380.833 61.4621C389.72 62.8971 398.088 56.856 399.523 47.969Z"
            fill="#B570F7" />
        <path
            d="M381.1 81.7999C381 81.7999 380.9 78.7999 380.9 75.0999C380.9 71.3999 381 68.3999 381.1 68.3999C381.2 68.3999 381.3 71.3999 381.3 75.0999C381.2 78.7999 381.2 81.7999 381.1 81.7999Z"
            fill="#B570F7" />
        <path
            d="M371.7 64.5999C371.8 64.5999 370.2 67.4999 368.3 70.8999C366.3 74.2999 364.7 76.9999 364.6 76.9999C364.5 76.9999 366.1 74.0999 368 70.6999C369.9 67.2999 371.6 64.4999 371.7 64.5999Z"
            fill="#B570F7" />
        <path
            d="M362 58.6C362.1 58.7 360.4 60.1 358.2 61.8C356 63.5 354.2 64.9 354.2 64.8C354.1 64.7 355.8 63.3 358 61.6C360.2 59.8 362 58.5 362 58.6Z"
            fill="#B570F7" />
        <path
            d="M397.3 75.2C397.3 75.2 397.1 74.6 396.9 73.5C396.7 72.5 396.3 71.1 395.9 69.5C395.5 68 395.1 66.6 394.7 65.6C394.4 64.6 394.2 64 394.2 64C394.2 64 394.5 64.6 394.9 65.6C395.3 66.6 395.7 68 396.2 69.5C396.6 71.1 396.9 72.5 397.1 73.5C397.3 74.5 397.4 75.2 397.3 75.2Z"
            fill="#B570F7" />
        <path
            d="M413.9 63.5C413.8 63.6 411.7 61.8 409.1 59.5C406.5 57.2 404.4 55.3 404.5 55.3C404.6 55.2 406.7 57 409.3 59.3C411.9 61.5 413.9 63.4 413.9 63.5Z"
            fill="#B570F7" />
        <path
            d="M420.2 47.3C420.2 47.3 419.4 47.2 418.2 47C417 46.8 415.3 46.5 413.5 46.3C411.6 46.1 410 46 408.7 45.9C407.5 45.8 406.7 45.8 406.7 45.7C406.7 45.7 407.5 45.6 408.7 45.6C409.9 45.6 411.6 45.7 413.5 45.9C415.4 46.1 417 46.4 418.2 46.7C419.5 47.1 420.2 47.3 420.2 47.3Z"
            fill="#B570F7" />
        <path
            d="M420.2 31.4999C420.2 31.5999 416.7 32.4999 412.3 33.5999C407.9 34.6999 404.4 35.4999 404.3 35.3999C404.3 35.2999 407.8 34.3999 412.2 33.2999C416.6 32.1999 420.2 31.3999 420.2 31.4999Z"
            fill="#B570F7" />
        <path
            d="M401.8 13C401.9 13.1 400.2 15.7 398 19C395.8 22.3 394 24.9 393.9 24.8C393.8 24.7 395.5 22.1 397.7 18.8C399.9 15.6 401.7 13 401.8 13Z"
            fill="#B570F7" />
        <path
            d="M383.5 9.19995C383.5 9.19995 383.5 10.1 383.5 11.4C383.5 12.8 383.5 14.7 383.5 16.8C383.5 18.9 383.5 20.8 383.6 22.2C383.6 23.6 383.6 24.4 383.6 24.4C383.6 24.4 383.5 23.6 383.4 22.2C383.3 20.8 383.2 18.9 383.2 16.8C383.2 14.7 383.3 12.8 383.3 11.4C383.4 9.99995 383.5 9.19995 383.5 9.19995Z"
            fill="#B570F7" />
        <path
            d="M369.7 26.3999C369.6 26.3999 367.9 23.7999 365.9 20.4999C363.9 17.1999 362.3 14.3999 362.4 14.3999C362.5 14.3999 364.2 16.9999 366.2 20.2999C368.2 23.5999 369.8 26.2999 369.7 26.3999Z"
            fill="#B570F7" />
        <path
            d="M361.4 33.4C361.4 33.4 360.7 33.3 359.7 33.1C358.6 32.9 357.2 32.5 355.6 32.1C354 31.6 352.6 31.1 351.6 30.8C350.6 30.4 350 30.1 350 30.1C350 30.1 350.7 30.3 351.7 30.6C352.7 30.9 354.1 31.4 355.7 31.8C357.3 32.3 358.7 32.7 359.8 32.9C360.8 33.2 361.4 33.4 361.4 33.4Z"
            fill="#B570F7" />
        <path
            d="M357.8 45.8999C357.8 45.9999 355.5 46.2999 352.6 46.5999C349.7 46.8999 347.4 46.9999 347.4 46.8999C347.4 46.7999 349.7 46.4999 352.6 46.1999C355.4 45.9999 357.8 45.8999 357.8 45.8999Z"
            fill="#B570F7" />
        <path
            d="M346.7 336.4C351.6 371 356.4 405.6 361.3 440.3L365.1 440.4C362.6 405.2 360.1 369.2 346.7 336.4Z"
            fill="#455A64" />
        <path
            d="M387.2 331.6C377 342.8 372.9 358.1 370.3 373C366.6 394.1 366.3 419 367.4 440.5L372.7 440.6C370.6 403.6 375.6 366.7 387.2 331.6Z"
            fill="#455A64" />
        <path
            d="M349.4 397.9C348.2 392.8 346.9 387.5 344 383.1C340 377.2 333.6 373.4 327.1 370.5C320.6 367.6 313.8 365.3 307.9 361.2C314.5 372 329.3 374.8 336.9 384.9C340.7 389.9 342.2 396.2 343.7 402.3C346.9 415.6 348.9 427.1 352.1 440.3H356.4C354.9 425.9 352.6 412 349.4 397.9Z"
            fill="#455A64" />
        <path
            d="M376.6 440.4C376.6 440.4 380.3 399.1 383 391.6C385.7 384 411.3 363.1 411.1 364.1C410.9 365.1 391.9 388 389.2 392.7C386.5 397.4 381.8 440.5 381.8 440.5H376.6V440.4Z"
            fill="#455A64" />
        <path
            d="M255.6 397.3C257.6 398 259.2 399.8 260.1 401.8C261 403.8 261.2 406 261.1 408.2C260.9 412.4 258.8 416.8 256.5 420.3C252.8 417.5 251.6 412.2 251.2 409.4C250.5 405.1 251.9 396.9 255.6 397.3Z"
            fill="#B570F7" />
        <path
            d="M261 426.8C260.3 424.5 261.1 421.8 262.8 420.1C264.5 418.4 267 417.5 269.4 417.6C270.5 417.6 271.8 417.9 272.5 418.7C273.2 419.5 273.2 420.7 272.7 421.7C272.3 422.7 271.5 423.4 270.6 424C267.7 426.1 264.5 427.6 261 426.8Z"
            fill="#B570F7" />
        <path
            d="M257.3 439.9C257.3 439.9 257.3 439.6 257.4 439C257.5 438.4 257.6 437.6 257.7 436.7C258 434.7 258.3 431.9 259.6 429.1C260.9 426.3 262.9 424.2 264.5 423.1C265.3 422.5 266.1 422.2 266.6 422C266.9 421.9 267.1 421.8 267.2 421.8C267.3 421.8 267.4 421.7 267.4 421.8C267.4 421.9 266.2 422.2 264.6 423.3C263 424.4 261.1 426.5 259.8 429.2C258.5 431.9 258.1 434.7 257.8 436.7C257.7 437.7 257.5 438.5 257.4 439C257.4 439.6 257.3 439.9 257.3 439.9Z"
            fill="#263238" />
        <path
            d="M255.1 403.6C255.1 403.6 255.1 403.7 255.2 404C255.2 404.3 255.3 404.6 255.3 405.1C255.4 406 255.6 407.4 255.7 409C256 412.3 256.4 416.9 256.7 422.1C257 427.2 257.2 431.8 257.3 435.2C257.3 436.9 257.4 438.2 257.4 439.2C257.4 439.6 257.4 440 257.4 440.3C257.4 440.5 257.4 440.7 257.4 440.7C257.4 440.7 257.4 440.6 257.4 440.3C257.4 440 257.4 439.7 257.3 439.2C257.3 438.2 257.2 436.9 257.1 435.2C257 431.9 256.8 427.2 256.4 422.1C256.1 417 255.7 412.4 255.5 409C255.4 407.4 255.3 406 255.2 405C255.2 404.6 255.1 404.2 255.1 403.9C255.1 403.7 255.1 403.6 255.1 403.6Z"
            fill="#263238" />
        <path
            d="M255.1 429.8C254 424.8 250.3 420.5 245.5 418.6C244.3 418.1 242.7 417.8 241.8 418.8C240.9 419.7 241.2 421.3 241.8 422.5C244.1 427.4 249.6 430.6 255 430.2"
            fill="#B570F7" />
        <path
            d="M246.3 422.4C246.3 422.4 246.6 422.5 247.1 422.7C247.3 422.8 247.6 422.9 248 423.1C248.3 423.3 248.7 423.4 249.1 423.7C249.5 423.9 249.9 424.2 250.4 424.5C250.9 424.8 251.3 425.2 251.8 425.6C252.7 426.4 253.7 427.4 254.5 428.6C255.3 429.8 255.9 431 256.4 432.2C256.6 432.8 256.8 433.3 256.9 433.9C257.1 434.4 257.1 434.9 257.2 435.4C257.3 435.9 257.3 436.3 257.3 436.7C257.3 437.1 257.3 437.4 257.3 437.7C257.3 438.2 257.3 438.5 257.3 438.5C257.2 438.5 257.3 437.3 257 435.5C256.9 435 256.8 434.5 256.7 434C256.6 433.5 256.4 432.9 256.2 432.3C255.7 431.2 255.1 430 254.3 428.8C253.5 427.6 252.6 426.6 251.7 425.8C251.2 425.4 250.8 425 250.4 424.7C250 424.4 249.5 424.1 249.2 423.8C247.4 422.9 246.3 422.5 246.3 422.4Z"
            fill="#263238" />
        <path
            d="M79.8999 385.5L51.7999 408.6L80.2999 443.7C83.4999 440.8 75.4999 417.1 75.4999 417.1L94.0999 403.1L79.8999 385.5Z"
            fill="#455A64" />
        <g opacity="0.6">
            <g opacity="0.6">
                <g opacity="0.6">
                    <g opacity="0.6">
                        <g opacity="0.6">
                            <g opacity="0.6">
                                <g opacity="0.6">
                                    <g opacity="0.6">
                                        <g opacity="0.6">
                                            <path opacity="0.6"
                                                d="M68.2 405C67.5 404.5 66.3 404.6 65.8 405.3C65.2 406 65.4 407.2 66.1 407.7C66.8 408.2 68.2 408.1 68.7 407.3C69.2 406.5 68.9 405.2 68.1 404.8"
                                                fill="white" />
                                        </g>
                                    </g>
                                </g>
                            </g>
                        </g>
                    </g>
                </g>
            </g>
        </g>
        <g opacity="0.6">
            <g opacity="0.6">
                <g opacity="0.6">
                    <g opacity="0.6">
                        <g opacity="0.6">
                            <g opacity="0.6">
                                <g opacity="0.6">
                                    <g opacity="0.6">
                                        <path opacity="0.6"
                                            d="M51.8999 408.5L54.6999 406.2L80.7999 441C80.7999 441 81.3999 443.1 80.0999 443.8L51.8999 408.5Z"
                                            fill="white" />
                                    </g>
                                </g>
                            </g>
                        </g>
                    </g>
                </g>
            </g>
        </g>
        <path
            d="M76.1 417.6C75.9 417.7 75.1 416.9 73.9 416.5C72.7 416.1 71.6 416.2 71.5 416C71.4 415.8 72.6 415.2 74.1 415.7C75.6 416.3 76.3 417.5 76.1 417.6Z"
            fill="#263238" />
        <path
            d="M77.5999 422.5C77.4999 422.7 76.5999 422.2 75.3999 422.2C74.1999 422.2 73.2999 422.7 73.1999 422.5C72.9999 422.4 73.9999 421.4 75.3999 421.4C76.7999 421.4 77.6999 422.3 77.5999 422.5Z"
            fill="#263238" />
        <path
            d="M74.7999 428.2C74.5999 428.1 75.2999 427.1 76.5999 426.8C77.8999 426.5 78.8999 427 78.7999 427.2C78.6999 427.4 77.7999 427.3 76.6999 427.6C75.7999 427.8 74.9999 428.3 74.7999 428.2Z"
            fill="#263238" />
        <path
            d="M79.9999 413.9C79.7999 414 79.3999 413 78.4999 412.1C77.6999 411.2 76.6999 410.7 76.7999 410.5C76.7999 410.3 78.0999 410.5 79.0999 411.6C80.0999 412.6 80.1999 413.9 79.9999 413.9Z"
            fill="#263238" />
        <path
            d="M83.4999 409.7C83.3999 409.8 82.7999 409.2 82.0999 407.9C81.7999 407.3 81.3999 406.5 81.1999 405.6C81.0999 405.1 80.9999 404.7 80.8999 404.2C80.8999 404 80.7999 403.7 80.8999 403.3C80.8999 403 81.2999 402.5 81.6999 402.5C82.0999 402.5 82.4999 402.7 82.6999 402.9C82.8999 403.2 82.9999 403.4 83.0999 403.6C83.2999 404.1 83.4999 404.5 83.5999 405C83.7999 405.9 83.8999 406.8 83.8999 407.5C83.7999 408.9 83.3999 409.7 83.2999 409.7C83.1999 409.7 83.3999 408.8 83.2999 407.5C83.2999 406.8 83.1999 406 82.8999 405.2C82.7999 404.8 82.5999 404.4 82.3999 403.9C82.1999 403.4 81.8999 403.1 81.6999 403.2C81.5999 403.2 81.5999 403.2 81.4999 403.4C81.4999 403.6 81.4999 403.8 81.4999 404C81.4999 404.5 81.5999 404.9 81.6999 405.4C81.8999 406.3 82.1999 407 82.3999 407.6C83.0999 408.9 83.5999 409.6 83.4999 409.7Z"
            fill="#263238" />
        <path
            d="M82.9999 409.6C82.8999 409.6 83.2999 408.7 84.2999 407.8C84.7999 407.3 85.4999 406.8 86.3999 406.5C86.7999 406.3 87.2999 406.2 87.7999 406.1C88.2999 406 88.9999 405.9 89.5999 406.5C89.8999 406.8 89.8999 407.3 89.6999 407.6C89.5999 407.9 89.3999 408.1 89.1999 408.3C88.7999 408.7 88.3999 409 87.9999 409.3C87.1999 409.8 86.2999 410 85.5999 410C84.0999 410.1 83.2999 409.5 83.3999 409.4C83.3999 409.3 84.2999 409.6 85.5999 409.4C86.1999 409.3 86.9999 409.1 87.6999 408.6C88.0999 408.4 88.3999 408.1 88.6999 407.7C88.9999 407.3 89.1999 407 89.0999 406.8C88.9999 406.6 88.3999 406.6 87.9999 406.7C87.4999 406.8 87.0999 406.9 86.6999 407C85.8999 407.3 85.1999 407.7 84.6999 408.1C83.5999 409 83.0999 409.7 82.9999 409.6Z"
            fill="#263238" />
        <path d="M67.1 404.3L67.4 440.7L112.7 440.5C112.4 436.2 89 427.6 89 427.6L89.7 404.3H67.1Z"
            fill="#455A64" />
        <g opacity="0.6">
            <g opacity="0.6">
                <g opacity="0.6">
                    <g opacity="0.6">
                        <g opacity="0.6">
                            <g opacity="0.6">
                                <g opacity="0.6">
                                    <g opacity="0.6">
                                        <g opacity="0.6">
                                            <path opacity="0.6"
                                                d="M74.9999 425.7C74.0999 425.9 73.4999 426.9 73.6999 427.8C73.8999 428.7 74.8999 429.3 75.7999 429.1C76.6999 428.9 77.3999 427.7 77.0999 426.9C76.7999 426 75.5999 425.4 74.7999 425.8"
                                                fill="white" />
                                        </g>
                                    </g>
                                </g>
                            </g>
                        </g>
                    </g>
                </g>
            </g>
        </g>
        <g opacity="0.6">
            <g opacity="0.6">
                <g opacity="0.6">
                    <g opacity="0.6">
                        <g opacity="0.6">
                            <g opacity="0.6">
                                <g opacity="0.6">
                                    <g opacity="0.6">
                                        <path opacity="0.6"
                                            d="M67.4999 440.6L67.3999 436.9L110.9 438.4C110.9 438.4 112.9 439.3 112.7 440.7L67.4999 440.6Z"
                                            fill="white" />
                                    </g>
                                </g>
                            </g>
                        </g>
                    </g>
                </g>
            </g>
        </g>
        <path
            d="M89.7 427.4C89.7 427.6 88.6 427.7 87.5 428.4C86.4 429.1 85.8 430 85.6 430C85.4 430 85.7 428.6 87 427.8C88.4 426.9 89.8 427.2 89.7 427.4Z"
            fill="#263238" />
        <path
            d="M94.4999 429.3C94.5999 429.5 93.6 429.9 92.8 430.8C91.9999 431.7 91.7999 432.7 91.5999 432.7C91.3999 432.7 91.1999 431.4 92.1999 430.3C93.1999 429.2 94.4999 429.1 94.4999 429.3Z"
            fill="#263238" />
        <path
            d="M97.1999 435C96.9999 435 96.6999 433.9 97.1999 432.7C97.7999 431.5 98.7999 431 98.8999 431.2C98.9999 431.4 98.3999 432 97.8999 433C97.4999 434.1 97.3999 435 97.1999 435Z"
            fill="#263238" />
        <path
            d="M89.3 422.1C89.2 422.3 88.2 422 86.9 422.1C85.6 422.2 84.7 422.6 84.6 422.4C84.5 422.2 85.4 421.4 86.9 421.3C88.4 421.2 89.4 421.9 89.3 422.1Z"
            fill="#263238" />
        <path
            d="M88.1999 416.7C88.1999 416.8 87.2999 416.9 85.8999 416.7C85.1999 416.6 84.3999 416.4 83.4999 416C83.0999 415.8 82.5999 415.6 82.1999 415.3C81.9999 415.2 81.6999 415 81.4999 414.8C81.2999 414.6 81.0999 414 81.3999 413.6C81.5999 413.3 81.9999 413.1 82.3999 413.1C82.6999 413.1 82.9999 413.2 83.2999 413.2C83.7999 413.3 84.2999 413.5 84.6999 413.7C85.5999 414.1 86.2999 414.6 86.7999 415.1C87.8999 416.1 88.1999 416.9 88.0999 416.9C87.9999 417 87.4999 416.3 86.3999 415.5C85.8999 415.1 85.1999 414.7 84.3999 414.4C83.9999 414.2 83.5999 414.1 83.0999 414C82.5999 413.9 82.1999 413.9 82.0999 414.1C82.0999 414.2 82.0999 414.2 82.1999 414.4C82.2999 414.5 82.4999 414.7 82.6999 414.8C83.0999 415.1 83.4999 415.3 83.8999 415.5C84.6999 415.9 85.3999 416.2 86.0999 416.3C87.3999 416.5 88.1999 416.6 88.1999 416.7Z"
            fill="#263238" />
        <path
            d="M87.8999 417C87.7999 417 87.3999 416.2 87.2999 414.8C87.2999 414.1 87.2999 413.2 87.5999 412.3C87.6999 411.8 87.8999 411.4 88.1999 410.9C88.4999 410.5 88.7999 409.9 89.5999 409.7C89.9999 409.7 90.3999 410 90.4999 410.3C90.6999 410.6 90.6999 410.9 90.6999 411.1C90.7999 411.6 90.7999 412.1 90.6999 412.6C90.5999 413.6 90.1999 414.4 89.6999 414.9C88.7999 416.1 87.8999 416.3 87.8999 416.3C87.7999 416.2 88.5999 415.8 89.2999 414.6C89.5999 414 89.8999 413.3 89.9999 412.5C89.9999 412.1 89.9999 411.6 89.9999 411.2C89.8999 410.7 89.6999 410.3 89.5999 410.4C89.3999 410.4 88.9999 410.8 88.7999 411.1C88.5999 411.5 88.3999 411.9 88.1999 412.3C87.8999 413.1 87.7999 413.9 87.7999 414.6C87.7999 416.2 87.9999 417 87.8999 417Z"
            fill="#263238" />
        <path
            d="M70.9999 193.6C70.9999 193.6 64.6999 200.4 61.4999 206.9C58.3999 213.4 56.3999 228.9 56.3999 228.9C56.3999 228.9 47.5999 248.4 48.9999 258.4C50.2999 268.4 59.2999 336.6 59.2999 336.6C59.2999 336.6 58.8999 403 65.1999 414.8L66.5999 421.2L92.0999 416.7L91.8999 412.9L97.8999 282.8L113.3 194.2L70.9999 193.6Z"
            fill="#263238" />
        <path
            d="M127.3 213C127.3 213 142.6 297 143.9 311.6C145.2 326.2 93.3 403 93.3 403L69.6 378.3L103.7 314.9L92.6 251.1L108 194.7L124.2 195.3L127.3 213Z"
            fill="#263238" />
        <path
            d="M61.2 394.2C61.2 394.2 61.2 394.8 61.4 396.1C61.6 397.3 61.8999 399.1 62.2999 401.4C63.0999 406 64.5 412.7 66.4 421.1V421.3H66.5999C73.7999 420 82.4999 418.5 92.0999 416.8H92.3V416.6C93 399.1 93.9 378.2 94.8 355.7C95.7 331.5 96.6 309.2 97.3 290.8C99.2 276 100.8 263.8 101.9 255.3C102.4 251.1 102.9 247.7 103.1 245.4C103.2 244.3 103.3 243.4 103.4 242.8C103.5 242.2 103.5 241.9 103.5 241.9C103.5 241.9 103.4 242.2 103.3 242.8C103.2 243.4 103.1 244.3 102.9 245.4C102.6 247.7 102.1 251 101.5 255.3C100.3 263.8 98.6999 276 96.6999 290.8C95.9999 309.2 95 331.6 94.0999 355.7C93.1999 378.1 92.3999 399.1 91.6999 416.6L91.9 416.4C82.3 418.1 73.6 419.7 66.4 421L66.5999 421.1C64.6999 412.7 63.3 406.1 62.4 401.4C61.9 399.1 61.6 397.3 61.4 396.1C61.3 395.5 61.2 395 61.2 394.7C61.2 394.4 61.2 394.2 61.2 394.2Z"
            fill="#455A64" />
        <path
            d="M31.6 158.8C31.6 158.8 47.4 124.7 51.1 122.9C54.8 121.1 65.5 120.5 67 122.5L38.7 163.3L31.6 158.8Z"
            fill="#455A64" />
        <path
            d="M32.4 154.2C31.7 153.8 30.9 153.7 30.1 153.9C25.2 155.1 7.29997 159.9 5.29997 165C2.99997 170.9 17.2 247.7 19 249.8C20.8 251.9 49 248.4 49.9 245.1C50.8 241.8 40.7 159 40.7 159L32.4 154.2Z"
            fill="#455A64" />
        <path
            d="M10.1 206.6C10.1 206.6 8.49999 206.7 6.89999 210.2C5.29999 213.7 8.09999 242.4 10.2 245.3C12.3 248.2 18.5 248.8 18.5 248.8L10.1 206.6Z"
            fill="#455A64" />
        <path
            d="M41.6 246.8C41.6 246.8 41.5 246.7 41.5 246.6C41.4 246.4 41.3 246.2 41.1 246C40.8 245.5 40.3 244.7 39.8 243.6C38.8 241.5 37.5 238.3 36.6 234.3C35.6 230.2 34.9 225.3 34.4 219.8C33.8 214.3 33.2 208.3 32.5 202C31.1 189.4 30 177.9 29.8 169.6C29.7 165.4 29.8 162.1 29.9 159.7C30 158.5 30 157.6 30.1 157C30.1 156.7 30.2 156.5 30.2 156.3C30.2 156.1 30.2 156.1 30.2 156.1C30.2 156.1 30.2 156.2 30.2 156.3C30.2 156.5 30.2 156.7 30.2 157C30.2 157.7 30.1 158.6 30.1 159.7C30 162 30 165.4 30.2 169.6C30.5 177.9 31.7 189.4 33 202C33.7 208.3 34.3 214.3 34.9 219.8C35.5 225.3 36.1 230.2 37 234.2C37.9 238.3 39.1 241.4 40 243.5C40.5 244.6 40.9 245.4 41.2 245.9C41.3 246.1 41.4 246.3 41.5 246.5C41.5 246.7 41.6 246.7 41.6 246.8Z"
            fill="#263238" />
        <path
            d="M32.6 201.2C32.6 201.3 31.3 201.5 29.3 201.8C27.2 202.2 24.4 202.7 21.3 203.5C18.2 204.3 15.4 205.1 13.4 205.8C11.4 206.4 10.2 206.9 10.1 206.8C10.1 206.8 10.4 206.6 10.9 206.4C11.4 206.2 12.2 205.8 13.2 205.5C15.2 204.8 17.9 203.9 21.1 203.1C24.2 202.3 27.1 201.8 29.2 201.6C30.2 201.5 31.1 201.4 31.7 201.3C32.2 201.2 32.5 201.2 32.6 201.2Z"
            fill="#263238" />
        <path
            d="M9.69995 203.4C9.69995 203.4 9.79995 203.6 9.79995 203.9C9.89995 204.3 9.89995 204.7 9.99995 205.3C10.2 206.6 10.5 208.3 10.8 210.3C11.5 214.5 12.5 220.4 13.8 226.8C15.1 233.2 16.4 239 17.4 243.2C17.9 245.2 18.3 246.9 18.6 248.1C18.7 248.6 18.8 249.1 18.9 249.5C19 249.8 19 250 19 250C19 250 18.9 249.8 18.8 249.5C18.7 249.1 18.6 248.7 18.4 248.2C18.1 247 17.6 245.4 17.1 243.3C16 239.1 14.7 233.4 13.4 226.9C12.1 220.5 11.1 214.6 10.5 210.4C10.2 208.3 9.99995 206.5 9.79995 205.4C9.69995 204.9 9.69995 204.4 9.69995 204C9.69995 203.6 9.69995 203.4 9.69995 203.4Z"
            fill="#263238" />
        <path
            d="M29.8 168.8C29.7 168.8 29.8 168 30 166.7C30.2 165.4 30.5 163.6 31 161.7C31.5 159.8 32.1 158 32.6 156.8C33.1 155.6 33.5 154.8 33.5 154.9C33.6 155 32.5 158 31.5 161.9C30.5 165.6 30 168.8 29.8 168.8Z"
            fill="#263238" />
        <path
            d="M129 95.9C128.8 93 128.5 78.9 128.3 76.8C128.1 73.9 126.9 71 124.8 69.1C122.7 67.1 119.4 66.3 116.8 67.6C115.1 68 113.7 69.4 113.3 71.1C107.4 92.1 108.3 114.6 105.7 136.3C113.4 137.6 123.8 137 131.6 136.6C131.5 119.2 130 114.7 129 95.9Z"
            fill="#893976" />
        <path
            d="M125.7 125.6C125.7 125.6 125.7 125.4 125.6 125C125.6 124.6 125.6 124 125.5 123.4C125.5 121.9 125.4 119.9 125.3 117.5C125.2 112.4 125 105.5 124.9 97.9C124.8 94.1 124.8 90.4 124.7 87.1C124.7 85.4 124.7 83.9 124.6 82.4C124.6 80.9 124.6 79.6 124.3 78.3C123.9 75.8 122.5 74.2 121.3 73.5C120.1 72.8 119.2 72.9 119.3 72.9C119.3 72.9 119.3 72.9 119.4 72.9C119.5 72.9 119.6 72.9 119.8 72.9C120.2 72.9 120.7 73 121.4 73.4C122 73.7 122.7 74.3 123.3 75.1C123.9 75.9 124.4 77 124.6 78.3C124.9 79.5 124.9 80.9 124.9 82.4C124.9 83.9 125 85.5 125 87.1C125.1 90.4 125.1 94.1 125.2 97.9C125.3 105.5 125.4 112.4 125.5 117.5C125.5 120 125.5 122 125.5 123.4C125.5 124.1 125.5 124.6 125.5 125C125.7 125.4 125.7 125.6 125.7 125.6Z"
            fill="#682C5D" />
        <path
            d="M118.7 117.6C118.7 117.6 118.6 117.1 118.6 116.3C118.6 115.5 118.6 114.3 118.6 112.8C118.6 109.9 118.7 105.8 118.8 101.4C118.9 97 119 93 119.1 90C119.1 88.6 119.2 87.5 119.2 86.5C119.2 85.7 119.3 85.2 119.3 85.2C119.3 85.2 119.4 85.7 119.4 86.5C119.4 87.3 119.4 88.5 119.4 90C119.4 92.9 119.3 97 119.2 101.4C119.1 105.8 119 109.8 118.9 112.8C118.9 114.2 118.8 115.3 118.8 116.3C118.7 117.1 118.7 117.6 118.7 117.6Z"
            fill="#682C5D" />
        <path
            d="M67.7 123C66.7 123 47.8 124.3 43.5 144.5C39.1 164.7 37.9 193 37.9 193L58.4 191L67.7 123Z"
            fill="#FFC444" />
        <path
            d="M77 118.5L80.3 112.4L109.2 111.6L111.2 116.8L128.3 123L127 198.7L139.7 268.6C139.7 268.6 139.6 278.7 105.8 281.9L103.1 245.4L86.3 245L86.8 280.7C86.8 280.7 57.1 280.2 47.6 273.5C47.6 273.5 44.7 239.5 52.9 215C60 193.6 62.8 188 62.8 188L63.4 123.7L77 118.5Z"
            fill="#FFC444" />
        <g opacity="0.3">
            <g opacity="0.3">
                <path opacity="0.3"
                    d="M68 123.9C62.2 148.8 56.3 173.8 50.5 198.7L56.4 205C62.5 202.3 66.7 195.8 66.6 189.1C66.6 185.6 65.5 182.3 65.4 178.8C65.1 171 69.4 163.9 71.4 156.3C74.2 145.6 72.2 134.1 68 123.9Z"
                    fill="black" />
            </g>
        </g>
        <path
            d="M124.7 122C131.7 123.3 137.1 130.7 138.7 138.6C139.6 143.2 142.3 165.7 142.3 165.7L143.8 173.9C143.8 173.9 145 202.2 139.1 205.3C132.1 209 128.1 204.9 125.8 202C123.5 199 121 179.8 121 179.8L123.6 133.7L124.7 122Z"
            fill="#FFC444" />
        <path
            d="M128 133.4C128 133.4 128 133.7 127.9 134.2C127.8 134.8 127.7 135.5 127.6 136.5C127.3 138.6 126.8 141.4 126.3 145C125.7 148.6 125 152.8 124.3 157.6C123.9 160 123.5 162.4 123.1 165C122.7 167.6 122.2 170.2 121.9 173C121.8 174.6 121.8 176.2 121.9 177.7C124.1 187.4 126.1 196 127.6 202.1C128.4 205.1 129 207.6 129.4 209.3C129.6 210.1 129.8 210.8 129.9 211.2C130 211.6 130.1 211.9 130 211.9C130 211.9 129.9 211.7 129.8 211.2C129.6 210.7 129.4 210.1 129.2 209.3C128.7 207.6 128 205.2 127.2 202.1C125.6 196 123.5 187.4 121.3 177.7C121.2 176.2 121.2 174.5 121.3 172.9C121.5 170.1 122 167.5 122.5 164.9C122.9 162.3 123.3 159.9 123.7 157.5C124.5 152.8 125.2 148.5 125.8 145C126.4 141.5 126.9 138.6 127.3 136.5C127.5 135.5 127.6 134.8 127.7 134.2C127.9 133.6 128 133.3 128 133.4Z"
            fill="#263238" />
        <path
            d="M53.8 127.7L59.1 198.6C59.1 198.6 69.0001 153.4 69.4001 141.8C69.8001 130.2 67.4001 122.1 67.4001 122.1C67.4001 122.1 57.8 120.6 53.8 127.7Z"
            fill="#455A64" />
        <path
            d="M50.7001 123.2C50.7001 123.2 51.4001 123.4 52.5001 124.2C53.0001 124.6 53.5001 125.3 53.7001 126.1C54.0001 126.9 54.1001 127.8 54.2001 128.7C54.4001 130.6 54.4001 132.3 54.4001 133.5C54.4001 134.7 54.4001 135.5 54.3001 135.5C54.2001 135.5 54.1001 134.7 54.0001 133.5C53.9001 132.3 53.9001 130.6 53.7001 128.7C53.5001 126.9 53.1001 125.2 52.2001 124.4C51.4001 123.7 50.7001 123.3 50.7001 123.2Z"
            fill="#263238" />
        <path
            d="M87.5 125.8C87.5 125.8 87.3 125.6 86.9 125.2C86.5 124.8 86 124.1 85.4 123.3H85.7C85 125.4 83.9 128.4 82.6 131.8L82.4 132.3L82.1 131.9C82 131.7 81.8 131.4 81.6 131.2C80.7 129.6 80.1 128 79.5 126.5C79 125 78.5 123.7 78.2 122.5C77.8 121.4 77.5 120.5 77.3 119.8C77.1 119.2 76.9 118.8 77 118.8C77 118.8 77.2 119.1 77.5 119.7C77.8 120.3 78.2 121.2 78.6 122.3C79 123.5 79.5 124.8 80 126.2C80.6 127.7 81.2 129.3 82.1 130.8C82.2 131 82.4 131.2 82.5 131.5L82 131.6C83.3 128.2 84.4 125.2 85.2 123.1L85.3 122.8L85.5 123C86.9 124.7 87.6 125.7 87.5 125.8Z"
            fill="#263238" />
        <path
            d="M110.5 120.9C110.5 120.9 110.4 121.3 110.1 121.8C109.8 122.4 109.4 123.3 108.9 124.3C108.4 125.3 107.8 126.6 107.1 128C106.4 129.4 105.6 130.9 104.5 132.3L104.2 132.7L104.1 132.2C104.1 132.1 104.1 132 104 132C103.2 128.5 102.5 125.3 102 123L102.3 123.1C101.4 124 100.5 124.4 100 124.8C99.5001 125.2 99.2001 125.5 99.2001 125.4C99.2001 125.4 99.4001 125.1 99.9001 124.6C100.4 124.1 101.3 123.7 102 122.8L102.2 122.5L102.3 122.9C102.9 125.2 103.7 128.3 104.5 131.8C104.5 131.9 104.5 132 104.6 132L104.1 131.9C105.1 130.5 106 129 106.7 127.7C107.4 126.4 108.1 125.2 108.6 124.1C109.1 123.2 109.5 122.3 109.9 121.7C110.3 121.2 110.5 120.9 110.5 120.9Z"
            fill="#263238" />
        <path
            d="M88 125.5C88 125.5 85.2 162 84.5 166.7C83.8 171.4 86.3 245 86.3 245L102.7 246.1C102.7 246.1 102.9 185.3 102.7 184.9C102.5 184.5 102.8 142 102.8 142L99 125L92.6 132.5L88 125.5Z"
            fill="white" />
        <path
            d="M106.4 160.2C106.4 160.3 105.8 160.4 105.5 161.2C105.4 161.6 105.3 162.1 105.6 162.5C105.8 162.9 106.4 163.2 107 163C107.6 162.9 108.1 162.5 108.1 162C108.2 161.5 108 161 107.7 160.7C107.1 160.1 106.5 160.2 106.5 160.1C106.5 160.1 106.6 160 106.9 160C107.2 160 107.6 160.1 107.9 160.5C108.2 160.8 108.6 161.4 108.5 162.1C108.4 162.8 107.8 163.4 107 163.5C106.2 163.7 105.4 163.3 105.1 162.7C104.8 162.1 104.9 161.4 105.1 161C105.3 160.6 105.7 160.3 105.9 160.2C106.2 160.1 106.4 160.2 106.4 160.2Z"
            fill="#263238" />
        <path
            d="M106.4 192.1C106.4 192.2 105.8 192.3 105.5 193.1C105.4 193.5 105.3 194 105.6 194.4C105.8 194.8 106.4 195.1 107 194.9C107.6 194.8 108.1 194.4 108.1 193.9C108.2 193.4 108 192.9 107.7 192.6C107.1 192 106.5 192.1 106.5 192C106.5 192 106.6 191.9 106.9 191.9C107.2 191.9 107.6 192 107.9 192.4C108.2 192.7 108.6 193.3 108.5 194C108.4 194.7 107.8 195.3 107 195.4C106.2 195.6 105.4 195.2 105.1 194.6C104.8 194 104.9 193.3 105.1 192.9C105.3 192.5 105.7 192.2 105.9 192.1C106.2 192 106.4 192 106.4 192.1Z"
            fill="#263238" />
        <path
            d="M107.8 230.6C107.8 230.7 107.2 230.8 106.9 231.6C106.8 232 106.7 232.5 107 232.9C107.2 233.3 107.8 233.6 108.4 233.4C109 233.3 109.5 232.9 109.5 232.4C109.6 231.9 109.4 231.4 109.1 231.1C108.5 230.5 107.9 230.6 107.9 230.5C107.9 230.5 108 230.4 108.3 230.4C108.6 230.4 109 230.5 109.3 230.9C109.6 231.2 110 231.8 109.9 232.5C109.8 233.2 109.2 233.8 108.4 233.9C107.6 234.1 106.8 233.7 106.5 233.1C106.2 232.5 106.3 231.8 106.5 231.4C106.7 231 107.1 230.7 107.3 230.6C107.7 230.5 107.8 230.6 107.8 230.6Z"
            fill="#263238" />
        <g opacity="0.3">
            <g opacity="0.3">
                <path opacity="0.3"
                    d="M129.1 159.9C128.7 157 128 154.1 127.8 151.2C127.6 147.7 128.2 144.1 127.5 140.7C125.1 144.7 124.6 149.5 124.6 154.1C124.6 158.7 125 163.4 124.4 168C124 171.1 122.9 174.9 122.5 178.1C122.1 181.2 123 183 123.9 187.7C127.1 178.7 130.3 169.3 129.1 159.9Z"
                    fill="black" />
            </g>
        </g>
        <path d="M123.6 152.5C127.5 163.2 125.9 175.8 119.5 185.2L123.6 152.5Z" fill="#FFC444" />
        <path
            d="M119.5 185.2C119.4 185.1 120.5 183.6 121.8 180.8C122.5 179.4 123.1 177.7 123.7 175.8C124.3 173.9 124.8 171.7 125.1 169.4C125.4 167.1 125.4 164.8 125.4 162.8C125.3 160.8 125.1 159 124.8 157.4C124.2 154.4 123.5 152.6 123.6 152.5C123.6 152.5 123.8 152.9 124.1 153.7C124.3 154.1 124.4 154.6 124.6 155.2C124.8 155.8 125 156.5 125.1 157.2C125.5 158.7 125.7 160.6 125.9 162.6C126 164.7 126 166.9 125.7 169.3C125.4 171.7 124.9 173.9 124.3 175.8C123.7 177.8 122.9 179.5 122.2 180.8C121.9 181.5 121.5 182.1 121.2 182.6C120.9 183.1 120.6 183.6 120.4 183.9C119.8 184.8 119.5 185.2 119.5 185.2Z"
            fill="#263238" />
        <path
            d="M73.9001 200.7C73.9001 200.8 73.1001 200.2 72.0001 199.1C70.9001 198.1 69.4001 196.6 67.9001 194.8C66.4001 193 65.2001 191.3 64.4001 190C63.6001 188.7 63.2001 187.9 63.2001 187.8C63.3001 187.8 63.8001 188.5 64.7001 189.8C65.6001 191 66.8001 192.7 68.3001 194.5C69.8001 196.3 71.2001 197.8 72.3001 198.9C73.3001 200 74.0001 200.7 73.9001 200.7Z"
            fill="#263238" />
        <path
            d="M67.3 201.8C67.2 201.8 66.8 201.1 66.3 199.9C65.8 198.7 65.1 197 64.5 195.1C63.9 193.2 63.5 191.4 63.3 190.1C63.1 188.8 63 188 63.1 188C63.3 188 63.8 191.2 65 195C66.2 198.7 67.5 201.7 67.3 201.8Z"
            fill="#263238" />
        <path
            d="M99.5 182.7C99.4 182.8 98.9 182.4 97.9 182C96.9 181.6 95.5 181.3 93.9 181.4C92.3 181.5 90.9 182 90 182.6C89.1 183.1 88.6 183.6 88.5 183.5C88.5 183.5 88.9 182.9 89.8 182.3C90.7 181.7 92.2 181 93.9 180.9C95.6 180.8 97.1 181.2 98.1 181.7C99.1 182.2 99.5 182.7 99.5 182.7Z"
            fill="#263238" />
        <path
            d="M44 180.3C44 180.3 36.7 188.3 37.2 193.9C37.8 199.5 40.4 211.8 47.2 211.4C54.1 211 60.3 200 61.2 191.2C62.1 182.4 61.2 161.8 61.2 161.8L51.4 164L44 180.3Z"
            fill="#FFBE9D" />
        <path
            d="M29.4 129.1C34.5 135.6 47.1 151.2 47.1 151.2L58.9 148.2C59.8 148 60.4 147.3 60.5 146.4C60.6 145.8 60.4 145.2 60.1 144.8L43.5 123.8C42.2 122.2 40.1 121.6 38.1 122.3L30.5 125.1C28.9 125.8 28.3 127.8 29.4 129.1Z"
            fill="#263238" />
        <path
            d="M59.3 145.6C59.3 145.6 58.9 145.2 58.2 144.5C57.5 143.8 56.5 142.7 55.3 141.3C52.9 138.6 49.6 134.7 46.3 130.3C45.5 129.2 44.7 128.1 43.9 127C43.1 125.9 42.4 124.9 41.4 124.4C40.4 123.8 39.3 124.1 38.3 124.4C37.3 124.7 36.4 125.1 35.5 125.4C33.8 125.9 32.5 126.4 31.4 126.8C30.4 127.1 29.9 127.3 29.9 127.2C29.9 127.2 30.4 126.9 31.4 126.6C32.4 126.2 33.8 125.7 35.4 125.1C36.3 124.8 37.2 124.4 38.2 124.1C38.7 123.9 39.3 123.7 39.9 123.7C40.5 123.6 41.2 123.8 41.7 124.1C42.8 124.7 43.6 125.8 44.4 126.9C45.2 128 46 129 46.8 130.2C50.1 134.6 53.3 138.5 55.7 141.3C56.8 142.6 57.8 143.7 58.5 144.6C58.9 145.2 59.3 145.6 59.3 145.6Z"
            fill="#455A64" />
        <path
            d="M36.1 127C36.6 126.8 37.2 127 37.4 127.5C37.6 128 37.4 128.6 36.9 128.8C36.4 129 35.8 128.8 35.6 128.3C35.4 127.8 35.6 127.2 36.1 127Z"
            fill="white" />
        <path
            d="M46.3 141.1L40.8 142L38.8 143.8C38.2 144.3 37.9 145 38 145.8C38.1 146.5 38.4 147.5 39.2 148.5C40.5 150.1 41.6 150.9 41.6 150.9C41.6 150.9 39.7 154 42.7 155.6C42.7 155.6 42.5 158.8 45.6 159.2C45.6 159.2 46.5 162.3 48.9 162.4L51.3 164.8L50.6 166.3L61.5 166.6C61.5 166.6 61.6 160.6 61.1 157.9C60.6 155.3 60.2 154.5 60.2 154.5C60.8 151.4 58.5 150.2 58.1 150.4C58.1 150.4 63.3 149 62.6 145.5L57.6 146.8L48.5 148.7L54.3 144.8C54.6 144.5 54.9 144.2 55.1 143.9C55.6 143.1 56.3 141.7 55.7 140.8C55.4 140.4 48.2 143.5 48.2 143.5L43.8 147.6L42.4 145.6C42.4 145.5 47 144.6 46.3 141.1Z"
            fill="#FFBE9D" />
        <path
            d="M58.8 150.4C58.8 150.6 56.9 150.8 54.6 151.5C52.3 152.2 50.5 153 50.4 152.8C50.3 152.7 52.1 151.6 54.4 151C56.8 150.3 58.8 150.3 58.8 150.4Z"
            fill="#EB996E" />
        <path
            d="M56.3 159.8C56.2 159.7 57.2 159.2 58.1 157.9L58.3 157.7L58.4001 158C58.6001 158.3 58.9 158.7 59.3 158.8C59.7 159 60.3 159 60.6 158.7C60.8 158.6 60.8 158.4 60.8 158.1C60.8 157.8 60.7001 157.5 60.7001 157.2C60.6 156.6 60.5 155.9 60.3 155.4C60.1 154.8 59.6 154.5 59.1 154.5C58.5 154.5 58.0001 154.7 57.4001 154.8C56.3001 155.1 55.4 155.3 54.5 155.5C52.8 155.9 51.8 156.1 51.8 156C51.8 155.9 52.8001 155.6 54.4001 155.1C55.3001 154.9 56.2 154.6 57.3 154.3C57.8 154.2 58.4 153.9 59.1 153.9C59.4 153.9 59.8 154 60.1 154.2C60.4 154.4 60.6 154.8 60.8 155.1C61 155.8 61.1 156.4 61.2001 157.1C61.2001 157.4 61.3 157.7 61.3 158C61.4 158.3 61.2001 158.8 60.9001 159C60.3001 159.4 59.6 159.3 59.1 159.1C58.6 158.9 58.2 158.4 58.1 158H58.4001C57.9001 158.7 57.3001 159.1 56.9001 159.4C56.6001 159.7 56.3 159.8 56.3 159.8Z"
            fill="#EB996E" />
        <path
            d="M46.7 144.7C46.8 144.8 45.6 146.2 44.3 147.9C42.9 149.6 41.9 151.1 41.8 151C41.7 150.9 42.5 149.3 43.9 147.6C45.2 145.8 46.6 144.6 46.7 144.7Z"
            fill="#EB996E" />
        <path
            d="M48.9001 148.5C48.9001 148.6 47.8001 149 46.9001 150.2C46.0001 151.4 46.1001 152.6 45.9001 152.6C45.8001 152.6 45.7001 152.3 45.8001 151.8C45.8001 151.3 46.0001 150.6 46.5001 149.9C47.0001 149.3 47.6001 148.8 48.1001 148.6C48.6001 148.4 48.9001 148.4 48.9001 148.5Z"
            fill="#EB996E" />
        <path
            d="M107.6 67.8999C106.8 65.6999 107.1 63.1999 106.8 60.8999C106.1 55.7999 101.9 51.5999 97.2001 49.5999C92.8001 47.6999 87.3001 48.0999 82.0001 49.8999C78.3001 51.0999 74.9001 53.0999 72.4001 56.0999C69.1001 60.0999 68.0001 65.6999 69.4001 70.5999L95.7001 66.7999C98.2001 68.7999 100.7 70.8999 103.7 71.9999C104.6 72.2999 105.5 72.5999 106.4 72.3999C107.3 72.2999 108.2 71.5999 108.4 70.6999C108.6 69.7999 108 68.8999 107.6 67.8999Z"
            fill="#893976" />
        <path
            d="M91.3 48.3C97 47.3 102.1 49.5 106.9 52.8C111.7 56.1 115.4 60.9 117.5 66.4C119.7 72.1 120.3 80.4 118.6 86.3C116.9 92.2 112.7 96.5 107.3 98.4C99.4 101.2 90.2999 100.9 83.5999 95.8C76.8999 90.8 73.1 82.4 72.8 74C72.6 68.2 73.9999 62.3 77.1999 57.5C80.3999 52.8 85.6 49.2 91.3 48.3Z"
            fill="#893976" />
        <path
            d="M82.2 110.9L82.4 115.6L92.7 133.9L107.7 114.7L108.2 66.6999C108.2 64.4999 106.4 62.6999 104.2 62.4999L81.3 57.5999C74 57.0999 69.5 66.1999 69.3 73.5999C69.1 81.6999 69.2 91.6999 70.4 97.6999C72.8 109.7 82.2 110.9 82.2 110.9Z"
            fill="#FFBE9D" />
        <path
            d="M72.6 83.6C72.6 84.4 73.3 85.1 74.2 85.1C75.1 85.1 75.8 84.5 75.8 83.6C75.8 82.8 75.1 82.1 74.2 82.1C73.3 82.1 72.6 82.8 72.6 83.6Z"
            fill="#263238" />
        <path
            d="M71.7 78.2C71.9 78.4 73 77.5 74.7 77.4C76.4 77.3 77.6 78.1 77.8 77.9C77.9 77.8 77.7 77.4 77.1 77.1C76.6 76.7 75.6 76.4 74.6 76.4C73.6 76.4 72.7 76.9 72.2 77.3C71.7 77.7 71.6 78.1 71.7 78.2Z"
            fill="#263238" />
        <path
            d="M87.8999 83.3C87.8999 84.1 88.5999 84.8 89.4999 84.8C90.3999 84.8 91.0999 84.2 91.0999 83.3C91.0999 82.5 90.3999 81.8 89.4999 81.8C88.5999 81.8 87.8999 82.5 87.8999 83.3Z"
            fill="#263238" />
        <path
            d="M87.5999 77.8C87.7999 78 88.9999 77.1 90.5999 77C92.2999 76.9 93.4999 77.7 93.6999 77.5C93.7999 77.4 93.5999 77 92.9999 76.7C92.4999 76.3 91.4999 76 90.4999 76C89.4999 76 88.5999 76.5 88.0999 76.9C87.6999 77.4 87.4999 77.7 87.5999 77.8Z"
            fill="#263238" />
        <path
            d="M82.6001 90.6C82.6001 90.5 81.6001 90.4 79.9001 90.2C79.5001 90.2 79.1001 90.1 79.0001 89.8C78.9001 89.5 79.0001 89 79.2001 88.5C79.6001 87.4 79.9001 86.3 80.3001 85.2C81.9001 80.5 83.0001 76.6 82.8001 76.6C82.6001 76.5 81.2001 80.3 79.6001 85C79.2001 86.2 78.9001 87.3 78.5001 88.3C78.4001 88.8 78.1001 89.4 78.3001 90C78.4001 90.3 78.8001 90.5 79.0001 90.6C79.3001 90.7 79.5001 90.7 79.7001 90.7C81.5001 90.7 82.6001 90.7 82.6001 90.6Z"
            fill="#263238" />
        <path
            d="M82.2 110.9C82.2 110.9 90.4 110.7 98.3 105.6C98.3 105.6 94.5 114.2 82.3 113.5L82.2 110.9Z"
            fill="#EB996E" />
        <path
            d="M83.9001 94.2C84.6001 93.5 85.3001 93.3 86.3001 93.4C87.0001 93.5 87.4001 93.8 87.9001 94.4C88.4001 95 88.4001 96.1 88.0001 96.7C87.6001 97.4 86.6001 97.5 85.8001 97.3C85.0001 97.1 84.4001 96.9 83.7001 96.4C83.5001 96.3 83.4001 95.9 83.3001 95.7C83.2001 95 83.7001 94.4 83.9001 94.2Z"
            fill="#EB996E" />
        <path
            d="M87.7 73.9C87.9 74.3 89.6 74.1 91.5 74.2C93.5 74.3 95.1 74.8 95.3 74.4C95.4 74.2 95.1 73.8 94.5 73.4C93.8 73 92.8 72.6 91.6 72.5C90.4 72.4 89.3 72.6 88.6 73C88 73.3 87.6 73.7 87.7 73.9Z"
            fill="#263238" />
        <path
            d="M71.9 70.7999C72.2 71.1999 73.4 70.6999 74.7 70.6999C76.1 70.5999 77.3 70.8999 77.5 70.4999C77.6 70.2999 77.4 69.8999 76.9 69.5999C76.4 69.2999 75.5 68.9999 74.6 69.0999C73.6 69.1999 72.8 69.4999 72.4 69.9999C71.9 70.2999 71.8 70.6999 71.9 70.7999Z"
            fill="#263238" />
        <path
            d="M111.8 64.4C109.4 57.4 99.1 47.9 91.7 48.5L80.1 55.8C80.9 59.8 84 63.2 88 64.3C90.1 64.9 92.6 65 93.9 66.8C95.2 68.6 94.5 71.3 95.7 73.1C97.4 75.7 101.8 75.5 103.1 78.3C103.7 79.5 103.4 81 104 82.2C104.8 83.8 108.9 85.8 110.6 85.2C112.3 84.6 112.2 81.7 112.8 80.2C113.7 77.6 113.3 76.2 112.9 74.8C112.1 71.4 112.9 67.7 111.8 64.4Z"
            fill="#893976" />
        <path
            d="M105.5 86.8C105.5 85.9 106.4 83.7 107.3 83.5C109.7 83 114 83.1 114.3 89.1C114.7 97.4 106.3 96 106.2 95.8C106.3 95.7 105.7 89.9 105.5 86.8Z"
            fill="#FFBE9D" />
        <path
            d="M108.7 92.5999C108.7 92.5999 108.8 92.7 109.1 92.8C109.3 92.9 109.8 92.9999 110.2 92.8C111.1 92.4 111.7 90.9999 111.7 89.4999C111.7 88.6999 111.5 87.9999 111.2 87.3999C110.9 86.7999 110.5 86.4 110.1 86.3C109.7 86.2 109.4 86.4999 109.3 86.6999C109.2 86.8999 109.3 87.0999 109.2 87.0999C109.2 87.0999 109 86.9999 109.1 86.5999C109.1 86.3999 109.2 86.1999 109.4 86.0999C109.6 85.8999 109.9 85.7999 110.2 85.8999C110.8 85.8999 111.4 86.4999 111.8 87.0999C112.2 87.6999 112.4 88.4999 112.4 89.3999C112.4 91.0999 111.6 92.6999 110.5 93.0999C109.9 93.2999 109.4 93.0999 109.2 92.8999C108.7 92.7999 108.6 92.5999 108.7 92.5999Z"
            fill="#EB996E" />
        <path
            d="M119.3 75.3999C119.4 75.3999 119.6 74.4999 119.6 72.8999C119.6 71.2999 119.4 69.1999 118.7 66.8999C117.9 64.5999 116.8 62.7999 115.8 61.5999C114.8 60.3999 114.1 59.7999 114.1 59.7999C113.9 59.8999 116.7 62.6999 118.2 67.0999C119.7 71.5999 119.1 75.3999 119.3 75.3999Z"
            fill="#FF725E" />
        <path
            d="M82.5 53.2999C81.7 56.6999 76.6 60.9999 74.3 63.5999C70 68.5999 69.2 69.2999 69.2 84.4999C67.2 80.5999 65.6 73.8999 65.7 69.4999C65.9 65.0999 67.5 60.7999 70.5 57.5999C73.7 54.3999 78.2 52.5999 82.5 53.2999Z"
            fill="#893976" />
        <path
            d="M116 64.2999C116 64.2999 115.5 64.4999 114.6 64.5999C114.1 64.6999 113.6 64.7999 112.9 64.8999C112.2 64.9999 111.5 65.0999 110.7 65.1999C109 65.3999 107 65.3999 104.8 65.2999C102.6 65.0999 100.2 64.7999 97.7 64.1999C95.2 63.5999 92.9 62.7999 90.9 61.8999C88.9 60.9999 87.1 59.9999 85.7 59.0999C85 58.6999 84.4 58.1999 83.8 57.7999C83.3 57.3999 82.8 57.0999 82.4 56.7999C81.7 56.1999 81.3 55.8999 81.3 55.7999C81.3 55.7999 81.8 56.0999 82.5 56.5999C82.9 56.8999 83.3 57.1999 83.9 57.5999C84.5 57.9999 85.1 58.3999 85.8 58.7999C87.2 59.6999 89 60.5999 91 61.3999C93 62.1999 95.3 62.9999 97.8 63.6999C100.3 64.2999 102.6 64.5999 104.8 64.7999C107 64.9999 109 64.9999 110.6 64.8999C111.4 64.8999 112.2 64.7999 112.8 64.6999C113.5 64.5999 114 64.5999 114.5 64.4999C115.5 64.2999 116 64.1999 116 64.2999Z"
            fill="#682C5D" />
        <path
            d="M116.9 70.2C116.9 70.2 116.6 70.3 115.9 70.4C115.3 70.5 114.4 70.6 113.2 70.7C110.9 70.9 107.8 70.8 104.3 70.2C100.9 69.5 97.9 68.4 95.9 67.3C94.9 66.8 94.1 66.3 93.6 66C93.1 65.7 92.8 65.4 92.8 65.4C92.8 65.3 94 66.1 96.1 67C98.1 67.9 101.1 69 104.5 69.7C107.9 70.4 111 70.5 113.3 70.4C115.5 70.4 116.9 70.1 116.9 70.2Z"
            fill="#682C5D" />
        <path
            d="M119 70.3999C119 70.3999 119.2 70.7999 119.3 71.5999C119.4 72.3999 119.6 73.5999 119.6 75.0999C119.7 76.5999 119.7 78.2999 119.6 80.2999C119.5 82.1999 119.3 84.3999 118.7 86.5999C117.5 90.9999 114.7 94.2999 112.3 95.9999C111.1 96.7999 110 97.2999 109.2 97.6999C108.4 97.9999 108 98.0999 108 98.0999C108 98.0999 108.4 97.8999 109.1 97.4999C109.8 97.0999 110.9 96.5999 112.1 95.6999C113.3 94.8999 114.5 93.5999 115.6 92.0999C116.7 90.4999 117.7 88.6999 118.2 86.4999C118.7 84.3999 118.9 82.1999 119.1 80.2999C119.2 78.3999 119.2 76.5999 119.2 75.1999C119.2 73.6999 119.1 72.5999 119 71.6999C119 70.8999 119 70.3999 119 70.3999Z"
            fill="#682C5D" />
        <path
            d="M85.9 97.3C85.9 97.2 86.5 97.4 87.2 97C87.5 96.8 87.9 96.4 87.9 95.9C88 95.4 87.8 94.8 87.5 94.3C87.1 93.9 86.5 93.6 86 93.6C85.5 93.6 85 93.7 84.6 93.9C83.9 94.3 83.5 94.8 83.5 94.7C83.4 94.7 83.6 94.1 84.4 93.6C84.8 93.3 85.3 93.1 86 93.1C86.6 93.1 87.4 93.4 87.9 93.9C88.4 94.5 88.6 95.3 88.4 95.9C88.3 96.6 87.8 97 87.4 97.2C86.5 97.7 85.9 97.3 85.9 97.3Z"
            fill="#263238" />
        <path
            d="M137.1 165.6L141.6 156.1C142.3 153.1 145.4 152.1 149.1 151.9L153 150.3C153 150.3 155.9 146.2 158.5 146.2C158.9 146.2 159.3 146.5 159.4 146.9C159.5 147.2 159.4 147.5 159.3 147.7L156.1 152.6L153.5 153.9C153.5 153.9 155.9 154.5 156.8 153.6C157.7 152.7 161 150.2 161 150.2C161 150.2 163.4 145.8 166.6 146.1C167 146.1 167.2 146.6 167.1 147L164.7 151.7C164.7 151.7 169.1 145 173.4 147.5L168.7 152.6C168.7 152.6 175.5 148.7 178.2 152L160.9 159.1L151 161.1L147.5 170.5L144.4 168.8L137.1 165.6Z"
            fill="#FFBE9D" />
        <path
            d="M147.4 177.9C147.4 177.9 147.9 194.8 144.8 199.5C141.7 204.2 135.9 210.5 128.7 205.4L124.2 188.4C124.2 188.4 131.5 180.4 132.8 177.1C136.1 168.9 141.5 156.1 141.5 156.1L151 160.3L147.4 177.9Z"
            fill="#FFBE9D" />
        <path
            d="M134 175.5C134.1 175.5 133.6 176.3 132.9 177.6C132.2 178.9 131.3 180.7 130.3 182.7C129.4 184.7 128.6 186.6 128.1 188C127.6 189.4 127.3 190.2 127.2 190.2C127.1 190.2 127.3 189.3 127.8 187.9C128.2 186.5 128.9 184.6 129.9 182.5C130.8 180.4 131.8 178.7 132.6 177.4C133.3 176.2 133.9 175.5 134 175.5Z"
            fill="#EB996E" />
        <path
            d="M156 152.6C156.1 152.7 155 153.3 153.7 154C152.4 154.6 151.2 155 151.2 154.9C151.1 154.8 152.2 154.2 153.5 153.5C154.8 152.9 155.9 152.5 156 152.6Z"
            fill="#EB996E" />
        <path
            d="M157.4 157.1C157.4 157 157.8 156.7 158.7 156.4C159.2 156.2 159.7 156 160.1 155.8C160.4 155.7 160.7 155.6 160.9 155.4C161.2 155.3 161.4 155.2 161.6 154.9C162.5 153.9 163.2 152.9 163.8 152.2C164.4 151.5 164.8 151.1 164.8 151.2C164.8 151.2 164.7 151.3 164.6 151.5C164.4 151.8 164.2 152.1 164 152.4C163.5 153.1 162.9 154.2 161.9 155.2C161.8 155.3 161.7 155.5 161.5 155.6C161.3 155.7 161.2 155.8 161 155.8C160.7 155.9 160.4 156 160.1 156.1C159.5 156.3 159 156.5 158.6 156.6C158 157 157.5 157.1 157.4 157.1Z"
            fill="#EB996E" />
    </g>
    <defs>
        <clipPath id="clip0_1033:9176">
            <rect width="439.6" height="443.8" fill="white" />
        </clipPath>
    </defs>
</svg>
