<svg width="890" height="245" viewBox="0 0 890 245" fill="none" xmlns="http://www.w3.org/2000/svg">
<path fill-rule="evenodd" clip-rule="evenodd" d="M0 39.3996H150.048V71.6556H35.424V126.664H137.088V158.92H35.424V241H0V39.3996ZM227.592 88.9356V241H192.744V88.9356H227.592ZM323.246 127.528C316.91 134.056 313.742 143.272 313.742 155.176V241H278.894V88.9356H313.742V112.552C316.238 108.904 318.926 105.544 321.806 102.472C324.878 99.2076 328.334 96.3276 332.174 93.8316C336.206 91.3356 340.526 89.4156 345.134 88.0716C349.934 86.5356 355.31 85.7676 361.262 85.7676C378.542 85.7676 391.886 91.0476 401.294 101.608C410.702 112.168 415.406 126.376 415.406 144.232V241H380.558V154.6C380.558 142.696 377.678 133.576 371.918 127.24C366.35 120.712 358.382 117.448 348.014 117.448C337.838 117.448 329.582 120.808 323.246 127.528ZM546.192 118.888H505.296V193.48C505.296 200.2 506.928 205.096 510.192 208.168C513.456 211.048 518.064 212.488 524.016 212.488C531.504 212.488 538.704 210.76 545.616 207.304V235.816C541.2 238.312 536.496 240.232 531.504 241.576C526.512 242.92 520.752 243.592 514.224 243.592C507.888 243.592 502.032 242.824 496.656 241.288C491.28 239.752 486.576 237.256 482.544 233.8C478.704 230.344 475.728 225.832 473.616 220.264C471.504 214.504 470.448 207.4 470.448 198.952V118.888H451.152V88.9356H470.448V47.1756H505.296V88.9356H546.192V118.888ZM694.37 195.208L715.394 215.944C707.906 224.392 699.362 231.304 689.762 236.68C680.162 241.864 667.97 244.456 653.186 244.456C641.858 244.456 631.394 242.44 621.794 238.408C612.194 234.184 603.842 228.52 596.738 221.416C589.826 214.12 584.354 205.768 580.322 196.36C576.482 186.76 574.562 176.488 574.562 165.544C574.562 154.6 576.482 144.328 580.322 134.728C584.354 125.128 589.826 116.68 596.738 109.384C603.842 102.088 612.194 96.3276 621.794 92.1036C631.586 87.8796 642.146 85.7676 653.474 85.7676C667.874 85.7676 679.778 88.1676 689.186 92.9676C698.786 97.7676 707.138 104.104 714.242 111.976L692.642 135.304C687.266 129.736 681.506 125.224 675.362 121.768C669.41 118.12 662.018 116.296 653.186 116.296C646.85 116.296 640.994 117.64 635.618 120.328C630.242 122.824 625.634 126.28 621.794 130.696C617.954 135.112 614.882 140.296 612.578 146.248C610.466 152.008 609.41 158.248 609.41 164.968C609.41 171.88 610.466 178.312 612.578 184.264C614.882 190.216 618.05 195.4 622.082 199.816C626.114 204.232 630.914 207.784 636.482 210.472C642.05 212.968 648.194 214.216 654.914 214.216C663.17 214.216 670.37 212.488 676.514 209.032C682.85 205.384 688.802 200.776 694.37 195.208ZM797.557 127.528C791.221 134.056 788.053 143.272 788.053 155.176V241H753.205V30.7596H788.053V112.552C790.549 108.904 793.237 105.544 796.117 102.472C799.189 99.2076 802.645 96.3276 806.485 93.8316C810.517 91.3356 814.837 89.4156 819.445 88.0716C824.245 86.5356 829.621 85.7676 835.573 85.7676C852.853 85.7676 866.197 91.0476 875.605 101.608C885.013 112.168 889.717 126.376 889.717 144.232V241H854.869V154.6C854.869 142.696 851.989 133.576 846.229 127.24C840.661 120.712 832.693 117.448 822.325 117.448C812.149 117.448 803.893 120.808 797.557 127.528Z" fill="white"/>
<ellipse cx="208.996" cy="42.8636" rx="26" ry="26.1363" fill="#9D27B0"/>
<path d="M206.492 28.8279C207.406 26.6332 210.585 26.6332 211.499 28.8279L213.771 34.2817C214.158 35.2125 215.053 35.8478 216.078 35.9207L222.085 36.3478C224.502 36.5197 225.484 39.4752 223.632 41.0035L219.029 44.8013C218.243 45.4495 217.902 46.4773 218.148 47.4533L219.588 53.171C220.168 55.4719 217.597 57.2985 215.538 56.0484L210.421 52.9417C209.548 52.4115 208.443 52.4115 207.57 52.9417L202.453 56.0484C200.394 57.2985 197.823 55.4719 198.403 53.171L199.843 47.4533C200.089 46.4773 199.748 45.4495 198.962 44.8013L194.359 41.0035C192.507 39.4752 193.489 36.5197 195.906 36.3478L201.913 35.9207C202.939 35.8478 203.833 35.2125 204.22 34.2817L206.492 28.8279Z" fill="#FFDC00"/>
<path d="M208.996 2.09094V10.4546M196.516 4.18185V12.5455M221.476 4.18185V12.5455" stroke="#6A1B9A" stroke-width="4" stroke-linecap="round"/>
</svg>
