<svg width="118" height="130" viewBox="0 0 118 130" fill="none" xmlns="http://www.w3.org/2000/svg">
    <path
        d="M116.7 75C115.7 69.2 112.7 64.7 109.6 61L109.5 60.9C106.8 57.7 105.4 53.7 105.6 49.6C106.2 37.1 101.5 16 75.9 4.4C73.1 3.1 70.8 2.5 68.8 2.2C68.4 2 68 1.9 67.5 1.7C66 1.2 64.5 0.8 63 0.5C60.8 0.2 58.7 0 56.5 0C55.3 0 54.2 0.1 53.1 0.4C39.8 3.3 39.3 12.7 39.3 12.7C17.9 14.7 12.1 37.1 12.7 49.6C12.9 53.7 11.5 57.7 8.8 60.9L8.7 61C6.2 64 3.7 67.4 2.3 71.6C0.8 75.4 0 79.7 0 84.3C0 107.5 27.1 126.9 59.1 126.9C91.1 126.9 117.6 115 117.6 82.1C117.6 79.7 117.3 77.3 116.7 75Z"
        fill="#771CC6" />
    <path
        d="M90.4 114.7C72.3 107.4 66.3 98.3 67.8 85.3H56.7H55.4H47.9C49.4 98.4 43.5 107.4 25.2999 114.7C7.09995 122 4.69995 129.9 4.69995 129.9H53.2999H56.7H111C111 129.9 108.5 122 90.4 114.7Z"
        fill="#FFC444" />
    <path
        d="M76.8999 107.3C69.1999 101.4 66.6999 94.2 67.7999 85.2H56.6999H55.3999H47.8999C48.9999 94.2 46.3999 101.3 38.7999 107.3C38.7999 112.3 42.8999 116.4 47.8999 116.4H67.8999C72.8999 116.4 76.8999 112.4 76.8999 107.3Z"
        fill="#FF8482" />
    <path
        d="M57.3999 106.1C62.5999 106.1 67.5999 104.8 71.9999 102.4C68.1999 97.5 66.9999 91.9 67.7999 85.2H56.6999H55.3999H47.8999C48.6999 92 47.4999 97.8 43.4999 102.7C47.6999 104.9 52.3999 106.1 57.3999 106.1Z"
        fill="#FF5B59" />
    <path d="M39.6 111.2C41 114.3 44.2 116.4 47.8 116.4H67.8C71.4 116.4 74.6 114.3 76 111.2H39.6Z"
        fill="white" />
    <path
        d="M31.8 61.5C35.1 67.9 33.7 75.2 28.7 77.9C23.6 80.6 16.8 77.5 13.5 71.1C10.2 64.7 11.6 57.4 16.6 54.7C21.6 52.1 28.4 55.1 31.8 61.5Z"
        fill="#FF8482" />
    <path
        d="M28.8 73.7C28.8 73.4 28.7 73.2 28.7 73C28.7 73.2 28.8 73.3 28.8 73.5C28.8 72.2 28.6 71.1 28.2 70.3C25.6 59.5 15.4 58.4 15.4 58.4C20.5 61.5 23.7 64.9 25.7 67.7C22.1 66.2 16.4 69.4 16.4 69.4C23.1 67.6 26.1 69.1 27.5 70.8C28.6 72.6 28.8 73.7 28.8 73.7Z"
        fill="#FF5B59" />
    <path d="M27.3 74.7L45.2 68.9L40.2 40.3L26.4 38.6C16.6 61 27.3 74.7 27.3 74.7Z"
        fill="#771CC6" />
    <path
        d="M83.1 61.5C79.8 67.9 81.2 75.2 86.2 77.9C91.3 80.6 98.1 77.5 101.4 71.1C104.7 64.7 103.3 57.4 98.3 54.7C93.2 52.1 86.4 55.1 83.1 61.5Z"
        fill="#FF8482" />
    <path
        d="M86 73.7C86 73.4 86.1 73.2 86.1 73C86.1 73.2 86 73.3 86 73.5C86 72.2 86.2 71.1 86.6 70.3C89.2 59.5 99.4 58.4 99.4 58.4C94.3 61.5 91.1 64.9 89.1 67.7C92.7 66.2 98.4 69.4 98.4 69.4C91.7 67.6 88.7 69.1 87.3 70.8C86.3 72.6 86 73.7 86 73.7Z"
        fill="#FF5B59" />
    <path d="M87.6 74.7L69.7 68.9L74.7 40.3L88.5 38.6C98.2 61 87.6 74.7 87.6 74.7Z"
        fill="#771CC6" />
    <path
        d="M48.1 25.1C36.3 25.1 26.8 34.6 26.7 46.3L26.5 66.7C26.5 85.4 40.4 100.5 57.5 100.5C74.6 100.5 88.5 85.4 88.5 66.7L88.4 45C88.4 34 79.4 25 68.4 25H48.1V25.1Z"
        fill="#FDB193" />
    <path opacity="0.45"
        d="M48.1 25.1C36.3 25.1 26.8 34.6 26.7 46.3L26.5 66.7C26.5 85.4 40.4 100.5 57.5 100.5C74.6 100.5 88.5 85.4 88.5 66.7L88.4 45C88.4 34 79.4 25 68.4 25H48.1V25.1Z"
        fill="url(#paint0_linear)" />
    <path opacity="0.46"
        d="M57.7999 91.5C57.7999 91.5 64.7999 91.7 67.2999 87.1C67.2999 87 65.6999 95.5 57.7999 91.5Z"
        fill="#FDB193" />
    <path opacity="0.46"
        d="M88.4 45.1C88.4 34.1 79.4 25.1 68.4 25.1H48.1C36.3 25.1 26.8 34.6 26.7 46.3L26.6 59.7C32.5 57.1 42.8 50.9 47 37.1C47 37.1 62.7 55.4 88.5 59.8L88.4 45.1Z"
        fill="#FDB193" />
    <path
        d="M91.5 14.8C88.8 12.3 85.7 10 82.1 7.9V8C81.7 7.7 81.3 7.5 80.8 7.2C78.7 6 76.6 4.9 74.5 4C72.3 3.1 70.3 2.6 68.7 2.4C68.3 2.2 67.9 2.1 67.4 1.9C65.9 1.4 64.4 1 62.9 0.7C62.5 0.6 62.1 0.6 61.7 0.5C61.6 0.5 61.6 0.5 61.5 0.5C61.5 0.5 43.8 7.9 41.7 19.8L30 22.8L22.6 31.9L25.5 55C25.5 55 40.2 47.6 44.2 29.1C52.3 38.7 78.7 54.5 88.4 55.6L105 40.2C103.6 32.1 99.9 22.7 91.5 14.8Z"
        fill="#771CC6" />
    <path
        d="M57.4 95.1C46.3 95.1 36.5 90.2 30 82.5C35.2 93.2 45.5 100.5 57.4 100.5C69.3 100.5 79.6 93.2 84.8 82.5C78.4 90.3 68.5 95.1 57.4 95.1Z"
        fill="#FDD5C5" />
    <path
        d="M61.8 67.3C61.8 70.2 59.8 72.6 57.4 72.6C55 72.6 53 70.2 53 67.3C53 64.4 55 60.7 57.4 60.7C59.9 60.7 61.8 64.4 61.8 67.3Z"
        fill="#FF6A68" />
    <path
        d="M73.3999 57.9C73.3999 60.3 72.5999 62.3 71.5999 62.3C70.5999 62.3 69.7999 60.3 69.7999 57.9C69.7999 55.5 70.5999 53.5 71.5999 53.5C72.4999 53.5 73.3999 55.4 73.3999 57.9Z"
        fill="#25110D" />
    <path
        d="M80.1999 53C80.3999 52.9 70.1999 46.4 63.9999 46.7C63.8999 46.8 64.0999 41.1 72.4999 44.1C80.4999 47.4 80.0999 53.1 80.1999 53Z"
        fill="#53169B" />
    <path
        d="M41.4999 57.9C41.4999 60.3 42.2999 62.3 43.2999 62.3C44.2999 62.3 45.0999 60.3 45.0999 57.9C45.0999 55.5 44.2999 53.5 43.2999 53.5C42.2999 53.5 41.4999 55.4 41.4999 57.9Z"
        fill="#25110D" />
    <path
        d="M33.6999 53C33.4999 52.9 43.6999 46.4 49.8999 46.7C49.9999 46.8 49.7999 41.1 41.3999 44.1C33.3999 47.4 33.7999 53.1 33.6999 53Z"
        fill="#53169B" />
    <path
        d="M38.8999 72.8C38.7999 72.8 38.6999 72.8 38.4999 72.7C38.0999 72.5 37.8999 72 38.0999 71.6L40.6999 66.3C40.8999 65.9 41.3999 65.7 41.7999 65.9C42.1999 66.1 42.3999 66.6 42.1999 67L39.5999 72.3C39.4999 72.6 39.1999 72.8 38.8999 72.8Z"
        fill="#FF6A68" />
    <path
        d="M33.8 72.8C33.7 72.8 33.6 72.8 33.4 72.7C33 72.5 32.8 72 33 71.6L35.6 66.3C35.8 65.9 36.3 65.7 36.7 65.9C37.1 66.1 37.3 66.6 37.1 67L34.5 72.3C34.4 72.6 34.1 72.8 33.8 72.8Z"
        fill="#FF6A68" />
    <path
        d="M75.4999 72.8C75.1999 72.8 74.8999 72.6 74.7999 72.3L72.0999 67C71.8999 66.6 72.0999 66.1 72.4999 65.9C72.8999 65.7 73.3999 65.9 73.5999 66.3L76.1999 71.6C76.3999 72 76.1999 72.5 75.7999 72.7C75.6999 72.8 75.5999 72.8 75.4999 72.8Z"
        fill="#FF6A68" />
    <path
        d="M80.5999 72.8C80.2999 72.8 79.9999 72.6 79.8999 72.3L77.2999 67C77.0999 66.6 77.2999 66.1 77.6999 65.9C78.0999 65.7 78.5999 65.9 78.7999 66.3L81.3999 71.6C81.5999 72 81.3999 72.5 80.9999 72.7C80.7999 72.8 80.6999 72.8 80.5999 72.8Z"
        fill="#FF6A68" />
    <path
        d="M68.9001 75.6C69.2001 76.9 69.3 78.2 69.1 79.6C68.3 85.8 62.8 90.2 56.8 89.4C51.5 88.7 47.6 84.3 47.3 79.1L68.9001 75.6Z"
        fill="#230D09" />
    <path
        d="M56.8 89.5C54.9 89.3 53.2 88.6 51.8 87.5C53.4 82.8 58.5 79.7 64 80.4C65.7 80.6 67.3 81.2 68.6 82C66.9 86.9 62 90.1 56.8 89.5Z"
        fill="#E81A49" />
</svg>
